%TF.GenerationSoftware,KiCad,Pcbnew,7.0.9*%
%TF.CreationDate,2024-02-05T14:31:58+03:00*%
%TF.ProjectId,PowerBank,506f7765-7242-4616-9e6b-2e6b69636164,rev?*%
%TF.SameCoordinates,Original*%
%TF.FileFunction,Copper,L2,Bot*%
%TF.FilePolarity,Positive*%
%FSLAX46Y46*%
G04 Gerber Fmt 4.6, Leading zero omitted, Abs format (unit mm)*
G04 Created by KiCad (PCBNEW 7.0.9) date 2024-02-05 14:31:58*
%MOMM*%
%LPD*%
G01*
G04 APERTURE LIST*
%TA.AperFunction,ComponentPad*%
%ADD10R,1.700000X1.700000*%
%TD*%
%TA.AperFunction,ComponentPad*%
%ADD11O,1.700000X1.700000*%
%TD*%
%TA.AperFunction,SMDPad,CuDef*%
%ADD12R,1.600000X0.180000*%
%TD*%
%TA.AperFunction,SMDPad,CuDef*%
%ADD13R,2.000000X0.300000*%
%TD*%
%TA.AperFunction,ComponentPad*%
%ADD14C,0.500000*%
%TD*%
%TA.AperFunction,SMDPad,CuDef*%
%ADD15R,2.410000X3.100000*%
%TD*%
%TA.AperFunction,ComponentPad*%
%ADD16R,1.500000X1.600000*%
%TD*%
%TA.AperFunction,ComponentPad*%
%ADD17C,1.600000*%
%TD*%
%TA.AperFunction,ComponentPad*%
%ADD18C,3.000000*%
%TD*%
%TA.AperFunction,ViaPad*%
%ADD19C,0.800000*%
%TD*%
%TA.AperFunction,Conductor*%
%ADD20C,0.250000*%
%TD*%
%TA.AperFunction,Conductor*%
%ADD21C,1.000000*%
%TD*%
%TA.AperFunction,Conductor*%
%ADD22C,0.400000*%
%TD*%
G04 APERTURE END LIST*
D10*
%TO.P,J9,1,Pin_1*%
%TO.N,Net-(J9-Pin_1)*%
X59000000Y-48300000D03*
D11*
%TO.P,J9,2,Pin_2*%
%TO.N,+5VP*%
X56460000Y-48300000D03*
%TD*%
D10*
%TO.P,J7,1,Pin_1*%
%TO.N,Net-(D2-K)*%
X55800000Y-31460000D03*
D11*
%TO.P,J7,2,Pin_2*%
%TO.N,Net-(J7-Pin_2)*%
X55800000Y-34000000D03*
%TD*%
D12*
%TO.P,X1,A1,GND*%
%TO.N,GND*%
X30200000Y-50400000D03*
%TO.P,X1,A2,TX1+*%
%TO.N,unconnected-(X1-TX1+-PadA2)*%
X30200000Y-49900000D03*
%TO.P,X1,A3,TX1-*%
%TO.N,unconnected-(X1-TX1--PadA3)*%
X30200000Y-49400000D03*
%TO.P,X1,A4,VBUS*%
%TO.N,VBUS*%
X30200000Y-48900000D03*
%TO.P,X1,A5,CC1*%
%TO.N,unconnected-(X1-CC1-PadA5)*%
X30200000Y-48400000D03*
%TO.P,X1,A6,D+*%
%TO.N,unconnected-(X1-D+-PadA6)*%
X30200000Y-47900000D03*
%TO.P,X1,A7,D-*%
%TO.N,unconnected-(X1-D--PadA7)*%
X30200000Y-47400000D03*
%TO.P,X1,A8,SBU1*%
%TO.N,unconnected-(X1-SBU1-PadA8)*%
X30200000Y-46900000D03*
%TO.P,X1,A9,VBUS*%
%TO.N,VBUS*%
X30200000Y-46400000D03*
%TO.P,X1,A10,RX2-*%
%TO.N,unconnected-(X1-RX2--PadA10)*%
X30200000Y-45900000D03*
%TO.P,X1,A11,RX2+*%
%TO.N,unconnected-(X1-RX2+-PadA11)*%
X30200000Y-45400000D03*
%TO.P,X1,A12,GND*%
%TO.N,GND*%
X30200000Y-44900000D03*
D13*
%TO.P,X1,S3,SHIELD*%
X30400000Y-51900000D03*
%TO.P,X1,S4,SHIELD*%
X30400000Y-43400000D03*
%TD*%
D10*
%TO.P,J6,1,Pin_1*%
%TO.N,+5VP*%
X50900000Y-40275000D03*
D11*
%TO.P,J6,2,Pin_2*%
%TO.N,GND*%
X50900000Y-37735000D03*
%TD*%
D10*
%TO.P,J8,1,Pin_1*%
%TO.N,Net-(J8-Pin_1)*%
X57140000Y-40600000D03*
D11*
%TO.P,J8,2,Pin_2*%
%TO.N,+5VP*%
X54600000Y-40600000D03*
%TD*%
D10*
%TO.P,J3,1,Pin_1*%
%TO.N,Net-(J3-Pin_1)*%
X62700000Y-49195000D03*
D11*
%TO.P,J3,2,Pin_2*%
%TO.N,Net-(J3-Pin_2)*%
X62700000Y-51735000D03*
%TD*%
D10*
%TO.P,J4,1,Pin_1*%
%TO.N,Net-(J4-Pin_1)*%
X38600000Y-64000000D03*
D11*
%TO.P,J4,2,Pin_2*%
%TO.N,GND*%
X38600000Y-61460000D03*
%TD*%
D14*
%TO.P,U1,9,GND*%
%TO.N,GND*%
X45310000Y-56200000D03*
X45310000Y-54900000D03*
X45310000Y-53600000D03*
D15*
X44355000Y-54900000D03*
D14*
X43400000Y-56200000D03*
X43400000Y-54900000D03*
X43400000Y-53600000D03*
%TD*%
D10*
%TO.P,J5,1,Pin_1*%
%TO.N,Net-(J5-Pin_1)*%
X42400000Y-63875000D03*
D11*
%TO.P,J5,2,Pin_2*%
%TO.N,GND*%
X42400000Y-61335000D03*
%TD*%
D16*
%TO.P,J1,1,VBUS*%
%TO.N,+5VP*%
X34360000Y-29300000D03*
D17*
%TO.P,J1,2,D-*%
%TO.N,Net-(J1-D-)*%
X34360000Y-31800000D03*
%TO.P,J1,3,D+*%
%TO.N,Net-(J1-D+)*%
X34360000Y-33800000D03*
%TO.P,J1,4,GND*%
%TO.N,GND*%
X34360000Y-36300000D03*
D18*
%TO.P,J1,5,Shield*%
X31650000Y-26230000D03*
X31650000Y-39370000D03*
%TD*%
D10*
%TO.P,J2,1,Pin_1*%
%TO.N,Net-(J2-Pin_1)*%
X50800000Y-64000000D03*
D11*
%TO.P,J2,2,Pin_2*%
%TO.N,GND*%
X53340000Y-64000000D03*
%TD*%
D19*
%TO.N,GND*%
X53100000Y-35800000D03*
X55500000Y-38500000D03*
X61500000Y-46800000D03*
X61700000Y-45200000D03*
X58700000Y-44200000D03*
X61900000Y-43100000D03*
X58300000Y-42500000D03*
X55200000Y-24700000D03*
X59700000Y-23800000D03*
X57200000Y-26400000D03*
X60100000Y-25200000D03*
X56800000Y-24600000D03*
X54200000Y-25800000D03*
%TO.N,VBUS*%
X35000000Y-49600000D03*
%TO.N,GND*%
X74200000Y-23800000D03*
X44600000Y-62200000D03*
X70100000Y-56135000D03*
X33200000Y-35000000D03*
X35800000Y-63600000D03*
X33400000Y-41200000D03*
X45362500Y-44200000D03*
X66500000Y-57335000D03*
X44200000Y-59400000D03*
X45400000Y-48800000D03*
X51000000Y-47200000D03*
X37400000Y-59600000D03*
X56800000Y-19000000D03*
X58300000Y-54400000D03*
X30400000Y-42400000D03*
X35800000Y-35000000D03*
X58425000Y-65135000D03*
X72300000Y-63935000D03*
X53200000Y-38900000D03*
X56500000Y-62200000D03*
X39800000Y-54600000D03*
X59667766Y-56575500D03*
X77600000Y-31200000D03*
X53600000Y-45600000D03*
X46400000Y-28800000D03*
X74800000Y-28200000D03*
X74900000Y-41200000D03*
X67300000Y-22100000D03*
X33200000Y-37600000D03*
X71300000Y-42135000D03*
X34600000Y-52600000D03*
X71900000Y-65735000D03*
X67700000Y-56935000D03*
X77700000Y-54335000D03*
X40400000Y-49400000D03*
X69900000Y-49535000D03*
X71500000Y-56335000D03*
X59500000Y-53300000D03*
X52600000Y-49400000D03*
X52080675Y-54703168D03*
X72400000Y-62000000D03*
X69100000Y-63935000D03*
X67600000Y-30400000D03*
X57100000Y-53900000D03*
X39800000Y-52600000D03*
X38200000Y-49400000D03*
X42000000Y-47600000D03*
X40600000Y-62400000D03*
X71700000Y-53135000D03*
X51000000Y-44200000D03*
X37000000Y-52800000D03*
X50400000Y-30200000D03*
X66000000Y-65800000D03*
X32400000Y-43400000D03*
X54600000Y-62600000D03*
X64400000Y-56500000D03*
X55600000Y-35800000D03*
X50900000Y-35300000D03*
X77225000Y-58135000D03*
X52400000Y-66000000D03*
X56200000Y-60800000D03*
X53200000Y-23800000D03*
X36200000Y-32800000D03*
X52200000Y-36600000D03*
X58600000Y-50800000D03*
X76500000Y-60300000D03*
X45400000Y-52400000D03*
X46090077Y-58173953D03*
X67100000Y-46535000D03*
X44600000Y-58000000D03*
X43800000Y-49000000D03*
X58300000Y-55500000D03*
X39800000Y-44600000D03*
X64200000Y-30700000D03*
X37200000Y-44600000D03*
X52600000Y-59800000D03*
X69100000Y-56935000D03*
X35800000Y-23800000D03*
X30200000Y-53000000D03*
X42200000Y-44200000D03*
X67900000Y-54135000D03*
X54400000Y-54679000D03*
X60600000Y-66200000D03*
X66500000Y-58735000D03*
X29800000Y-41200000D03*
X55800000Y-65000000D03*
X52800000Y-42400000D03*
X32400000Y-51800000D03*
X43800000Y-42400000D03*
X35000000Y-60400000D03*
X41662015Y-59405426D03*
X75100000Y-45335000D03*
X49500000Y-36400000D03*
X69100000Y-65535000D03*
X54100000Y-48600000D03*
X57600000Y-46200000D03*
X64700000Y-54735000D03*
X29800000Y-37400000D03*
X78100000Y-61535000D03*
X76200000Y-57300000D03*
X40400000Y-39200000D03*
X57100000Y-64100000D03*
X40000000Y-19000000D03*
X45000000Y-23800000D03*
X45362500Y-47000000D03*
X52800000Y-62200000D03*
X49000000Y-19000000D03*
X35600000Y-42400000D03*
X55600000Y-54800000D03*
X30800000Y-59800000D03*
X39800000Y-59400000D03*
X69000000Y-45100000D03*
X66100000Y-60000000D03*
X58600000Y-52600000D03*
X35800000Y-37600000D03*
X56100000Y-63600000D03*
X71200000Y-18800000D03*
X42200000Y-45600000D03*
X64000000Y-19000000D03*
X51000000Y-45800000D03*
X40400000Y-27000000D03*
X50600000Y-32500000D03*
X43400000Y-58000000D03*
X50400000Y-25600000D03*
X48600000Y-38200000D03*
X35400000Y-47400000D03*
X76900000Y-41700000D03*
X43800000Y-52200000D03*
%TD*%
D20*
%TO.N,VBUS*%
X31800000Y-48400000D02*
X31600000Y-48600000D01*
X31300000Y-48900000D02*
X30200000Y-48900000D01*
X31600000Y-48600000D02*
X31300000Y-48900000D01*
X31250000Y-46400000D02*
X31800000Y-46950000D01*
D21*
X32600000Y-49600000D02*
X31800000Y-48800000D01*
X35000000Y-49600000D02*
X32600000Y-49600000D01*
D20*
X30200000Y-46400000D02*
X31250000Y-46400000D01*
X31800000Y-46950000D02*
X31800000Y-48400000D01*
D21*
X31800000Y-48800000D02*
X31800000Y-46950000D01*
D22*
%TO.N,GND*%
X30400000Y-50600000D02*
X30200000Y-50400000D01*
X30400000Y-44700000D02*
X30200000Y-44900000D01*
X30400000Y-43400000D02*
X30400000Y-44700000D01*
X30400000Y-51900000D02*
X30400000Y-50600000D01*
%TD*%
%TA.AperFunction,Conductor*%
%TO.N,GND*%
G36*
X78958691Y-16819407D02*
G01*
X78994655Y-16868907D01*
X78999500Y-16899500D01*
X78999500Y-66700500D01*
X78980593Y-66758691D01*
X78931093Y-66794655D01*
X78900500Y-66799500D01*
X29099500Y-66799500D01*
X29041309Y-66780593D01*
X29005345Y-66731093D01*
X29000500Y-66700500D01*
X29000500Y-63534932D01*
X30599500Y-63534932D01*
X30639719Y-63801766D01*
X30639721Y-63801776D01*
X30719262Y-64059641D01*
X30789664Y-64205833D01*
X30836349Y-64302774D01*
X30988365Y-64525741D01*
X30988368Y-64525744D01*
X30988370Y-64525747D01*
X31171912Y-64723559D01*
X31171918Y-64723565D01*
X31364665Y-64877275D01*
X31382898Y-64891815D01*
X31616602Y-65026743D01*
X31867805Y-65125334D01*
X32130897Y-65185383D01*
X32211587Y-65191429D01*
X32332618Y-65200500D01*
X32332624Y-65200500D01*
X32467382Y-65200500D01*
X32577408Y-65192254D01*
X32669103Y-65185383D01*
X32932195Y-65125334D01*
X33183398Y-65026743D01*
X33417102Y-64891815D01*
X33444776Y-64869746D01*
X37549500Y-64869746D01*
X37549501Y-64869758D01*
X37561132Y-64928227D01*
X37561134Y-64928233D01*
X37592228Y-64974767D01*
X37605448Y-64994552D01*
X37671769Y-65038867D01*
X37716231Y-65047711D01*
X37730241Y-65050498D01*
X37730246Y-65050498D01*
X37730252Y-65050500D01*
X37730253Y-65050500D01*
X39469747Y-65050500D01*
X39469748Y-65050500D01*
X39528231Y-65038867D01*
X39594552Y-64994552D01*
X39638867Y-64928231D01*
X39650500Y-64869748D01*
X39650500Y-64744746D01*
X41349500Y-64744746D01*
X41349501Y-64744758D01*
X41361132Y-64803227D01*
X41361133Y-64803231D01*
X41405448Y-64869552D01*
X41471769Y-64913867D01*
X41516231Y-64922711D01*
X41530241Y-64925498D01*
X41530246Y-64925498D01*
X41530252Y-64925500D01*
X41530253Y-64925500D01*
X43269747Y-64925500D01*
X43269748Y-64925500D01*
X43328231Y-64913867D01*
X43394262Y-64869746D01*
X49749500Y-64869746D01*
X49749501Y-64869758D01*
X49761132Y-64928227D01*
X49761134Y-64928233D01*
X49792228Y-64974767D01*
X49805448Y-64994552D01*
X49871769Y-65038867D01*
X49916231Y-65047711D01*
X49930241Y-65050498D01*
X49930246Y-65050498D01*
X49930252Y-65050500D01*
X49930253Y-65050500D01*
X51669747Y-65050500D01*
X51669748Y-65050500D01*
X51728231Y-65038867D01*
X51794552Y-64994552D01*
X51838867Y-64928231D01*
X51850500Y-64869748D01*
X51850500Y-64150001D01*
X52299692Y-64150001D01*
X52305191Y-64205833D01*
X52305190Y-64205833D01*
X52365232Y-64403762D01*
X52365234Y-64403767D01*
X52462724Y-64586160D01*
X52462731Y-64586170D01*
X52593940Y-64746050D01*
X52593949Y-64746059D01*
X52753829Y-64877268D01*
X52753839Y-64877275D01*
X52936232Y-64974765D01*
X52936237Y-64974767D01*
X53134166Y-65034808D01*
X53189998Y-65040307D01*
X53190000Y-65040306D01*
X53190000Y-64481170D01*
X53197685Y-64484680D01*
X53304237Y-64500000D01*
X53375763Y-64500000D01*
X53482315Y-64484680D01*
X53490000Y-64481170D01*
X53490000Y-65040306D01*
X53490001Y-65040307D01*
X53545833Y-65034808D01*
X53743762Y-64974767D01*
X53743767Y-64974765D01*
X53926160Y-64877275D01*
X53926170Y-64877268D01*
X54086050Y-64746059D01*
X54086059Y-64746050D01*
X54217268Y-64586170D01*
X54217275Y-64586160D01*
X54314765Y-64403767D01*
X54314767Y-64403762D01*
X54374808Y-64205833D01*
X54380307Y-64150001D01*
X54380306Y-64150000D01*
X53817065Y-64150000D01*
X53840000Y-64071889D01*
X53840000Y-63928111D01*
X53817065Y-63850000D01*
X54380306Y-63850000D01*
X54380307Y-63849998D01*
X54374808Y-63794166D01*
X54374809Y-63794166D01*
X54314767Y-63596237D01*
X54314765Y-63596232D01*
X54282000Y-63534932D01*
X73799500Y-63534932D01*
X73839719Y-63801766D01*
X73839721Y-63801776D01*
X73919262Y-64059641D01*
X73989664Y-64205833D01*
X74036349Y-64302774D01*
X74188365Y-64525741D01*
X74188368Y-64525744D01*
X74188370Y-64525747D01*
X74371912Y-64723559D01*
X74371918Y-64723565D01*
X74564665Y-64877275D01*
X74582898Y-64891815D01*
X74816602Y-65026743D01*
X75067805Y-65125334D01*
X75330897Y-65185383D01*
X75411587Y-65191429D01*
X75532618Y-65200500D01*
X75532624Y-65200500D01*
X75667382Y-65200500D01*
X75777408Y-65192254D01*
X75869103Y-65185383D01*
X76132195Y-65125334D01*
X76383398Y-65026743D01*
X76617102Y-64891815D01*
X76728180Y-64803233D01*
X76828081Y-64723565D01*
X76828087Y-64723559D01*
X77011629Y-64525747D01*
X77011635Y-64525741D01*
X77163651Y-64302775D01*
X77280738Y-64059641D01*
X77360280Y-63801772D01*
X77400500Y-63534929D01*
X77400500Y-63265071D01*
X77360280Y-62998228D01*
X77280738Y-62740359D01*
X77163651Y-62497226D01*
X77011635Y-62274259D01*
X77011629Y-62274252D01*
X76828087Y-62076440D01*
X76828081Y-62076434D01*
X76617110Y-61908191D01*
X76617108Y-61908189D01*
X76617102Y-61908185D01*
X76383398Y-61773257D01*
X76383395Y-61773256D01*
X76383391Y-61773254D01*
X76132197Y-61674666D01*
X75869107Y-61614618D01*
X75869098Y-61614616D01*
X75667382Y-61599500D01*
X75667376Y-61599500D01*
X75532624Y-61599500D01*
X75532618Y-61599500D01*
X75330901Y-61614616D01*
X75330892Y-61614618D01*
X75067802Y-61674666D01*
X74816608Y-61773254D01*
X74816599Y-61773258D01*
X74736194Y-61819680D01*
X74582898Y-61908185D01*
X74582894Y-61908187D01*
X74582894Y-61908188D01*
X74582889Y-61908191D01*
X74371918Y-62076434D01*
X74371912Y-62076440D01*
X74188370Y-62274252D01*
X74188365Y-62274258D01*
X74188365Y-62274259D01*
X74036349Y-62497225D01*
X74036349Y-62497226D01*
X74036345Y-62497232D01*
X73919262Y-62740356D01*
X73839721Y-62998223D01*
X73839719Y-62998233D01*
X73799500Y-63265067D01*
X73799500Y-63534932D01*
X54282000Y-63534932D01*
X54217275Y-63413839D01*
X54217268Y-63413829D01*
X54086059Y-63253949D01*
X54086050Y-63253940D01*
X53926170Y-63122731D01*
X53926160Y-63122724D01*
X53743767Y-63025234D01*
X53743762Y-63025232D01*
X53545843Y-62965194D01*
X53545832Y-62965191D01*
X53490000Y-62959692D01*
X53490000Y-63518829D01*
X53482315Y-63515320D01*
X53375763Y-63500000D01*
X53304237Y-63500000D01*
X53197685Y-63515320D01*
X53190000Y-63518829D01*
X53190000Y-62959692D01*
X53134167Y-62965191D01*
X53134156Y-62965194D01*
X52936237Y-63025232D01*
X52936232Y-63025234D01*
X52753839Y-63122724D01*
X52753829Y-63122731D01*
X52593949Y-63253940D01*
X52593940Y-63253949D01*
X52462731Y-63413829D01*
X52462724Y-63413839D01*
X52365234Y-63596232D01*
X52365232Y-63596237D01*
X52305191Y-63794166D01*
X52299692Y-63849998D01*
X52299694Y-63850000D01*
X52862935Y-63850000D01*
X52840000Y-63928111D01*
X52840000Y-64071889D01*
X52862935Y-64150000D01*
X52299694Y-64150000D01*
X52299692Y-64150001D01*
X51850500Y-64150001D01*
X51850500Y-63130252D01*
X51838867Y-63071769D01*
X51794552Y-63005448D01*
X51794548Y-63005445D01*
X51728233Y-62961134D01*
X51728231Y-62961133D01*
X51728228Y-62961132D01*
X51728227Y-62961132D01*
X51669758Y-62949501D01*
X51669748Y-62949500D01*
X49930252Y-62949500D01*
X49930251Y-62949500D01*
X49930241Y-62949501D01*
X49871772Y-62961132D01*
X49871766Y-62961134D01*
X49805451Y-63005445D01*
X49805445Y-63005451D01*
X49761134Y-63071766D01*
X49761132Y-63071772D01*
X49749501Y-63130241D01*
X49749500Y-63130253D01*
X49749500Y-64869746D01*
X43394262Y-64869746D01*
X43394552Y-64869552D01*
X43438867Y-64803231D01*
X43450500Y-64744748D01*
X43450500Y-63005252D01*
X43438867Y-62946769D01*
X43394552Y-62880448D01*
X43394548Y-62880445D01*
X43328233Y-62836134D01*
X43328231Y-62836133D01*
X43328228Y-62836132D01*
X43328227Y-62836132D01*
X43269758Y-62824501D01*
X43269748Y-62824500D01*
X41530252Y-62824500D01*
X41530251Y-62824500D01*
X41530241Y-62824501D01*
X41471772Y-62836132D01*
X41471766Y-62836134D01*
X41405451Y-62880445D01*
X41405445Y-62880451D01*
X41361134Y-62946766D01*
X41361132Y-62946772D01*
X41349501Y-63005241D01*
X41349500Y-63005253D01*
X41349500Y-64744746D01*
X39650500Y-64744746D01*
X39650500Y-63130252D01*
X39638867Y-63071769D01*
X39594552Y-63005448D01*
X39594548Y-63005445D01*
X39528233Y-62961134D01*
X39528231Y-62961133D01*
X39528228Y-62961132D01*
X39528227Y-62961132D01*
X39469758Y-62949501D01*
X39469748Y-62949500D01*
X37730252Y-62949500D01*
X37730251Y-62949500D01*
X37730241Y-62949501D01*
X37671772Y-62961132D01*
X37671766Y-62961134D01*
X37605451Y-63005445D01*
X37605445Y-63005451D01*
X37561134Y-63071766D01*
X37561132Y-63071772D01*
X37549501Y-63130241D01*
X37549500Y-63130253D01*
X37549500Y-64869746D01*
X33444776Y-64869746D01*
X33528180Y-64803233D01*
X33628081Y-64723565D01*
X33628087Y-64723559D01*
X33811629Y-64525747D01*
X33811635Y-64525741D01*
X33963651Y-64302775D01*
X34080738Y-64059641D01*
X34160280Y-63801772D01*
X34200500Y-63534929D01*
X34200500Y-63265071D01*
X34160280Y-62998228D01*
X34080738Y-62740359D01*
X33963651Y-62497226D01*
X33811635Y-62274259D01*
X33811629Y-62274252D01*
X33628087Y-62076440D01*
X33628081Y-62076434D01*
X33417110Y-61908191D01*
X33417108Y-61908189D01*
X33417102Y-61908185D01*
X33183398Y-61773257D01*
X33183395Y-61773256D01*
X33183391Y-61773254D01*
X32932197Y-61674666D01*
X32669107Y-61614618D01*
X32669098Y-61614616D01*
X32607513Y-61610001D01*
X37559692Y-61610001D01*
X37565191Y-61665833D01*
X37565190Y-61665833D01*
X37625232Y-61863762D01*
X37625234Y-61863767D01*
X37722724Y-62046160D01*
X37722731Y-62046170D01*
X37853940Y-62206050D01*
X37853949Y-62206059D01*
X38013829Y-62337268D01*
X38013839Y-62337275D01*
X38196232Y-62434765D01*
X38196237Y-62434767D01*
X38394166Y-62494808D01*
X38449998Y-62500307D01*
X38450000Y-62500306D01*
X38450000Y-61941170D01*
X38457685Y-61944680D01*
X38564237Y-61960000D01*
X38635763Y-61960000D01*
X38742315Y-61944680D01*
X38750000Y-61941170D01*
X38750000Y-62500306D01*
X38750001Y-62500307D01*
X38805833Y-62494808D01*
X39003762Y-62434767D01*
X39003767Y-62434765D01*
X39186160Y-62337275D01*
X39186170Y-62337268D01*
X39346050Y-62206059D01*
X39346059Y-62206050D01*
X39477268Y-62046170D01*
X39477275Y-62046160D01*
X39574765Y-61863767D01*
X39574767Y-61863762D01*
X39634808Y-61665833D01*
X39640307Y-61610001D01*
X39640306Y-61610000D01*
X39077065Y-61610000D01*
X39100000Y-61531889D01*
X39100000Y-61485001D01*
X41359692Y-61485001D01*
X41365191Y-61540833D01*
X41365190Y-61540833D01*
X41425232Y-61738762D01*
X41425234Y-61738767D01*
X41522724Y-61921160D01*
X41522731Y-61921170D01*
X41653940Y-62081050D01*
X41653949Y-62081059D01*
X41813829Y-62212268D01*
X41813839Y-62212275D01*
X41996232Y-62309765D01*
X41996237Y-62309767D01*
X42194166Y-62369808D01*
X42249998Y-62375307D01*
X42250000Y-62375306D01*
X42250000Y-61816170D01*
X42257685Y-61819680D01*
X42364237Y-61835000D01*
X42435763Y-61835000D01*
X42542315Y-61819680D01*
X42550000Y-61816170D01*
X42550000Y-62375306D01*
X42550001Y-62375307D01*
X42605833Y-62369808D01*
X42803762Y-62309767D01*
X42803767Y-62309765D01*
X42986160Y-62212275D01*
X42986170Y-62212268D01*
X43146050Y-62081059D01*
X43146059Y-62081050D01*
X43277268Y-61921170D01*
X43277275Y-61921160D01*
X43374765Y-61738767D01*
X43374767Y-61738762D01*
X43434808Y-61540833D01*
X43440307Y-61485001D01*
X43440306Y-61485000D01*
X42877065Y-61485000D01*
X42900000Y-61406889D01*
X42900000Y-61263111D01*
X42877065Y-61185000D01*
X43440306Y-61185000D01*
X43440307Y-61184998D01*
X43434808Y-61129166D01*
X43434809Y-61129166D01*
X43374767Y-60931237D01*
X43374765Y-60931232D01*
X43277275Y-60748839D01*
X43277268Y-60748829D01*
X43146059Y-60588949D01*
X43146050Y-60588940D01*
X42986170Y-60457731D01*
X42986160Y-60457724D01*
X42803767Y-60360234D01*
X42803762Y-60360232D01*
X42605843Y-60300194D01*
X42605832Y-60300191D01*
X42550000Y-60294692D01*
X42550000Y-60853829D01*
X42542315Y-60850320D01*
X42435763Y-60835000D01*
X42364237Y-60835000D01*
X42257685Y-60850320D01*
X42250000Y-60853829D01*
X42250000Y-60294692D01*
X42194167Y-60300191D01*
X42194156Y-60300194D01*
X41996237Y-60360232D01*
X41996232Y-60360234D01*
X41813839Y-60457724D01*
X41813829Y-60457731D01*
X41653949Y-60588940D01*
X41653940Y-60588949D01*
X41522731Y-60748829D01*
X41522724Y-60748839D01*
X41425234Y-60931232D01*
X41425232Y-60931237D01*
X41365191Y-61129166D01*
X41359692Y-61184998D01*
X41359694Y-61185000D01*
X41922935Y-61185000D01*
X41900000Y-61263111D01*
X41900000Y-61406889D01*
X41922935Y-61485000D01*
X41359694Y-61485000D01*
X41359692Y-61485001D01*
X39100000Y-61485001D01*
X39100000Y-61388111D01*
X39077065Y-61310000D01*
X39640306Y-61310000D01*
X39640307Y-61309998D01*
X39634808Y-61254166D01*
X39634809Y-61254166D01*
X39574767Y-61056237D01*
X39574765Y-61056232D01*
X39477275Y-60873839D01*
X39477268Y-60873829D01*
X39346059Y-60713949D01*
X39346050Y-60713940D01*
X39186170Y-60582731D01*
X39186160Y-60582724D01*
X39003767Y-60485234D01*
X39003762Y-60485232D01*
X38805843Y-60425194D01*
X38805832Y-60425191D01*
X38750000Y-60419692D01*
X38750000Y-60978829D01*
X38742315Y-60975320D01*
X38635763Y-60960000D01*
X38564237Y-60960000D01*
X38457685Y-60975320D01*
X38450000Y-60978829D01*
X38450000Y-60419692D01*
X38394167Y-60425191D01*
X38394156Y-60425194D01*
X38196237Y-60485232D01*
X38196232Y-60485234D01*
X38013839Y-60582724D01*
X38013829Y-60582731D01*
X37853949Y-60713940D01*
X37853940Y-60713949D01*
X37722731Y-60873829D01*
X37722724Y-60873839D01*
X37625234Y-61056232D01*
X37625232Y-61056237D01*
X37565191Y-61254166D01*
X37559692Y-61309998D01*
X37559694Y-61310000D01*
X38122935Y-61310000D01*
X38100000Y-61388111D01*
X38100000Y-61531889D01*
X38122935Y-61610000D01*
X37559694Y-61610000D01*
X37559692Y-61610001D01*
X32607513Y-61610001D01*
X32467382Y-61599500D01*
X32467376Y-61599500D01*
X32332624Y-61599500D01*
X32332618Y-61599500D01*
X32130901Y-61614616D01*
X32130892Y-61614618D01*
X31867802Y-61674666D01*
X31616608Y-61773254D01*
X31616599Y-61773258D01*
X31536194Y-61819680D01*
X31382898Y-61908185D01*
X31382894Y-61908187D01*
X31382894Y-61908188D01*
X31382889Y-61908191D01*
X31171918Y-62076434D01*
X31171912Y-62076440D01*
X30988370Y-62274252D01*
X30988365Y-62274258D01*
X30988365Y-62274259D01*
X30836349Y-62497225D01*
X30836349Y-62497226D01*
X30836345Y-62497232D01*
X30719262Y-62740356D01*
X30639721Y-62998223D01*
X30639719Y-62998233D01*
X30599500Y-63265067D01*
X30599500Y-63534932D01*
X29000500Y-63534932D01*
X29000500Y-56200000D01*
X42945373Y-56200000D01*
X42948992Y-56225168D01*
X42950000Y-56239259D01*
X42950000Y-56469700D01*
X42961603Y-56528036D01*
X43005806Y-56594189D01*
X43005810Y-56594193D01*
X43071963Y-56638396D01*
X43130299Y-56649999D01*
X43130303Y-56650000D01*
X44204999Y-56650000D01*
X44205000Y-56649999D01*
X44505000Y-56649999D01*
X44505001Y-56650000D01*
X45579697Y-56650000D01*
X45579700Y-56649999D01*
X45638036Y-56638396D01*
X45704189Y-56594193D01*
X45704193Y-56594189D01*
X45748396Y-56528036D01*
X45759999Y-56469700D01*
X45760000Y-56469697D01*
X45760000Y-56239259D01*
X45761008Y-56225168D01*
X45764627Y-56200000D01*
X45764627Y-56199998D01*
X45761008Y-56174830D01*
X45760000Y-56160740D01*
X45760000Y-55050001D01*
X45759999Y-55050000D01*
X44505001Y-55050000D01*
X44505000Y-55050001D01*
X44505000Y-56649999D01*
X44205000Y-56649999D01*
X44205000Y-55050001D01*
X44204999Y-55050000D01*
X42950001Y-55050000D01*
X42950000Y-55050001D01*
X42950000Y-56160740D01*
X42948992Y-56174830D01*
X42945373Y-56199998D01*
X42945373Y-56200000D01*
X29000500Y-56200000D01*
X29000500Y-54932492D01*
X43300000Y-54932492D01*
X43338197Y-54985065D01*
X43384162Y-55000000D01*
X43415838Y-55000000D01*
X43461803Y-54985065D01*
X43500000Y-54932492D01*
X45210000Y-54932492D01*
X45248197Y-54985065D01*
X45294162Y-55000000D01*
X45325838Y-55000000D01*
X45371803Y-54985065D01*
X45410000Y-54932492D01*
X45410000Y-54867508D01*
X45371803Y-54814935D01*
X45325838Y-54800000D01*
X45294162Y-54800000D01*
X45248197Y-54814935D01*
X45210000Y-54867508D01*
X45210000Y-54932492D01*
X43500000Y-54932492D01*
X43500000Y-54867508D01*
X43461803Y-54814935D01*
X43415838Y-54800000D01*
X43384162Y-54800000D01*
X43338197Y-54814935D01*
X43300000Y-54867508D01*
X43300000Y-54932492D01*
X29000500Y-54932492D01*
X29000500Y-53600000D01*
X42945373Y-53600000D01*
X42948992Y-53625168D01*
X42950000Y-53639259D01*
X42950000Y-54749999D01*
X42950001Y-54750000D01*
X44204999Y-54750000D01*
X44205000Y-54749999D01*
X44505000Y-54749999D01*
X44505001Y-54750000D01*
X45759999Y-54750000D01*
X45760000Y-54749999D01*
X45760000Y-53639259D01*
X45761008Y-53625168D01*
X45764627Y-53600000D01*
X45764627Y-53599998D01*
X45761008Y-53574830D01*
X45760000Y-53560740D01*
X45760000Y-53330302D01*
X45759999Y-53330299D01*
X45748396Y-53271963D01*
X45704193Y-53205810D01*
X45704189Y-53205806D01*
X45638036Y-53161603D01*
X45579700Y-53150000D01*
X44505001Y-53150000D01*
X44505000Y-53150001D01*
X44505000Y-54749999D01*
X44205000Y-54749999D01*
X44205000Y-53150001D01*
X44204999Y-53150000D01*
X43130299Y-53150000D01*
X43071963Y-53161603D01*
X43005810Y-53205806D01*
X43005806Y-53205810D01*
X42961603Y-53271963D01*
X42950000Y-53330299D01*
X42950000Y-53560740D01*
X42948992Y-53574830D01*
X42945373Y-53599998D01*
X42945373Y-53600000D01*
X29000500Y-53600000D01*
X29000500Y-52069700D01*
X29200000Y-52069700D01*
X29211603Y-52128036D01*
X29255806Y-52194189D01*
X29255810Y-52194193D01*
X29321963Y-52238396D01*
X29380299Y-52249999D01*
X29380303Y-52250000D01*
X30249999Y-52250000D01*
X30250000Y-52249999D01*
X30550000Y-52249999D01*
X30550001Y-52250000D01*
X31419697Y-52250000D01*
X31419700Y-52249999D01*
X31478036Y-52238396D01*
X31544189Y-52194193D01*
X31544193Y-52194189D01*
X31588396Y-52128036D01*
X31599999Y-52069700D01*
X31600000Y-52069697D01*
X31600000Y-52050001D01*
X31599999Y-52050000D01*
X30550001Y-52050000D01*
X30550000Y-52050001D01*
X30550000Y-52249999D01*
X30250000Y-52249999D01*
X30250000Y-52050001D01*
X30249999Y-52050000D01*
X29200001Y-52050000D01*
X29200000Y-52050001D01*
X29200000Y-52069700D01*
X29000500Y-52069700D01*
X29000500Y-51749999D01*
X29200000Y-51749999D01*
X29200001Y-51750000D01*
X30249999Y-51750000D01*
X30250000Y-51749999D01*
X30550000Y-51749999D01*
X30550001Y-51750000D01*
X31599999Y-51750000D01*
X31600000Y-51749999D01*
X31600000Y-51735003D01*
X61644417Y-51735003D01*
X61664698Y-51940929D01*
X61664699Y-51940934D01*
X61724768Y-52138954D01*
X61822316Y-52321452D01*
X61953585Y-52481404D01*
X61953590Y-52481410D01*
X61953595Y-52481414D01*
X62113547Y-52612683D01*
X62113548Y-52612683D01*
X62113550Y-52612685D01*
X62296046Y-52710232D01*
X62433997Y-52752078D01*
X62494065Y-52770300D01*
X62494070Y-52770301D01*
X62699997Y-52790583D01*
X62700000Y-52790583D01*
X62700003Y-52790583D01*
X62905929Y-52770301D01*
X62905934Y-52770300D01*
X63103954Y-52710232D01*
X63286450Y-52612685D01*
X63446410Y-52481410D01*
X63577685Y-52321450D01*
X63675232Y-52138954D01*
X63735300Y-51940934D01*
X63735301Y-51940929D01*
X63755583Y-51735003D01*
X63755583Y-51734996D01*
X63735301Y-51529070D01*
X63735300Y-51529065D01*
X63717078Y-51468997D01*
X63675232Y-51331046D01*
X63577685Y-51148550D01*
X63446410Y-50988590D01*
X63446404Y-50988585D01*
X63286452Y-50857316D01*
X63103954Y-50759768D01*
X62905934Y-50699699D01*
X62905929Y-50699698D01*
X62700003Y-50679417D01*
X62699997Y-50679417D01*
X62494070Y-50699698D01*
X62494065Y-50699699D01*
X62296045Y-50759768D01*
X62113547Y-50857316D01*
X61953595Y-50988585D01*
X61953585Y-50988595D01*
X61822316Y-51148547D01*
X61724768Y-51331045D01*
X61664699Y-51529065D01*
X61664698Y-51529070D01*
X61644417Y-51734996D01*
X61644417Y-51735003D01*
X31600000Y-51735003D01*
X31600000Y-51730302D01*
X31599999Y-51730299D01*
X31588396Y-51671963D01*
X31544193Y-51605810D01*
X31544189Y-51605806D01*
X31478036Y-51561603D01*
X31419700Y-51550000D01*
X30550001Y-51550000D01*
X30550000Y-51550001D01*
X30550000Y-51749999D01*
X30250000Y-51749999D01*
X30250000Y-51550001D01*
X30249999Y-51550000D01*
X29380299Y-51550000D01*
X29321963Y-51561603D01*
X29255810Y-51605806D01*
X29255806Y-51605810D01*
X29211603Y-51671963D01*
X29200000Y-51730299D01*
X29200000Y-51749999D01*
X29000500Y-51749999D01*
X29000500Y-50009746D01*
X29199500Y-50009746D01*
X29199501Y-50009758D01*
X29210440Y-50064746D01*
X29211133Y-50068231D01*
X29211134Y-50068232D01*
X29229319Y-50095448D01*
X29245927Y-50154336D01*
X29229320Y-50205449D01*
X29211603Y-50231964D01*
X29200000Y-50290299D01*
X29200000Y-50509700D01*
X29211603Y-50568036D01*
X29255806Y-50634189D01*
X29255810Y-50634193D01*
X29321963Y-50678396D01*
X29380299Y-50689999D01*
X29380303Y-50690000D01*
X31019697Y-50690000D01*
X31019700Y-50689999D01*
X31078036Y-50678396D01*
X31144189Y-50634193D01*
X31144193Y-50634189D01*
X31188396Y-50568036D01*
X31199999Y-50509700D01*
X31200000Y-50509697D01*
X31200000Y-50290302D01*
X31199999Y-50290299D01*
X31188396Y-50231964D01*
X31170680Y-50205450D01*
X31154072Y-50146562D01*
X31170682Y-50095446D01*
X31180759Y-50080365D01*
X31188867Y-50068231D01*
X31200500Y-50009748D01*
X31200500Y-49790252D01*
X31188867Y-49731769D01*
X31170981Y-49705001D01*
X31154372Y-49646115D01*
X31170982Y-49594997D01*
X31188867Y-49568231D01*
X31200500Y-49509748D01*
X31200500Y-49430165D01*
X31219407Y-49371974D01*
X31268907Y-49336010D01*
X31330093Y-49336010D01*
X31369504Y-49360161D01*
X32088654Y-50079312D01*
X32090704Y-50081489D01*
X32132065Y-50128177D01*
X32132067Y-50128179D01*
X32132071Y-50128183D01*
X32183445Y-50163644D01*
X32185832Y-50165402D01*
X32234940Y-50203876D01*
X32234942Y-50203876D01*
X32234944Y-50203878D01*
X32245449Y-50208606D01*
X32246247Y-50208965D01*
X32261856Y-50217768D01*
X32267967Y-50221986D01*
X32272070Y-50224818D01*
X32330421Y-50246947D01*
X32333145Y-50248075D01*
X32390069Y-50273695D01*
X32402279Y-50275932D01*
X32419529Y-50280741D01*
X32431128Y-50285140D01*
X32493070Y-50292660D01*
X32495985Y-50293104D01*
X32557394Y-50304358D01*
X32619693Y-50300589D01*
X32622659Y-50300500D01*
X35042368Y-50300500D01*
X35042372Y-50300500D01*
X35042378Y-50300499D01*
X35042381Y-50300499D01*
X35052048Y-50299325D01*
X35168872Y-50285140D01*
X35327930Y-50224818D01*
X35467929Y-50128183D01*
X35524129Y-50064746D01*
X61649500Y-50064746D01*
X61649501Y-50064758D01*
X61661132Y-50123227D01*
X61661134Y-50123233D01*
X61688694Y-50164479D01*
X61705448Y-50189552D01*
X61771769Y-50233867D01*
X61816231Y-50242711D01*
X61830241Y-50245498D01*
X61830246Y-50245498D01*
X61830252Y-50245500D01*
X61830253Y-50245500D01*
X63569747Y-50245500D01*
X63569748Y-50245500D01*
X63628231Y-50233867D01*
X63694552Y-50189552D01*
X63738867Y-50123231D01*
X63750500Y-50064748D01*
X63750500Y-48325252D01*
X63738867Y-48266769D01*
X63694552Y-48200448D01*
X63642172Y-48165448D01*
X63628233Y-48156134D01*
X63628231Y-48156133D01*
X63628228Y-48156132D01*
X63628227Y-48156132D01*
X63569758Y-48144501D01*
X63569748Y-48144500D01*
X61830252Y-48144500D01*
X61830251Y-48144500D01*
X61830241Y-48144501D01*
X61771772Y-48156132D01*
X61771766Y-48156134D01*
X61705451Y-48200445D01*
X61705445Y-48200451D01*
X61661134Y-48266766D01*
X61661132Y-48266772D01*
X61649501Y-48325241D01*
X61649500Y-48325253D01*
X61649500Y-50064746D01*
X35524129Y-50064746D01*
X35580734Y-50000852D01*
X35659790Y-49850225D01*
X35700500Y-49685056D01*
X35700500Y-49514944D01*
X35659790Y-49349775D01*
X35580734Y-49199148D01*
X35467929Y-49071817D01*
X35327930Y-48975182D01*
X35168872Y-48914860D01*
X35156222Y-48913324D01*
X35042381Y-48899500D01*
X35042372Y-48899500D01*
X32931165Y-48899500D01*
X32872974Y-48880593D01*
X32861161Y-48870504D01*
X32529496Y-48538839D01*
X32501719Y-48484322D01*
X32500500Y-48468835D01*
X32500500Y-48300003D01*
X55404417Y-48300003D01*
X55424698Y-48505929D01*
X55424699Y-48505934D01*
X55484768Y-48703954D01*
X55582316Y-48886452D01*
X55713585Y-49046404D01*
X55713590Y-49046410D01*
X55713595Y-49046414D01*
X55873547Y-49177683D01*
X55873548Y-49177683D01*
X55873550Y-49177685D01*
X56056046Y-49275232D01*
X56193997Y-49317078D01*
X56254065Y-49335300D01*
X56254070Y-49335301D01*
X56459997Y-49355583D01*
X56460000Y-49355583D01*
X56460003Y-49355583D01*
X56665929Y-49335301D01*
X56665934Y-49335300D01*
X56863954Y-49275232D01*
X57046450Y-49177685D01*
X57056124Y-49169746D01*
X57949500Y-49169746D01*
X57949501Y-49169758D01*
X57961132Y-49228227D01*
X57961134Y-49228233D01*
X58002575Y-49290253D01*
X58005448Y-49294552D01*
X58071769Y-49338867D01*
X58116231Y-49347711D01*
X58130241Y-49350498D01*
X58130246Y-49350498D01*
X58130252Y-49350500D01*
X58130253Y-49350500D01*
X59869747Y-49350500D01*
X59869748Y-49350500D01*
X59928231Y-49338867D01*
X59994552Y-49294552D01*
X60038867Y-49228231D01*
X60050500Y-49169748D01*
X60050500Y-47430252D01*
X60048921Y-47422316D01*
X60047711Y-47416231D01*
X60038867Y-47371769D01*
X59994552Y-47305448D01*
X59994548Y-47305445D01*
X59928233Y-47261134D01*
X59928231Y-47261133D01*
X59928228Y-47261132D01*
X59928227Y-47261132D01*
X59869758Y-47249501D01*
X59869748Y-47249500D01*
X58130252Y-47249500D01*
X58130251Y-47249500D01*
X58130241Y-47249501D01*
X58071772Y-47261132D01*
X58071766Y-47261134D01*
X58005451Y-47305445D01*
X58005445Y-47305451D01*
X57961134Y-47371766D01*
X57961132Y-47371772D01*
X57949501Y-47430241D01*
X57949500Y-47430253D01*
X57949500Y-49169746D01*
X57056124Y-49169746D01*
X57206410Y-49046410D01*
X57337685Y-48886450D01*
X57435232Y-48703954D01*
X57495300Y-48505934D01*
X57495301Y-48505929D01*
X57515583Y-48300003D01*
X57515583Y-48299996D01*
X57495301Y-48094070D01*
X57495300Y-48094065D01*
X57469722Y-48009746D01*
X57435232Y-47896046D01*
X57337685Y-47713550D01*
X57272853Y-47634552D01*
X57206414Y-47553595D01*
X57206410Y-47553590D01*
X57206404Y-47553585D01*
X57046452Y-47422316D01*
X56863954Y-47324768D01*
X56665934Y-47264699D01*
X56665929Y-47264698D01*
X56460003Y-47244417D01*
X56459997Y-47244417D01*
X56254070Y-47264698D01*
X56254065Y-47264699D01*
X56056045Y-47324768D01*
X55873547Y-47422316D01*
X55713595Y-47553585D01*
X55713585Y-47553595D01*
X55582316Y-47713547D01*
X55484768Y-47896045D01*
X55424699Y-48094065D01*
X55424698Y-48094070D01*
X55404417Y-48299996D01*
X55404417Y-48300003D01*
X32500500Y-48300003D01*
X32500500Y-46907631D01*
X32500499Y-46907618D01*
X32497789Y-46885301D01*
X32485140Y-46781128D01*
X32424818Y-46622070D01*
X32328183Y-46482071D01*
X32200852Y-46369266D01*
X32050225Y-46290210D01*
X32050224Y-46290209D01*
X32050223Y-46290209D01*
X31885058Y-46249500D01*
X31885056Y-46249500D01*
X31714944Y-46249500D01*
X31644710Y-46266810D01*
X31583685Y-46262376D01*
X31551016Y-46240690D01*
X31491741Y-46181414D01*
X31488822Y-46178229D01*
X31462456Y-46146806D01*
X31439818Y-46133736D01*
X31426918Y-46126288D01*
X31423288Y-46123975D01*
X31389684Y-46100446D01*
X31389679Y-46100443D01*
X31388224Y-46100054D01*
X31364348Y-46090164D01*
X31363045Y-46089411D01*
X31322652Y-46082289D01*
X31318439Y-46081355D01*
X31278807Y-46070736D01*
X31273877Y-46069415D01*
X31222563Y-46036091D01*
X31200636Y-45978969D01*
X31200500Y-45973788D01*
X31200500Y-45790253D01*
X31200498Y-45790241D01*
X31197711Y-45776231D01*
X31188867Y-45731769D01*
X31170981Y-45705001D01*
X31154372Y-45646115D01*
X31170982Y-45594997D01*
X31188867Y-45568231D01*
X31200500Y-45509748D01*
X31200500Y-45290252D01*
X31188867Y-45231769D01*
X31170680Y-45204550D01*
X31154072Y-45145664D01*
X31170681Y-45094547D01*
X31188396Y-45068034D01*
X31199999Y-45009700D01*
X31200000Y-45009697D01*
X31200000Y-44790302D01*
X31199999Y-44790299D01*
X31188396Y-44731963D01*
X31144193Y-44665810D01*
X31144189Y-44665806D01*
X31078036Y-44621603D01*
X31019700Y-44610000D01*
X29380299Y-44610000D01*
X29321963Y-44621603D01*
X29255810Y-44665806D01*
X29255806Y-44665810D01*
X29211603Y-44731963D01*
X29200000Y-44790299D01*
X29200000Y-45009700D01*
X29211603Y-45068035D01*
X29229319Y-45094549D01*
X29245927Y-45153437D01*
X29229319Y-45204550D01*
X29211135Y-45231764D01*
X29211132Y-45231772D01*
X29199501Y-45290241D01*
X29199500Y-45290253D01*
X29199500Y-45509746D01*
X29199501Y-45509758D01*
X29211132Y-45568227D01*
X29211133Y-45568231D01*
X29211134Y-45568232D01*
X29229019Y-45594999D01*
X29245627Y-45653887D01*
X29229019Y-45705001D01*
X29211134Y-45731767D01*
X29211132Y-45731772D01*
X29199501Y-45790241D01*
X29199500Y-45790253D01*
X29199500Y-46009746D01*
X29199501Y-46009758D01*
X29211132Y-46068227D01*
X29211133Y-46068231D01*
X29224934Y-46088885D01*
X29229019Y-46094999D01*
X29245627Y-46153887D01*
X29229019Y-46205001D01*
X29211134Y-46231767D01*
X29211132Y-46231772D01*
X29199501Y-46290241D01*
X29199500Y-46290253D01*
X29199500Y-46509746D01*
X29199501Y-46509758D01*
X29211132Y-46568227D01*
X29211133Y-46568231D01*
X29211134Y-46568232D01*
X29229019Y-46594999D01*
X29245627Y-46653887D01*
X29229019Y-46705001D01*
X29211134Y-46731767D01*
X29211132Y-46731772D01*
X29199501Y-46790241D01*
X29199500Y-46790253D01*
X29199500Y-47009746D01*
X29199501Y-47009758D01*
X29211132Y-47068227D01*
X29211133Y-47068231D01*
X29211134Y-47068232D01*
X29229019Y-47094999D01*
X29245627Y-47153887D01*
X29229019Y-47205001D01*
X29211134Y-47231767D01*
X29211132Y-47231772D01*
X29199501Y-47290241D01*
X29199500Y-47290253D01*
X29199500Y-47509746D01*
X29199501Y-47509758D01*
X29211132Y-47568227D01*
X29211133Y-47568231D01*
X29211134Y-47568232D01*
X29229019Y-47594999D01*
X29245627Y-47653887D01*
X29229019Y-47705001D01*
X29211134Y-47731767D01*
X29211132Y-47731772D01*
X29199501Y-47790241D01*
X29199500Y-47790253D01*
X29199500Y-48009746D01*
X29199501Y-48009758D01*
X29211132Y-48068227D01*
X29211133Y-48068231D01*
X29211134Y-48068232D01*
X29229019Y-48094999D01*
X29245627Y-48153887D01*
X29229019Y-48205001D01*
X29211134Y-48231767D01*
X29211132Y-48231772D01*
X29199501Y-48290241D01*
X29199500Y-48290253D01*
X29199500Y-48509746D01*
X29199501Y-48509758D01*
X29211132Y-48568227D01*
X29211133Y-48568231D01*
X29211134Y-48568232D01*
X29229019Y-48594999D01*
X29245627Y-48653887D01*
X29229019Y-48705001D01*
X29211134Y-48731767D01*
X29211132Y-48731772D01*
X29199501Y-48790241D01*
X29199500Y-48790253D01*
X29199500Y-49009746D01*
X29199501Y-49009758D01*
X29206793Y-49046414D01*
X29211133Y-49068231D01*
X29213529Y-49071817D01*
X29229019Y-49094999D01*
X29245627Y-49153887D01*
X29229019Y-49205001D01*
X29211134Y-49231767D01*
X29211132Y-49231772D01*
X29199501Y-49290241D01*
X29199500Y-49290253D01*
X29199500Y-49509746D01*
X29199501Y-49509758D01*
X29211132Y-49568227D01*
X29211133Y-49568231D01*
X29211134Y-49568232D01*
X29229019Y-49594999D01*
X29245627Y-49653887D01*
X29229019Y-49705001D01*
X29211134Y-49731767D01*
X29211132Y-49731772D01*
X29199501Y-49790241D01*
X29199500Y-49790253D01*
X29199500Y-50009746D01*
X29000500Y-50009746D01*
X29000500Y-43569700D01*
X29200000Y-43569700D01*
X29211603Y-43628036D01*
X29255806Y-43694189D01*
X29255810Y-43694193D01*
X29321963Y-43738396D01*
X29380299Y-43749999D01*
X29380303Y-43750000D01*
X30249999Y-43750000D01*
X30250000Y-43749999D01*
X30550000Y-43749999D01*
X30550001Y-43750000D01*
X31419697Y-43750000D01*
X31419700Y-43749999D01*
X31478036Y-43738396D01*
X31544189Y-43694193D01*
X31544193Y-43694189D01*
X31588396Y-43628036D01*
X31599999Y-43569700D01*
X31600000Y-43569697D01*
X31600000Y-43550001D01*
X31599999Y-43550000D01*
X30550001Y-43550000D01*
X30550000Y-43550001D01*
X30550000Y-43749999D01*
X30250000Y-43749999D01*
X30250000Y-43550001D01*
X30249999Y-43550000D01*
X29200001Y-43550000D01*
X29200000Y-43550001D01*
X29200000Y-43569700D01*
X29000500Y-43569700D01*
X29000500Y-43249999D01*
X29200000Y-43249999D01*
X29200001Y-43250000D01*
X30249999Y-43250000D01*
X30250000Y-43249999D01*
X30550000Y-43249999D01*
X30550001Y-43250000D01*
X31599999Y-43250000D01*
X31600000Y-43249999D01*
X31600000Y-43230302D01*
X31599999Y-43230299D01*
X31588396Y-43171963D01*
X31544193Y-43105810D01*
X31544189Y-43105806D01*
X31478036Y-43061603D01*
X31419700Y-43050000D01*
X30550001Y-43050000D01*
X30550000Y-43050001D01*
X30550000Y-43249999D01*
X30250000Y-43249999D01*
X30250000Y-43050001D01*
X30249999Y-43050000D01*
X29380299Y-43050000D01*
X29321963Y-43061603D01*
X29255810Y-43105806D01*
X29255806Y-43105810D01*
X29211603Y-43171963D01*
X29200000Y-43230299D01*
X29200000Y-43249999D01*
X29000500Y-43249999D01*
X29000500Y-41144746D01*
X49849500Y-41144746D01*
X49849501Y-41144758D01*
X49857795Y-41186450D01*
X49861133Y-41203231D01*
X49905448Y-41269552D01*
X49971769Y-41313867D01*
X50016231Y-41322711D01*
X50030241Y-41325498D01*
X50030246Y-41325498D01*
X50030252Y-41325500D01*
X50030253Y-41325500D01*
X51769747Y-41325500D01*
X51769748Y-41325500D01*
X51828231Y-41313867D01*
X51894552Y-41269552D01*
X51938867Y-41203231D01*
X51950500Y-41144748D01*
X51950500Y-40600003D01*
X53544417Y-40600003D01*
X53564698Y-40805929D01*
X53564699Y-40805934D01*
X53624768Y-41003954D01*
X53722316Y-41186452D01*
X53790516Y-41269554D01*
X53853590Y-41346410D01*
X53853595Y-41346414D01*
X54013547Y-41477683D01*
X54013548Y-41477683D01*
X54013550Y-41477685D01*
X54196046Y-41575232D01*
X54333997Y-41617078D01*
X54394065Y-41635300D01*
X54394070Y-41635301D01*
X54599997Y-41655583D01*
X54600000Y-41655583D01*
X54600003Y-41655583D01*
X54805929Y-41635301D01*
X54805934Y-41635300D01*
X55003954Y-41575232D01*
X55186450Y-41477685D01*
X55196124Y-41469746D01*
X56089500Y-41469746D01*
X56089501Y-41469758D01*
X56101132Y-41528227D01*
X56101134Y-41528233D01*
X56145445Y-41594548D01*
X56145448Y-41594552D01*
X56211769Y-41638867D01*
X56256231Y-41647711D01*
X56270241Y-41650498D01*
X56270246Y-41650498D01*
X56270252Y-41650500D01*
X56270253Y-41650500D01*
X58009747Y-41650500D01*
X58009748Y-41650500D01*
X58068231Y-41638867D01*
X58134552Y-41594552D01*
X58178867Y-41528231D01*
X58190500Y-41469748D01*
X58190500Y-39730252D01*
X58188921Y-39722316D01*
X58187711Y-39716231D01*
X58178867Y-39671769D01*
X58134552Y-39605448D01*
X58099658Y-39582132D01*
X58068233Y-39561134D01*
X58068231Y-39561133D01*
X58068228Y-39561132D01*
X58068227Y-39561132D01*
X58009758Y-39549501D01*
X58009748Y-39549500D01*
X56270252Y-39549500D01*
X56270251Y-39549500D01*
X56270241Y-39549501D01*
X56211772Y-39561132D01*
X56211766Y-39561134D01*
X56145451Y-39605445D01*
X56145445Y-39605451D01*
X56101134Y-39671766D01*
X56101132Y-39671772D01*
X56089501Y-39730241D01*
X56089500Y-39730253D01*
X56089500Y-41469746D01*
X55196124Y-41469746D01*
X55346410Y-41346410D01*
X55477685Y-41186450D01*
X55575232Y-41003954D01*
X55635300Y-40805934D01*
X55635301Y-40805929D01*
X55655583Y-40600003D01*
X55655583Y-40599996D01*
X55635301Y-40394070D01*
X55635300Y-40394065D01*
X55583560Y-40223501D01*
X55575232Y-40196046D01*
X55477685Y-40013550D01*
X55346410Y-39853590D01*
X55196123Y-39730253D01*
X55186452Y-39722316D01*
X55003954Y-39624768D01*
X54805934Y-39564699D01*
X54805929Y-39564698D01*
X54600003Y-39544417D01*
X54599997Y-39544417D01*
X54394070Y-39564698D01*
X54394065Y-39564699D01*
X54196045Y-39624768D01*
X54013547Y-39722316D01*
X53853595Y-39853585D01*
X53853585Y-39853595D01*
X53722316Y-40013547D01*
X53624768Y-40196045D01*
X53564699Y-40394065D01*
X53564698Y-40394070D01*
X53544417Y-40599996D01*
X53544417Y-40600003D01*
X51950500Y-40600003D01*
X51950500Y-39405252D01*
X51938867Y-39346769D01*
X51894552Y-39280448D01*
X51869094Y-39263437D01*
X51828233Y-39236134D01*
X51828231Y-39236133D01*
X51828228Y-39236132D01*
X51828227Y-39236132D01*
X51769758Y-39224501D01*
X51769748Y-39224500D01*
X50030252Y-39224500D01*
X50030251Y-39224500D01*
X50030241Y-39224501D01*
X49971772Y-39236132D01*
X49971766Y-39236134D01*
X49905451Y-39280445D01*
X49905445Y-39280451D01*
X49861134Y-39346766D01*
X49861132Y-39346772D01*
X49849501Y-39405241D01*
X49849500Y-39405253D01*
X49849500Y-41144746D01*
X29000500Y-41144746D01*
X29000500Y-39370002D01*
X29945233Y-39370002D01*
X29964273Y-39624076D01*
X29964275Y-39624086D01*
X30020970Y-39872487D01*
X30020970Y-39872489D01*
X30114055Y-40109664D01*
X30114064Y-40109683D01*
X30241451Y-40330322D01*
X30241461Y-40330337D01*
X30346195Y-40461670D01*
X30734794Y-40073070D01*
X30871931Y-40223501D01*
X30949814Y-40282316D01*
X30557111Y-40675020D01*
X30587088Y-40702835D01*
X30797624Y-40846375D01*
X31027176Y-40956922D01*
X31270649Y-41032023D01*
X31270659Y-41032025D01*
X31522599Y-41069999D01*
X31522608Y-41070000D01*
X31777392Y-41070000D01*
X31777400Y-41069999D01*
X32029340Y-41032025D01*
X32029350Y-41032023D01*
X32272823Y-40956921D01*
X32502376Y-40846375D01*
X32712908Y-40702838D01*
X32742887Y-40675020D01*
X32350184Y-40282317D01*
X32428069Y-40223501D01*
X32565204Y-40073071D01*
X32953803Y-40461670D01*
X33058543Y-40330330D01*
X33058548Y-40330322D01*
X33185935Y-40109683D01*
X33185944Y-40109664D01*
X33279029Y-39872489D01*
X33279029Y-39872487D01*
X33335724Y-39624086D01*
X33335726Y-39624076D01*
X33354767Y-39370002D01*
X33354767Y-39369997D01*
X33335726Y-39115923D01*
X33335724Y-39115913D01*
X33279029Y-38867512D01*
X33279029Y-38867510D01*
X33185944Y-38630335D01*
X33185935Y-38630316D01*
X33058548Y-38409677D01*
X33058538Y-38409662D01*
X32953803Y-38278328D01*
X32565203Y-38666927D01*
X32428069Y-38516499D01*
X32350183Y-38457681D01*
X32742887Y-38064978D01*
X32712907Y-38037161D01*
X32502376Y-37893624D01*
X32484470Y-37885001D01*
X49859692Y-37885001D01*
X49865191Y-37940833D01*
X49865190Y-37940833D01*
X49925232Y-38138762D01*
X49925234Y-38138767D01*
X50022724Y-38321160D01*
X50022731Y-38321170D01*
X50153940Y-38481050D01*
X50153949Y-38481059D01*
X50313829Y-38612268D01*
X50313839Y-38612275D01*
X50496232Y-38709765D01*
X50496237Y-38709767D01*
X50694166Y-38769808D01*
X50749998Y-38775307D01*
X50750000Y-38775306D01*
X50750000Y-38216170D01*
X50757685Y-38219680D01*
X50864237Y-38235000D01*
X50935763Y-38235000D01*
X51042315Y-38219680D01*
X51050000Y-38216170D01*
X51050000Y-38775306D01*
X51050001Y-38775307D01*
X51105833Y-38769808D01*
X51303762Y-38709767D01*
X51303767Y-38709765D01*
X51486160Y-38612275D01*
X51486170Y-38612268D01*
X51646050Y-38481059D01*
X51646059Y-38481050D01*
X51777268Y-38321170D01*
X51777275Y-38321160D01*
X51874765Y-38138767D01*
X51874767Y-38138762D01*
X51934808Y-37940833D01*
X51940307Y-37885001D01*
X51940306Y-37885000D01*
X51377065Y-37885000D01*
X51400000Y-37806889D01*
X51400000Y-37663111D01*
X51377065Y-37585000D01*
X51940306Y-37585000D01*
X51940307Y-37584998D01*
X51934808Y-37529166D01*
X51934809Y-37529166D01*
X51874767Y-37331237D01*
X51874765Y-37331232D01*
X51777275Y-37148839D01*
X51777268Y-37148829D01*
X51646059Y-36988949D01*
X51646050Y-36988940D01*
X51486170Y-36857731D01*
X51486160Y-36857724D01*
X51303767Y-36760234D01*
X51303762Y-36760232D01*
X51105843Y-36700194D01*
X51105832Y-36700191D01*
X51050000Y-36694692D01*
X51050000Y-37253829D01*
X51042315Y-37250320D01*
X50935763Y-37235000D01*
X50864237Y-37235000D01*
X50757685Y-37250320D01*
X50750000Y-37253829D01*
X50750000Y-36694692D01*
X50694167Y-36700191D01*
X50694156Y-36700194D01*
X50496237Y-36760232D01*
X50496232Y-36760234D01*
X50313839Y-36857724D01*
X50313829Y-36857731D01*
X50153949Y-36988940D01*
X50153940Y-36988949D01*
X50022731Y-37148829D01*
X50022724Y-37148839D01*
X49925234Y-37331232D01*
X49925232Y-37331237D01*
X49865191Y-37529166D01*
X49859692Y-37584998D01*
X49859694Y-37585000D01*
X50422935Y-37585000D01*
X50400000Y-37663111D01*
X50400000Y-37806889D01*
X50422935Y-37885000D01*
X49859694Y-37885000D01*
X49859692Y-37885001D01*
X32484470Y-37885001D01*
X32272823Y-37783078D01*
X32029350Y-37707976D01*
X32029340Y-37707974D01*
X31777400Y-37670000D01*
X31522599Y-37670000D01*
X31270659Y-37707974D01*
X31270649Y-37707976D01*
X31027176Y-37783077D01*
X30797624Y-37893624D01*
X30587092Y-38037161D01*
X30587084Y-38037167D01*
X30557111Y-38064978D01*
X30949815Y-38457682D01*
X30871931Y-38516499D01*
X30734795Y-38666928D01*
X30346196Y-38278329D01*
X30241455Y-38409670D01*
X30241451Y-38409677D01*
X30114064Y-38630316D01*
X30114055Y-38630335D01*
X30020970Y-38867510D01*
X30020970Y-38867512D01*
X29964275Y-39115913D01*
X29964273Y-39115923D01*
X29945233Y-39369997D01*
X29945233Y-39370002D01*
X29000500Y-39370002D01*
X29000500Y-36300003D01*
X33355161Y-36300003D01*
X33374467Y-36496029D01*
X33374468Y-36496034D01*
X33431650Y-36684535D01*
X33431652Y-36684540D01*
X33524504Y-36858253D01*
X33524511Y-36858264D01*
X33553851Y-36894014D01*
X33933274Y-36514590D01*
X33997327Y-36614258D01*
X34100555Y-36703705D01*
X34147147Y-36724982D01*
X33765983Y-37106146D01*
X33765984Y-37106147D01*
X33801735Y-37135488D01*
X33801746Y-37135495D01*
X33975459Y-37228347D01*
X33975464Y-37228349D01*
X34163965Y-37285531D01*
X34163970Y-37285532D01*
X34359997Y-37304839D01*
X34360003Y-37304839D01*
X34556029Y-37285532D01*
X34556034Y-37285531D01*
X34744535Y-37228349D01*
X34744540Y-37228347D01*
X34918257Y-37135493D01*
X34918260Y-37135491D01*
X34954014Y-37106147D01*
X34572850Y-36724983D01*
X34619445Y-36703705D01*
X34722673Y-36614258D01*
X34786724Y-36514591D01*
X35166147Y-36894014D01*
X35195491Y-36858260D01*
X35195493Y-36858257D01*
X35288347Y-36684540D01*
X35288349Y-36684535D01*
X35345531Y-36496034D01*
X35345532Y-36496029D01*
X35364839Y-36300003D01*
X35364839Y-36299996D01*
X35345532Y-36103970D01*
X35345531Y-36103965D01*
X35288349Y-35915464D01*
X35288347Y-35915459D01*
X35195495Y-35741746D01*
X35195488Y-35741735D01*
X35166147Y-35705984D01*
X35166146Y-35705983D01*
X34786723Y-36085406D01*
X34722673Y-35985742D01*
X34619445Y-35896295D01*
X34572849Y-35875015D01*
X34954014Y-35493851D01*
X34918264Y-35464511D01*
X34918253Y-35464504D01*
X34744540Y-35371652D01*
X34744535Y-35371650D01*
X34556034Y-35314468D01*
X34556029Y-35314467D01*
X34360003Y-35295161D01*
X34359997Y-35295161D01*
X34163970Y-35314467D01*
X34163965Y-35314468D01*
X33975464Y-35371650D01*
X33975459Y-35371652D01*
X33801748Y-35464502D01*
X33801736Y-35464510D01*
X33765984Y-35493851D01*
X34147149Y-35875016D01*
X34100555Y-35896295D01*
X33997327Y-35985742D01*
X33933275Y-36085408D01*
X33553851Y-35705984D01*
X33524510Y-35741736D01*
X33524502Y-35741748D01*
X33431652Y-35915459D01*
X33431650Y-35915464D01*
X33374468Y-36103965D01*
X33374467Y-36103970D01*
X33355161Y-36299996D01*
X33355161Y-36300003D01*
X29000500Y-36300003D01*
X29000500Y-33800003D01*
X33354659Y-33800003D01*
X33373974Y-33996126D01*
X33373975Y-33996129D01*
X33431187Y-34184730D01*
X33431188Y-34184732D01*
X33442521Y-34205934D01*
X33524090Y-34358538D01*
X33524092Y-34358540D01*
X33524093Y-34358542D01*
X33649112Y-34510878D01*
X33649121Y-34510887D01*
X33801457Y-34635906D01*
X33801462Y-34635910D01*
X33975273Y-34728814D01*
X34163868Y-34786024D01*
X34163870Y-34786024D01*
X34163873Y-34786025D01*
X34359997Y-34805341D01*
X34360000Y-34805341D01*
X34360003Y-34805341D01*
X34556126Y-34786025D01*
X34556127Y-34786024D01*
X34556132Y-34786024D01*
X34744727Y-34728814D01*
X34918538Y-34635910D01*
X35070883Y-34510883D01*
X35195910Y-34358538D01*
X35288814Y-34184727D01*
X35344850Y-34000003D01*
X54744417Y-34000003D01*
X54764698Y-34205929D01*
X54764699Y-34205934D01*
X54824768Y-34403954D01*
X54922316Y-34586452D01*
X54962907Y-34635912D01*
X55053590Y-34746410D01*
X55053595Y-34746414D01*
X55213547Y-34877683D01*
X55213548Y-34877683D01*
X55213550Y-34877685D01*
X55396046Y-34975232D01*
X55533997Y-35017078D01*
X55594065Y-35035300D01*
X55594070Y-35035301D01*
X55799997Y-35055583D01*
X55800000Y-35055583D01*
X55800003Y-35055583D01*
X56005929Y-35035301D01*
X56005934Y-35035300D01*
X56203954Y-34975232D01*
X56386450Y-34877685D01*
X56546410Y-34746410D01*
X56677685Y-34586450D01*
X56775232Y-34403954D01*
X56835300Y-34205934D01*
X56835301Y-34205929D01*
X56855583Y-34000003D01*
X56855583Y-33999996D01*
X56835301Y-33794070D01*
X56835300Y-33794065D01*
X56777605Y-33603870D01*
X56775232Y-33596046D01*
X56677685Y-33413550D01*
X56546410Y-33253590D01*
X56531626Y-33241457D01*
X56386452Y-33122316D01*
X56203954Y-33024768D01*
X56005934Y-32964699D01*
X56005929Y-32964698D01*
X55800003Y-32944417D01*
X55799997Y-32944417D01*
X55594070Y-32964698D01*
X55594065Y-32964699D01*
X55396045Y-33024768D01*
X55213547Y-33122316D01*
X55053595Y-33253585D01*
X55053585Y-33253595D01*
X54922316Y-33413547D01*
X54824768Y-33596045D01*
X54764699Y-33794065D01*
X54764698Y-33794070D01*
X54744417Y-33999996D01*
X54744417Y-34000003D01*
X35344850Y-34000003D01*
X35346024Y-33996132D01*
X35365341Y-33800000D01*
X35364757Y-33794066D01*
X35346025Y-33603873D01*
X35346024Y-33603870D01*
X35346024Y-33603868D01*
X35288814Y-33415273D01*
X35287891Y-33413547D01*
X35202395Y-33253595D01*
X35195910Y-33241462D01*
X35098129Y-33122316D01*
X35070887Y-33089121D01*
X35070878Y-33089112D01*
X34918542Y-32964093D01*
X34918540Y-32964092D01*
X34918538Y-32964090D01*
X34774893Y-32887310D01*
X34732486Y-32843204D01*
X34724103Y-32782596D01*
X34752945Y-32728635D01*
X34774893Y-32712690D01*
X34783576Y-32708048D01*
X34918538Y-32635910D01*
X35070883Y-32510883D01*
X35195910Y-32358538D01*
X35211300Y-32329746D01*
X54749500Y-32329746D01*
X54749501Y-32329758D01*
X54755227Y-32358542D01*
X54761133Y-32388231D01*
X54805448Y-32454552D01*
X54871769Y-32498867D01*
X54916231Y-32507711D01*
X54930241Y-32510498D01*
X54930246Y-32510498D01*
X54930252Y-32510500D01*
X54930253Y-32510500D01*
X56669747Y-32510500D01*
X56669748Y-32510500D01*
X56728231Y-32498867D01*
X56794552Y-32454552D01*
X56838867Y-32388231D01*
X56850500Y-32329748D01*
X56850500Y-30590252D01*
X56838867Y-30531769D01*
X56794552Y-30465448D01*
X56794548Y-30465445D01*
X56728233Y-30421134D01*
X56728231Y-30421133D01*
X56728228Y-30421132D01*
X56728227Y-30421132D01*
X56669758Y-30409501D01*
X56669748Y-30409500D01*
X54930252Y-30409500D01*
X54930251Y-30409500D01*
X54930241Y-30409501D01*
X54871772Y-30421132D01*
X54871766Y-30421134D01*
X54805451Y-30465445D01*
X54805445Y-30465451D01*
X54761134Y-30531766D01*
X54761132Y-30531772D01*
X54749501Y-30590241D01*
X54749500Y-30590253D01*
X54749500Y-32329746D01*
X35211300Y-32329746D01*
X35288814Y-32184727D01*
X35346024Y-31996132D01*
X35365341Y-31800000D01*
X35365341Y-31799996D01*
X35346025Y-31603873D01*
X35346024Y-31603870D01*
X35346024Y-31603868D01*
X35288814Y-31415273D01*
X35195910Y-31241462D01*
X35195906Y-31241457D01*
X35070887Y-31089121D01*
X35070878Y-31089112D01*
X34918542Y-30964093D01*
X34918540Y-30964092D01*
X34918538Y-30964090D01*
X34877618Y-30942218D01*
X34744732Y-30871188D01*
X34744730Y-30871187D01*
X34556129Y-30813975D01*
X34556126Y-30813974D01*
X34360003Y-30794659D01*
X34359997Y-30794659D01*
X34163873Y-30813974D01*
X34163870Y-30813975D01*
X33975269Y-30871187D01*
X33975267Y-30871188D01*
X33801467Y-30964087D01*
X33801457Y-30964093D01*
X33649121Y-31089112D01*
X33649112Y-31089121D01*
X33524093Y-31241457D01*
X33524087Y-31241467D01*
X33431188Y-31415267D01*
X33431187Y-31415269D01*
X33373975Y-31603870D01*
X33373974Y-31603873D01*
X33354659Y-31799996D01*
X33354659Y-31800003D01*
X33373974Y-31996126D01*
X33373975Y-31996129D01*
X33431187Y-32184730D01*
X33431188Y-32184732D01*
X33502218Y-32317618D01*
X33524090Y-32358538D01*
X33524092Y-32358540D01*
X33524093Y-32358542D01*
X33649112Y-32510878D01*
X33649121Y-32510887D01*
X33801457Y-32635906D01*
X33801462Y-32635910D01*
X33926882Y-32702948D01*
X33945107Y-32712690D01*
X33987513Y-32756796D01*
X33995896Y-32817404D01*
X33967053Y-32871365D01*
X33945107Y-32887310D01*
X33801463Y-32964089D01*
X33801457Y-32964093D01*
X33649121Y-33089112D01*
X33649112Y-33089121D01*
X33524093Y-33241457D01*
X33524087Y-33241467D01*
X33431188Y-33415267D01*
X33431187Y-33415269D01*
X33373975Y-33603870D01*
X33373974Y-33603873D01*
X33354659Y-33799996D01*
X33354659Y-33800003D01*
X29000500Y-33800003D01*
X29000500Y-30119746D01*
X33409500Y-30119746D01*
X33409501Y-30119758D01*
X33421132Y-30178227D01*
X33421133Y-30178231D01*
X33465448Y-30244552D01*
X33531769Y-30288867D01*
X33576231Y-30297711D01*
X33590241Y-30300498D01*
X33590246Y-30300498D01*
X33590252Y-30300500D01*
X33590253Y-30300500D01*
X35129747Y-30300500D01*
X35129748Y-30300500D01*
X35188231Y-30288867D01*
X35254552Y-30244552D01*
X35298867Y-30178231D01*
X35310500Y-30119748D01*
X35310500Y-28480252D01*
X35298867Y-28421769D01*
X35254552Y-28355448D01*
X35254548Y-28355445D01*
X35188233Y-28311134D01*
X35188231Y-28311133D01*
X35188228Y-28311132D01*
X35188227Y-28311132D01*
X35129758Y-28299501D01*
X35129748Y-28299500D01*
X33590252Y-28299500D01*
X33590251Y-28299500D01*
X33590241Y-28299501D01*
X33531772Y-28311132D01*
X33531766Y-28311134D01*
X33465451Y-28355445D01*
X33465445Y-28355451D01*
X33421134Y-28421766D01*
X33421132Y-28421772D01*
X33409501Y-28480241D01*
X33409500Y-28480253D01*
X33409500Y-30119746D01*
X29000500Y-30119746D01*
X29000500Y-26230002D01*
X29945233Y-26230002D01*
X29964273Y-26484076D01*
X29964275Y-26484086D01*
X30020970Y-26732487D01*
X30020970Y-26732489D01*
X30114055Y-26969664D01*
X30114064Y-26969683D01*
X30241451Y-27190322D01*
X30241461Y-27190337D01*
X30346195Y-27321670D01*
X30734794Y-26933070D01*
X30871931Y-27083501D01*
X30949814Y-27142316D01*
X30557111Y-27535020D01*
X30587088Y-27562835D01*
X30797624Y-27706375D01*
X31027176Y-27816922D01*
X31270649Y-27892023D01*
X31270659Y-27892025D01*
X31522599Y-27929999D01*
X31522608Y-27930000D01*
X31777392Y-27930000D01*
X31777400Y-27929999D01*
X32029340Y-27892025D01*
X32029350Y-27892023D01*
X32272823Y-27816921D01*
X32502376Y-27706375D01*
X32712908Y-27562838D01*
X32742887Y-27535020D01*
X32350184Y-27142317D01*
X32428069Y-27083501D01*
X32565204Y-26933071D01*
X32953803Y-27321670D01*
X33058543Y-27190330D01*
X33058548Y-27190322D01*
X33185935Y-26969683D01*
X33185944Y-26969664D01*
X33279029Y-26732489D01*
X33279029Y-26732487D01*
X33335724Y-26484086D01*
X33335726Y-26484076D01*
X33354767Y-26230002D01*
X33354767Y-26229997D01*
X33335726Y-25975923D01*
X33335724Y-25975913D01*
X33279029Y-25727512D01*
X33279029Y-25727510D01*
X33185944Y-25490335D01*
X33185935Y-25490316D01*
X33058548Y-25269677D01*
X33058538Y-25269662D01*
X32953803Y-25138328D01*
X32565203Y-25526927D01*
X32428069Y-25376499D01*
X32350183Y-25317681D01*
X32742887Y-24924978D01*
X32712907Y-24897161D01*
X32502376Y-24753624D01*
X32272823Y-24643078D01*
X32029350Y-24567976D01*
X32029340Y-24567974D01*
X31777400Y-24530000D01*
X31522599Y-24530000D01*
X31270659Y-24567974D01*
X31270649Y-24567976D01*
X31027176Y-24643077D01*
X30797624Y-24753624D01*
X30587092Y-24897161D01*
X30587084Y-24897167D01*
X30557111Y-24924978D01*
X30949815Y-25317682D01*
X30871931Y-25376499D01*
X30734795Y-25526928D01*
X30346196Y-25138329D01*
X30241455Y-25269670D01*
X30241451Y-25269677D01*
X30114064Y-25490316D01*
X30114055Y-25490335D01*
X30020970Y-25727510D01*
X30020970Y-25727512D01*
X29964275Y-25975913D01*
X29964273Y-25975923D01*
X29945233Y-26229997D01*
X29945233Y-26230002D01*
X29000500Y-26230002D01*
X29000500Y-20334929D01*
X30599500Y-20334929D01*
X30639720Y-20601772D01*
X30719262Y-20859641D01*
X30836349Y-21102774D01*
X30988365Y-21325741D01*
X30988368Y-21325744D01*
X30988370Y-21325747D01*
X31171912Y-21523559D01*
X31171918Y-21523565D01*
X31382889Y-21691808D01*
X31382898Y-21691815D01*
X31616602Y-21826743D01*
X31867805Y-21925334D01*
X32130897Y-21985383D01*
X32211587Y-21991429D01*
X32332618Y-22000500D01*
X32332624Y-22000500D01*
X32467382Y-22000500D01*
X32577408Y-21992254D01*
X32669103Y-21985383D01*
X32932195Y-21925334D01*
X33183398Y-21826743D01*
X33417102Y-21691815D01*
X33508589Y-21618855D01*
X33628081Y-21523565D01*
X33628087Y-21523559D01*
X33811629Y-21325747D01*
X33811635Y-21325741D01*
X33963651Y-21102775D01*
X34080738Y-20859641D01*
X34160280Y-20601772D01*
X34200500Y-20334929D01*
X73799500Y-20334929D01*
X73839720Y-20601772D01*
X73919262Y-20859641D01*
X74036349Y-21102774D01*
X74188365Y-21325741D01*
X74188368Y-21325744D01*
X74188370Y-21325747D01*
X74371912Y-21523559D01*
X74371918Y-21523565D01*
X74582889Y-21691808D01*
X74582898Y-21691815D01*
X74816602Y-21826743D01*
X75067805Y-21925334D01*
X75330897Y-21985383D01*
X75411587Y-21991429D01*
X75532618Y-22000500D01*
X75532624Y-22000500D01*
X75667382Y-22000500D01*
X75777408Y-21992254D01*
X75869103Y-21985383D01*
X76132195Y-21925334D01*
X76383398Y-21826743D01*
X76617102Y-21691815D01*
X76708589Y-21618855D01*
X76828081Y-21523565D01*
X76828087Y-21523559D01*
X77011629Y-21325747D01*
X77011635Y-21325741D01*
X77163651Y-21102775D01*
X77280738Y-20859641D01*
X77360280Y-20601772D01*
X77400500Y-20334929D01*
X77400500Y-20065071D01*
X77360280Y-19798228D01*
X77280738Y-19540359D01*
X77163651Y-19297226D01*
X77011635Y-19074259D01*
X77011629Y-19074252D01*
X76828087Y-18876440D01*
X76828081Y-18876434D01*
X76617110Y-18708191D01*
X76617108Y-18708189D01*
X76617102Y-18708185D01*
X76383398Y-18573257D01*
X76383395Y-18573256D01*
X76383391Y-18573254D01*
X76132197Y-18474666D01*
X75869107Y-18414618D01*
X75869098Y-18414616D01*
X75667382Y-18399500D01*
X75667376Y-18399500D01*
X75532624Y-18399500D01*
X75532618Y-18399500D01*
X75330901Y-18414616D01*
X75330892Y-18414618D01*
X75067802Y-18474666D01*
X74816608Y-18573254D01*
X74816599Y-18573258D01*
X74696344Y-18642687D01*
X74582898Y-18708185D01*
X74582894Y-18708187D01*
X74582894Y-18708188D01*
X74582889Y-18708191D01*
X74371918Y-18876434D01*
X74371912Y-18876440D01*
X74188370Y-19074252D01*
X74188365Y-19074258D01*
X74188365Y-19074259D01*
X74036349Y-19297225D01*
X74036349Y-19297226D01*
X74036345Y-19297232D01*
X73919262Y-19540356D01*
X73839721Y-19798223D01*
X73839719Y-19798233D01*
X73799500Y-20065067D01*
X73799500Y-20065071D01*
X73799500Y-20334929D01*
X34200500Y-20334929D01*
X34200500Y-20065071D01*
X34160280Y-19798228D01*
X34080738Y-19540359D01*
X33963651Y-19297226D01*
X33811635Y-19074259D01*
X33811629Y-19074252D01*
X33628087Y-18876440D01*
X33628081Y-18876434D01*
X33417110Y-18708191D01*
X33417108Y-18708189D01*
X33417102Y-18708185D01*
X33183398Y-18573257D01*
X33183395Y-18573256D01*
X33183391Y-18573254D01*
X32932197Y-18474666D01*
X32669107Y-18414618D01*
X32669098Y-18414616D01*
X32467382Y-18399500D01*
X32467376Y-18399500D01*
X32332624Y-18399500D01*
X32332618Y-18399500D01*
X32130901Y-18414616D01*
X32130892Y-18414618D01*
X31867802Y-18474666D01*
X31616608Y-18573254D01*
X31616599Y-18573258D01*
X31496344Y-18642687D01*
X31382898Y-18708185D01*
X31382894Y-18708187D01*
X31382894Y-18708188D01*
X31382889Y-18708191D01*
X31171918Y-18876434D01*
X31171912Y-18876440D01*
X30988370Y-19074252D01*
X30988365Y-19074258D01*
X30988365Y-19074259D01*
X30836349Y-19297225D01*
X30836349Y-19297226D01*
X30836345Y-19297232D01*
X30719262Y-19540356D01*
X30639721Y-19798223D01*
X30639719Y-19798233D01*
X30599500Y-20065067D01*
X30599500Y-20065071D01*
X30599500Y-20334929D01*
X29000500Y-20334929D01*
X29000500Y-16899500D01*
X29019407Y-16841309D01*
X29068907Y-16805345D01*
X29099500Y-16800500D01*
X78900500Y-16800500D01*
X78958691Y-16819407D01*
G37*
%TD.AperFunction*%
%TD*%
M02*
