%TF.GenerationSoftware,KiCad,Pcbnew,7.0.9*%
%TF.CreationDate,2024-01-22T02:17:41+03:00*%
%TF.ProjectId,PowerBank,506f7765-7242-4616-9e6b-2e6b69636164,rev?*%
%TF.SameCoordinates,Original*%
%TF.FileFunction,Soldermask,Top*%
%TF.FilePolarity,Negative*%
%FSLAX46Y46*%
G04 Gerber Fmt 4.6, Leading zero omitted, Abs format (unit mm)*
G04 Created by KiCad (PCBNEW 7.0.9) date 2024-01-22 02:17:41*
%MOMM*%
%LPD*%
G01*
G04 APERTURE LIST*
G04 Aperture macros list*
%AMRoundRect*
0 Rectangle with rounded corners*
0 $1 Rounding radius*
0 $2 $3 $4 $5 $6 $7 $8 $9 X,Y pos of 4 corners*
0 Add a 4 corners polygon primitive as box body*
4,1,4,$2,$3,$4,$5,$6,$7,$8,$9,$2,$3,0*
0 Add four circle primitives for the rounded corners*
1,1,$1+$1,$2,$3*
1,1,$1+$1,$4,$5*
1,1,$1+$1,$6,$7*
1,1,$1+$1,$8,$9*
0 Add four rect primitives between the rounded corners*
20,1,$1+$1,$2,$3,$4,$5,0*
20,1,$1+$1,$4,$5,$6,$7,0*
20,1,$1+$1,$6,$7,$8,$9,0*
20,1,$1+$1,$8,$9,$2,$3,0*%
G04 Aperture macros list end*
%ADD10RoundRect,0.250000X-0.412500X-0.650000X0.412500X-0.650000X0.412500X0.650000X-0.412500X0.650000X0*%
%ADD11R,1.600000X0.180000*%
%ADD12R,2.000000X0.300000*%
%ADD13RoundRect,0.250000X0.450000X-0.325000X0.450000X0.325000X-0.450000X0.325000X-0.450000X-0.325000X0*%
%ADD14RoundRect,0.237500X0.237500X-0.250000X0.237500X0.250000X-0.237500X0.250000X-0.237500X-0.250000X0*%
%ADD15RoundRect,0.250000X0.650000X-0.412500X0.650000X0.412500X-0.650000X0.412500X-0.650000X-0.412500X0*%
%ADD16R,1.700000X1.700000*%
%ADD17O,1.700000X1.700000*%
%ADD18C,3.200000*%
%ADD19RoundRect,0.250000X0.412500X0.650000X-0.412500X0.650000X-0.412500X-0.650000X0.412500X-0.650000X0*%
%ADD20RoundRect,0.237500X0.250000X0.237500X-0.250000X0.237500X-0.250000X-0.237500X0.250000X-0.237500X0*%
%ADD21RoundRect,0.150000X0.825000X0.150000X-0.825000X0.150000X-0.825000X-0.150000X0.825000X-0.150000X0*%
%ADD22RoundRect,0.250000X0.550000X-1.500000X0.550000X1.500000X-0.550000X1.500000X-0.550000X-1.500000X0*%
%ADD23RoundRect,0.237500X-0.237500X0.250000X-0.237500X-0.250000X0.237500X-0.250000X0.237500X0.250000X0*%
%ADD24R,3.429000X2.413000*%
%ADD25RoundRect,0.250000X-0.450000X0.325000X-0.450000X-0.325000X0.450000X-0.325000X0.450000X0.325000X0*%
%ADD26RoundRect,0.237500X0.237500X-0.300000X0.237500X0.300000X-0.237500X0.300000X-0.237500X-0.300000X0*%
%ADD27RoundRect,0.150000X-0.650000X-0.150000X0.650000X-0.150000X0.650000X0.150000X-0.650000X0.150000X0*%
%ADD28R,2.410000X3.100000*%
%ADD29R,1.500000X1.600000*%
%ADD30C,1.600000*%
%ADD31C,3.000000*%
%ADD32RoundRect,0.250000X-0.250000X0.250000X-0.250000X-0.250000X0.250000X-0.250000X0.250000X0.250000X0*%
G04 APERTURE END LIST*
D10*
%TO.C,C4*%
X49600000Y-44200000D03*
X52725000Y-44200000D03*
%TD*%
D11*
%TO.C,X1*%
X30200000Y-44900000D03*
X30200000Y-45400000D03*
X30200000Y-45900000D03*
X30200000Y-46400000D03*
X30200000Y-46900000D03*
X30200000Y-47400000D03*
X30200000Y-47900000D03*
X30200000Y-48400000D03*
X30200000Y-48900000D03*
X30200000Y-49400000D03*
X30200000Y-49900000D03*
X30200000Y-50400000D03*
D12*
X30400000Y-51900000D03*
X30400000Y-43400000D03*
%TD*%
D10*
%TO.C,C6*%
X51037500Y-60600000D03*
X54162500Y-60600000D03*
%TD*%
D13*
%TO.C,VD1*%
X36200000Y-56650000D03*
X36200000Y-54600000D03*
%TD*%
D14*
%TO.C,R5*%
X63000000Y-44175000D03*
X63000000Y-46000000D03*
%TD*%
D15*
%TO.C,C12*%
X39800000Y-47675000D03*
X39800000Y-50800000D03*
%TD*%
D10*
%TO.C,C8*%
X42200000Y-50600000D03*
X45325000Y-50600000D03*
%TD*%
D16*
%TO.C,J6*%
X50900000Y-40275000D03*
D17*
X50900000Y-37735000D03*
%TD*%
D18*
%TO.C,REF\u002A\u002A*%
X32400000Y-20200000D03*
%TD*%
D19*
%TO.C,C2*%
X46925000Y-47000000D03*
X43800000Y-47000000D03*
%TD*%
D20*
%TO.C,R2*%
X47425000Y-63600000D03*
X45600000Y-63600000D03*
%TD*%
D21*
%TO.C,U2*%
X68000000Y-51505000D03*
X68000000Y-50235000D03*
X68000000Y-48965000D03*
X68000000Y-47695000D03*
X63050000Y-47695000D03*
X63050000Y-48965000D03*
X63050000Y-50235000D03*
X63050000Y-51505000D03*
%TD*%
D22*
%TO.C,C10*%
X58600000Y-46700000D03*
X58600000Y-41300000D03*
%TD*%
D23*
%TO.C,R3*%
X50000000Y-55600000D03*
X50000000Y-57425000D03*
%TD*%
D22*
%TO.C,C11*%
X67600000Y-44100000D03*
X67600000Y-38700000D03*
%TD*%
D10*
%TO.C,C3*%
X52562500Y-47200000D03*
X49437500Y-47200000D03*
%TD*%
D16*
%TO.C,J3*%
X74525000Y-41000000D03*
D17*
X74525000Y-38460000D03*
%TD*%
D19*
%TO.C,C5*%
X46925000Y-44200000D03*
X43800000Y-44200000D03*
%TD*%
D16*
%TO.C,J4*%
X38600000Y-64000000D03*
D17*
X38600000Y-61460000D03*
%TD*%
D19*
%TO.C,C7*%
X48925000Y-60600000D03*
X45800000Y-60600000D03*
%TD*%
D24*
%TO.C,L1*%
X74725000Y-44758000D03*
X74725000Y-50600000D03*
%TD*%
D25*
%TO.C,VD4*%
X31600000Y-54600000D03*
X31600000Y-56650000D03*
%TD*%
D18*
%TO.C,REF\u002A\u002A*%
X75600000Y-20200000D03*
%TD*%
D25*
%TO.C,VD2*%
X38400000Y-54575000D03*
X38400000Y-56625000D03*
%TD*%
D20*
%TO.C,R1*%
X47425000Y-65200000D03*
X45600000Y-65200000D03*
%TD*%
D24*
%TO.C,L2*%
X54400000Y-51758000D03*
X54400000Y-57600000D03*
%TD*%
D18*
%TO.C,REF\u002A\u002A*%
X32400000Y-63400000D03*
%TD*%
D13*
%TO.C,VD3*%
X33800000Y-56650000D03*
X33800000Y-54600000D03*
%TD*%
D26*
%TO.C,C9*%
X70200000Y-48862500D03*
X70200000Y-47137500D03*
%TD*%
D27*
%TO.C,U1*%
X41705000Y-52995000D03*
X41705000Y-54265000D03*
X41705000Y-55535000D03*
X41705000Y-56805000D03*
X47005000Y-56805000D03*
X47005000Y-55535000D03*
X47005000Y-54265000D03*
X47005000Y-52995000D03*
D28*
X44355000Y-54900000D03*
%TD*%
D18*
%TO.C,REF\u002A\u002A*%
X75600000Y-63400000D03*
%TD*%
D14*
%TO.C,R4*%
X60800000Y-51912500D03*
X60800000Y-50087500D03*
%TD*%
D16*
%TO.C,J5*%
X42400000Y-63875000D03*
D17*
X42400000Y-61335000D03*
%TD*%
D15*
%TO.C,C1*%
X37400000Y-47675000D03*
X37400000Y-50800000D03*
%TD*%
D29*
%TO.C,J1*%
X34360000Y-29300000D03*
D30*
X34360000Y-31800000D03*
X34360000Y-33800000D03*
X34360000Y-36300000D03*
D31*
X31650000Y-26230000D03*
X31650000Y-39370000D03*
%TD*%
D32*
%TO.C,D1*%
X70200000Y-51750000D03*
X70200000Y-54250000D03*
%TD*%
D16*
%TO.C,J2*%
X50800000Y-64000000D03*
D17*
X53340000Y-64000000D03*
%TD*%
M02*
