%TF.GenerationSoftware,KiCad,Pcbnew,7.0.9*%
%TF.CreationDate,2024-01-24T01:25:47+03:00*%
%TF.ProjectId,PowerBank,506f7765-7242-4616-9e6b-2e6b69636164,rev?*%
%TF.SameCoordinates,Original*%
%TF.FileFunction,Copper,L1,Top*%
%TF.FilePolarity,Positive*%
%FSLAX46Y46*%
G04 Gerber Fmt 4.6, Leading zero omitted, Abs format (unit mm)*
G04 Created by KiCad (PCBNEW 7.0.9) date 2024-01-24 01:25:47*
%MOMM*%
%LPD*%
G01*
G04 APERTURE LIST*
G04 Aperture macros list*
%AMRoundRect*
0 Rectangle with rounded corners*
0 $1 Rounding radius*
0 $2 $3 $4 $5 $6 $7 $8 $9 X,Y pos of 4 corners*
0 Add a 4 corners polygon primitive as box body*
4,1,4,$2,$3,$4,$5,$6,$7,$8,$9,$2,$3,0*
0 Add four circle primitives for the rounded corners*
1,1,$1+$1,$2,$3*
1,1,$1+$1,$4,$5*
1,1,$1+$1,$6,$7*
1,1,$1+$1,$8,$9*
0 Add four rect primitives between the rounded corners*
20,1,$1+$1,$2,$3,$4,$5,0*
20,1,$1+$1,$4,$5,$6,$7,0*
20,1,$1+$1,$6,$7,$8,$9,0*
20,1,$1+$1,$8,$9,$2,$3,0*%
G04 Aperture macros list end*
%TA.AperFunction,SMDPad,CuDef*%
%ADD10RoundRect,0.250000X-0.412500X-0.650000X0.412500X-0.650000X0.412500X0.650000X-0.412500X0.650000X0*%
%TD*%
%TA.AperFunction,SMDPad,CuDef*%
%ADD11RoundRect,0.237500X-0.250000X-0.237500X0.250000X-0.237500X0.250000X0.237500X-0.250000X0.237500X0*%
%TD*%
%TA.AperFunction,SMDPad,CuDef*%
%ADD12R,1.600000X0.180000*%
%TD*%
%TA.AperFunction,SMDPad,CuDef*%
%ADD13R,2.000000X0.300000*%
%TD*%
%TA.AperFunction,SMDPad,CuDef*%
%ADD14RoundRect,0.250000X0.450000X-0.325000X0.450000X0.325000X-0.450000X0.325000X-0.450000X-0.325000X0*%
%TD*%
%TA.AperFunction,SMDPad,CuDef*%
%ADD15RoundRect,0.250000X0.400000X0.625000X-0.400000X0.625000X-0.400000X-0.625000X0.400000X-0.625000X0*%
%TD*%
%TA.AperFunction,SMDPad,CuDef*%
%ADD16RoundRect,0.250000X0.650000X-0.412500X0.650000X0.412500X-0.650000X0.412500X-0.650000X-0.412500X0*%
%TD*%
%TA.AperFunction,ComponentPad*%
%ADD17R,1.700000X1.700000*%
%TD*%
%TA.AperFunction,ComponentPad*%
%ADD18O,1.700000X1.700000*%
%TD*%
%TA.AperFunction,SMDPad,CuDef*%
%ADD19RoundRect,0.250000X0.412500X0.650000X-0.412500X0.650000X-0.412500X-0.650000X0.412500X-0.650000X0*%
%TD*%
%TA.AperFunction,SMDPad,CuDef*%
%ADD20RoundRect,0.237500X0.250000X0.237500X-0.250000X0.237500X-0.250000X-0.237500X0.250000X-0.237500X0*%
%TD*%
%TA.AperFunction,SMDPad,CuDef*%
%ADD21RoundRect,0.150000X0.825000X0.150000X-0.825000X0.150000X-0.825000X-0.150000X0.825000X-0.150000X0*%
%TD*%
%TA.AperFunction,SMDPad,CuDef*%
%ADD22RoundRect,0.237500X-0.237500X0.250000X-0.237500X-0.250000X0.237500X-0.250000X0.237500X0.250000X0*%
%TD*%
%TA.AperFunction,SMDPad,CuDef*%
%ADD23RoundRect,0.237500X0.237500X-0.250000X0.237500X0.250000X-0.237500X0.250000X-0.237500X-0.250000X0*%
%TD*%
%TA.AperFunction,SMDPad,CuDef*%
%ADD24R,2.900000X5.400000*%
%TD*%
%TA.AperFunction,SMDPad,CuDef*%
%ADD25RoundRect,0.250000X-0.450000X0.325000X-0.450000X-0.325000X0.450000X-0.325000X0.450000X0.325000X0*%
%TD*%
%TA.AperFunction,SMDPad,CuDef*%
%ADD26R,3.429000X2.413000*%
%TD*%
%TA.AperFunction,SMDPad,CuDef*%
%ADD27RoundRect,0.237500X0.237500X-0.300000X0.237500X0.300000X-0.237500X0.300000X-0.237500X-0.300000X0*%
%TD*%
%TA.AperFunction,SMDPad,CuDef*%
%ADD28RoundRect,0.150000X-0.650000X-0.150000X0.650000X-0.150000X0.650000X0.150000X-0.650000X0.150000X0*%
%TD*%
%TA.AperFunction,ComponentPad*%
%ADD29C,0.500000*%
%TD*%
%TA.AperFunction,SMDPad,CuDef*%
%ADD30R,2.410000X3.100000*%
%TD*%
%TA.AperFunction,ComponentPad*%
%ADD31R,1.500000X1.600000*%
%TD*%
%TA.AperFunction,ComponentPad*%
%ADD32C,1.600000*%
%TD*%
%TA.AperFunction,ComponentPad*%
%ADD33C,3.000000*%
%TD*%
%TA.AperFunction,SMDPad,CuDef*%
%ADD34RoundRect,0.250000X-0.250000X0.250000X-0.250000X-0.250000X0.250000X-0.250000X0.250000X0.250000X0*%
%TD*%
%TA.AperFunction,ViaPad*%
%ADD35C,0.800000*%
%TD*%
%TA.AperFunction,Conductor*%
%ADD36C,1.000000*%
%TD*%
%TA.AperFunction,Conductor*%
%ADD37C,2.000000*%
%TD*%
%TA.AperFunction,Conductor*%
%ADD38C,0.250000*%
%TD*%
%TA.AperFunction,Conductor*%
%ADD39C,0.600000*%
%TD*%
%TA.AperFunction,Conductor*%
%ADD40C,0.400000*%
%TD*%
%TA.AperFunction,Conductor*%
%ADD41C,0.300000*%
%TD*%
%TA.AperFunction,Conductor*%
%ADD42C,0.500000*%
%TD*%
G04 APERTURE END LIST*
D10*
%TO.P,C4,1*%
%TO.N,+5VP*%
X49600000Y-44200000D03*
%TO.P,C4,2*%
%TO.N,GND*%
X52725000Y-44200000D03*
%TD*%
D11*
%TO.P,R10,1*%
%TO.N,Net-(J1-D-)*%
X39600000Y-31000000D03*
%TO.P,R10,2*%
%TO.N,+5VP*%
X41425000Y-31000000D03*
%TD*%
D12*
%TO.P,X1,B1,GND*%
%TO.N,GND*%
X30200000Y-44900000D03*
%TO.P,X1,B2,TX2+*%
%TO.N,unconnected-(X1-TX2+-PadB2)*%
X30200000Y-45400000D03*
%TO.P,X1,B3,TX2-*%
%TO.N,unconnected-(X1-TX2--PadB3)*%
X30200000Y-45900000D03*
%TO.P,X1,B4,VBUS*%
%TO.N,VBUS*%
X30200000Y-46400000D03*
%TO.P,X1,B5,CC2*%
%TO.N,unconnected-(X1-CC2-PadB5)*%
X30200000Y-46900000D03*
%TO.P,X1,B6,D+*%
%TO.N,unconnected-(X1-D+-PadB6)*%
X30200000Y-47400000D03*
%TO.P,X1,B7,D-*%
%TO.N,unconnected-(X1-D--PadB7)*%
X30200000Y-47900000D03*
%TO.P,X1,B8,SBU2*%
%TO.N,unconnected-(X1-SBU2-PadB8)*%
X30200000Y-48400000D03*
%TO.P,X1,B9,VBUS*%
%TO.N,VBUS*%
X30200000Y-48900000D03*
%TO.P,X1,B10,RX1-*%
%TO.N,unconnected-(X1-RX1--PadB10)*%
X30200000Y-49400000D03*
%TO.P,X1,B11,RX1+*%
%TO.N,unconnected-(X1-RX1+-PadB11)*%
X30200000Y-49900000D03*
%TO.P,X1,B12,GND*%
%TO.N,GND*%
X30200000Y-50400000D03*
D13*
%TO.P,X1,S1,SHIELD*%
X30400000Y-51900000D03*
%TO.P,X1,S2,SHIELD*%
X30400000Y-43400000D03*
%TD*%
D10*
%TO.P,C6,1*%
%TO.N,Net-(J2-Pin_1)*%
X51037500Y-60600000D03*
%TO.P,C6,2*%
%TO.N,GND*%
X54162500Y-60600000D03*
%TD*%
D14*
%TO.P,VD1,1,K*%
%TO.N,Net-(U1-LED3)*%
X36200000Y-56650000D03*
%TO.P,VD1,2,A*%
%TO.N,Net-(U1-LED1)*%
X36200000Y-54600000D03*
%TD*%
D15*
%TO.P,R5,1*%
%TO.N,Net-(J3-Pin_2)*%
X62550000Y-45600000D03*
%TO.P,R5,2*%
%TO.N,GND*%
X59450000Y-45600000D03*
%TD*%
D16*
%TO.P,C12,1*%
%TO.N,VBUS*%
X39800000Y-50800000D03*
%TO.P,C12,2*%
%TO.N,GND*%
X39800000Y-47675000D03*
%TD*%
D10*
%TO.P,C8,1*%
%TO.N,VBUS*%
X42200000Y-50600000D03*
%TO.P,C8,2*%
%TO.N,GND*%
X45325000Y-50600000D03*
%TD*%
D17*
%TO.P,J6,1,Pin_1*%
%TO.N,+5VP*%
X50900000Y-40275000D03*
D18*
%TO.P,J6,2,Pin_2*%
%TO.N,GND*%
X50900000Y-37735000D03*
%TD*%
D19*
%TO.P,C2,1*%
%TO.N,+5VP*%
X46925000Y-47000000D03*
%TO.P,C2,2*%
%TO.N,GND*%
X43800000Y-47000000D03*
%TD*%
D20*
%TO.P,R2,1*%
%TO.N,Net-(U1-KEY)*%
X47425000Y-63600000D03*
%TO.P,R2,2*%
%TO.N,Net-(J5-Pin_1)*%
X45600000Y-63600000D03*
%TD*%
D21*
%TO.P,U2,1,SwC*%
%TO.N,Net-(U2-Ipk)*%
X68000000Y-51505000D03*
%TO.P,U2,2,SwE*%
%TO.N,Net-(D1-K)*%
X68000000Y-50235000D03*
%TO.P,U2,3,TC*%
%TO.N,Net-(U2-TC)*%
X68000000Y-48965000D03*
%TO.P,U2,4,GND*%
%TO.N,GND*%
X68000000Y-47695000D03*
%TO.P,U2,5,Vfb*%
%TO.N,Net-(J3-Pin_2)*%
X63050000Y-47695000D03*
%TO.P,U2,6,Vin*%
%TO.N,+5VP*%
X63050000Y-48965000D03*
%TO.P,U2,7,Ipk*%
%TO.N,Net-(U2-Ipk)*%
X63050000Y-50235000D03*
%TO.P,U2,8,DC*%
%TO.N,unconnected-(U2-DC-Pad8)*%
X63050000Y-51505000D03*
%TD*%
D16*
%TO.P,C10,1*%
%TO.N,+5VP*%
X57000000Y-46762500D03*
%TO.P,C10,2*%
%TO.N,GND*%
X57000000Y-43637500D03*
%TD*%
D22*
%TO.P,R3,1*%
%TO.N,Net-(U1-BAT)*%
X50000000Y-55600000D03*
%TO.P,R3,2*%
%TO.N,Net-(J2-Pin_1)*%
X50000000Y-57425000D03*
%TD*%
D16*
%TO.P,C11,1*%
%TO.N,Net-(J3-Pin_1)*%
X62600000Y-35962500D03*
%TO.P,C11,2*%
%TO.N,GND*%
X62600000Y-32837500D03*
%TD*%
D10*
%TO.P,C3,1*%
%TO.N,+5VP*%
X49437500Y-47200000D03*
%TO.P,C3,2*%
%TO.N,GND*%
X52562500Y-47200000D03*
%TD*%
D23*
%TO.P,R6,1*%
%TO.N,Net-(D1-K)*%
X71800000Y-49112500D03*
%TO.P,R6,2*%
%TO.N,Net-(U2-TC)*%
X71800000Y-47287500D03*
%TD*%
D17*
%TO.P,J3,1,Pin_1*%
%TO.N,Net-(J3-Pin_1)*%
X62400000Y-38860000D03*
D18*
%TO.P,J3,2,Pin_2*%
%TO.N,Net-(J3-Pin_2)*%
X62400000Y-41400000D03*
%TD*%
D19*
%TO.P,C5,1*%
%TO.N,+5VP*%
X46925000Y-44200000D03*
%TO.P,C5,2*%
%TO.N,GND*%
X43800000Y-44200000D03*
%TD*%
D17*
%TO.P,J4,1,Pin_1*%
%TO.N,Net-(J4-Pin_1)*%
X38600000Y-64000000D03*
D18*
%TO.P,J4,2,Pin_2*%
%TO.N,GND*%
X38600000Y-61460000D03*
%TD*%
D19*
%TO.P,C7,1*%
%TO.N,Net-(U1-BAT)*%
X48925000Y-60600000D03*
%TO.P,C7,2*%
%TO.N,GND*%
X45800000Y-60600000D03*
%TD*%
D24*
%TO.P,L1,1,1*%
%TO.N,Net-(D1-K)*%
X76350000Y-39800000D03*
%TO.P,L1,2,2*%
%TO.N,Net-(J3-Pin_1)*%
X66450000Y-39800000D03*
%TD*%
D25*
%TO.P,VD4,1,K*%
%TO.N,Net-(U1-LED2)*%
X31600000Y-54600000D03*
%TO.P,VD4,2,A*%
%TO.N,Net-(U1-LED3)*%
X31600000Y-56650000D03*
%TD*%
%TO.P,VD2,1,K*%
%TO.N,Net-(U1-LED1)*%
X38400000Y-54575000D03*
%TO.P,VD2,2,A*%
%TO.N,Net-(U1-LED3)*%
X38400000Y-56625000D03*
%TD*%
D20*
%TO.P,R1,1*%
%TO.N,Net-(U1-KEY)*%
X47425000Y-65200000D03*
%TO.P,R1,2*%
%TO.N,Net-(J4-Pin_1)*%
X45600000Y-65200000D03*
%TD*%
D26*
%TO.P,L2,1,1*%
%TO.N,Net-(U1-SW)*%
X54400000Y-51758000D03*
%TO.P,L2,2,2*%
%TO.N,Net-(J2-Pin_1)*%
X54400000Y-57600000D03*
%TD*%
D14*
%TO.P,VD3,1,K*%
%TO.N,Net-(U1-LED3)*%
X33800000Y-56650000D03*
%TO.P,VD3,2,A*%
%TO.N,Net-(U1-LED2)*%
X33800000Y-54600000D03*
%TD*%
D20*
%TO.P,R8,1*%
%TO.N,GND*%
X41512500Y-34200000D03*
%TO.P,R8,2*%
%TO.N,Net-(J1-D+)*%
X39687500Y-34200000D03*
%TD*%
D27*
%TO.P,C9,1*%
%TO.N,Net-(U2-TC)*%
X70200000Y-48925000D03*
%TO.P,C9,2*%
%TO.N,GND*%
X70200000Y-47200000D03*
%TD*%
D28*
%TO.P,U1,1,Vin*%
%TO.N,VBUS*%
X41705000Y-52995000D03*
%TO.P,U1,2,LED1*%
%TO.N,Net-(U1-LED1)*%
X41705000Y-54265000D03*
%TO.P,U1,3,LED2*%
%TO.N,Net-(U1-LED2)*%
X41705000Y-55535000D03*
%TO.P,U1,4,LED3*%
%TO.N,Net-(U1-LED3)*%
X41705000Y-56805000D03*
%TO.P,U1,5,KEY*%
%TO.N,Net-(U1-KEY)*%
X47005000Y-56805000D03*
%TO.P,U1,6,BAT*%
%TO.N,Net-(U1-BAT)*%
X47005000Y-55535000D03*
%TO.P,U1,7,SW*%
%TO.N,Net-(U1-SW)*%
X47005000Y-54265000D03*
%TO.P,U1,8,Vout*%
%TO.N,+5VP*%
X47005000Y-52995000D03*
D29*
%TO.P,U1,9,GND*%
%TO.N,GND*%
X43400000Y-53600000D03*
X43400000Y-54900000D03*
X43400000Y-56200000D03*
D30*
X44355000Y-54900000D03*
D29*
X45310000Y-53600000D03*
X45310000Y-54900000D03*
X45310000Y-56200000D03*
%TD*%
D20*
%TO.P,R11,1*%
%TO.N,GND*%
X41425000Y-32600000D03*
%TO.P,R11,2*%
%TO.N,Net-(J1-D-)*%
X39600000Y-32600000D03*
%TD*%
%TO.P,R4,1*%
%TO.N,Net-(U2-Ipk)*%
X60825000Y-50400000D03*
%TO.P,R4,2*%
%TO.N,+5VP*%
X59000000Y-50400000D03*
%TD*%
D17*
%TO.P,J5,1,Pin_1*%
%TO.N,Net-(J5-Pin_1)*%
X42400000Y-63875000D03*
D18*
%TO.P,J5,2,Pin_2*%
%TO.N,GND*%
X42400000Y-61335000D03*
%TD*%
D22*
%TO.P,R9,1*%
%TO.N,Net-(J1-D-)*%
X38000000Y-31887500D03*
%TO.P,R9,2*%
%TO.N,Net-(J1-D+)*%
X38000000Y-33712500D03*
%TD*%
D11*
%TO.P,R7,1*%
%TO.N,Net-(J1-D+)*%
X39775000Y-35800000D03*
%TO.P,R7,2*%
%TO.N,+5VP*%
X41600000Y-35800000D03*
%TD*%
D16*
%TO.P,C1,1*%
%TO.N,VBUS*%
X37400000Y-50800000D03*
%TO.P,C1,2*%
%TO.N,GND*%
X37400000Y-47675000D03*
%TD*%
D31*
%TO.P,J1,1,VBUS*%
%TO.N,+5VP*%
X34360000Y-29300000D03*
D32*
%TO.P,J1,2,D-*%
%TO.N,Net-(J1-D-)*%
X34360000Y-31800000D03*
%TO.P,J1,3,D+*%
%TO.N,Net-(J1-D+)*%
X34360000Y-33800000D03*
%TO.P,J1,4,GND*%
%TO.N,GND*%
X34360000Y-36300000D03*
D33*
%TO.P,J1,5,Shield*%
X31650000Y-26230000D03*
X31650000Y-39370000D03*
%TD*%
D34*
%TO.P,D1,1,K*%
%TO.N,Net-(D1-K)*%
X70400000Y-51950000D03*
%TO.P,D1,2,A*%
%TO.N,GND*%
X70400000Y-54450000D03*
%TD*%
D17*
%TO.P,J2,1,Pin_1*%
%TO.N,Net-(J2-Pin_1)*%
X50800000Y-64000000D03*
D18*
%TO.P,J2,2,Pin_2*%
%TO.N,GND*%
X53340000Y-64000000D03*
%TD*%
D35*
%TO.N,VBUS*%
X35000000Y-49600000D03*
%TO.N,GND*%
X74200000Y-23800000D03*
X44600000Y-62200000D03*
X69800000Y-45800000D03*
X33200000Y-35000000D03*
X35800000Y-63600000D03*
X33400000Y-41200000D03*
X45362500Y-44200000D03*
X66200000Y-47000000D03*
X44200000Y-59400000D03*
X45400000Y-48800000D03*
X51000000Y-47200000D03*
X37400000Y-59600000D03*
X56800000Y-19000000D03*
X58800000Y-43600000D03*
X30400000Y-42400000D03*
X35800000Y-35000000D03*
X58125000Y-54800000D03*
X72000000Y-53600000D03*
X53400000Y-38200000D03*
X60200000Y-60200000D03*
X39800000Y-54600000D03*
X60800000Y-47800000D03*
X77600000Y-31200000D03*
X53600000Y-45600000D03*
X46400000Y-28800000D03*
X74800000Y-28200000D03*
X60600000Y-32800000D03*
X67400000Y-23800000D03*
X33200000Y-37600000D03*
X71000000Y-31800000D03*
X34600000Y-52600000D03*
X71600000Y-55400000D03*
X67400000Y-46600000D03*
X77400000Y-44000000D03*
X40400000Y-49400000D03*
X69600000Y-39200000D03*
X71200000Y-46000000D03*
X61000000Y-45600000D03*
X52200000Y-49200000D03*
X52080675Y-54703168D03*
X71600000Y-61000000D03*
X68800000Y-53600000D03*
X67600000Y-30400000D03*
X57400000Y-49600000D03*
X39800000Y-52600000D03*
X38200000Y-49400000D03*
X42000000Y-47600000D03*
X40600000Y-62400000D03*
X71400000Y-42800000D03*
X51000000Y-44200000D03*
X37000000Y-52800000D03*
X50400000Y-30200000D03*
X64000000Y-65000000D03*
X32400000Y-43400000D03*
X54600000Y-62600000D03*
X63800000Y-57000000D03*
X56600000Y-42000000D03*
X50900000Y-35300000D03*
X76925000Y-47800000D03*
X52400000Y-66000000D03*
X56200000Y-60800000D03*
X53200000Y-23800000D03*
X36200000Y-32800000D03*
X53400000Y-35300000D03*
X60400000Y-40400000D03*
X75800000Y-54400000D03*
X45400000Y-52400000D03*
X46090077Y-58173953D03*
X66800000Y-36200000D03*
X44600000Y-58000000D03*
X43800000Y-49000000D03*
X57600000Y-45200000D03*
X39800000Y-44600000D03*
X62600000Y-30800000D03*
X37200000Y-44600000D03*
X52600000Y-59800000D03*
X68800000Y-46600000D03*
X35800000Y-23800000D03*
X30200000Y-53000000D03*
X42200000Y-44200000D03*
X67600000Y-43800000D03*
X54400000Y-54679000D03*
X60200000Y-64400000D03*
X66200000Y-48400000D03*
X29800000Y-41200000D03*
X55800000Y-65000000D03*
X52800000Y-42400000D03*
X32400000Y-51800000D03*
X43800000Y-42400000D03*
X35000000Y-60400000D03*
X41662015Y-59405426D03*
X74800000Y-35000000D03*
X48500000Y-35500000D03*
X68800000Y-55200000D03*
X54000000Y-47600000D03*
X64800000Y-32800000D03*
X64400000Y-44400000D03*
X29800000Y-37400000D03*
X77800000Y-51200000D03*
X75800000Y-57800000D03*
X40400000Y-39200000D03*
X60325000Y-53400000D03*
X40000000Y-19000000D03*
X45000000Y-23800000D03*
X45362500Y-47000000D03*
X52800000Y-62200000D03*
X49000000Y-19000000D03*
X35600000Y-42400000D03*
X59400000Y-41600000D03*
X30800000Y-59800000D03*
X39800000Y-59400000D03*
X70200000Y-64600000D03*
X67400000Y-59600000D03*
X56800000Y-37000000D03*
X35800000Y-37600000D03*
X57800000Y-62800000D03*
X71200000Y-18800000D03*
X42200000Y-45600000D03*
X64000000Y-19000000D03*
X51000000Y-45800000D03*
X40400000Y-27000000D03*
X57400000Y-30200000D03*
X43400000Y-58000000D03*
X60200000Y-23800000D03*
X48600000Y-38200000D03*
X35400000Y-47400000D03*
X62600000Y-34400000D03*
X43800000Y-52200000D03*
%TD*%
D36*
%TO.N,Net-(J3-Pin_1)*%
X64400000Y-36800000D02*
X64400000Y-38860000D01*
X63562500Y-35962500D02*
X64400000Y-36800000D01*
X62600000Y-35962500D02*
X63562500Y-35962500D01*
D37*
X64400000Y-38860000D02*
X65710000Y-38860000D01*
X62400000Y-38860000D02*
X64400000Y-38860000D01*
D36*
%TO.N,VBUS*%
X35000000Y-49600000D02*
X36200000Y-49600000D01*
D38*
X31300000Y-48900000D02*
X30200000Y-48900000D01*
D36*
X31800000Y-48800000D02*
X32600000Y-49600000D01*
X39800000Y-50800000D02*
X42000000Y-50800000D01*
X42200000Y-52500000D02*
X42200000Y-50600000D01*
X31800000Y-48400000D02*
X31800000Y-48800000D01*
X36200000Y-49600000D02*
X37400000Y-50800000D01*
D38*
X30200000Y-46400000D02*
X31250000Y-46400000D01*
D39*
X41705000Y-52995000D02*
X42200000Y-52500000D01*
D36*
X37400000Y-50800000D02*
X39800000Y-50800000D01*
D38*
X31250000Y-46400000D02*
X31800000Y-46950000D01*
D36*
X32600000Y-49600000D02*
X36200000Y-49600000D01*
X42000000Y-50800000D02*
X42200000Y-50600000D01*
X41705000Y-50800000D02*
X39800000Y-50800000D01*
X31800000Y-48400000D02*
X31800000Y-46950000D01*
D38*
X31800000Y-48400000D02*
X31300000Y-48900000D01*
D39*
%TO.N,GND*%
X43400000Y-53600000D02*
X43400000Y-53945000D01*
D40*
X30400000Y-43400000D02*
X30400000Y-44700000D01*
D39*
X43400000Y-58000000D02*
X43400000Y-56200000D01*
X45310000Y-53945000D02*
X44355000Y-54900000D01*
X46090077Y-58173953D02*
X45310000Y-57393876D01*
X45310000Y-53600000D02*
X45310000Y-54900000D01*
D40*
X30400000Y-44700000D02*
X30200000Y-44900000D01*
D39*
X45400000Y-52400000D02*
X45400000Y-53510000D01*
X45310000Y-54900000D02*
X45310000Y-56200000D01*
X43800000Y-52200000D02*
X43400000Y-52600000D01*
X45310000Y-56200000D02*
X43400000Y-56200000D01*
D40*
X30400000Y-51900000D02*
X30400000Y-50600000D01*
D39*
X45310000Y-53600000D02*
X45310000Y-53945000D01*
X43400000Y-56200000D02*
X43400000Y-54900000D01*
X45310000Y-57393876D02*
X45310000Y-56200000D01*
X43400000Y-54900000D02*
X43400000Y-53600000D01*
X43400000Y-52600000D02*
X43400000Y-53600000D01*
X45400000Y-53510000D02*
X45310000Y-53600000D01*
D40*
X30400000Y-50600000D02*
X30200000Y-50400000D01*
D39*
X43400000Y-53945000D02*
X44355000Y-54900000D01*
D36*
%TO.N,+5VP*%
X58937500Y-48300000D02*
X57400000Y-46762500D01*
D39*
X47005000Y-52995000D02*
X47800000Y-52200000D01*
D36*
X47800000Y-52200000D02*
X47800000Y-47875000D01*
D39*
X59000000Y-49600000D02*
X59000000Y-50400000D01*
D36*
X52775000Y-40275000D02*
X54800000Y-42300000D01*
X48200000Y-40400000D02*
X48200000Y-42400000D01*
X48200000Y-44000000D02*
X48400000Y-44200000D01*
D39*
X63050000Y-48965000D02*
X59635000Y-48965000D01*
D37*
X43400000Y-35600000D02*
X44887500Y-37087500D01*
D39*
X59635000Y-48965000D02*
X59000000Y-49600000D01*
D36*
X50900000Y-40275000D02*
X48325000Y-40275000D01*
X54800000Y-42300000D02*
X54800000Y-45400000D01*
X49237500Y-47000000D02*
X49437500Y-47200000D01*
D37*
X38000000Y-29300000D02*
X34360000Y-29300000D01*
D36*
X48400000Y-44200000D02*
X49600000Y-44200000D01*
X59000000Y-48300000D02*
X58937500Y-48300000D01*
D41*
X43200000Y-35800000D02*
X43400000Y-35600000D01*
D38*
X44400000Y-36600000D02*
X44887500Y-37087500D01*
D36*
X48325000Y-40275000D02*
X48200000Y-40400000D01*
D38*
X38025000Y-29325000D02*
X38000000Y-29300000D01*
D36*
X54800000Y-45400000D02*
X56100000Y-46700000D01*
D37*
X42500000Y-29300000D02*
X43400000Y-30200000D01*
X41400000Y-29300000D02*
X42500000Y-29300000D01*
X43400000Y-30200000D02*
X43400000Y-35600000D01*
D41*
X41625000Y-35800000D02*
X43200000Y-35800000D01*
D37*
X48200000Y-40400000D02*
X44887500Y-37087500D01*
X38000000Y-29300000D02*
X41400000Y-29300000D01*
D36*
X48200000Y-42400000D02*
X48200000Y-44000000D01*
X46925000Y-47000000D02*
X49237500Y-47000000D01*
X46925000Y-44200000D02*
X48400000Y-44200000D01*
D41*
X41425000Y-31000000D02*
X41425000Y-29325000D01*
D36*
X46925000Y-47000000D02*
X46925000Y-44200000D01*
X59000000Y-50400000D02*
X59000000Y-48300000D01*
X47800000Y-47875000D02*
X46925000Y-47000000D01*
X56100000Y-46700000D02*
X57400000Y-46700000D01*
D41*
X41425000Y-29325000D02*
X41400000Y-29300000D01*
D36*
X50900000Y-40275000D02*
X52775000Y-40275000D01*
%TO.N,Net-(J2-Pin_1)*%
X51037500Y-58762500D02*
X52200000Y-57600000D01*
X51037500Y-60600000D02*
X51037500Y-63762500D01*
X51037500Y-63762500D02*
X50800000Y-64000000D01*
X51037500Y-60600000D02*
X51037500Y-58762500D01*
X52200000Y-57600000D02*
X50175000Y-57600000D01*
X50175000Y-57600000D02*
X50000000Y-57425000D01*
X54400000Y-57600000D02*
X52200000Y-57600000D01*
D39*
%TO.N,Net-(U1-BAT)*%
X50000000Y-55600000D02*
X47869999Y-55600000D01*
X48925000Y-60600000D02*
X48800000Y-60475000D01*
X48800000Y-60475000D02*
X48800000Y-55600000D01*
X47869999Y-55600000D02*
X47804999Y-55535000D01*
X47804999Y-55535000D02*
X47005000Y-55535000D01*
%TO.N,Net-(U2-TC)*%
X71800000Y-47400000D02*
X71800000Y-47607406D01*
D40*
X71800000Y-47607406D02*
X70407406Y-49000000D01*
D39*
X70160000Y-48965000D02*
X70325000Y-48800000D01*
X70407406Y-49000000D02*
X70400000Y-49000000D01*
X68000000Y-48965000D02*
X70160000Y-48965000D01*
D37*
%TO.N,Net-(J3-Pin_1)*%
X65710000Y-38860000D02*
X66450000Y-39600000D01*
%TO.N,Net-(D1-K)*%
X74000000Y-49200000D02*
X74000000Y-42000000D01*
D36*
X73000000Y-50200000D02*
X74000000Y-49200000D01*
X68000000Y-50235000D02*
X70200000Y-50235000D01*
X74000000Y-42000000D02*
X74150000Y-42000000D01*
D39*
X71800000Y-49910000D02*
X71800000Y-49025000D01*
D37*
X74150000Y-42000000D02*
X76350000Y-39800000D01*
D36*
X70400000Y-50500000D02*
X70200000Y-50300000D01*
X72090000Y-50200000D02*
X73000000Y-50200000D01*
X70400000Y-51750000D02*
X70400000Y-50500000D01*
X70200000Y-50235000D02*
X72125000Y-50235000D01*
D39*
%TO.N,Net-(J4-Pin_1)*%
X45600000Y-65200000D02*
X45575000Y-65225000D01*
X45575000Y-65225000D02*
X39825000Y-65225000D01*
X39825000Y-65225000D02*
X38600000Y-64000000D01*
%TO.N,Net-(J3-Pin_2)*%
X62600000Y-45712500D02*
X62600000Y-47245000D01*
D36*
X62400000Y-45450000D02*
X62550000Y-45600000D01*
D39*
X62600000Y-47245000D02*
X63050000Y-47695000D01*
D36*
X62400000Y-41400000D02*
X62400000Y-45450000D01*
D39*
%TO.N,Net-(U1-SW)*%
X48135000Y-54265000D02*
X47005000Y-54265000D01*
X50642000Y-51758000D02*
X48135000Y-54265000D01*
X54400000Y-51758000D02*
X50642000Y-51758000D01*
D42*
%TO.N,Net-(U1-KEY)*%
X47425000Y-57225000D02*
X47425000Y-63600000D01*
X47005000Y-56805000D02*
X47425000Y-57225000D01*
X47425000Y-63600000D02*
X47425000Y-65200000D01*
D39*
%TO.N,Net-(U2-Ipk)*%
X60990000Y-50235000D02*
X60825000Y-50400000D01*
X63050000Y-50235000D02*
X60990000Y-50235000D01*
X63050000Y-50235000D02*
X64635000Y-50235000D01*
X64635000Y-50235000D02*
X65905000Y-51505000D01*
X65905000Y-51505000D02*
X68000000Y-51505000D01*
D42*
%TO.N,Net-(U1-LED3)*%
X36225000Y-56625000D02*
X36200000Y-56650000D01*
X38580000Y-56805000D02*
X38400000Y-56625000D01*
X41705000Y-56805000D02*
X38580000Y-56805000D01*
X36200000Y-56650000D02*
X33800000Y-56650000D01*
X33800000Y-56650000D02*
X31600000Y-56650000D01*
X38400000Y-56625000D02*
X36225000Y-56625000D01*
%TO.N,Net-(U1-LED1)*%
X41705000Y-54265000D02*
X40665000Y-54265000D01*
X39375000Y-53600000D02*
X38400000Y-54575000D01*
X40650000Y-54250000D02*
X40650000Y-54247918D01*
X38400000Y-54575000D02*
X36225000Y-54575000D01*
X40002082Y-53600000D02*
X39375000Y-53600000D01*
X40665000Y-54265000D02*
X40650000Y-54250000D01*
X36225000Y-54575000D02*
X36200000Y-54600000D01*
X40650000Y-54247918D02*
X40002082Y-53600000D01*
%TO.N,Net-(U1-LED2)*%
X33800000Y-54600000D02*
X31600000Y-54600000D01*
X41705000Y-55535000D02*
X41640000Y-55600000D01*
X34825000Y-55625000D02*
X33800000Y-54600000D01*
X37200000Y-55600000D02*
X37175000Y-55625000D01*
X37175000Y-55625000D02*
X34825000Y-55625000D01*
X41640000Y-55600000D02*
X37200000Y-55600000D01*
D38*
%TO.N,Net-(J1-D-)*%
X34360000Y-31800000D02*
X37575000Y-31800000D01*
X39600000Y-32000000D02*
X39350000Y-32250000D01*
X39600000Y-31000000D02*
X39600000Y-32000000D01*
X39350000Y-32250000D02*
X38000000Y-32250000D01*
X39600000Y-32000000D02*
X39600000Y-32600000D01*
%TO.N,Net-(J1-D+)*%
X39600000Y-34200000D02*
X38350000Y-34200000D01*
X39600000Y-34200000D02*
X39600000Y-35600000D01*
X36775000Y-33800000D02*
X34360000Y-33800000D01*
X39600000Y-35600000D02*
X39800000Y-35800000D01*
X36825000Y-33850000D02*
X38000000Y-33850000D01*
X38350000Y-34200000D02*
X38000000Y-33850000D01*
X36775000Y-33800000D02*
X36825000Y-33850000D01*
D39*
%TO.N,Net-(J5-Pin_1)*%
X42675000Y-63600000D02*
X42400000Y-63875000D01*
X45600000Y-63600000D02*
X42675000Y-63600000D01*
%TD*%
%TA.AperFunction,Conductor*%
%TO.N,GND*%
G36*
X78958691Y-16819407D02*
G01*
X78994655Y-16868907D01*
X78999500Y-16899500D01*
X78999500Y-66700500D01*
X78980593Y-66758691D01*
X78931093Y-66794655D01*
X78900500Y-66799500D01*
X29099500Y-66799500D01*
X29041309Y-66780593D01*
X29005345Y-66731093D01*
X29000500Y-66700500D01*
X29000500Y-63534932D01*
X30599500Y-63534932D01*
X30639719Y-63801766D01*
X30639721Y-63801776D01*
X30719262Y-64059641D01*
X30800876Y-64229115D01*
X30836349Y-64302774D01*
X30988365Y-64525741D01*
X30988368Y-64525744D01*
X30988370Y-64525747D01*
X31171912Y-64723559D01*
X31171918Y-64723565D01*
X31364665Y-64877275D01*
X31382898Y-64891815D01*
X31616602Y-65026743D01*
X31867805Y-65125334D01*
X32130897Y-65185383D01*
X32211587Y-65191429D01*
X32332618Y-65200500D01*
X32332624Y-65200500D01*
X32467382Y-65200500D01*
X32577408Y-65192254D01*
X32669103Y-65185383D01*
X32932195Y-65125334D01*
X33183398Y-65026743D01*
X33417102Y-64891815D01*
X33444776Y-64869746D01*
X37549500Y-64869746D01*
X37549501Y-64869758D01*
X37561132Y-64928227D01*
X37561134Y-64928233D01*
X37592228Y-64974767D01*
X37605448Y-64994552D01*
X37671769Y-65038867D01*
X37716231Y-65047711D01*
X37730241Y-65050498D01*
X37730246Y-65050498D01*
X37730252Y-65050500D01*
X38901678Y-65050500D01*
X38959869Y-65069407D01*
X38971682Y-65079496D01*
X39425518Y-65533332D01*
X39438796Y-65549810D01*
X39442856Y-65556127D01*
X39442857Y-65556129D01*
X39482394Y-65590387D01*
X39484982Y-65592796D01*
X39496407Y-65604221D01*
X39509345Y-65613906D01*
X39512097Y-65616124D01*
X39551624Y-65650375D01*
X39551625Y-65650375D01*
X39551627Y-65650377D01*
X39558454Y-65653495D01*
X39576651Y-65664291D01*
X39582669Y-65668796D01*
X39631697Y-65687081D01*
X39634941Y-65688425D01*
X39682543Y-65710165D01*
X39689978Y-65711233D01*
X39710484Y-65716468D01*
X39717517Y-65719091D01*
X39769729Y-65722825D01*
X39773196Y-65723198D01*
X39789201Y-65725500D01*
X39805348Y-65725500D01*
X39808881Y-65725626D01*
X39813871Y-65725982D01*
X39861073Y-65729359D01*
X39867470Y-65727967D01*
X39868410Y-65727763D01*
X39889456Y-65725500D01*
X44970570Y-65725500D01*
X45028761Y-65744407D01*
X45032028Y-65747197D01*
X45036788Y-65750710D01*
X45036789Y-65750711D01*
X45143025Y-65829116D01*
X45267651Y-65872725D01*
X45294941Y-65875284D01*
X45297233Y-65875499D01*
X45297238Y-65875500D01*
X45297244Y-65875500D01*
X45902762Y-65875500D01*
X45902765Y-65875499D01*
X45932349Y-65872725D01*
X46056975Y-65829116D01*
X46163211Y-65750711D01*
X46241616Y-65644475D01*
X46285225Y-65519849D01*
X46288000Y-65490256D01*
X46288000Y-64909744D01*
X46288000Y-64909738D01*
X46287999Y-64909733D01*
X46285225Y-64880155D01*
X46285225Y-64880151D01*
X46241616Y-64755525D01*
X46234623Y-64746050D01*
X46163214Y-64649293D01*
X46163213Y-64649292D01*
X46163211Y-64649289D01*
X46163206Y-64649285D01*
X46056976Y-64570884D01*
X45932352Y-64527276D01*
X45932351Y-64527275D01*
X45932349Y-64527275D01*
X45932347Y-64527274D01*
X45932344Y-64527274D01*
X45902766Y-64524500D01*
X45902756Y-64524500D01*
X45297244Y-64524500D01*
X45297233Y-64524500D01*
X45267655Y-64527274D01*
X45267647Y-64527276D01*
X45143023Y-64570884D01*
X45036789Y-64649288D01*
X45031767Y-64656093D01*
X45011400Y-64683691D01*
X45010959Y-64684288D01*
X44961191Y-64719881D01*
X44931303Y-64724500D01*
X43549500Y-64724500D01*
X43491309Y-64705593D01*
X43455345Y-64656093D01*
X43450500Y-64625500D01*
X43450500Y-64199500D01*
X43469407Y-64141309D01*
X43518907Y-64105345D01*
X43549500Y-64100500D01*
X44949754Y-64100500D01*
X45007945Y-64119407D01*
X45029409Y-64140712D01*
X45036784Y-64150705D01*
X45036785Y-64150706D01*
X45036789Y-64150711D01*
X45036792Y-64150713D01*
X45036793Y-64150714D01*
X45143023Y-64229115D01*
X45143024Y-64229115D01*
X45143025Y-64229116D01*
X45267651Y-64272725D01*
X45294941Y-64275284D01*
X45297233Y-64275499D01*
X45297238Y-64275500D01*
X45297244Y-64275500D01*
X45902762Y-64275500D01*
X45902765Y-64275499D01*
X45932349Y-64272725D01*
X46056975Y-64229116D01*
X46163211Y-64150711D01*
X46241616Y-64044475D01*
X46285225Y-63919849D01*
X46288000Y-63890256D01*
X46288000Y-63309744D01*
X46288000Y-63309738D01*
X46287999Y-63309733D01*
X46285225Y-63280155D01*
X46285225Y-63280151D01*
X46241616Y-63155525D01*
X46163211Y-63049289D01*
X46163206Y-63049285D01*
X46056976Y-62970884D01*
X45932352Y-62927276D01*
X45932351Y-62927275D01*
X45932349Y-62927275D01*
X45932347Y-62927274D01*
X45932344Y-62927274D01*
X45902766Y-62924500D01*
X45902756Y-62924500D01*
X45297244Y-62924500D01*
X45297233Y-62924500D01*
X45267655Y-62927274D01*
X45267647Y-62927276D01*
X45143023Y-62970884D01*
X45036793Y-63049285D01*
X45036784Y-63049294D01*
X45029409Y-63059288D01*
X44979641Y-63094881D01*
X44949754Y-63099500D01*
X43549500Y-63099500D01*
X43491309Y-63080593D01*
X43455345Y-63031093D01*
X43452002Y-63009986D01*
X43450976Y-63010088D01*
X43450500Y-63005261D01*
X43450500Y-63005252D01*
X43438867Y-62946769D01*
X43394552Y-62880448D01*
X43394548Y-62880445D01*
X43328233Y-62836134D01*
X43328231Y-62836133D01*
X43328228Y-62836132D01*
X43328227Y-62836132D01*
X43269758Y-62824501D01*
X43269748Y-62824500D01*
X41530252Y-62824500D01*
X41530251Y-62824500D01*
X41530241Y-62824501D01*
X41471772Y-62836132D01*
X41471766Y-62836134D01*
X41405451Y-62880445D01*
X41405445Y-62880451D01*
X41361134Y-62946766D01*
X41361132Y-62946772D01*
X41349501Y-63005241D01*
X41349500Y-63005253D01*
X41349500Y-64625500D01*
X41330593Y-64683691D01*
X41281093Y-64719655D01*
X41250500Y-64724500D01*
X40073322Y-64724500D01*
X40015131Y-64705593D01*
X40003318Y-64695504D01*
X39679496Y-64371682D01*
X39651719Y-64317165D01*
X39650500Y-64301678D01*
X39650500Y-63130253D01*
X39650498Y-63130241D01*
X39640622Y-63080593D01*
X39638867Y-63071769D01*
X39594552Y-63005448D01*
X39594548Y-63005445D01*
X39528233Y-62961134D01*
X39528231Y-62961133D01*
X39528228Y-62961132D01*
X39528227Y-62961132D01*
X39469758Y-62949501D01*
X39469748Y-62949500D01*
X37730252Y-62949500D01*
X37730251Y-62949500D01*
X37730241Y-62949501D01*
X37671772Y-62961132D01*
X37671766Y-62961134D01*
X37605451Y-63005445D01*
X37605445Y-63005451D01*
X37561134Y-63071766D01*
X37561132Y-63071772D01*
X37549501Y-63130241D01*
X37549500Y-63130253D01*
X37549500Y-64869746D01*
X33444776Y-64869746D01*
X33588004Y-64755525D01*
X33628081Y-64723565D01*
X33628087Y-64723559D01*
X33792823Y-64546015D01*
X33811635Y-64525741D01*
X33963651Y-64302775D01*
X34080738Y-64059641D01*
X34160280Y-63801772D01*
X34200500Y-63534929D01*
X34200500Y-63265071D01*
X34160280Y-62998228D01*
X34080738Y-62740359D01*
X33963651Y-62497226D01*
X33811635Y-62274259D01*
X33811629Y-62274252D01*
X33628087Y-62076440D01*
X33628081Y-62076434D01*
X33417110Y-61908191D01*
X33417108Y-61908189D01*
X33417102Y-61908185D01*
X33183398Y-61773257D01*
X33183395Y-61773256D01*
X33183391Y-61773254D01*
X32932197Y-61674666D01*
X32669107Y-61614618D01*
X32669098Y-61614616D01*
X32607513Y-61610001D01*
X37559692Y-61610001D01*
X37565191Y-61665833D01*
X37565190Y-61665833D01*
X37625232Y-61863762D01*
X37625234Y-61863767D01*
X37722724Y-62046160D01*
X37722731Y-62046170D01*
X37853940Y-62206050D01*
X37853949Y-62206059D01*
X38013829Y-62337268D01*
X38013839Y-62337275D01*
X38196232Y-62434765D01*
X38196237Y-62434767D01*
X38394166Y-62494808D01*
X38449998Y-62500307D01*
X38450000Y-62500306D01*
X38450000Y-61941170D01*
X38457685Y-61944680D01*
X38564237Y-61960000D01*
X38635763Y-61960000D01*
X38742315Y-61944680D01*
X38750000Y-61941170D01*
X38750000Y-62500306D01*
X38750001Y-62500307D01*
X38805833Y-62494808D01*
X39003762Y-62434767D01*
X39003767Y-62434765D01*
X39186160Y-62337275D01*
X39186170Y-62337268D01*
X39346050Y-62206059D01*
X39346059Y-62206050D01*
X39477268Y-62046170D01*
X39477275Y-62046160D01*
X39574765Y-61863767D01*
X39574767Y-61863762D01*
X39634808Y-61665833D01*
X39640307Y-61610001D01*
X39640306Y-61610000D01*
X39077065Y-61610000D01*
X39100000Y-61531889D01*
X39100000Y-61485001D01*
X41359692Y-61485001D01*
X41365191Y-61540833D01*
X41365190Y-61540833D01*
X41425232Y-61738762D01*
X41425234Y-61738767D01*
X41522724Y-61921160D01*
X41522731Y-61921170D01*
X41653940Y-62081050D01*
X41653949Y-62081059D01*
X41813829Y-62212268D01*
X41813839Y-62212275D01*
X41996232Y-62309765D01*
X41996237Y-62309767D01*
X42194166Y-62369808D01*
X42249998Y-62375307D01*
X42250000Y-62375306D01*
X42250000Y-61816170D01*
X42257685Y-61819680D01*
X42364237Y-61835000D01*
X42435763Y-61835000D01*
X42542315Y-61819680D01*
X42550000Y-61816170D01*
X42550000Y-62375306D01*
X42550001Y-62375307D01*
X42605833Y-62369808D01*
X42803762Y-62309767D01*
X42803767Y-62309765D01*
X42986160Y-62212275D01*
X42986170Y-62212268D01*
X43146050Y-62081059D01*
X43146059Y-62081050D01*
X43277268Y-61921170D01*
X43277275Y-61921160D01*
X43374765Y-61738767D01*
X43374767Y-61738762D01*
X43434808Y-61540833D01*
X43440307Y-61485001D01*
X43440306Y-61485000D01*
X42877065Y-61485000D01*
X42900000Y-61406889D01*
X42900000Y-61304203D01*
X44937501Y-61304203D01*
X44940350Y-61334600D01*
X44940350Y-61334602D01*
X44985154Y-61462647D01*
X45065707Y-61571790D01*
X45065709Y-61571792D01*
X45174852Y-61652345D01*
X45302898Y-61697149D01*
X45333289Y-61699999D01*
X45649998Y-61699999D01*
X45650000Y-61699998D01*
X45950000Y-61699998D01*
X45950001Y-61699999D01*
X46266703Y-61699999D01*
X46297100Y-61697149D01*
X46297102Y-61697149D01*
X46425147Y-61652345D01*
X46534290Y-61571792D01*
X46534292Y-61571790D01*
X46614845Y-61462647D01*
X46659649Y-61334601D01*
X46662499Y-61304211D01*
X46662500Y-61304210D01*
X46662500Y-60750001D01*
X46662499Y-60750000D01*
X45950001Y-60750000D01*
X45950000Y-60750001D01*
X45950000Y-61699998D01*
X45650000Y-61699998D01*
X45650000Y-60750001D01*
X45649999Y-60750000D01*
X44937502Y-60750000D01*
X44937501Y-60750001D01*
X44937501Y-61304203D01*
X42900000Y-61304203D01*
X42900000Y-61263111D01*
X42877065Y-61185000D01*
X43440306Y-61185000D01*
X43440307Y-61184998D01*
X43434808Y-61129166D01*
X43434809Y-61129166D01*
X43374767Y-60931237D01*
X43374765Y-60931232D01*
X43277275Y-60748839D01*
X43277268Y-60748829D01*
X43146059Y-60588949D01*
X43146050Y-60588940D01*
X42986170Y-60457731D01*
X42986160Y-60457724D01*
X42971707Y-60449999D01*
X44937500Y-60449999D01*
X44937501Y-60450000D01*
X45649999Y-60450000D01*
X45650000Y-60449999D01*
X45950000Y-60449999D01*
X45950001Y-60450000D01*
X46662498Y-60450000D01*
X46662499Y-60449999D01*
X46662499Y-59895796D01*
X46659649Y-59865399D01*
X46659649Y-59865397D01*
X46614845Y-59737352D01*
X46534292Y-59628209D01*
X46534290Y-59628207D01*
X46425147Y-59547654D01*
X46297101Y-59502850D01*
X46266711Y-59500000D01*
X45950001Y-59500000D01*
X45950000Y-59500001D01*
X45950000Y-60449999D01*
X45650000Y-60449999D01*
X45650000Y-59500001D01*
X45649999Y-59500000D01*
X45333296Y-59500000D01*
X45302899Y-59502850D01*
X45302897Y-59502850D01*
X45174852Y-59547654D01*
X45065709Y-59628207D01*
X45065707Y-59628209D01*
X44985154Y-59737352D01*
X44940350Y-59865398D01*
X44937500Y-59895788D01*
X44937500Y-60449999D01*
X42971707Y-60449999D01*
X42803767Y-60360234D01*
X42803762Y-60360232D01*
X42605843Y-60300194D01*
X42605832Y-60300191D01*
X42550000Y-60294692D01*
X42550000Y-60853829D01*
X42542315Y-60850320D01*
X42435763Y-60835000D01*
X42364237Y-60835000D01*
X42257685Y-60850320D01*
X42250000Y-60853829D01*
X42250000Y-60294692D01*
X42194167Y-60300191D01*
X42194156Y-60300194D01*
X41996237Y-60360232D01*
X41996232Y-60360234D01*
X41813839Y-60457724D01*
X41813829Y-60457731D01*
X41653949Y-60588940D01*
X41653940Y-60588949D01*
X41522731Y-60748829D01*
X41522724Y-60748839D01*
X41425234Y-60931232D01*
X41425232Y-60931237D01*
X41365191Y-61129166D01*
X41359692Y-61184998D01*
X41359694Y-61185000D01*
X41922935Y-61185000D01*
X41900000Y-61263111D01*
X41900000Y-61406889D01*
X41922935Y-61485000D01*
X41359694Y-61485000D01*
X41359692Y-61485001D01*
X39100000Y-61485001D01*
X39100000Y-61388111D01*
X39077065Y-61310000D01*
X39640306Y-61310000D01*
X39640307Y-61309998D01*
X39634808Y-61254166D01*
X39634809Y-61254166D01*
X39574767Y-61056237D01*
X39574765Y-61056232D01*
X39477275Y-60873839D01*
X39477268Y-60873829D01*
X39346059Y-60713949D01*
X39346050Y-60713940D01*
X39186170Y-60582731D01*
X39186160Y-60582724D01*
X39003767Y-60485234D01*
X39003762Y-60485232D01*
X38805843Y-60425194D01*
X38805832Y-60425191D01*
X38750000Y-60419692D01*
X38750000Y-60978829D01*
X38742315Y-60975320D01*
X38635763Y-60960000D01*
X38564237Y-60960000D01*
X38457685Y-60975320D01*
X38450000Y-60978829D01*
X38450000Y-60419692D01*
X38394167Y-60425191D01*
X38394156Y-60425194D01*
X38196237Y-60485232D01*
X38196232Y-60485234D01*
X38013839Y-60582724D01*
X38013829Y-60582731D01*
X37853949Y-60713940D01*
X37853940Y-60713949D01*
X37722731Y-60873829D01*
X37722724Y-60873839D01*
X37625234Y-61056232D01*
X37625232Y-61056237D01*
X37565191Y-61254166D01*
X37559692Y-61309998D01*
X37559694Y-61310000D01*
X38122935Y-61310000D01*
X38100000Y-61388111D01*
X38100000Y-61531889D01*
X38122935Y-61610000D01*
X37559694Y-61610000D01*
X37559692Y-61610001D01*
X32607513Y-61610001D01*
X32467382Y-61599500D01*
X32467376Y-61599500D01*
X32332624Y-61599500D01*
X32332618Y-61599500D01*
X32130901Y-61614616D01*
X32130892Y-61614618D01*
X31867802Y-61674666D01*
X31616608Y-61773254D01*
X31616599Y-61773258D01*
X31536194Y-61819680D01*
X31382898Y-61908185D01*
X31382894Y-61908187D01*
X31382894Y-61908188D01*
X31382889Y-61908191D01*
X31171918Y-62076434D01*
X31171912Y-62076440D01*
X30988370Y-62274252D01*
X30988365Y-62274258D01*
X30988365Y-62274259D01*
X30836349Y-62497225D01*
X30836349Y-62497226D01*
X30836345Y-62497232D01*
X30719262Y-62740356D01*
X30639721Y-62998223D01*
X30639719Y-62998233D01*
X30599500Y-63265067D01*
X30599500Y-63534932D01*
X29000500Y-63534932D01*
X29000500Y-57029274D01*
X30699500Y-57029274D01*
X30702353Y-57059694D01*
X30702355Y-57059703D01*
X30747207Y-57187883D01*
X30827845Y-57297144D01*
X30827847Y-57297146D01*
X30827850Y-57297150D01*
X30827853Y-57297152D01*
X30827855Y-57297154D01*
X30937116Y-57377792D01*
X30937117Y-57377792D01*
X30937118Y-57377793D01*
X31065301Y-57422646D01*
X31095725Y-57425499D01*
X31095727Y-57425500D01*
X31095734Y-57425500D01*
X32104273Y-57425500D01*
X32104273Y-57425499D01*
X32134699Y-57422646D01*
X32262882Y-57377793D01*
X32372150Y-57297150D01*
X32434258Y-57212996D01*
X32452791Y-57187885D01*
X32452792Y-57187883D01*
X32452793Y-57187882D01*
X32460169Y-57166801D01*
X32497233Y-57118122D01*
X32553613Y-57100500D01*
X32846387Y-57100500D01*
X32904578Y-57119407D01*
X32939830Y-57166800D01*
X32946772Y-57186640D01*
X32947208Y-57187885D01*
X33027845Y-57297144D01*
X33027847Y-57297146D01*
X33027850Y-57297150D01*
X33027853Y-57297152D01*
X33027855Y-57297154D01*
X33137116Y-57377792D01*
X33137117Y-57377792D01*
X33137118Y-57377793D01*
X33265301Y-57422646D01*
X33295725Y-57425499D01*
X33295727Y-57425500D01*
X33295734Y-57425500D01*
X34304273Y-57425500D01*
X34304273Y-57425499D01*
X34334699Y-57422646D01*
X34462882Y-57377793D01*
X34572150Y-57297150D01*
X34634258Y-57212996D01*
X34652791Y-57187885D01*
X34652792Y-57187883D01*
X34652793Y-57187882D01*
X34660169Y-57166801D01*
X34697233Y-57118122D01*
X34753613Y-57100500D01*
X35246387Y-57100500D01*
X35304578Y-57119407D01*
X35339830Y-57166800D01*
X35346772Y-57186640D01*
X35347208Y-57187885D01*
X35427845Y-57297144D01*
X35427847Y-57297146D01*
X35427850Y-57297150D01*
X35427853Y-57297152D01*
X35427855Y-57297154D01*
X35537116Y-57377792D01*
X35537117Y-57377792D01*
X35537118Y-57377793D01*
X35665301Y-57422646D01*
X35695725Y-57425499D01*
X35695727Y-57425500D01*
X35695734Y-57425500D01*
X36704273Y-57425500D01*
X36704273Y-57425499D01*
X36734699Y-57422646D01*
X36862882Y-57377793D01*
X36972150Y-57297150D01*
X37034258Y-57212996D01*
X37052791Y-57187885D01*
X37052792Y-57187883D01*
X37052793Y-57187882D01*
X37068917Y-57141801D01*
X37105982Y-57093122D01*
X37162361Y-57075500D01*
X37446387Y-57075500D01*
X37504578Y-57094407D01*
X37539830Y-57141800D01*
X37546717Y-57161481D01*
X37547208Y-57162885D01*
X37627845Y-57272144D01*
X37627847Y-57272146D01*
X37627850Y-57272150D01*
X37627853Y-57272152D01*
X37627855Y-57272154D01*
X37737116Y-57352792D01*
X37737117Y-57352792D01*
X37737118Y-57352793D01*
X37865301Y-57397646D01*
X37895725Y-57400499D01*
X37895727Y-57400500D01*
X37895734Y-57400500D01*
X38904273Y-57400500D01*
X38904273Y-57400499D01*
X38934699Y-57397646D01*
X39062882Y-57352793D01*
X39168500Y-57274844D01*
X39226548Y-57255503D01*
X39227288Y-57255500D01*
X40848732Y-57255500D01*
X40892212Y-57265559D01*
X40953607Y-57295573D01*
X41021740Y-57305500D01*
X41021743Y-57305500D01*
X42388257Y-57305500D01*
X42388260Y-57305500D01*
X42456393Y-57295573D01*
X42561483Y-57244198D01*
X42644198Y-57161483D01*
X42695573Y-57056393D01*
X42705500Y-56988260D01*
X46004500Y-56988260D01*
X46010475Y-57029266D01*
X46014427Y-57056395D01*
X46035989Y-57100500D01*
X46065802Y-57161483D01*
X46148517Y-57244198D01*
X46171636Y-57255500D01*
X46253604Y-57295572D01*
X46253605Y-57295572D01*
X46253607Y-57295573D01*
X46321740Y-57305500D01*
X46827389Y-57305500D01*
X46885580Y-57324407D01*
X46897392Y-57334496D01*
X46945503Y-57382606D01*
X46973281Y-57437122D01*
X46974500Y-57452610D01*
X46974500Y-62916127D01*
X46955593Y-62974318D01*
X46934288Y-62995782D01*
X46861794Y-63049284D01*
X46861785Y-63049293D01*
X46783384Y-63155523D01*
X46739776Y-63280147D01*
X46739774Y-63280155D01*
X46737000Y-63309733D01*
X46737000Y-63890266D01*
X46739774Y-63919844D01*
X46739776Y-63919852D01*
X46783384Y-64044476D01*
X46861785Y-64150706D01*
X46861789Y-64150711D01*
X46934289Y-64204218D01*
X46969881Y-64253984D01*
X46974500Y-64283872D01*
X46974500Y-64516127D01*
X46955593Y-64574318D01*
X46934288Y-64595782D01*
X46861794Y-64649284D01*
X46861785Y-64649293D01*
X46783384Y-64755523D01*
X46739776Y-64880147D01*
X46739774Y-64880155D01*
X46737000Y-64909733D01*
X46737000Y-65490266D01*
X46739774Y-65519844D01*
X46739776Y-65519852D01*
X46783384Y-65644476D01*
X46861785Y-65750706D01*
X46861789Y-65750711D01*
X46861792Y-65750713D01*
X46861793Y-65750714D01*
X46968023Y-65829115D01*
X46968024Y-65829115D01*
X46968025Y-65829116D01*
X47092651Y-65872725D01*
X47119941Y-65875284D01*
X47122233Y-65875499D01*
X47122238Y-65875500D01*
X47122244Y-65875500D01*
X47727762Y-65875500D01*
X47727765Y-65875499D01*
X47757349Y-65872725D01*
X47881975Y-65829116D01*
X47988211Y-65750711D01*
X48066616Y-65644475D01*
X48110225Y-65519849D01*
X48113000Y-65490256D01*
X48113000Y-64909744D01*
X48113000Y-64909738D01*
X48112999Y-64909733D01*
X48110225Y-64880155D01*
X48110225Y-64880151D01*
X48066616Y-64755525D01*
X48059623Y-64746050D01*
X47988214Y-64649293D01*
X47988213Y-64649292D01*
X47988211Y-64649289D01*
X47988206Y-64649285D01*
X47988205Y-64649284D01*
X47915712Y-64595782D01*
X47880119Y-64546015D01*
X47875500Y-64516127D01*
X47875500Y-64283872D01*
X47894407Y-64225681D01*
X47915707Y-64204220D01*
X47988211Y-64150711D01*
X48066616Y-64044475D01*
X48110225Y-63919849D01*
X48113000Y-63890256D01*
X48113000Y-63309744D01*
X48113000Y-63309738D01*
X48112999Y-63309733D01*
X48110225Y-63280155D01*
X48110225Y-63280151D01*
X48066616Y-63155525D01*
X47988211Y-63049289D01*
X47988206Y-63049285D01*
X47988205Y-63049284D01*
X47915712Y-62995782D01*
X47880119Y-62946015D01*
X47875500Y-62916127D01*
X47875500Y-61376228D01*
X47894407Y-61318037D01*
X47943907Y-61282073D01*
X48005093Y-61282073D01*
X48054593Y-61318037D01*
X48067944Y-61343530D01*
X48109707Y-61462883D01*
X48190345Y-61572144D01*
X48190347Y-61572146D01*
X48190350Y-61572150D01*
X48190353Y-61572152D01*
X48190355Y-61572154D01*
X48299616Y-61652792D01*
X48299617Y-61652792D01*
X48299618Y-61652793D01*
X48427801Y-61697646D01*
X48458225Y-61700499D01*
X48458227Y-61700500D01*
X48458234Y-61700500D01*
X49391773Y-61700500D01*
X49391773Y-61700499D01*
X49422199Y-61697646D01*
X49550382Y-61652793D01*
X49659650Y-61572150D01*
X49740293Y-61462882D01*
X49785146Y-61334699D01*
X49787999Y-61304273D01*
X49788000Y-61304273D01*
X49788000Y-59895727D01*
X49787999Y-59895725D01*
X49785146Y-59865305D01*
X49785146Y-59865301D01*
X49740293Y-59737118D01*
X49659913Y-59628207D01*
X49659654Y-59627855D01*
X49659652Y-59627853D01*
X49659650Y-59627850D01*
X49659646Y-59627847D01*
X49659644Y-59627845D01*
X49550383Y-59547207D01*
X49422203Y-59502355D01*
X49422194Y-59502353D01*
X49390254Y-59499357D01*
X49334083Y-59475098D01*
X49302900Y-59422455D01*
X49300500Y-59400790D01*
X49300500Y-58074507D01*
X49319407Y-58016316D01*
X49368907Y-57980352D01*
X49430093Y-57980352D01*
X49458285Y-57994850D01*
X49508190Y-58031681D01*
X49555523Y-58066615D01*
X49555524Y-58066615D01*
X49555525Y-58066616D01*
X49625705Y-58091173D01*
X49672763Y-58107640D01*
X49702090Y-58124854D01*
X49702141Y-58124781D01*
X49703140Y-58125470D01*
X49705715Y-58126982D01*
X49707073Y-58128185D01*
X49728667Y-58143090D01*
X49758437Y-58163638D01*
X49760812Y-58165386D01*
X49809943Y-58203877D01*
X49821248Y-58208964D01*
X49836856Y-58217767D01*
X49847070Y-58224818D01*
X49905429Y-58246950D01*
X49908153Y-58248078D01*
X49965068Y-58273694D01*
X49977275Y-58275930D01*
X49994528Y-58280740D01*
X50006128Y-58285140D01*
X50068100Y-58292664D01*
X50070986Y-58293103D01*
X50132394Y-58304357D01*
X50194683Y-58300589D01*
X50197648Y-58300500D01*
X50320102Y-58300500D01*
X50378293Y-58319407D01*
X50414257Y-58368907D01*
X50414257Y-58430093D01*
X50412668Y-58434607D01*
X50390563Y-58492891D01*
X50389419Y-58495652D01*
X50363805Y-58552566D01*
X50363802Y-58552574D01*
X50361565Y-58564782D01*
X50356758Y-58582027D01*
X50352360Y-58593625D01*
X50344841Y-58655545D01*
X50344391Y-58658499D01*
X50333141Y-58719895D01*
X50335358Y-58756526D01*
X50336910Y-58782192D01*
X50337000Y-58785158D01*
X50337000Y-59552693D01*
X50318093Y-59610884D01*
X50308004Y-59622697D01*
X50302845Y-59627855D01*
X50222207Y-59737116D01*
X50177355Y-59865296D01*
X50177353Y-59865305D01*
X50174500Y-59895725D01*
X50174500Y-61304274D01*
X50177353Y-61334694D01*
X50177355Y-61334703D01*
X50222207Y-61462883D01*
X50302847Y-61572148D01*
X50308000Y-61577300D01*
X50335780Y-61631815D01*
X50337000Y-61647307D01*
X50337000Y-62850500D01*
X50318093Y-62908691D01*
X50268593Y-62944655D01*
X50238000Y-62949500D01*
X49930252Y-62949500D01*
X49930251Y-62949500D01*
X49930241Y-62949501D01*
X49871772Y-62961132D01*
X49871766Y-62961134D01*
X49805451Y-63005445D01*
X49805445Y-63005451D01*
X49761134Y-63071766D01*
X49761132Y-63071772D01*
X49749501Y-63130241D01*
X49749500Y-63130253D01*
X49749500Y-64869746D01*
X49749501Y-64869758D01*
X49761132Y-64928227D01*
X49761134Y-64928233D01*
X49792228Y-64974767D01*
X49805448Y-64994552D01*
X49871769Y-65038867D01*
X49916231Y-65047711D01*
X49930241Y-65050498D01*
X49930246Y-65050498D01*
X49930252Y-65050500D01*
X49930253Y-65050500D01*
X51669747Y-65050500D01*
X51669748Y-65050500D01*
X51728231Y-65038867D01*
X51794552Y-64994552D01*
X51838867Y-64928231D01*
X51850500Y-64869748D01*
X51850500Y-64150001D01*
X52299692Y-64150001D01*
X52305191Y-64205833D01*
X52305190Y-64205833D01*
X52365232Y-64403762D01*
X52365234Y-64403767D01*
X52462724Y-64586160D01*
X52462731Y-64586170D01*
X52593940Y-64746050D01*
X52593949Y-64746059D01*
X52753829Y-64877268D01*
X52753839Y-64877275D01*
X52936232Y-64974765D01*
X52936237Y-64974767D01*
X53134166Y-65034808D01*
X53189998Y-65040307D01*
X53190000Y-65040306D01*
X53190000Y-64481170D01*
X53197685Y-64484680D01*
X53304237Y-64500000D01*
X53375763Y-64500000D01*
X53482315Y-64484680D01*
X53490000Y-64481170D01*
X53490000Y-65040306D01*
X53490001Y-65040307D01*
X53545833Y-65034808D01*
X53743762Y-64974767D01*
X53743767Y-64974765D01*
X53926160Y-64877275D01*
X53926170Y-64877268D01*
X54086050Y-64746059D01*
X54086059Y-64746050D01*
X54217268Y-64586170D01*
X54217275Y-64586160D01*
X54314765Y-64403767D01*
X54314767Y-64403762D01*
X54374808Y-64205833D01*
X54380307Y-64150001D01*
X54380306Y-64150000D01*
X53817065Y-64150000D01*
X53840000Y-64071889D01*
X53840000Y-63928111D01*
X53817065Y-63850000D01*
X54380306Y-63850000D01*
X54380307Y-63849998D01*
X54374808Y-63794166D01*
X54374809Y-63794166D01*
X54314767Y-63596237D01*
X54314765Y-63596232D01*
X54282000Y-63534932D01*
X73799500Y-63534932D01*
X73839719Y-63801766D01*
X73839721Y-63801776D01*
X73919262Y-64059641D01*
X74000876Y-64229115D01*
X74036349Y-64302774D01*
X74188365Y-64525741D01*
X74188368Y-64525744D01*
X74188370Y-64525747D01*
X74371912Y-64723559D01*
X74371918Y-64723565D01*
X74564665Y-64877275D01*
X74582898Y-64891815D01*
X74816602Y-65026743D01*
X75067805Y-65125334D01*
X75330897Y-65185383D01*
X75411587Y-65191429D01*
X75532618Y-65200500D01*
X75532624Y-65200500D01*
X75667382Y-65200500D01*
X75777408Y-65192254D01*
X75869103Y-65185383D01*
X76132195Y-65125334D01*
X76383398Y-65026743D01*
X76617102Y-64891815D01*
X76788004Y-64755525D01*
X76828081Y-64723565D01*
X76828087Y-64723559D01*
X76992823Y-64546015D01*
X77011635Y-64525741D01*
X77163651Y-64302775D01*
X77280738Y-64059641D01*
X77360280Y-63801772D01*
X77400500Y-63534929D01*
X77400500Y-63265071D01*
X77360280Y-62998228D01*
X77280738Y-62740359D01*
X77163651Y-62497226D01*
X77011635Y-62274259D01*
X77011629Y-62274252D01*
X76828087Y-62076440D01*
X76828081Y-62076434D01*
X76617110Y-61908191D01*
X76617108Y-61908189D01*
X76617102Y-61908185D01*
X76383398Y-61773257D01*
X76383395Y-61773256D01*
X76383391Y-61773254D01*
X76132197Y-61674666D01*
X75869107Y-61614618D01*
X75869098Y-61614616D01*
X75667382Y-61599500D01*
X75667376Y-61599500D01*
X75532624Y-61599500D01*
X75532618Y-61599500D01*
X75330901Y-61614616D01*
X75330892Y-61614618D01*
X75067802Y-61674666D01*
X74816608Y-61773254D01*
X74816599Y-61773258D01*
X74736194Y-61819680D01*
X74582898Y-61908185D01*
X74582894Y-61908187D01*
X74582894Y-61908188D01*
X74582889Y-61908191D01*
X74371918Y-62076434D01*
X74371912Y-62076440D01*
X74188370Y-62274252D01*
X74188365Y-62274258D01*
X74188365Y-62274259D01*
X74036349Y-62497225D01*
X74036349Y-62497226D01*
X74036345Y-62497232D01*
X73919262Y-62740356D01*
X73839721Y-62998223D01*
X73839719Y-62998233D01*
X73799500Y-63265067D01*
X73799500Y-63534932D01*
X54282000Y-63534932D01*
X54217275Y-63413839D01*
X54217268Y-63413829D01*
X54086059Y-63253949D01*
X54086050Y-63253940D01*
X53926170Y-63122731D01*
X53926160Y-63122724D01*
X53743767Y-63025234D01*
X53743762Y-63025232D01*
X53545843Y-62965194D01*
X53545832Y-62965191D01*
X53490000Y-62959692D01*
X53490000Y-63518829D01*
X53482315Y-63515320D01*
X53375763Y-63500000D01*
X53304237Y-63500000D01*
X53197685Y-63515320D01*
X53190000Y-63518829D01*
X53190000Y-62959692D01*
X53134167Y-62965191D01*
X53134156Y-62965194D01*
X52936237Y-63025232D01*
X52936232Y-63025234D01*
X52753839Y-63122724D01*
X52753829Y-63122731D01*
X52593949Y-63253940D01*
X52593940Y-63253949D01*
X52462731Y-63413829D01*
X52462724Y-63413839D01*
X52365234Y-63596232D01*
X52365232Y-63596237D01*
X52305191Y-63794166D01*
X52299692Y-63849998D01*
X52299694Y-63850000D01*
X52862935Y-63850000D01*
X52840000Y-63928111D01*
X52840000Y-64071889D01*
X52862935Y-64150000D01*
X52299694Y-64150000D01*
X52299692Y-64150001D01*
X51850500Y-64150001D01*
X51850500Y-63130252D01*
X51838867Y-63071769D01*
X51794552Y-63005448D01*
X51781996Y-62997058D01*
X51744118Y-62949007D01*
X51738000Y-62914744D01*
X51738000Y-61647307D01*
X51756907Y-61589116D01*
X51767000Y-61577300D01*
X51772152Y-61572148D01*
X51825912Y-61499304D01*
X51852793Y-61462882D01*
X51897646Y-61334699D01*
X51900499Y-61304273D01*
X51900500Y-61304273D01*
X51900500Y-61304203D01*
X53300001Y-61304203D01*
X53302850Y-61334600D01*
X53302850Y-61334602D01*
X53347654Y-61462647D01*
X53428207Y-61571790D01*
X53428209Y-61571792D01*
X53537352Y-61652345D01*
X53665398Y-61697149D01*
X53695789Y-61699999D01*
X54012498Y-61699999D01*
X54012500Y-61699998D01*
X54312500Y-61699998D01*
X54312501Y-61699999D01*
X54629203Y-61699999D01*
X54659600Y-61697149D01*
X54659602Y-61697149D01*
X54787647Y-61652345D01*
X54896790Y-61571792D01*
X54896792Y-61571790D01*
X54977345Y-61462647D01*
X55022149Y-61334601D01*
X55024999Y-61304211D01*
X55025000Y-61304210D01*
X55025000Y-60750001D01*
X55024999Y-60750000D01*
X54312501Y-60750000D01*
X54312500Y-60750001D01*
X54312500Y-61699998D01*
X54012500Y-61699998D01*
X54012500Y-60750001D01*
X54012499Y-60750000D01*
X53300002Y-60750000D01*
X53300001Y-60750001D01*
X53300001Y-61304203D01*
X51900500Y-61304203D01*
X51900500Y-60449999D01*
X53300000Y-60449999D01*
X53300001Y-60450000D01*
X54012499Y-60450000D01*
X54012500Y-60449999D01*
X54312500Y-60449999D01*
X54312501Y-60450000D01*
X55024998Y-60450000D01*
X55024999Y-60449999D01*
X55024999Y-59895796D01*
X55022149Y-59865399D01*
X55022149Y-59865397D01*
X54977345Y-59737352D01*
X54896792Y-59628209D01*
X54896790Y-59628207D01*
X54787647Y-59547654D01*
X54659601Y-59502850D01*
X54629211Y-59500000D01*
X54312501Y-59500000D01*
X54312500Y-59500001D01*
X54312500Y-60449999D01*
X54012500Y-60449999D01*
X54012500Y-59500001D01*
X54012499Y-59500000D01*
X53695796Y-59500000D01*
X53665399Y-59502850D01*
X53665397Y-59502850D01*
X53537352Y-59547654D01*
X53428209Y-59628207D01*
X53428207Y-59628209D01*
X53347654Y-59737352D01*
X53302850Y-59865398D01*
X53300000Y-59895788D01*
X53300000Y-60449999D01*
X51900500Y-60449999D01*
X51900500Y-59895727D01*
X51900499Y-59895725D01*
X51897646Y-59865305D01*
X51897646Y-59865301D01*
X51852793Y-59737118D01*
X51772413Y-59628207D01*
X51772154Y-59627855D01*
X51772152Y-59627853D01*
X51772150Y-59627850D01*
X51772146Y-59627847D01*
X51766996Y-59622697D01*
X51739219Y-59568180D01*
X51738000Y-59552693D01*
X51738000Y-59093665D01*
X51756907Y-59035474D01*
X51766996Y-59023661D01*
X52315996Y-58474661D01*
X52370513Y-58446884D01*
X52430945Y-58456455D01*
X52474210Y-58499720D01*
X52485000Y-58544665D01*
X52485000Y-58826246D01*
X52485001Y-58826258D01*
X52496632Y-58884727D01*
X52496633Y-58884731D01*
X52540948Y-58951052D01*
X52607269Y-58995367D01*
X52651731Y-59004211D01*
X52665741Y-59006998D01*
X52665746Y-59006998D01*
X52665752Y-59007000D01*
X52665753Y-59007000D01*
X56134247Y-59007000D01*
X56134248Y-59007000D01*
X56192731Y-58995367D01*
X56259052Y-58951052D01*
X56303367Y-58884731D01*
X56315000Y-58826248D01*
X56315000Y-56373752D01*
X56313418Y-56365801D01*
X56312211Y-56359731D01*
X56303367Y-56315269D01*
X56259052Y-56248948D01*
X56254229Y-56245725D01*
X56192733Y-56204634D01*
X56192731Y-56204633D01*
X56192728Y-56204632D01*
X56192727Y-56204632D01*
X56134258Y-56193001D01*
X56134248Y-56193000D01*
X52665752Y-56193000D01*
X52665751Y-56193000D01*
X52665741Y-56193001D01*
X52607272Y-56204632D01*
X52607266Y-56204634D01*
X52540951Y-56248945D01*
X52540945Y-56248951D01*
X52496634Y-56315266D01*
X52496632Y-56315272D01*
X52485001Y-56373741D01*
X52485000Y-56373753D01*
X52485000Y-56800500D01*
X52466093Y-56858691D01*
X52416593Y-56894655D01*
X52386000Y-56899500D01*
X52222648Y-56899500D01*
X52219683Y-56899410D01*
X52194240Y-56897871D01*
X52157395Y-56895642D01*
X52149001Y-56897180D01*
X52145195Y-56897878D01*
X52127352Y-56899500D01*
X50628521Y-56899500D01*
X50570330Y-56880593D01*
X50556316Y-56866682D01*
X50555961Y-56867038D01*
X50550711Y-56861789D01*
X50444476Y-56783384D01*
X50319852Y-56739776D01*
X50319851Y-56739775D01*
X50319849Y-56739775D01*
X50319847Y-56739774D01*
X50319844Y-56739774D01*
X50290266Y-56737000D01*
X50290256Y-56737000D01*
X50140865Y-56737000D01*
X50123020Y-56735378D01*
X50042605Y-56720641D01*
X49872807Y-56730913D01*
X49872802Y-56730914D01*
X49867655Y-56732518D01*
X49838205Y-56737000D01*
X49709733Y-56737000D01*
X49680155Y-56739774D01*
X49680147Y-56739776D01*
X49555523Y-56783384D01*
X49458288Y-56855147D01*
X49400240Y-56874489D01*
X49341910Y-56856018D01*
X49305577Y-56806788D01*
X49300500Y-56775492D01*
X49300500Y-56249507D01*
X49319407Y-56191316D01*
X49368907Y-56155352D01*
X49430093Y-56155352D01*
X49458285Y-56169850D01*
X49498459Y-56199500D01*
X49555523Y-56241615D01*
X49555524Y-56241615D01*
X49555525Y-56241616D01*
X49680151Y-56285225D01*
X49707441Y-56287784D01*
X49709733Y-56287999D01*
X49709738Y-56288000D01*
X49709744Y-56288000D01*
X50290262Y-56288000D01*
X50290265Y-56287999D01*
X50319849Y-56285225D01*
X50444475Y-56241616D01*
X50550711Y-56163211D01*
X50629116Y-56056975D01*
X50672725Y-55932349D01*
X50675500Y-55902756D01*
X50675500Y-55297244D01*
X50675500Y-55297238D01*
X50675499Y-55297233D01*
X50672725Y-55267655D01*
X50672725Y-55267651D01*
X50629116Y-55143025D01*
X50625321Y-55137883D01*
X50550714Y-55036793D01*
X50550713Y-55036792D01*
X50550711Y-55036789D01*
X50550706Y-55036785D01*
X50444476Y-54958384D01*
X50319852Y-54914776D01*
X50319851Y-54914775D01*
X50319849Y-54914775D01*
X50319847Y-54914774D01*
X50319844Y-54914774D01*
X50290266Y-54912000D01*
X50290256Y-54912000D01*
X49709744Y-54912000D01*
X49709733Y-54912000D01*
X49680155Y-54914774D01*
X49680147Y-54914776D01*
X49555523Y-54958384D01*
X49449293Y-55036785D01*
X49449289Y-55036789D01*
X49432683Y-55059289D01*
X49382917Y-55094881D01*
X49353029Y-55099500D01*
X48087432Y-55099500D01*
X48052833Y-55093257D01*
X48047331Y-55091204D01*
X48047330Y-55091204D01*
X48026814Y-55083552D01*
X47998313Y-55072921D01*
X47995049Y-55071569D01*
X47947460Y-55049836D01*
X47947453Y-55049834D01*
X47940013Y-55048764D01*
X47919519Y-55043533D01*
X47912481Y-55040908D01*
X47912482Y-55040908D01*
X47860300Y-55037176D01*
X47856787Y-55036798D01*
X47840799Y-55034500D01*
X47840798Y-55034500D01*
X47824651Y-55034500D01*
X47821118Y-55034374D01*
X47791239Y-55032237D01*
X47768926Y-55030641D01*
X47768925Y-55030641D01*
X47768924Y-55030641D01*
X47761589Y-55032237D01*
X47740543Y-55034500D01*
X47688260Y-55034500D01*
X46321740Y-55034500D01*
X46287673Y-55039463D01*
X46253604Y-55044427D01*
X46148518Y-55095801D01*
X46065801Y-55178518D01*
X46014427Y-55283604D01*
X46012441Y-55297238D01*
X46004500Y-55351740D01*
X46004500Y-55718260D01*
X46010583Y-55760013D01*
X46014427Y-55786395D01*
X46058894Y-55877353D01*
X46065802Y-55891483D01*
X46148517Y-55974198D01*
X46185914Y-55992480D01*
X46253604Y-56025572D01*
X46253605Y-56025572D01*
X46253607Y-56025573D01*
X46321740Y-56035500D01*
X46969201Y-56035500D01*
X47587563Y-56035500D01*
X47622158Y-56041741D01*
X47627668Y-56043796D01*
X47676696Y-56062081D01*
X47679950Y-56063430D01*
X47727542Y-56085165D01*
X47734977Y-56086233D01*
X47755483Y-56091468D01*
X47762516Y-56094091D01*
X47814728Y-56097825D01*
X47818195Y-56098198D01*
X47834200Y-56100500D01*
X47850347Y-56100500D01*
X47853880Y-56100626D01*
X47858870Y-56100982D01*
X47906072Y-56104359D01*
X47912469Y-56102967D01*
X47913409Y-56102763D01*
X47934455Y-56100500D01*
X48200500Y-56100500D01*
X48258691Y-56119407D01*
X48294655Y-56168907D01*
X48299500Y-56199500D01*
X48299500Y-59497316D01*
X48280593Y-59555507D01*
X48259288Y-59576971D01*
X48190355Y-59627845D01*
X48190345Y-59627855D01*
X48109707Y-59737116D01*
X48067944Y-59856469D01*
X48030879Y-59905149D01*
X47972279Y-59922746D01*
X47914527Y-59902538D01*
X47879683Y-59852243D01*
X47875500Y-59823771D01*
X47875500Y-57271187D01*
X47894407Y-57212996D01*
X47904497Y-57201183D01*
X47944198Y-57161483D01*
X47995573Y-57056393D01*
X48005500Y-56988260D01*
X48005500Y-56621740D01*
X47995573Y-56553607D01*
X47944198Y-56448517D01*
X47861483Y-56365802D01*
X47861481Y-56365801D01*
X47756395Y-56314427D01*
X47729139Y-56310456D01*
X47688260Y-56304500D01*
X46321740Y-56304500D01*
X46287673Y-56309463D01*
X46253604Y-56314427D01*
X46148518Y-56365801D01*
X46065801Y-56448518D01*
X46014427Y-56553604D01*
X46014427Y-56553607D01*
X46004500Y-56621740D01*
X46004500Y-56988260D01*
X42705500Y-56988260D01*
X42705500Y-56621740D01*
X42695573Y-56553607D01*
X42644198Y-56448517D01*
X42561483Y-56365802D01*
X42561481Y-56365801D01*
X42456395Y-56314427D01*
X42429139Y-56310456D01*
X42388260Y-56304500D01*
X41021740Y-56304500D01*
X40953607Y-56314427D01*
X40892212Y-56344441D01*
X40848732Y-56354500D01*
X39399500Y-56354500D01*
X39341309Y-56335593D01*
X39305345Y-56286093D01*
X39300500Y-56255500D01*
X39300500Y-56245727D01*
X39300499Y-56245725D01*
X39297646Y-56215305D01*
X39297646Y-56215301D01*
X39292292Y-56200000D01*
X42945373Y-56200000D01*
X42948992Y-56225168D01*
X42950000Y-56239259D01*
X42950000Y-56469700D01*
X42961603Y-56528036D01*
X43005806Y-56594189D01*
X43005810Y-56594193D01*
X43071963Y-56638396D01*
X43130299Y-56649999D01*
X43130303Y-56650000D01*
X44204999Y-56650000D01*
X44205000Y-56649999D01*
X44505000Y-56649999D01*
X44505001Y-56650000D01*
X45579697Y-56650000D01*
X45579700Y-56649999D01*
X45638036Y-56638396D01*
X45704189Y-56594193D01*
X45704193Y-56594189D01*
X45748396Y-56528036D01*
X45759999Y-56469700D01*
X45760000Y-56469697D01*
X45760000Y-56239259D01*
X45761008Y-56225168D01*
X45764627Y-56200000D01*
X45764627Y-56199998D01*
X45761008Y-56174830D01*
X45760000Y-56160740D01*
X45760000Y-55050001D01*
X45759999Y-55050000D01*
X44505001Y-55050000D01*
X44505000Y-55050001D01*
X44505000Y-56649999D01*
X44205000Y-56649999D01*
X44205000Y-55050001D01*
X44204999Y-55050000D01*
X42950001Y-55050000D01*
X42950000Y-55050001D01*
X42950000Y-56160740D01*
X42948992Y-56174830D01*
X42945373Y-56199998D01*
X42945373Y-56200000D01*
X39292292Y-56200000D01*
X39286063Y-56182198D01*
X39284690Y-56121028D01*
X39319534Y-56070733D01*
X39377285Y-56050525D01*
X39379507Y-56050500D01*
X41611913Y-56050500D01*
X41617459Y-56050811D01*
X41657035Y-56055270D01*
X41715479Y-56044211D01*
X41765940Y-56036605D01*
X41780694Y-56035500D01*
X42388257Y-56035500D01*
X42388260Y-56035500D01*
X42456393Y-56025573D01*
X42561483Y-55974198D01*
X42644198Y-55891483D01*
X42695573Y-55786393D01*
X42705500Y-55718260D01*
X42705500Y-55351740D01*
X42695573Y-55283607D01*
X42677750Y-55247150D01*
X42644198Y-55178518D01*
X42644198Y-55178517D01*
X42561483Y-55095802D01*
X42552078Y-55091204D01*
X42456395Y-55044427D01*
X42429139Y-55040456D01*
X42388260Y-55034500D01*
X41021740Y-55034500D01*
X40987673Y-55039463D01*
X40953604Y-55044427D01*
X40848518Y-55095801D01*
X40848515Y-55095803D01*
X40823813Y-55120505D01*
X40769296Y-55148281D01*
X40753811Y-55149500D01*
X39379507Y-55149500D01*
X39321316Y-55130593D01*
X39285352Y-55081093D01*
X39285352Y-55019907D01*
X39286063Y-55017802D01*
X39292292Y-55000000D01*
X39297646Y-54984699D01*
X39300499Y-54954273D01*
X39300500Y-54954273D01*
X39300500Y-54932492D01*
X43300000Y-54932492D01*
X43338197Y-54985065D01*
X43384162Y-55000000D01*
X43415838Y-55000000D01*
X43461803Y-54985065D01*
X43500000Y-54932492D01*
X45210000Y-54932492D01*
X45248197Y-54985065D01*
X45294162Y-55000000D01*
X45325838Y-55000000D01*
X45371803Y-54985065D01*
X45410000Y-54932492D01*
X45410000Y-54867508D01*
X45371803Y-54814935D01*
X45325838Y-54800000D01*
X45294162Y-54800000D01*
X45248197Y-54814935D01*
X45210000Y-54867508D01*
X45210000Y-54932492D01*
X43500000Y-54932492D01*
X43500000Y-54867508D01*
X43461803Y-54814935D01*
X43415838Y-54800000D01*
X43384162Y-54800000D01*
X43338197Y-54814935D01*
X43300000Y-54867508D01*
X43300000Y-54932492D01*
X39300500Y-54932492D01*
X39300500Y-54352611D01*
X39319407Y-54294420D01*
X39329496Y-54282607D01*
X39532607Y-54079496D01*
X39587124Y-54051719D01*
X39602611Y-54050500D01*
X39774470Y-54050500D01*
X39832661Y-54069407D01*
X39844474Y-54079496D01*
X40272325Y-54507347D01*
X40281975Y-54518561D01*
X40283432Y-54520535D01*
X40283434Y-54520538D01*
X40325489Y-54562593D01*
X40328657Y-54566006D01*
X40331057Y-54568795D01*
X40355121Y-54598970D01*
X40404271Y-54632480D01*
X40452118Y-54667793D01*
X40452120Y-54667793D01*
X40458677Y-54671259D01*
X40458469Y-54671651D01*
X40460450Y-54672651D01*
X40460643Y-54672253D01*
X40467324Y-54675470D01*
X40467327Y-54675472D01*
X40524172Y-54693006D01*
X40580300Y-54712646D01*
X40580302Y-54712646D01*
X40587593Y-54714026D01*
X40587510Y-54714460D01*
X40589697Y-54714831D01*
X40589763Y-54714394D01*
X40597096Y-54715499D01*
X40597098Y-54715500D01*
X40656572Y-54715500D01*
X40658715Y-54715580D01*
X40716010Y-54717724D01*
X40716016Y-54717722D01*
X40723385Y-54716893D01*
X40723434Y-54717331D01*
X40737344Y-54715500D01*
X40848732Y-54715500D01*
X40892212Y-54725559D01*
X40953607Y-54755573D01*
X41021740Y-54765500D01*
X41021743Y-54765500D01*
X42388257Y-54765500D01*
X42388260Y-54765500D01*
X42456393Y-54755573D01*
X42561483Y-54704198D01*
X42644198Y-54621483D01*
X42695573Y-54516393D01*
X42705500Y-54448260D01*
X42705500Y-54081740D01*
X42695573Y-54013607D01*
X42644198Y-53908517D01*
X42561483Y-53825802D01*
X42558820Y-53824500D01*
X42456395Y-53774427D01*
X42428843Y-53770413D01*
X42388260Y-53764500D01*
X41021740Y-53764500D01*
X40953607Y-53774427D01*
X40923081Y-53789350D01*
X40862500Y-53797921D01*
X40809598Y-53770413D01*
X40639185Y-53600000D01*
X42945373Y-53600000D01*
X42948992Y-53625168D01*
X42950000Y-53639259D01*
X42950000Y-54749999D01*
X42950001Y-54750000D01*
X44204999Y-54750000D01*
X44205000Y-54749999D01*
X44505000Y-54749999D01*
X44505001Y-54750000D01*
X45759999Y-54750000D01*
X45760000Y-54749999D01*
X45760000Y-54448260D01*
X46004500Y-54448260D01*
X46011118Y-54493682D01*
X46014427Y-54516395D01*
X46055300Y-54600001D01*
X46065802Y-54621483D01*
X46148517Y-54704198D01*
X46192212Y-54725559D01*
X46253604Y-54755572D01*
X46253605Y-54755572D01*
X46253607Y-54755573D01*
X46321740Y-54765500D01*
X46969201Y-54765500D01*
X48070544Y-54765500D01*
X48091590Y-54767763D01*
X48092830Y-54768032D01*
X48098927Y-54769359D01*
X48146412Y-54765962D01*
X48151119Y-54765626D01*
X48154652Y-54765500D01*
X48170799Y-54765500D01*
X48186799Y-54763199D01*
X48190272Y-54762824D01*
X48242483Y-54759091D01*
X48249515Y-54756467D01*
X48258385Y-54754203D01*
X69700001Y-54754203D01*
X69702850Y-54784600D01*
X69702850Y-54784602D01*
X69747654Y-54912647D01*
X69828207Y-55021790D01*
X69828209Y-55021792D01*
X69937352Y-55102345D01*
X70065398Y-55147149D01*
X70095789Y-55149999D01*
X70250000Y-55149999D01*
X70250000Y-55149998D01*
X70550000Y-55149998D01*
X70550001Y-55149999D01*
X70704203Y-55149999D01*
X70734600Y-55147149D01*
X70734602Y-55147149D01*
X70862647Y-55102345D01*
X70971790Y-55021792D01*
X70971792Y-55021790D01*
X71052345Y-54912647D01*
X71097149Y-54784601D01*
X71099999Y-54754211D01*
X71100000Y-54754210D01*
X71100000Y-54600001D01*
X71099999Y-54600000D01*
X70550001Y-54600000D01*
X70550000Y-54600001D01*
X70550000Y-55149998D01*
X70250000Y-55149998D01*
X70250000Y-54600001D01*
X70249999Y-54600000D01*
X69700002Y-54600000D01*
X69700001Y-54600001D01*
X69700001Y-54754203D01*
X48258385Y-54754203D01*
X48270022Y-54751233D01*
X48277457Y-54750165D01*
X48325049Y-54728429D01*
X48328295Y-54727084D01*
X48377331Y-54708796D01*
X48383342Y-54704296D01*
X48401549Y-54693492D01*
X48408373Y-54690377D01*
X48447917Y-54656110D01*
X48450642Y-54653914D01*
X48463593Y-54644221D01*
X48475042Y-54632770D01*
X48477579Y-54630408D01*
X48517143Y-54596128D01*
X48521202Y-54589811D01*
X48534477Y-54573335D01*
X48807813Y-54299999D01*
X69700000Y-54299999D01*
X69700001Y-54300000D01*
X70249999Y-54300000D01*
X70250000Y-54299999D01*
X70550000Y-54299999D01*
X70550001Y-54300000D01*
X71099998Y-54300000D01*
X71099999Y-54299999D01*
X71099999Y-54145796D01*
X71097149Y-54115399D01*
X71097149Y-54115397D01*
X71052345Y-53987352D01*
X70971792Y-53878209D01*
X70971790Y-53878207D01*
X70862647Y-53797654D01*
X70734601Y-53752850D01*
X70704211Y-53750000D01*
X70550001Y-53750000D01*
X70550000Y-53750001D01*
X70550000Y-54299999D01*
X70250000Y-54299999D01*
X70250000Y-53750001D01*
X70249999Y-53750000D01*
X70095796Y-53750000D01*
X70065399Y-53752850D01*
X70065397Y-53752850D01*
X69937352Y-53797654D01*
X69828209Y-53878207D01*
X69828207Y-53878209D01*
X69747654Y-53987352D01*
X69702850Y-54115398D01*
X69700000Y-54145788D01*
X69700000Y-54299999D01*
X48807813Y-54299999D01*
X50820318Y-52287496D01*
X50874835Y-52259719D01*
X50890322Y-52258500D01*
X52386000Y-52258500D01*
X52444191Y-52277407D01*
X52480155Y-52326907D01*
X52485000Y-52357500D01*
X52485000Y-52984246D01*
X52485001Y-52984258D01*
X52494315Y-53031078D01*
X52496633Y-53042731D01*
X52540948Y-53109052D01*
X52607269Y-53153367D01*
X52648674Y-53161603D01*
X52665741Y-53164998D01*
X52665746Y-53164998D01*
X52665752Y-53165000D01*
X52665753Y-53165000D01*
X56134247Y-53165000D01*
X56134248Y-53165000D01*
X56192731Y-53153367D01*
X56259052Y-53109052D01*
X56303367Y-53042731D01*
X56315000Y-52984248D01*
X56315000Y-51688260D01*
X61874500Y-51688260D01*
X61880625Y-51730299D01*
X61884427Y-51756395D01*
X61920318Y-51829810D01*
X61935802Y-51861483D01*
X62018517Y-51944198D01*
X62065317Y-51967077D01*
X62123604Y-51995572D01*
X62123605Y-51995572D01*
X62123607Y-51995573D01*
X62191740Y-52005500D01*
X62191743Y-52005500D01*
X63908257Y-52005500D01*
X63908260Y-52005500D01*
X63976393Y-51995573D01*
X64081483Y-51944198D01*
X64164198Y-51861483D01*
X64215573Y-51756393D01*
X64225500Y-51688260D01*
X64225500Y-51321740D01*
X64215573Y-51253607D01*
X64164198Y-51148517D01*
X64081483Y-51065802D01*
X64049133Y-51049987D01*
X63976395Y-51014427D01*
X63949139Y-51010456D01*
X63908260Y-51004500D01*
X62191740Y-51004500D01*
X62157673Y-51009463D01*
X62123604Y-51014427D01*
X62018518Y-51065801D01*
X61935801Y-51148518D01*
X61884427Y-51253604D01*
X61881625Y-51272835D01*
X61874500Y-51321740D01*
X61874500Y-51688260D01*
X56315000Y-51688260D01*
X56315000Y-50531752D01*
X56303367Y-50473269D01*
X56259052Y-50406948D01*
X56259048Y-50406945D01*
X56192733Y-50362634D01*
X56192731Y-50362633D01*
X56192728Y-50362632D01*
X56192727Y-50362632D01*
X56134258Y-50351001D01*
X56134248Y-50351000D01*
X52665752Y-50351000D01*
X52665751Y-50351000D01*
X52665741Y-50351001D01*
X52607272Y-50362632D01*
X52607266Y-50362634D01*
X52540951Y-50406945D01*
X52540945Y-50406951D01*
X52496634Y-50473266D01*
X52496632Y-50473272D01*
X52485001Y-50531741D01*
X52485000Y-50531753D01*
X52485000Y-51158500D01*
X52466093Y-51216691D01*
X52416593Y-51252655D01*
X52386000Y-51257500D01*
X50706453Y-51257500D01*
X50685410Y-51255238D01*
X50678073Y-51253642D01*
X50678072Y-51253642D01*
X50625890Y-51257374D01*
X50622358Y-51257500D01*
X50606198Y-51257500D01*
X50590201Y-51259799D01*
X50586690Y-51260177D01*
X50534515Y-51263908D01*
X50527476Y-51266534D01*
X50506986Y-51271764D01*
X50499543Y-51272834D01*
X50499542Y-51272835D01*
X50451943Y-51294571D01*
X50448681Y-51295923D01*
X50399670Y-51314204D01*
X50399664Y-51314208D01*
X50393649Y-51318710D01*
X50375463Y-51329500D01*
X50368628Y-51332622D01*
X50368625Y-51332623D01*
X50329083Y-51366885D01*
X50326334Y-51369101D01*
X50313406Y-51378779D01*
X50301986Y-51390199D01*
X50299401Y-51392606D01*
X50259859Y-51426868D01*
X50259856Y-51426872D01*
X50255793Y-51433194D01*
X50242519Y-51449665D01*
X47956682Y-53735504D01*
X47902165Y-53763281D01*
X47886678Y-53764500D01*
X47688260Y-53764500D01*
X46321740Y-53764500D01*
X46287673Y-53769463D01*
X46253604Y-53774427D01*
X46148518Y-53825801D01*
X46065801Y-53908518D01*
X46014427Y-54013604D01*
X46014427Y-54013607D01*
X46004500Y-54081740D01*
X46004500Y-54448260D01*
X45760000Y-54448260D01*
X45760000Y-53639259D01*
X45761008Y-53625168D01*
X45764627Y-53600000D01*
X45764627Y-53599998D01*
X45761008Y-53574830D01*
X45760000Y-53560740D01*
X45760000Y-53330302D01*
X45759999Y-53330299D01*
X45748396Y-53271963D01*
X45704193Y-53205810D01*
X45704189Y-53205806D01*
X45638036Y-53161603D01*
X45579700Y-53150000D01*
X44505001Y-53150000D01*
X44505000Y-53150001D01*
X44505000Y-54749999D01*
X44205000Y-54749999D01*
X44205000Y-53150001D01*
X44204999Y-53150000D01*
X43130299Y-53150000D01*
X43071963Y-53161603D01*
X43005810Y-53205806D01*
X43005806Y-53205810D01*
X42961603Y-53271963D01*
X42950000Y-53330299D01*
X42950000Y-53560740D01*
X42948992Y-53574830D01*
X42945373Y-53599998D01*
X42945373Y-53600000D01*
X40639185Y-53600000D01*
X40340484Y-53301298D01*
X40336782Y-53297155D01*
X40311961Y-53266030D01*
X40262810Y-53232519D01*
X40214964Y-53197207D01*
X40214961Y-53197205D01*
X40208404Y-53193740D01*
X40208608Y-53193352D01*
X40206626Y-53192352D01*
X40206437Y-53192746D01*
X40199755Y-53189528D01*
X40142904Y-53171992D01*
X40086782Y-53152354D01*
X40079496Y-53150976D01*
X40079577Y-53150544D01*
X40077384Y-53150171D01*
X40077319Y-53150605D01*
X40069985Y-53149500D01*
X40069984Y-53149500D01*
X40010509Y-53149500D01*
X39990696Y-53148758D01*
X39951072Y-53147276D01*
X39951071Y-53147276D01*
X39951070Y-53147276D01*
X39943697Y-53148107D01*
X39943647Y-53147668D01*
X39929738Y-53149500D01*
X39403087Y-53149500D01*
X39397541Y-53149189D01*
X39357965Y-53144730D01*
X39357961Y-53144730D01*
X39299519Y-53155788D01*
X39240714Y-53164650D01*
X39233628Y-53166837D01*
X39233498Y-53166418D01*
X39231381Y-53167115D01*
X39231526Y-53167529D01*
X39224529Y-53169976D01*
X39224528Y-53169977D01*
X39224526Y-53169977D01*
X39224526Y-53169978D01*
X39171936Y-53197773D01*
X39118357Y-53223575D01*
X39112229Y-53227754D01*
X39111982Y-53227392D01*
X39110169Y-53228678D01*
X39110430Y-53229031D01*
X39104459Y-53233437D01*
X39062413Y-53275483D01*
X39018804Y-53315945D01*
X39014181Y-53321743D01*
X39013838Y-53321469D01*
X39005293Y-53332602D01*
X38567394Y-53770503D01*
X38512877Y-53798281D01*
X38497390Y-53799500D01*
X37895725Y-53799500D01*
X37865305Y-53802353D01*
X37865296Y-53802355D01*
X37737116Y-53847207D01*
X37627855Y-53927845D01*
X37627845Y-53927855D01*
X37547208Y-54037114D01*
X37547207Y-54037118D01*
X37539830Y-54058198D01*
X37502767Y-54106878D01*
X37446387Y-54124500D01*
X37144865Y-54124500D01*
X37086674Y-54105593D01*
X37058381Y-54067551D01*
X37056258Y-54068674D01*
X37052792Y-54062116D01*
X36972154Y-53952855D01*
X36972152Y-53952853D01*
X36972150Y-53952850D01*
X36972146Y-53952847D01*
X36972144Y-53952845D01*
X36862883Y-53872207D01*
X36734703Y-53827355D01*
X36734694Y-53827353D01*
X36704274Y-53824500D01*
X36704266Y-53824500D01*
X35695734Y-53824500D01*
X35695725Y-53824500D01*
X35665305Y-53827353D01*
X35665296Y-53827355D01*
X35537116Y-53872207D01*
X35427855Y-53952845D01*
X35427845Y-53952855D01*
X35347207Y-54062116D01*
X35302355Y-54190296D01*
X35302353Y-54190305D01*
X35299500Y-54220725D01*
X35299500Y-54979274D01*
X35302353Y-55009694D01*
X35302355Y-55009703D01*
X35313937Y-55042802D01*
X35315310Y-55103972D01*
X35280466Y-55154267D01*
X35222715Y-55174475D01*
X35220493Y-55174500D01*
X35052612Y-55174500D01*
X34994421Y-55155593D01*
X34982608Y-55145504D01*
X34729496Y-54892392D01*
X34701719Y-54837875D01*
X34700500Y-54822388D01*
X34700500Y-54220727D01*
X34700499Y-54220725D01*
X34697646Y-54190305D01*
X34697646Y-54190301D01*
X34652793Y-54062118D01*
X34652790Y-54062114D01*
X34572154Y-53952855D01*
X34572152Y-53952853D01*
X34572150Y-53952850D01*
X34572146Y-53952847D01*
X34572144Y-53952845D01*
X34462883Y-53872207D01*
X34334703Y-53827355D01*
X34334694Y-53827353D01*
X34304274Y-53824500D01*
X34304266Y-53824500D01*
X33295734Y-53824500D01*
X33295725Y-53824500D01*
X33265305Y-53827353D01*
X33265296Y-53827355D01*
X33137116Y-53872207D01*
X33027855Y-53952845D01*
X33027845Y-53952855D01*
X32947208Y-54062114D01*
X32947207Y-54062118D01*
X32939830Y-54083198D01*
X32902767Y-54131878D01*
X32846387Y-54149500D01*
X32553613Y-54149500D01*
X32495422Y-54130593D01*
X32460169Y-54083199D01*
X32452793Y-54062118D01*
X32452791Y-54062116D01*
X32452791Y-54062114D01*
X32372154Y-53952855D01*
X32372152Y-53952853D01*
X32372150Y-53952850D01*
X32372146Y-53952847D01*
X32372144Y-53952845D01*
X32262883Y-53872207D01*
X32134703Y-53827355D01*
X32134694Y-53827353D01*
X32104274Y-53824500D01*
X32104266Y-53824500D01*
X31095734Y-53824500D01*
X31095725Y-53824500D01*
X31065305Y-53827353D01*
X31065296Y-53827355D01*
X30937116Y-53872207D01*
X30827855Y-53952845D01*
X30827845Y-53952855D01*
X30747207Y-54062116D01*
X30702355Y-54190296D01*
X30702353Y-54190305D01*
X30699500Y-54220725D01*
X30699500Y-54979274D01*
X30702353Y-55009694D01*
X30702355Y-55009703D01*
X30747207Y-55137883D01*
X30827845Y-55247144D01*
X30827847Y-55247146D01*
X30827850Y-55247150D01*
X30827853Y-55247152D01*
X30827855Y-55247154D01*
X30937116Y-55327792D01*
X30937117Y-55327792D01*
X30937118Y-55327793D01*
X31065301Y-55372646D01*
X31095725Y-55375499D01*
X31095727Y-55375500D01*
X31095734Y-55375500D01*
X32104273Y-55375500D01*
X32104273Y-55375499D01*
X32134699Y-55372646D01*
X32262882Y-55327793D01*
X32372150Y-55247150D01*
X32439722Y-55155593D01*
X32452791Y-55137885D01*
X32452792Y-55137883D01*
X32452793Y-55137882D01*
X32460169Y-55116801D01*
X32497233Y-55068122D01*
X32553613Y-55050500D01*
X32846387Y-55050500D01*
X32904578Y-55069407D01*
X32939830Y-55116800D01*
X32946772Y-55136640D01*
X32947208Y-55137885D01*
X33027845Y-55247144D01*
X33027847Y-55247146D01*
X33027850Y-55247150D01*
X33027853Y-55247152D01*
X33027855Y-55247154D01*
X33137116Y-55327792D01*
X33137117Y-55327792D01*
X33137118Y-55327793D01*
X33265301Y-55372646D01*
X33295725Y-55375499D01*
X33295727Y-55375500D01*
X33295734Y-55375500D01*
X33897388Y-55375500D01*
X33955579Y-55394407D01*
X33967391Y-55404496D01*
X34268392Y-55705496D01*
X34296170Y-55760013D01*
X34286599Y-55820445D01*
X34243334Y-55863710D01*
X34198389Y-55874500D01*
X33295725Y-55874500D01*
X33265305Y-55877353D01*
X33265296Y-55877355D01*
X33137116Y-55922207D01*
X33027855Y-56002845D01*
X33027845Y-56002855D01*
X32947208Y-56112114D01*
X32947207Y-56112118D01*
X32939830Y-56133198D01*
X32902767Y-56181878D01*
X32846387Y-56199500D01*
X32553613Y-56199500D01*
X32495422Y-56180593D01*
X32460169Y-56133199D01*
X32452793Y-56112118D01*
X32452791Y-56112116D01*
X32452791Y-56112114D01*
X32372154Y-56002855D01*
X32372152Y-56002853D01*
X32372150Y-56002850D01*
X32372146Y-56002847D01*
X32372144Y-56002845D01*
X32262883Y-55922207D01*
X32134703Y-55877355D01*
X32134694Y-55877353D01*
X32104274Y-55874500D01*
X32104266Y-55874500D01*
X31095734Y-55874500D01*
X31095725Y-55874500D01*
X31065305Y-55877353D01*
X31065296Y-55877355D01*
X30937116Y-55922207D01*
X30827855Y-56002845D01*
X30827845Y-56002855D01*
X30747207Y-56112116D01*
X30702355Y-56240296D01*
X30702353Y-56240305D01*
X30699500Y-56270725D01*
X30699500Y-57029274D01*
X29000500Y-57029274D01*
X29000500Y-52069700D01*
X29200000Y-52069700D01*
X29211603Y-52128036D01*
X29255806Y-52194189D01*
X29255810Y-52194193D01*
X29321963Y-52238396D01*
X29380299Y-52249999D01*
X29380303Y-52250000D01*
X30249999Y-52250000D01*
X30250000Y-52249999D01*
X30550000Y-52249999D01*
X30550001Y-52250000D01*
X31419697Y-52250000D01*
X31419700Y-52249999D01*
X31478036Y-52238396D01*
X31544189Y-52194193D01*
X31544193Y-52194189D01*
X31588396Y-52128036D01*
X31599999Y-52069700D01*
X31600000Y-52069697D01*
X31600000Y-52050001D01*
X31599999Y-52050000D01*
X30550001Y-52050000D01*
X30550000Y-52050001D01*
X30550000Y-52249999D01*
X30250000Y-52249999D01*
X30250000Y-52050001D01*
X30249999Y-52050000D01*
X29200001Y-52050000D01*
X29200000Y-52050001D01*
X29200000Y-52069700D01*
X29000500Y-52069700D01*
X29000500Y-51749999D01*
X29200000Y-51749999D01*
X29200001Y-51750000D01*
X30249999Y-51750000D01*
X30250000Y-51749999D01*
X30550000Y-51749999D01*
X30550001Y-51750000D01*
X31599999Y-51750000D01*
X31600000Y-51749999D01*
X31600000Y-51730302D01*
X31599999Y-51730299D01*
X31588396Y-51671963D01*
X31544193Y-51605810D01*
X31544189Y-51605806D01*
X31478036Y-51561603D01*
X31419700Y-51550000D01*
X30550001Y-51550000D01*
X30550000Y-51550001D01*
X30550000Y-51749999D01*
X30250000Y-51749999D01*
X30250000Y-51550001D01*
X30249999Y-51550000D01*
X29380299Y-51550000D01*
X29321963Y-51561603D01*
X29255810Y-51605806D01*
X29255806Y-51605810D01*
X29211603Y-51671963D01*
X29200000Y-51730299D01*
X29200000Y-51749999D01*
X29000500Y-51749999D01*
X29000500Y-50009746D01*
X29199500Y-50009746D01*
X29199501Y-50009758D01*
X29207853Y-50051743D01*
X29211133Y-50068231D01*
X29219241Y-50080365D01*
X29229319Y-50095448D01*
X29245927Y-50154336D01*
X29229320Y-50205449D01*
X29211603Y-50231964D01*
X29200000Y-50290299D01*
X29200000Y-50509700D01*
X29211603Y-50568036D01*
X29255806Y-50634189D01*
X29255810Y-50634193D01*
X29321963Y-50678396D01*
X29380299Y-50689999D01*
X29380303Y-50690000D01*
X31019697Y-50690000D01*
X31019700Y-50689999D01*
X31078036Y-50678396D01*
X31144189Y-50634193D01*
X31144193Y-50634189D01*
X31188396Y-50568036D01*
X31199999Y-50509700D01*
X31200000Y-50509697D01*
X31200000Y-50290302D01*
X31199999Y-50290299D01*
X31188396Y-50231964D01*
X31170680Y-50205450D01*
X31154072Y-50146562D01*
X31170682Y-50095446D01*
X31180008Y-50081489D01*
X31188867Y-50068231D01*
X31200500Y-50009748D01*
X31200500Y-49790252D01*
X31188867Y-49731769D01*
X31170981Y-49705001D01*
X31154372Y-49646115D01*
X31170982Y-49594997D01*
X31188867Y-49568231D01*
X31200500Y-49509748D01*
X31200500Y-49430165D01*
X31219407Y-49371974D01*
X31268907Y-49336010D01*
X31330093Y-49336010D01*
X31369504Y-49360161D01*
X32088654Y-50079312D01*
X32090704Y-50081489D01*
X32132065Y-50128177D01*
X32132067Y-50128179D01*
X32132071Y-50128183D01*
X32183445Y-50163644D01*
X32185832Y-50165402D01*
X32234940Y-50203876D01*
X32234942Y-50203876D01*
X32234944Y-50203878D01*
X32245449Y-50208606D01*
X32246247Y-50208965D01*
X32261856Y-50217768D01*
X32267967Y-50221986D01*
X32272070Y-50224818D01*
X32330421Y-50246947D01*
X32333145Y-50248075D01*
X32390069Y-50273695D01*
X32402279Y-50275932D01*
X32419529Y-50280741D01*
X32431128Y-50285140D01*
X32493070Y-50292660D01*
X32495985Y-50293104D01*
X32557394Y-50304358D01*
X32619693Y-50300589D01*
X32622659Y-50300500D01*
X34957628Y-50300500D01*
X35868835Y-50300500D01*
X35927026Y-50319407D01*
X35938839Y-50329496D01*
X36270504Y-50661161D01*
X36298281Y-50715678D01*
X36299500Y-50731165D01*
X36299500Y-51266774D01*
X36302353Y-51297194D01*
X36302355Y-51297203D01*
X36347207Y-51425383D01*
X36427845Y-51534644D01*
X36427847Y-51534646D01*
X36427850Y-51534650D01*
X36427853Y-51534652D01*
X36427855Y-51534654D01*
X36537116Y-51615292D01*
X36537117Y-51615292D01*
X36537118Y-51615293D01*
X36665301Y-51660146D01*
X36695725Y-51662999D01*
X36695727Y-51663000D01*
X36695734Y-51663000D01*
X38104273Y-51663000D01*
X38104273Y-51662999D01*
X38134699Y-51660146D01*
X38262882Y-51615293D01*
X38372150Y-51534650D01*
X38372155Y-51534642D01*
X38377303Y-51529496D01*
X38431820Y-51501719D01*
X38447307Y-51500500D01*
X38752693Y-51500500D01*
X38810884Y-51519407D01*
X38822697Y-51529496D01*
X38827847Y-51534646D01*
X38827850Y-51534650D01*
X38827853Y-51534652D01*
X38827855Y-51534654D01*
X38937116Y-51615292D01*
X38937117Y-51615292D01*
X38937118Y-51615293D01*
X39065301Y-51660146D01*
X39095725Y-51662999D01*
X39095727Y-51663000D01*
X39095734Y-51663000D01*
X40504273Y-51663000D01*
X40504273Y-51662999D01*
X40534699Y-51660146D01*
X40662882Y-51615293D01*
X40772150Y-51534650D01*
X40772155Y-51534642D01*
X40777303Y-51529496D01*
X40831820Y-51501719D01*
X40847307Y-51500500D01*
X41362493Y-51500500D01*
X41420684Y-51519407D01*
X41442144Y-51540707D01*
X41465350Y-51572150D01*
X41465353Y-51572152D01*
X41470504Y-51577303D01*
X41498281Y-51631820D01*
X41499500Y-51647307D01*
X41499500Y-52395500D01*
X41480593Y-52453691D01*
X41431093Y-52489655D01*
X41400500Y-52494500D01*
X41021740Y-52494500D01*
X40987673Y-52499463D01*
X40953604Y-52504427D01*
X40848518Y-52555801D01*
X40765801Y-52638518D01*
X40714427Y-52743604D01*
X40714427Y-52743607D01*
X40704500Y-52811740D01*
X40704500Y-53178260D01*
X40708514Y-53205810D01*
X40714427Y-53246395D01*
X40751129Y-53321469D01*
X40765802Y-53351483D01*
X40848517Y-53434198D01*
X40902285Y-53460483D01*
X40953604Y-53485572D01*
X40953605Y-53485572D01*
X40953607Y-53485573D01*
X41021740Y-53495500D01*
X41640544Y-53495500D01*
X41661590Y-53497763D01*
X41662830Y-53498032D01*
X41668927Y-53499359D01*
X41716412Y-53495962D01*
X41721119Y-53495626D01*
X41724652Y-53495500D01*
X42388257Y-53495500D01*
X42388260Y-53495500D01*
X42456393Y-53485573D01*
X42561483Y-53434198D01*
X42644198Y-53351483D01*
X42695573Y-53246393D01*
X42705500Y-53178260D01*
X42705500Y-53031078D01*
X42724407Y-52972887D01*
X42726919Y-52969759D01*
X42728180Y-52967930D01*
X42728183Y-52967929D01*
X42824818Y-52827930D01*
X42885140Y-52668872D01*
X42900500Y-52542372D01*
X42900500Y-51647307D01*
X42919407Y-51589116D01*
X42929500Y-51577300D01*
X42934652Y-51572148D01*
X43015292Y-51462883D01*
X43015291Y-51462883D01*
X43015293Y-51462882D01*
X43060146Y-51334699D01*
X43062999Y-51304273D01*
X43063000Y-51304273D01*
X43063000Y-51304203D01*
X44462501Y-51304203D01*
X44465350Y-51334600D01*
X44465350Y-51334602D01*
X44510154Y-51462647D01*
X44590707Y-51571790D01*
X44590709Y-51571792D01*
X44699852Y-51652345D01*
X44827898Y-51697149D01*
X44858289Y-51699999D01*
X45174998Y-51699999D01*
X45175000Y-51699998D01*
X45475000Y-51699998D01*
X45475001Y-51699999D01*
X45791703Y-51699999D01*
X45822100Y-51697149D01*
X45822102Y-51697149D01*
X45950147Y-51652345D01*
X46059290Y-51571792D01*
X46059292Y-51571790D01*
X46139845Y-51462647D01*
X46184649Y-51334601D01*
X46187499Y-51304211D01*
X46187500Y-51304210D01*
X46187500Y-50750001D01*
X46187499Y-50750000D01*
X45475001Y-50750000D01*
X45475000Y-50750001D01*
X45475000Y-51699998D01*
X45175000Y-51699998D01*
X45175000Y-50750001D01*
X45174999Y-50750000D01*
X44462502Y-50750000D01*
X44462501Y-50750001D01*
X44462501Y-51304203D01*
X43063000Y-51304203D01*
X43063000Y-50449999D01*
X44462500Y-50449999D01*
X44462501Y-50450000D01*
X45174999Y-50450000D01*
X45175000Y-50449999D01*
X45475000Y-50449999D01*
X45475001Y-50450000D01*
X46187498Y-50450000D01*
X46187499Y-50449999D01*
X46187499Y-49895796D01*
X46184649Y-49865399D01*
X46184649Y-49865397D01*
X46139845Y-49737352D01*
X46059292Y-49628209D01*
X46059290Y-49628207D01*
X45950147Y-49547654D01*
X45822101Y-49502850D01*
X45791711Y-49500000D01*
X45475001Y-49500000D01*
X45475000Y-49500001D01*
X45475000Y-50449999D01*
X45175000Y-50449999D01*
X45175000Y-49500001D01*
X45174999Y-49500000D01*
X44858296Y-49500000D01*
X44827899Y-49502850D01*
X44827897Y-49502850D01*
X44699852Y-49547654D01*
X44590709Y-49628207D01*
X44590707Y-49628209D01*
X44510154Y-49737352D01*
X44465350Y-49865398D01*
X44462500Y-49895788D01*
X44462500Y-50449999D01*
X43063000Y-50449999D01*
X43063000Y-49895727D01*
X43062999Y-49895725D01*
X43060551Y-49869619D01*
X43060146Y-49865301D01*
X43015293Y-49737118D01*
X43011347Y-49731772D01*
X42934654Y-49627855D01*
X42934652Y-49627853D01*
X42934650Y-49627850D01*
X42934646Y-49627847D01*
X42934644Y-49627845D01*
X42825383Y-49547207D01*
X42697203Y-49502355D01*
X42697194Y-49502353D01*
X42666774Y-49499500D01*
X42666766Y-49499500D01*
X41733234Y-49499500D01*
X41733225Y-49499500D01*
X41702805Y-49502353D01*
X41702796Y-49502355D01*
X41574616Y-49547207D01*
X41465355Y-49627845D01*
X41465345Y-49627855D01*
X41384707Y-49737116D01*
X41339855Y-49865296D01*
X41339853Y-49865305D01*
X41337000Y-49895725D01*
X41337000Y-50000500D01*
X41318093Y-50058691D01*
X41268593Y-50094655D01*
X41238000Y-50099500D01*
X40847307Y-50099500D01*
X40789116Y-50080593D01*
X40777303Y-50070504D01*
X40772152Y-50065353D01*
X40772150Y-50065350D01*
X40772146Y-50065347D01*
X40772144Y-50065345D01*
X40662883Y-49984707D01*
X40534703Y-49939855D01*
X40534694Y-49939853D01*
X40504274Y-49937000D01*
X40504266Y-49937000D01*
X39095734Y-49937000D01*
X39095725Y-49937000D01*
X39065305Y-49939853D01*
X39065296Y-49939855D01*
X38937116Y-49984707D01*
X38827855Y-50065345D01*
X38822697Y-50070504D01*
X38768180Y-50098281D01*
X38752693Y-50099500D01*
X38447307Y-50099500D01*
X38389116Y-50080593D01*
X38377303Y-50070504D01*
X38372152Y-50065353D01*
X38372150Y-50065350D01*
X38372146Y-50065347D01*
X38372144Y-50065345D01*
X38262883Y-49984707D01*
X38134703Y-49939855D01*
X38134694Y-49939853D01*
X38104274Y-49937000D01*
X38104266Y-49937000D01*
X37568665Y-49937000D01*
X37510474Y-49918093D01*
X37498661Y-49908004D01*
X36711344Y-49120686D01*
X36709294Y-49118508D01*
X36682537Y-49088306D01*
X36667929Y-49071817D01*
X36667925Y-49071814D01*
X36616576Y-49036369D01*
X36614168Y-49034598D01*
X36565057Y-48996122D01*
X36565055Y-48996121D01*
X36565054Y-48996120D01*
X36553743Y-48991029D01*
X36538141Y-48982229D01*
X36527933Y-48975183D01*
X36469600Y-48953060D01*
X36466848Y-48951920D01*
X36439048Y-48939409D01*
X36409933Y-48926305D01*
X36409926Y-48926303D01*
X36397723Y-48924067D01*
X36380461Y-48919255D01*
X36368875Y-48914861D01*
X36368873Y-48914860D01*
X36306954Y-48907341D01*
X36303999Y-48906891D01*
X36242602Y-48895641D01*
X36203598Y-48898001D01*
X36180306Y-48899410D01*
X36177341Y-48899500D01*
X32931165Y-48899500D01*
X32872974Y-48880593D01*
X32861161Y-48870504D01*
X32529496Y-48538839D01*
X32501719Y-48484322D01*
X32500500Y-48468835D01*
X32500500Y-48141703D01*
X36300001Y-48141703D01*
X36302850Y-48172100D01*
X36302850Y-48172102D01*
X36347654Y-48300147D01*
X36428207Y-48409290D01*
X36428209Y-48409292D01*
X36537352Y-48489845D01*
X36665398Y-48534649D01*
X36695789Y-48537499D01*
X37249998Y-48537499D01*
X37250000Y-48537498D01*
X37550000Y-48537498D01*
X37550001Y-48537499D01*
X38104203Y-48537499D01*
X38134600Y-48534649D01*
X38134602Y-48534649D01*
X38262647Y-48489845D01*
X38371790Y-48409292D01*
X38371792Y-48409290D01*
X38452345Y-48300147D01*
X38497149Y-48172101D01*
X38499999Y-48141711D01*
X38500000Y-48141710D01*
X38500000Y-48141703D01*
X38700001Y-48141703D01*
X38702850Y-48172100D01*
X38702850Y-48172102D01*
X38747654Y-48300147D01*
X38828207Y-48409290D01*
X38828209Y-48409292D01*
X38937352Y-48489845D01*
X39065398Y-48534649D01*
X39095789Y-48537499D01*
X39649998Y-48537499D01*
X39650000Y-48537498D01*
X39950000Y-48537498D01*
X39950001Y-48537499D01*
X40504203Y-48537499D01*
X40534600Y-48534649D01*
X40534602Y-48534649D01*
X40662647Y-48489845D01*
X40771790Y-48409292D01*
X40771792Y-48409290D01*
X40852345Y-48300147D01*
X40897149Y-48172101D01*
X40899999Y-48141711D01*
X40900000Y-48141710D01*
X40900000Y-47825001D01*
X40899999Y-47825000D01*
X39950001Y-47825000D01*
X39950000Y-47825001D01*
X39950000Y-48537498D01*
X39650000Y-48537498D01*
X39650000Y-47825001D01*
X39649999Y-47825000D01*
X38700002Y-47825000D01*
X38700001Y-47825001D01*
X38700001Y-48141703D01*
X38500000Y-48141703D01*
X38500000Y-47825001D01*
X38499999Y-47825000D01*
X37550001Y-47825000D01*
X37550000Y-47825001D01*
X37550000Y-48537498D01*
X37250000Y-48537498D01*
X37250000Y-47825001D01*
X37249999Y-47825000D01*
X36300002Y-47825000D01*
X36300001Y-47825001D01*
X36300001Y-48141703D01*
X32500500Y-48141703D01*
X32500500Y-47704203D01*
X42937501Y-47704203D01*
X42940350Y-47734600D01*
X42940350Y-47734602D01*
X42985154Y-47862647D01*
X43065707Y-47971790D01*
X43065709Y-47971792D01*
X43174852Y-48052345D01*
X43302898Y-48097149D01*
X43333289Y-48099999D01*
X43649998Y-48099999D01*
X43650000Y-48099998D01*
X43950000Y-48099998D01*
X43950001Y-48099999D01*
X44266703Y-48099999D01*
X44297100Y-48097149D01*
X44297102Y-48097149D01*
X44425147Y-48052345D01*
X44534290Y-47971792D01*
X44534292Y-47971790D01*
X44614845Y-47862647D01*
X44659649Y-47734601D01*
X44662499Y-47704211D01*
X44662500Y-47704210D01*
X44662500Y-47150001D01*
X44662499Y-47150000D01*
X43950001Y-47150000D01*
X43950000Y-47150001D01*
X43950000Y-48099998D01*
X43650000Y-48099998D01*
X43650000Y-47150001D01*
X43649999Y-47150000D01*
X42937502Y-47150000D01*
X42937501Y-47150001D01*
X42937501Y-47704203D01*
X32500500Y-47704203D01*
X32500500Y-47524999D01*
X36300000Y-47524999D01*
X36300001Y-47525000D01*
X37249999Y-47525000D01*
X37250000Y-47524999D01*
X37550000Y-47524999D01*
X37550001Y-47525000D01*
X38499998Y-47525000D01*
X38499999Y-47524999D01*
X38700000Y-47524999D01*
X38700001Y-47525000D01*
X39649999Y-47525000D01*
X39650000Y-47524999D01*
X39950000Y-47524999D01*
X39950001Y-47525000D01*
X40899998Y-47525000D01*
X40899999Y-47524999D01*
X40899999Y-47208296D01*
X40897149Y-47177899D01*
X40897149Y-47177897D01*
X40852345Y-47049852D01*
X40771792Y-46940709D01*
X40771790Y-46940707D01*
X40662647Y-46860154D01*
X40633625Y-46849999D01*
X42937500Y-46849999D01*
X42937501Y-46850000D01*
X43649999Y-46850000D01*
X43650000Y-46849999D01*
X43950000Y-46849999D01*
X43950001Y-46850000D01*
X44662498Y-46850000D01*
X44662499Y-46849999D01*
X44662499Y-46295796D01*
X44659649Y-46265399D01*
X44659649Y-46265397D01*
X44614845Y-46137352D01*
X44534292Y-46028209D01*
X44534290Y-46028207D01*
X44425147Y-45947654D01*
X44297101Y-45902850D01*
X44266711Y-45900000D01*
X43950001Y-45900000D01*
X43950000Y-45900001D01*
X43950000Y-46849999D01*
X43650000Y-46849999D01*
X43650000Y-45900001D01*
X43649999Y-45900000D01*
X43333296Y-45900000D01*
X43302899Y-45902850D01*
X43302897Y-45902850D01*
X43174852Y-45947654D01*
X43065709Y-46028207D01*
X43065707Y-46028209D01*
X42985154Y-46137352D01*
X42940350Y-46265398D01*
X42937500Y-46295788D01*
X42937500Y-46849999D01*
X40633625Y-46849999D01*
X40534601Y-46815350D01*
X40504211Y-46812500D01*
X39950001Y-46812500D01*
X39950000Y-46812501D01*
X39950000Y-47524999D01*
X39650000Y-47524999D01*
X39650000Y-46812501D01*
X39649999Y-46812500D01*
X39095796Y-46812500D01*
X39065399Y-46815350D01*
X39065397Y-46815350D01*
X38937352Y-46860154D01*
X38828209Y-46940707D01*
X38828207Y-46940709D01*
X38747654Y-47049852D01*
X38702850Y-47177898D01*
X38700000Y-47208288D01*
X38700000Y-47524999D01*
X38499999Y-47524999D01*
X38499999Y-47208296D01*
X38497149Y-47177899D01*
X38497149Y-47177897D01*
X38452345Y-47049852D01*
X38371792Y-46940709D01*
X38371790Y-46940707D01*
X38262647Y-46860154D01*
X38134601Y-46815350D01*
X38104211Y-46812500D01*
X37550001Y-46812500D01*
X37550000Y-46812501D01*
X37550000Y-47524999D01*
X37250000Y-47524999D01*
X37250000Y-46812501D01*
X37249999Y-46812500D01*
X36695796Y-46812500D01*
X36665399Y-46815350D01*
X36665397Y-46815350D01*
X36537352Y-46860154D01*
X36428209Y-46940707D01*
X36428207Y-46940709D01*
X36347654Y-47049852D01*
X36302850Y-47177898D01*
X36300000Y-47208288D01*
X36300000Y-47524999D01*
X32500500Y-47524999D01*
X32500500Y-46907631D01*
X32500499Y-46907618D01*
X32497789Y-46885301D01*
X32485140Y-46781128D01*
X32424818Y-46622070D01*
X32328183Y-46482071D01*
X32317202Y-46472343D01*
X32200853Y-46369267D01*
X32200852Y-46369266D01*
X32050225Y-46290210D01*
X32050224Y-46290209D01*
X32050223Y-46290209D01*
X31885058Y-46249500D01*
X31885056Y-46249500D01*
X31714944Y-46249500D01*
X31644710Y-46266810D01*
X31583685Y-46262376D01*
X31551016Y-46240690D01*
X31491741Y-46181414D01*
X31488822Y-46178229D01*
X31462456Y-46146806D01*
X31439818Y-46133736D01*
X31426918Y-46126288D01*
X31423288Y-46123975D01*
X31389684Y-46100446D01*
X31389679Y-46100443D01*
X31388224Y-46100054D01*
X31364348Y-46090164D01*
X31363045Y-46089411D01*
X31322652Y-46082289D01*
X31318439Y-46081355D01*
X31278807Y-46070736D01*
X31273877Y-46069415D01*
X31222563Y-46036091D01*
X31200636Y-45978969D01*
X31200500Y-45973788D01*
X31200500Y-45790253D01*
X31200498Y-45790241D01*
X31193238Y-45753743D01*
X31188867Y-45731769D01*
X31170981Y-45705001D01*
X31154372Y-45646115D01*
X31170982Y-45594997D01*
X31175072Y-45588876D01*
X31188867Y-45568231D01*
X31200500Y-45509748D01*
X31200500Y-45290252D01*
X31188867Y-45231769D01*
X31170680Y-45204550D01*
X31154072Y-45145664D01*
X31170681Y-45094547D01*
X31188396Y-45068034D01*
X31199999Y-45009700D01*
X31200000Y-45009697D01*
X31200000Y-44904203D01*
X42937501Y-44904203D01*
X42940350Y-44934600D01*
X42940350Y-44934602D01*
X42985154Y-45062647D01*
X43065707Y-45171790D01*
X43065709Y-45171792D01*
X43174852Y-45252345D01*
X43302898Y-45297149D01*
X43333289Y-45299999D01*
X43649998Y-45299999D01*
X43650000Y-45299998D01*
X43950000Y-45299998D01*
X43950001Y-45299999D01*
X44266703Y-45299999D01*
X44297100Y-45297149D01*
X44297102Y-45297149D01*
X44425147Y-45252345D01*
X44534290Y-45171792D01*
X44534292Y-45171790D01*
X44614845Y-45062647D01*
X44659649Y-44934601D01*
X44662499Y-44904211D01*
X44662500Y-44904210D01*
X44662500Y-44350001D01*
X44662499Y-44350000D01*
X43950001Y-44350000D01*
X43950000Y-44350001D01*
X43950000Y-45299998D01*
X43650000Y-45299998D01*
X43650000Y-44350001D01*
X43649999Y-44350000D01*
X42937502Y-44350000D01*
X42937501Y-44350001D01*
X42937501Y-44904203D01*
X31200000Y-44904203D01*
X31200000Y-44790302D01*
X31199999Y-44790299D01*
X31188396Y-44731963D01*
X31144193Y-44665810D01*
X31144189Y-44665806D01*
X31078036Y-44621603D01*
X31019700Y-44610000D01*
X29380299Y-44610000D01*
X29321963Y-44621603D01*
X29255810Y-44665806D01*
X29255806Y-44665810D01*
X29211603Y-44731963D01*
X29200000Y-44790299D01*
X29200000Y-45009700D01*
X29211603Y-45068035D01*
X29229319Y-45094549D01*
X29245927Y-45153437D01*
X29229319Y-45204550D01*
X29211135Y-45231764D01*
X29211132Y-45231772D01*
X29199501Y-45290241D01*
X29199500Y-45290253D01*
X29199500Y-45509746D01*
X29199501Y-45509758D01*
X29211132Y-45568227D01*
X29211133Y-45568231D01*
X29219305Y-45580461D01*
X29229019Y-45594999D01*
X29245627Y-45653887D01*
X29229019Y-45705001D01*
X29211134Y-45731767D01*
X29211132Y-45731772D01*
X29199501Y-45790241D01*
X29199500Y-45790253D01*
X29199500Y-46009746D01*
X29199501Y-46009758D01*
X29211132Y-46068227D01*
X29211133Y-46068231D01*
X29224934Y-46088885D01*
X29229019Y-46094999D01*
X29245627Y-46153887D01*
X29229019Y-46205001D01*
X29211134Y-46231767D01*
X29211132Y-46231772D01*
X29199501Y-46290241D01*
X29199500Y-46290253D01*
X29199500Y-46509746D01*
X29199501Y-46509758D01*
X29211132Y-46568227D01*
X29211133Y-46568231D01*
X29211134Y-46568232D01*
X29229019Y-46594999D01*
X29245627Y-46653887D01*
X29229019Y-46705001D01*
X29211134Y-46731767D01*
X29211132Y-46731772D01*
X29199501Y-46790241D01*
X29199500Y-46790253D01*
X29199500Y-47009746D01*
X29199501Y-47009758D01*
X29210825Y-47066682D01*
X29211133Y-47068231D01*
X29211134Y-47068232D01*
X29229019Y-47094999D01*
X29245627Y-47153887D01*
X29229019Y-47205001D01*
X29211134Y-47231767D01*
X29211132Y-47231772D01*
X29199501Y-47290241D01*
X29199500Y-47290253D01*
X29199500Y-47509746D01*
X29199501Y-47509758D01*
X29211132Y-47568227D01*
X29211133Y-47568231D01*
X29211134Y-47568232D01*
X29229019Y-47594999D01*
X29245627Y-47653887D01*
X29229019Y-47705001D01*
X29211134Y-47731767D01*
X29211132Y-47731772D01*
X29199501Y-47790241D01*
X29199500Y-47790253D01*
X29199500Y-48009746D01*
X29199501Y-48009758D01*
X29211132Y-48068227D01*
X29211133Y-48068231D01*
X29211134Y-48068232D01*
X29229019Y-48094999D01*
X29245627Y-48153887D01*
X29229019Y-48205001D01*
X29211134Y-48231767D01*
X29211132Y-48231772D01*
X29199501Y-48290241D01*
X29199500Y-48290253D01*
X29199500Y-48509746D01*
X29199501Y-48509758D01*
X29207364Y-48549285D01*
X29211133Y-48568231D01*
X29211134Y-48568232D01*
X29229019Y-48594999D01*
X29245627Y-48653887D01*
X29229019Y-48705001D01*
X29211134Y-48731767D01*
X29211132Y-48731772D01*
X29199501Y-48790241D01*
X29199500Y-48790253D01*
X29199500Y-49009746D01*
X29199501Y-49009758D01*
X29210668Y-49065892D01*
X29211133Y-49068231D01*
X29224085Y-49087615D01*
X29229019Y-49094999D01*
X29245627Y-49153887D01*
X29229019Y-49205001D01*
X29211134Y-49231767D01*
X29211132Y-49231772D01*
X29199501Y-49290241D01*
X29199500Y-49290253D01*
X29199500Y-49509746D01*
X29199501Y-49509758D01*
X29211132Y-49568227D01*
X29211133Y-49568231D01*
X29211134Y-49568232D01*
X29229019Y-49594999D01*
X29245627Y-49653887D01*
X29229019Y-49705001D01*
X29211134Y-49731767D01*
X29211132Y-49731772D01*
X29199501Y-49790241D01*
X29199500Y-49790253D01*
X29199500Y-50009746D01*
X29000500Y-50009746D01*
X29000500Y-44049999D01*
X42937500Y-44049999D01*
X42937501Y-44050000D01*
X43649999Y-44050000D01*
X43650000Y-44049999D01*
X43950000Y-44049999D01*
X43950001Y-44050000D01*
X44662498Y-44050000D01*
X44662499Y-44049999D01*
X44662499Y-43495796D01*
X44659649Y-43465399D01*
X44659649Y-43465397D01*
X44614845Y-43337352D01*
X44534292Y-43228209D01*
X44534290Y-43228207D01*
X44425147Y-43147654D01*
X44297101Y-43102850D01*
X44266711Y-43100000D01*
X43950001Y-43100000D01*
X43950000Y-43100001D01*
X43950000Y-44049999D01*
X43650000Y-44049999D01*
X43650000Y-43100001D01*
X43649999Y-43100000D01*
X43333296Y-43100000D01*
X43302899Y-43102850D01*
X43302897Y-43102850D01*
X43174852Y-43147654D01*
X43065709Y-43228207D01*
X43065707Y-43228209D01*
X42985154Y-43337352D01*
X42940350Y-43465398D01*
X42937500Y-43495788D01*
X42937500Y-44049999D01*
X29000500Y-44049999D01*
X29000500Y-43569700D01*
X29200000Y-43569700D01*
X29211603Y-43628036D01*
X29255806Y-43694189D01*
X29255810Y-43694193D01*
X29321963Y-43738396D01*
X29380299Y-43749999D01*
X29380303Y-43750000D01*
X30249999Y-43750000D01*
X30250000Y-43749999D01*
X30550000Y-43749999D01*
X30550001Y-43750000D01*
X31419697Y-43750000D01*
X31419700Y-43749999D01*
X31478036Y-43738396D01*
X31544189Y-43694193D01*
X31544193Y-43694189D01*
X31588396Y-43628036D01*
X31599999Y-43569700D01*
X31600000Y-43569697D01*
X31600000Y-43550001D01*
X31599999Y-43550000D01*
X30550001Y-43550000D01*
X30550000Y-43550001D01*
X30550000Y-43749999D01*
X30250000Y-43749999D01*
X30250000Y-43550001D01*
X30249999Y-43550000D01*
X29200001Y-43550000D01*
X29200000Y-43550001D01*
X29200000Y-43569700D01*
X29000500Y-43569700D01*
X29000500Y-43249999D01*
X29200000Y-43249999D01*
X29200001Y-43250000D01*
X30249999Y-43250000D01*
X30250000Y-43249999D01*
X30550000Y-43249999D01*
X30550001Y-43250000D01*
X31599999Y-43250000D01*
X31600000Y-43249999D01*
X31600000Y-43230302D01*
X31599999Y-43230299D01*
X31588396Y-43171963D01*
X31544193Y-43105810D01*
X31544189Y-43105806D01*
X31478036Y-43061603D01*
X31419700Y-43050000D01*
X30550001Y-43050000D01*
X30550000Y-43050001D01*
X30550000Y-43249999D01*
X30250000Y-43249999D01*
X30250000Y-43050001D01*
X30249999Y-43050000D01*
X29380299Y-43050000D01*
X29321963Y-43061603D01*
X29255810Y-43105806D01*
X29255806Y-43105810D01*
X29211603Y-43171963D01*
X29200000Y-43230299D01*
X29200000Y-43249999D01*
X29000500Y-43249999D01*
X29000500Y-39370002D01*
X29945233Y-39370002D01*
X29964273Y-39624076D01*
X29964275Y-39624086D01*
X30020970Y-39872487D01*
X30020970Y-39872489D01*
X30114055Y-40109664D01*
X30114064Y-40109683D01*
X30241451Y-40330322D01*
X30241461Y-40330337D01*
X30346195Y-40461670D01*
X30734794Y-40073070D01*
X30871931Y-40223501D01*
X30949814Y-40282316D01*
X30557111Y-40675020D01*
X30587088Y-40702835D01*
X30797624Y-40846375D01*
X31027176Y-40956922D01*
X31270649Y-41032023D01*
X31270659Y-41032025D01*
X31522599Y-41069999D01*
X31522608Y-41070000D01*
X31777392Y-41070000D01*
X31777400Y-41069999D01*
X32029340Y-41032025D01*
X32029350Y-41032023D01*
X32272823Y-40956921D01*
X32502376Y-40846375D01*
X32712908Y-40702838D01*
X32742887Y-40675020D01*
X32350184Y-40282317D01*
X32428069Y-40223501D01*
X32565204Y-40073071D01*
X32953803Y-40461670D01*
X33058543Y-40330330D01*
X33058548Y-40330322D01*
X33185935Y-40109683D01*
X33185944Y-40109664D01*
X33279029Y-39872489D01*
X33279029Y-39872487D01*
X33335724Y-39624086D01*
X33335726Y-39624076D01*
X33354767Y-39370002D01*
X33354767Y-39369997D01*
X33335726Y-39115923D01*
X33335724Y-39115913D01*
X33279029Y-38867512D01*
X33279029Y-38867510D01*
X33185944Y-38630335D01*
X33185935Y-38630316D01*
X33058548Y-38409677D01*
X33058538Y-38409662D01*
X32953803Y-38278328D01*
X32565203Y-38666927D01*
X32428069Y-38516499D01*
X32350183Y-38457681D01*
X32742887Y-38064978D01*
X32712907Y-38037161D01*
X32502376Y-37893624D01*
X32272823Y-37783078D01*
X32029350Y-37707976D01*
X32029340Y-37707974D01*
X31777400Y-37670000D01*
X31522599Y-37670000D01*
X31270659Y-37707974D01*
X31270649Y-37707976D01*
X31027176Y-37783077D01*
X30797624Y-37893624D01*
X30587092Y-38037161D01*
X30587084Y-38037167D01*
X30557111Y-38064978D01*
X30949815Y-38457682D01*
X30871931Y-38516499D01*
X30734795Y-38666928D01*
X30346196Y-38278329D01*
X30241455Y-38409670D01*
X30241451Y-38409677D01*
X30114064Y-38630316D01*
X30114055Y-38630335D01*
X30020970Y-38867510D01*
X30020970Y-38867512D01*
X29964275Y-39115913D01*
X29964273Y-39115923D01*
X29945233Y-39369997D01*
X29945233Y-39370002D01*
X29000500Y-39370002D01*
X29000500Y-36300003D01*
X33355161Y-36300003D01*
X33374467Y-36496029D01*
X33374468Y-36496034D01*
X33431650Y-36684535D01*
X33431652Y-36684540D01*
X33524504Y-36858253D01*
X33524511Y-36858264D01*
X33553851Y-36894014D01*
X33933274Y-36514590D01*
X33997327Y-36614258D01*
X34100555Y-36703705D01*
X34147147Y-36724982D01*
X33765983Y-37106146D01*
X33765984Y-37106147D01*
X33801735Y-37135488D01*
X33801746Y-37135495D01*
X33975459Y-37228347D01*
X33975464Y-37228349D01*
X34163965Y-37285531D01*
X34163970Y-37285532D01*
X34359997Y-37304839D01*
X34360003Y-37304839D01*
X34556029Y-37285532D01*
X34556034Y-37285531D01*
X34744535Y-37228349D01*
X34744540Y-37228347D01*
X34918257Y-37135493D01*
X34918260Y-37135491D01*
X34954014Y-37106147D01*
X34572850Y-36724983D01*
X34619445Y-36703705D01*
X34722673Y-36614258D01*
X34786724Y-36514591D01*
X35166147Y-36894014D01*
X35195491Y-36858260D01*
X35195493Y-36858257D01*
X35288347Y-36684540D01*
X35288349Y-36684535D01*
X35345531Y-36496034D01*
X35345532Y-36496029D01*
X35364839Y-36300003D01*
X35364839Y-36299996D01*
X35345532Y-36103970D01*
X35345531Y-36103965D01*
X35288349Y-35915464D01*
X35288347Y-35915459D01*
X35195495Y-35741746D01*
X35195488Y-35741735D01*
X35166147Y-35705984D01*
X35166146Y-35705983D01*
X34786723Y-36085406D01*
X34722673Y-35985742D01*
X34619445Y-35896295D01*
X34572849Y-35875015D01*
X34954014Y-35493851D01*
X34918264Y-35464511D01*
X34918253Y-35464504D01*
X34744540Y-35371652D01*
X34744535Y-35371650D01*
X34556034Y-35314468D01*
X34556029Y-35314467D01*
X34360003Y-35295161D01*
X34359997Y-35295161D01*
X34163970Y-35314467D01*
X34163965Y-35314468D01*
X33975464Y-35371650D01*
X33975459Y-35371652D01*
X33801748Y-35464502D01*
X33801736Y-35464510D01*
X33765984Y-35493851D01*
X34147149Y-35875016D01*
X34100555Y-35896295D01*
X33997327Y-35985742D01*
X33933275Y-36085408D01*
X33553851Y-35705984D01*
X33524510Y-35741736D01*
X33524502Y-35741748D01*
X33431652Y-35915459D01*
X33431650Y-35915464D01*
X33374468Y-36103965D01*
X33374467Y-36103970D01*
X33355161Y-36299996D01*
X33355161Y-36300003D01*
X29000500Y-36300003D01*
X29000500Y-29411242D01*
X33159500Y-29411242D01*
X33188300Y-29565311D01*
X33200382Y-29629940D01*
X33280753Y-29837401D01*
X33394672Y-30021388D01*
X33409500Y-30073503D01*
X33409500Y-30119746D01*
X33409501Y-30119758D01*
X33421132Y-30178227D01*
X33421134Y-30178233D01*
X33454962Y-30228859D01*
X33465448Y-30244552D01*
X33531769Y-30288867D01*
X33576231Y-30297711D01*
X33590241Y-30300498D01*
X33590246Y-30300498D01*
X33590252Y-30300500D01*
X33659610Y-30300500D01*
X33717801Y-30319407D01*
X33719233Y-30320468D01*
X33725311Y-30325058D01*
X33924472Y-30424229D01*
X34138464Y-30485115D01*
X34304497Y-30500500D01*
X37944497Y-30500500D01*
X38838110Y-30500500D01*
X38896301Y-30519407D01*
X38932265Y-30568907D01*
X38932265Y-30630093D01*
X38931555Y-30632197D01*
X38914775Y-30680151D01*
X38914774Y-30680155D01*
X38912000Y-30709733D01*
X38912000Y-31290266D01*
X38914774Y-31319844D01*
X38914776Y-31319852D01*
X38958384Y-31444476D01*
X39005038Y-31507690D01*
X39036789Y-31550711D01*
X39036792Y-31550713D01*
X39036793Y-31550714D01*
X39143021Y-31629114D01*
X39143023Y-31629114D01*
X39143025Y-31629116D01*
X39208199Y-31651921D01*
X39256878Y-31688986D01*
X39274500Y-31745365D01*
X39274500Y-31824166D01*
X39255593Y-31882357D01*
X39245530Y-31894143D01*
X39244197Y-31895477D01*
X39189691Y-31923275D01*
X39174167Y-31924500D01*
X38774500Y-31924500D01*
X38716309Y-31905593D01*
X38680345Y-31856093D01*
X38675500Y-31825500D01*
X38675500Y-31584738D01*
X38675499Y-31584733D01*
X38672725Y-31555155D01*
X38672725Y-31555151D01*
X38629116Y-31430525D01*
X38620525Y-31418885D01*
X38550714Y-31324293D01*
X38550713Y-31324292D01*
X38550711Y-31324289D01*
X38544695Y-31319849D01*
X38444476Y-31245884D01*
X38319852Y-31202276D01*
X38319851Y-31202275D01*
X38319849Y-31202275D01*
X38319847Y-31202274D01*
X38319844Y-31202274D01*
X38290266Y-31199500D01*
X38290256Y-31199500D01*
X37709744Y-31199500D01*
X37709733Y-31199500D01*
X37680155Y-31202274D01*
X37680147Y-31202276D01*
X37555523Y-31245884D01*
X37449293Y-31324285D01*
X37449285Y-31324293D01*
X37368106Y-31434288D01*
X37318339Y-31469881D01*
X37288451Y-31474500D01*
X35379496Y-31474500D01*
X35321305Y-31455593D01*
X35292372Y-31418885D01*
X35291107Y-31419562D01*
X35221996Y-31290266D01*
X35195910Y-31241462D01*
X35163749Y-31202274D01*
X35070887Y-31089121D01*
X35070878Y-31089112D01*
X34918542Y-30964093D01*
X34918540Y-30964092D01*
X34918538Y-30964090D01*
X34877618Y-30942218D01*
X34744732Y-30871188D01*
X34744730Y-30871187D01*
X34556129Y-30813975D01*
X34556126Y-30813974D01*
X34360003Y-30794659D01*
X34359997Y-30794659D01*
X34163873Y-30813974D01*
X34163870Y-30813975D01*
X33975269Y-30871187D01*
X33975267Y-30871188D01*
X33801467Y-30964087D01*
X33801457Y-30964093D01*
X33649121Y-31089112D01*
X33649112Y-31089121D01*
X33524093Y-31241457D01*
X33524087Y-31241467D01*
X33431188Y-31415267D01*
X33431187Y-31415269D01*
X33373975Y-31603870D01*
X33373974Y-31603873D01*
X33354659Y-31799996D01*
X33354659Y-31800003D01*
X33373974Y-31996126D01*
X33373975Y-31996129D01*
X33431187Y-32184730D01*
X33431188Y-32184732D01*
X33482189Y-32280147D01*
X33524090Y-32358538D01*
X33524092Y-32358540D01*
X33524093Y-32358542D01*
X33649112Y-32510878D01*
X33649121Y-32510887D01*
X33801457Y-32635906D01*
X33801462Y-32635910D01*
X33873659Y-32674500D01*
X33945107Y-32712690D01*
X33987513Y-32756796D01*
X33995896Y-32817404D01*
X33967053Y-32871365D01*
X33945107Y-32887310D01*
X33801463Y-32964089D01*
X33801457Y-32964093D01*
X33649121Y-33089112D01*
X33649112Y-33089121D01*
X33524093Y-33241457D01*
X33524087Y-33241467D01*
X33431188Y-33415267D01*
X33431187Y-33415269D01*
X33373975Y-33603870D01*
X33373974Y-33603873D01*
X33354659Y-33799996D01*
X33354659Y-33800003D01*
X33373974Y-33996126D01*
X33373975Y-33996129D01*
X33373976Y-33996132D01*
X33423863Y-34160588D01*
X33431187Y-34184730D01*
X33431188Y-34184732D01*
X33502218Y-34317618D01*
X33524090Y-34358538D01*
X33524092Y-34358540D01*
X33524093Y-34358542D01*
X33649112Y-34510878D01*
X33649121Y-34510887D01*
X33801457Y-34635906D01*
X33801462Y-34635910D01*
X33975273Y-34728814D01*
X34163868Y-34786024D01*
X34163870Y-34786024D01*
X34163873Y-34786025D01*
X34359997Y-34805341D01*
X34360000Y-34805341D01*
X34360003Y-34805341D01*
X34556126Y-34786025D01*
X34556127Y-34786024D01*
X34556132Y-34786024D01*
X34744727Y-34728814D01*
X34918538Y-34635910D01*
X35070883Y-34510883D01*
X35195910Y-34358538D01*
X35283640Y-34194407D01*
X35291107Y-34180438D01*
X35292620Y-34181246D01*
X35327756Y-34140096D01*
X35379496Y-34125500D01*
X36619749Y-34125500D01*
X36676533Y-34143404D01*
X36685316Y-34149554D01*
X36685847Y-34149696D01*
X36686770Y-34149944D01*
X36710652Y-34159836D01*
X36711954Y-34160588D01*
X36734386Y-34164543D01*
X36752351Y-34167710D01*
X36756548Y-34168640D01*
X36796193Y-34179264D01*
X36837077Y-34175687D01*
X36841377Y-34175500D01*
X37325353Y-34175500D01*
X37383544Y-34194407D01*
X37405006Y-34215709D01*
X37449289Y-34275711D01*
X37449292Y-34275713D01*
X37449293Y-34275714D01*
X37555523Y-34354115D01*
X37555524Y-34354115D01*
X37555525Y-34354116D01*
X37680151Y-34397725D01*
X37707441Y-34400284D01*
X37709733Y-34400499D01*
X37709738Y-34400500D01*
X37709744Y-34400500D01*
X38047165Y-34400500D01*
X38105356Y-34419407D01*
X38123003Y-34435864D01*
X38137545Y-34453194D01*
X38173073Y-34473706D01*
X38176712Y-34476025D01*
X38210311Y-34499551D01*
X38210313Y-34499552D01*
X38210316Y-34499554D01*
X38211767Y-34499942D01*
X38235659Y-34509840D01*
X38236186Y-34510143D01*
X38236955Y-34510588D01*
X38277351Y-34517710D01*
X38281548Y-34518640D01*
X38321193Y-34529264D01*
X38362077Y-34525687D01*
X38366377Y-34525500D01*
X38934008Y-34525500D01*
X38992199Y-34544407D01*
X39027452Y-34591802D01*
X39045882Y-34644472D01*
X39045885Y-34644478D01*
X39108128Y-34728814D01*
X39124289Y-34750711D01*
X39230525Y-34829116D01*
X39230528Y-34829117D01*
X39234288Y-34831892D01*
X39269881Y-34881660D01*
X39274500Y-34911548D01*
X39274500Y-35153028D01*
X39255593Y-35211219D01*
X39234290Y-35232682D01*
X39211791Y-35249287D01*
X39211785Y-35249293D01*
X39133384Y-35355523D01*
X39089776Y-35480147D01*
X39089774Y-35480155D01*
X39087000Y-35509733D01*
X39087000Y-36090266D01*
X39089774Y-36119844D01*
X39089776Y-36119852D01*
X39133384Y-36244476D01*
X39208015Y-36345598D01*
X39211789Y-36350711D01*
X39211792Y-36350713D01*
X39211793Y-36350714D01*
X39318023Y-36429115D01*
X39318024Y-36429115D01*
X39318025Y-36429116D01*
X39442651Y-36472725D01*
X39469941Y-36475284D01*
X39472233Y-36475499D01*
X39472238Y-36475500D01*
X39472244Y-36475500D01*
X40077762Y-36475500D01*
X40077765Y-36475499D01*
X40107349Y-36472725D01*
X40231975Y-36429116D01*
X40338211Y-36350711D01*
X40416616Y-36244475D01*
X40460225Y-36119849D01*
X40463000Y-36090256D01*
X40463000Y-35509744D01*
X40463000Y-35509738D01*
X40462999Y-35509733D01*
X40461685Y-35495725D01*
X40460225Y-35480151D01*
X40416616Y-35355525D01*
X40408648Y-35344729D01*
X40338214Y-35249293D01*
X40338213Y-35249292D01*
X40338211Y-35249289D01*
X40338206Y-35249285D01*
X40231976Y-35170884D01*
X40107352Y-35127276D01*
X40107351Y-35127275D01*
X40107349Y-35127275D01*
X40107347Y-35127274D01*
X40107344Y-35127274D01*
X40077766Y-35124500D01*
X40077756Y-35124500D01*
X40024500Y-35124500D01*
X39966309Y-35105593D01*
X39930345Y-35056093D01*
X39925500Y-35025500D01*
X39925500Y-34971723D01*
X39944407Y-34913532D01*
X39993907Y-34877568D01*
X40015253Y-34873155D01*
X40019849Y-34872725D01*
X40144475Y-34829116D01*
X40250711Y-34750711D01*
X40329116Y-34644475D01*
X40372725Y-34519849D01*
X40375500Y-34490256D01*
X40375500Y-34490201D01*
X40825000Y-34490201D01*
X40827771Y-34519758D01*
X40827772Y-34519759D01*
X40871330Y-34644240D01*
X40949641Y-34750348D01*
X40949651Y-34750358D01*
X41055759Y-34828669D01*
X41180240Y-34872227D01*
X41180241Y-34872228D01*
X41209799Y-34875000D01*
X41362499Y-34875000D01*
X41362500Y-34874999D01*
X41362500Y-34350001D01*
X41362499Y-34350000D01*
X40825001Y-34350000D01*
X40825000Y-34350001D01*
X40825000Y-34490201D01*
X40375500Y-34490201D01*
X40375500Y-34049999D01*
X40825000Y-34049999D01*
X40825001Y-34050000D01*
X41362499Y-34050000D01*
X41362500Y-34049999D01*
X41362500Y-33525001D01*
X41362499Y-33525000D01*
X41209799Y-33525000D01*
X41180241Y-33527771D01*
X41180240Y-33527772D01*
X41055759Y-33571330D01*
X40949651Y-33649641D01*
X40949641Y-33649651D01*
X40871330Y-33755759D01*
X40827772Y-33880240D01*
X40827771Y-33880241D01*
X40825000Y-33909798D01*
X40825000Y-34049999D01*
X40375500Y-34049999D01*
X40375500Y-33909744D01*
X40375500Y-33909738D01*
X40375499Y-33909733D01*
X40372725Y-33880155D01*
X40372725Y-33880151D01*
X40329116Y-33755525D01*
X40329113Y-33755521D01*
X40250714Y-33649293D01*
X40250713Y-33649292D01*
X40250711Y-33649289D01*
X40237198Y-33639316D01*
X40144476Y-33570884D01*
X40019852Y-33527276D01*
X40019851Y-33527275D01*
X40019849Y-33527275D01*
X40019847Y-33527274D01*
X40019844Y-33527274D01*
X39990266Y-33524500D01*
X39990256Y-33524500D01*
X39384744Y-33524500D01*
X39384733Y-33524500D01*
X39355155Y-33527274D01*
X39355147Y-33527276D01*
X39230523Y-33570884D01*
X39124293Y-33649285D01*
X39124285Y-33649293D01*
X39045885Y-33755521D01*
X39045882Y-33755527D01*
X39027452Y-33808198D01*
X38990386Y-33856879D01*
X38934008Y-33874500D01*
X38774500Y-33874500D01*
X38716309Y-33855593D01*
X38680345Y-33806093D01*
X38675500Y-33775500D01*
X38675500Y-33409738D01*
X38675499Y-33409733D01*
X38672725Y-33380155D01*
X38672725Y-33380151D01*
X38629116Y-33255525D01*
X38618737Y-33241462D01*
X38550714Y-33149293D01*
X38550713Y-33149292D01*
X38550711Y-33149289D01*
X38550706Y-33149285D01*
X38444476Y-33070884D01*
X38319852Y-33027276D01*
X38319851Y-33027275D01*
X38319849Y-33027275D01*
X38319847Y-33027274D01*
X38319844Y-33027274D01*
X38290266Y-33024500D01*
X38290256Y-33024500D01*
X37709744Y-33024500D01*
X37709733Y-33024500D01*
X37680155Y-33027274D01*
X37680147Y-33027276D01*
X37555523Y-33070884D01*
X37449293Y-33149285D01*
X37449285Y-33149293D01*
X37370884Y-33255523D01*
X37327276Y-33380147D01*
X37327274Y-33380155D01*
X37324500Y-33409733D01*
X37324500Y-33425500D01*
X37305593Y-33483691D01*
X37256093Y-33519655D01*
X37225500Y-33524500D01*
X36980252Y-33524500D01*
X36923468Y-33506596D01*
X36914687Y-33500447D01*
X36914679Y-33500444D01*
X36913224Y-33500054D01*
X36889348Y-33490164D01*
X36888045Y-33489411D01*
X36847652Y-33482289D01*
X36843436Y-33481354D01*
X36817153Y-33474312D01*
X36803807Y-33470736D01*
X36803806Y-33470736D01*
X36799381Y-33471123D01*
X36762926Y-33474312D01*
X36758626Y-33474500D01*
X35379496Y-33474500D01*
X35321305Y-33455593D01*
X35292372Y-33418885D01*
X35291107Y-33419562D01*
X35229450Y-33304211D01*
X35195910Y-33241462D01*
X35185411Y-33228669D01*
X35070887Y-33089121D01*
X35070878Y-33089112D01*
X34918542Y-32964093D01*
X34918540Y-32964092D01*
X34918538Y-32964090D01*
X34780414Y-32890261D01*
X34774893Y-32887310D01*
X34732486Y-32843204D01*
X34724103Y-32782596D01*
X34752945Y-32728635D01*
X34774893Y-32712690D01*
X34783576Y-32708048D01*
X34918538Y-32635910D01*
X35070883Y-32510883D01*
X35195910Y-32358538D01*
X35274048Y-32212352D01*
X35291107Y-32180438D01*
X35292620Y-32181246D01*
X35327756Y-32140096D01*
X35379496Y-32125500D01*
X37228277Y-32125500D01*
X37286468Y-32144407D01*
X37322432Y-32193907D01*
X37326844Y-32215253D01*
X37327159Y-32218612D01*
X37327275Y-32219851D01*
X37327276Y-32219852D01*
X37370884Y-32344476D01*
X37448764Y-32450000D01*
X37449289Y-32450711D01*
X37449292Y-32450713D01*
X37449293Y-32450714D01*
X37555523Y-32529115D01*
X37555524Y-32529115D01*
X37555525Y-32529116D01*
X37680151Y-32572725D01*
X37707441Y-32575284D01*
X37709733Y-32575499D01*
X37709738Y-32575500D01*
X37709744Y-32575500D01*
X37971525Y-32575500D01*
X38813000Y-32575500D01*
X38871191Y-32594407D01*
X38907155Y-32643907D01*
X38912000Y-32674500D01*
X38912000Y-32890266D01*
X38914774Y-32919844D01*
X38914776Y-32919852D01*
X38958384Y-33044476D01*
X39035742Y-33149293D01*
X39036789Y-33150711D01*
X39036792Y-33150713D01*
X39036793Y-33150714D01*
X39143023Y-33229115D01*
X39143024Y-33229115D01*
X39143025Y-33229116D01*
X39267651Y-33272725D01*
X39291912Y-33275000D01*
X39297233Y-33275499D01*
X39297238Y-33275500D01*
X39297244Y-33275500D01*
X39902762Y-33275500D01*
X39902765Y-33275499D01*
X39932349Y-33272725D01*
X40056975Y-33229116D01*
X40163211Y-33150711D01*
X40241616Y-33044475D01*
X40285225Y-32919849D01*
X40288000Y-32890256D01*
X40288000Y-32890201D01*
X40737500Y-32890201D01*
X40740271Y-32919758D01*
X40740272Y-32919759D01*
X40783830Y-33044240D01*
X40862141Y-33150348D01*
X40862151Y-33150358D01*
X40968259Y-33228669D01*
X41092740Y-33272227D01*
X41092741Y-33272228D01*
X41122299Y-33275000D01*
X41274999Y-33275000D01*
X41275000Y-33274999D01*
X41275000Y-32750001D01*
X41274999Y-32750000D01*
X40737501Y-32750000D01*
X40737500Y-32750001D01*
X40737500Y-32890201D01*
X40288000Y-32890201D01*
X40288000Y-32449999D01*
X40737500Y-32449999D01*
X40737501Y-32450000D01*
X41274999Y-32450000D01*
X41275000Y-32449999D01*
X41275000Y-31925001D01*
X41274999Y-31925000D01*
X41122299Y-31925000D01*
X41092741Y-31927771D01*
X41092740Y-31927772D01*
X40968259Y-31971330D01*
X40862151Y-32049641D01*
X40862141Y-32049651D01*
X40783830Y-32155759D01*
X40740272Y-32280240D01*
X40740271Y-32280241D01*
X40737500Y-32309798D01*
X40737500Y-32449999D01*
X40288000Y-32449999D01*
X40288000Y-32309744D01*
X40288000Y-32309738D01*
X40287999Y-32309733D01*
X40285225Y-32280155D01*
X40285225Y-32280151D01*
X40241616Y-32155525D01*
X40203005Y-32103209D01*
X40163214Y-32049293D01*
X40163213Y-32049292D01*
X40163211Y-32049289D01*
X40163206Y-32049285D01*
X40056977Y-31970884D01*
X39991801Y-31948078D01*
X39943121Y-31911012D01*
X39925500Y-31854634D01*
X39925500Y-31745365D01*
X39944407Y-31687174D01*
X39991800Y-31651921D01*
X40056975Y-31629116D01*
X40163211Y-31550711D01*
X40241616Y-31444475D01*
X40285225Y-31319849D01*
X40288000Y-31290256D01*
X40288000Y-30709744D01*
X40288000Y-30709738D01*
X40287999Y-30709733D01*
X40287784Y-30707441D01*
X40285225Y-30680151D01*
X40268445Y-30632197D01*
X40267073Y-30571028D01*
X40301917Y-30520733D01*
X40359669Y-30500525D01*
X40361890Y-30500500D01*
X40663110Y-30500500D01*
X40721301Y-30519407D01*
X40757265Y-30568907D01*
X40757265Y-30630093D01*
X40756555Y-30632197D01*
X40739775Y-30680151D01*
X40739774Y-30680155D01*
X40737000Y-30709733D01*
X40737000Y-31290266D01*
X40739774Y-31319844D01*
X40739776Y-31319852D01*
X40783384Y-31444476D01*
X40830038Y-31507690D01*
X40861789Y-31550711D01*
X40861792Y-31550713D01*
X40861793Y-31550714D01*
X40968023Y-31629115D01*
X40968024Y-31629115D01*
X40968025Y-31629116D01*
X41092651Y-31672725D01*
X41119941Y-31675284D01*
X41122233Y-31675499D01*
X41122238Y-31675500D01*
X41122244Y-31675500D01*
X41727762Y-31675500D01*
X41727765Y-31675499D01*
X41757349Y-31672725D01*
X41881975Y-31629116D01*
X41988211Y-31550711D01*
X42020844Y-31506493D01*
X42070612Y-31470900D01*
X42131795Y-31471358D01*
X42181025Y-31507690D01*
X42199500Y-31565281D01*
X42199500Y-32035558D01*
X42180593Y-32093749D01*
X42131093Y-32129713D01*
X42069907Y-32129713D01*
X42020845Y-32094347D01*
X41987855Y-32049648D01*
X41987848Y-32049641D01*
X41881740Y-31971330D01*
X41757259Y-31927772D01*
X41757258Y-31927771D01*
X41727701Y-31925000D01*
X41575001Y-31925000D01*
X41575000Y-31925001D01*
X41575000Y-33274999D01*
X41575001Y-33275000D01*
X41727701Y-33275000D01*
X41757258Y-33272228D01*
X41757259Y-33272227D01*
X41881740Y-33228669D01*
X41987848Y-33150358D01*
X41987857Y-33150349D01*
X42020845Y-33105653D01*
X42070612Y-33070060D01*
X42131796Y-33070518D01*
X42181026Y-33106851D01*
X42199500Y-33164441D01*
X42199500Y-33545161D01*
X42180593Y-33603352D01*
X42131093Y-33639316D01*
X42069907Y-33639316D01*
X42041712Y-33624817D01*
X41969238Y-33571329D01*
X41844759Y-33527772D01*
X41844758Y-33527771D01*
X41815201Y-33525000D01*
X41662501Y-33525000D01*
X41662500Y-33525001D01*
X41662500Y-34874999D01*
X41662501Y-34875000D01*
X41815201Y-34875000D01*
X41844758Y-34872228D01*
X41844759Y-34872227D01*
X41969240Y-34828669D01*
X42041712Y-34775183D01*
X42099759Y-34755841D01*
X42158090Y-34774312D01*
X42194423Y-34823542D01*
X42199500Y-34854838D01*
X42199500Y-35081911D01*
X42180593Y-35140102D01*
X42131093Y-35176066D01*
X42069907Y-35176066D01*
X42060913Y-35172261D01*
X41932352Y-35127276D01*
X41932351Y-35127275D01*
X41932349Y-35127275D01*
X41932347Y-35127274D01*
X41932344Y-35127274D01*
X41902766Y-35124500D01*
X41902756Y-35124500D01*
X41297244Y-35124500D01*
X41297233Y-35124500D01*
X41267655Y-35127274D01*
X41267647Y-35127276D01*
X41143023Y-35170884D01*
X41036793Y-35249285D01*
X41036785Y-35249293D01*
X40958384Y-35355523D01*
X40914776Y-35480147D01*
X40914774Y-35480155D01*
X40912000Y-35509733D01*
X40912000Y-36090266D01*
X40914774Y-36119844D01*
X40914776Y-36119852D01*
X40958384Y-36244476D01*
X41033015Y-36345598D01*
X41036789Y-36350711D01*
X41036792Y-36350713D01*
X41036793Y-36350714D01*
X41143023Y-36429115D01*
X41143024Y-36429115D01*
X41143025Y-36429116D01*
X41267651Y-36472725D01*
X41294941Y-36475284D01*
X41297233Y-36475499D01*
X41297238Y-36475500D01*
X41297244Y-36475500D01*
X41902762Y-36475500D01*
X41902765Y-36475499D01*
X41932349Y-36472725D01*
X42056975Y-36429116D01*
X42163211Y-36350711D01*
X42231905Y-36257632D01*
X42281671Y-36222041D01*
X42342854Y-36222499D01*
X42392084Y-36258831D01*
X42398045Y-36268244D01*
X42405344Y-36281348D01*
X42405349Y-36281355D01*
X42457970Y-36344723D01*
X42459390Y-36346516D01*
X42475836Y-36368295D01*
X42509019Y-36412236D01*
X42563457Y-36461863D01*
X42569878Y-36467716D01*
X42571532Y-36469296D01*
X43330584Y-37228347D01*
X43999372Y-37897135D01*
X47390365Y-41288128D01*
X47390370Y-41288132D01*
X47390373Y-41288135D01*
X47463746Y-41349063D01*
X47496435Y-41400784D01*
X47499500Y-41425227D01*
X47499500Y-43000884D01*
X47480593Y-43059075D01*
X47431093Y-43095039D01*
X47394106Y-43099139D01*
X47394085Y-43099608D01*
X47391773Y-43099500D01*
X47391766Y-43099500D01*
X46458234Y-43099500D01*
X46458225Y-43099500D01*
X46427805Y-43102353D01*
X46427796Y-43102355D01*
X46299616Y-43147207D01*
X46190355Y-43227845D01*
X46190345Y-43227855D01*
X46109707Y-43337116D01*
X46064855Y-43465296D01*
X46064853Y-43465305D01*
X46062000Y-43495725D01*
X46062000Y-44904274D01*
X46064853Y-44934694D01*
X46064855Y-44934703D01*
X46109707Y-45062883D01*
X46190347Y-45172148D01*
X46195500Y-45177300D01*
X46223280Y-45231815D01*
X46224500Y-45247307D01*
X46224500Y-45952693D01*
X46205593Y-46010884D01*
X46195504Y-46022697D01*
X46190345Y-46027855D01*
X46109707Y-46137116D01*
X46064855Y-46265296D01*
X46064853Y-46265305D01*
X46062000Y-46295725D01*
X46062000Y-47704274D01*
X46064853Y-47734694D01*
X46064855Y-47734703D01*
X46109707Y-47862883D01*
X46190345Y-47972144D01*
X46190347Y-47972146D01*
X46190350Y-47972150D01*
X46190353Y-47972152D01*
X46190355Y-47972154D01*
X46299616Y-48052792D01*
X46299617Y-48052792D01*
X46299618Y-48052793D01*
X46427801Y-48097646D01*
X46458225Y-48100499D01*
X46458227Y-48100500D01*
X46458234Y-48100500D01*
X46993835Y-48100500D01*
X47052026Y-48119407D01*
X47063839Y-48129496D01*
X47070504Y-48136161D01*
X47098281Y-48190678D01*
X47099500Y-48206165D01*
X47099500Y-52151678D01*
X47080593Y-52209869D01*
X47070504Y-52221682D01*
X46826682Y-52465504D01*
X46772165Y-52493281D01*
X46756678Y-52494500D01*
X46321740Y-52494500D01*
X46287673Y-52499463D01*
X46253604Y-52504427D01*
X46148518Y-52555801D01*
X46065801Y-52638518D01*
X46014427Y-52743604D01*
X46014427Y-52743607D01*
X46004500Y-52811740D01*
X46004500Y-53178260D01*
X46008514Y-53205810D01*
X46014427Y-53246395D01*
X46051129Y-53321469D01*
X46065802Y-53351483D01*
X46148517Y-53434198D01*
X46202285Y-53460483D01*
X46253604Y-53485572D01*
X46253605Y-53485572D01*
X46253607Y-53485573D01*
X46321740Y-53495500D01*
X46940544Y-53495500D01*
X46961590Y-53497763D01*
X46962830Y-53498032D01*
X46968927Y-53499359D01*
X47016412Y-53495962D01*
X47021119Y-53495626D01*
X47024652Y-53495500D01*
X47688257Y-53495500D01*
X47688260Y-53495500D01*
X47756393Y-53485573D01*
X47861483Y-53434198D01*
X47944198Y-53351483D01*
X47995573Y-53246393D01*
X48005500Y-53178260D01*
X48005500Y-52943110D01*
X48024407Y-52884919D01*
X48058488Y-52855452D01*
X48200852Y-52780734D01*
X48328183Y-52667929D01*
X48424818Y-52527930D01*
X48485140Y-52368872D01*
X48500500Y-52242372D01*
X48500500Y-48198832D01*
X48519407Y-48140641D01*
X48568907Y-48104677D01*
X48630093Y-48104677D01*
X48679155Y-48140044D01*
X48702850Y-48172150D01*
X48702853Y-48172152D01*
X48702855Y-48172154D01*
X48812116Y-48252792D01*
X48812117Y-48252792D01*
X48812118Y-48252793D01*
X48940301Y-48297646D01*
X48970725Y-48300499D01*
X48970727Y-48300500D01*
X48970734Y-48300500D01*
X49904273Y-48300500D01*
X49904273Y-48300499D01*
X49934699Y-48297646D01*
X50062882Y-48252793D01*
X50172150Y-48172150D01*
X50252793Y-48062882D01*
X50297646Y-47934699D01*
X50300499Y-47904273D01*
X50300500Y-47904273D01*
X50300500Y-47904203D01*
X51700001Y-47904203D01*
X51702850Y-47934600D01*
X51702850Y-47934602D01*
X51747654Y-48062647D01*
X51828207Y-48171790D01*
X51828209Y-48171792D01*
X51937352Y-48252345D01*
X52065398Y-48297149D01*
X52095789Y-48299999D01*
X52412498Y-48299999D01*
X52412500Y-48299998D01*
X52712500Y-48299998D01*
X52712501Y-48299999D01*
X53029203Y-48299999D01*
X53059600Y-48297149D01*
X53059602Y-48297149D01*
X53187647Y-48252345D01*
X53296790Y-48171792D01*
X53296792Y-48171790D01*
X53377345Y-48062647D01*
X53422149Y-47934601D01*
X53424999Y-47904211D01*
X53425000Y-47904210D01*
X53425000Y-47350001D01*
X53424999Y-47350000D01*
X52712501Y-47350000D01*
X52712500Y-47350001D01*
X52712500Y-48299998D01*
X52412500Y-48299998D01*
X52412500Y-47350001D01*
X52412499Y-47350000D01*
X51700002Y-47350000D01*
X51700001Y-47350001D01*
X51700001Y-47904203D01*
X50300500Y-47904203D01*
X50300500Y-47049999D01*
X51700000Y-47049999D01*
X51700001Y-47050000D01*
X52412499Y-47050000D01*
X52412500Y-47049999D01*
X52712500Y-47049999D01*
X52712501Y-47050000D01*
X53424998Y-47050000D01*
X53424999Y-47049999D01*
X53424999Y-46495796D01*
X53422149Y-46465399D01*
X53422149Y-46465397D01*
X53377345Y-46337352D01*
X53296792Y-46228209D01*
X53296790Y-46228207D01*
X53187647Y-46147654D01*
X53059601Y-46102850D01*
X53029211Y-46100000D01*
X52712501Y-46100000D01*
X52712500Y-46100001D01*
X52712500Y-47049999D01*
X52412500Y-47049999D01*
X52412500Y-46100001D01*
X52412499Y-46100000D01*
X52095796Y-46100000D01*
X52065399Y-46102850D01*
X52065397Y-46102850D01*
X51937352Y-46147654D01*
X51828209Y-46228207D01*
X51828207Y-46228209D01*
X51747654Y-46337352D01*
X51702850Y-46465398D01*
X51700000Y-46495788D01*
X51700000Y-47049999D01*
X50300500Y-47049999D01*
X50300500Y-46495727D01*
X50300499Y-46495725D01*
X50299219Y-46482072D01*
X50297646Y-46465301D01*
X50252793Y-46337118D01*
X50232553Y-46309694D01*
X50172154Y-46227855D01*
X50172152Y-46227853D01*
X50172150Y-46227850D01*
X50172146Y-46227847D01*
X50172144Y-46227845D01*
X50062883Y-46147207D01*
X49934703Y-46102355D01*
X49934694Y-46102353D01*
X49904274Y-46099500D01*
X49904266Y-46099500D01*
X48970734Y-46099500D01*
X48970725Y-46099500D01*
X48940305Y-46102353D01*
X48940296Y-46102355D01*
X48812116Y-46147207D01*
X48702850Y-46227849D01*
X48679648Y-46259288D01*
X48629880Y-46294881D01*
X48599992Y-46299500D01*
X47867357Y-46299500D01*
X47809166Y-46280593D01*
X47773913Y-46233198D01*
X47746161Y-46153887D01*
X47740293Y-46137118D01*
X47738399Y-46134552D01*
X47659654Y-46027855D01*
X47659652Y-46027853D01*
X47659650Y-46027850D01*
X47659646Y-46027847D01*
X47654496Y-46022697D01*
X47626719Y-45968180D01*
X47625500Y-45952693D01*
X47625500Y-45247307D01*
X47644407Y-45189116D01*
X47654500Y-45177300D01*
X47659652Y-45172148D01*
X47724470Y-45084322D01*
X47740293Y-45062882D01*
X47773913Y-44966802D01*
X47810978Y-44918122D01*
X47867357Y-44900500D01*
X48327346Y-44900500D01*
X48345192Y-44902122D01*
X48357394Y-44904358D01*
X48419693Y-44900589D01*
X48422659Y-44900500D01*
X48657643Y-44900500D01*
X48715834Y-44919407D01*
X48751087Y-44966802D01*
X48784707Y-45062883D01*
X48865345Y-45172144D01*
X48865347Y-45172146D01*
X48865350Y-45172150D01*
X48865353Y-45172152D01*
X48865355Y-45172154D01*
X48974616Y-45252792D01*
X48974617Y-45252792D01*
X48974618Y-45252793D01*
X49102801Y-45297646D01*
X49133225Y-45300499D01*
X49133227Y-45300500D01*
X49133234Y-45300500D01*
X50066773Y-45300500D01*
X50066773Y-45300499D01*
X50097199Y-45297646D01*
X50225382Y-45252793D01*
X50334650Y-45172150D01*
X50415293Y-45062882D01*
X50460146Y-44934699D01*
X50462999Y-44904273D01*
X50463000Y-44904273D01*
X50463000Y-44904203D01*
X51862501Y-44904203D01*
X51865350Y-44934600D01*
X51865350Y-44934602D01*
X51910154Y-45062647D01*
X51990707Y-45171790D01*
X51990709Y-45171792D01*
X52099852Y-45252345D01*
X52227898Y-45297149D01*
X52258289Y-45299999D01*
X52574998Y-45299999D01*
X52575000Y-45299998D01*
X52875000Y-45299998D01*
X52875001Y-45299999D01*
X53191703Y-45299999D01*
X53222100Y-45297149D01*
X53222102Y-45297149D01*
X53350147Y-45252345D01*
X53459290Y-45171792D01*
X53459292Y-45171790D01*
X53539845Y-45062647D01*
X53584649Y-44934601D01*
X53587499Y-44904211D01*
X53587500Y-44904210D01*
X53587500Y-44350001D01*
X53587499Y-44350000D01*
X52875001Y-44350000D01*
X52875000Y-44350001D01*
X52875000Y-45299998D01*
X52575000Y-45299998D01*
X52575000Y-44350001D01*
X52574999Y-44350000D01*
X51862502Y-44350000D01*
X51862501Y-44350001D01*
X51862501Y-44904203D01*
X50463000Y-44904203D01*
X50463000Y-44049999D01*
X51862500Y-44049999D01*
X51862501Y-44050000D01*
X52574999Y-44050000D01*
X52575000Y-44049999D01*
X52875000Y-44049999D01*
X52875001Y-44050000D01*
X53587498Y-44050000D01*
X53587499Y-44049999D01*
X53587499Y-43495796D01*
X53584649Y-43465399D01*
X53584649Y-43465397D01*
X53539845Y-43337352D01*
X53459292Y-43228209D01*
X53459290Y-43228207D01*
X53350147Y-43147654D01*
X53222101Y-43102850D01*
X53191711Y-43100000D01*
X52875001Y-43100000D01*
X52875000Y-43100001D01*
X52875000Y-44049999D01*
X52575000Y-44049999D01*
X52575000Y-43100001D01*
X52574999Y-43100000D01*
X52258296Y-43100000D01*
X52227899Y-43102850D01*
X52227897Y-43102850D01*
X52099852Y-43147654D01*
X51990709Y-43228207D01*
X51990707Y-43228209D01*
X51910154Y-43337352D01*
X51865350Y-43465398D01*
X51862500Y-43495788D01*
X51862500Y-44049999D01*
X50463000Y-44049999D01*
X50463000Y-43495727D01*
X50462999Y-43495725D01*
X50460146Y-43465305D01*
X50460146Y-43465301D01*
X50415293Y-43337118D01*
X50350997Y-43250000D01*
X50334654Y-43227855D01*
X50334652Y-43227853D01*
X50334650Y-43227850D01*
X50334646Y-43227847D01*
X50334644Y-43227845D01*
X50225383Y-43147207D01*
X50097203Y-43102355D01*
X50097194Y-43102353D01*
X50066774Y-43099500D01*
X50066766Y-43099500D01*
X49133234Y-43099500D01*
X49133225Y-43099500D01*
X49102805Y-43102353D01*
X49102801Y-43102354D01*
X49032197Y-43127059D01*
X48971027Y-43128431D01*
X48920733Y-43093587D01*
X48900525Y-43035835D01*
X48900500Y-43033614D01*
X48900500Y-41427485D01*
X48919407Y-41369294D01*
X48943554Y-41345809D01*
X48970215Y-41327546D01*
X48970214Y-41327546D01*
X48970221Y-41327542D01*
X49127542Y-41170221D01*
X49231437Y-41018551D01*
X49279921Y-40981230D01*
X49313112Y-40975500D01*
X49750500Y-40975500D01*
X49808691Y-40994407D01*
X49844655Y-41043907D01*
X49849500Y-41074500D01*
X49849500Y-41144746D01*
X49849501Y-41144758D01*
X49861132Y-41203227D01*
X49861133Y-41203231D01*
X49905448Y-41269552D01*
X49971769Y-41313867D01*
X50016231Y-41322711D01*
X50030241Y-41325498D01*
X50030246Y-41325498D01*
X50030252Y-41325500D01*
X50030253Y-41325500D01*
X51769747Y-41325500D01*
X51769748Y-41325500D01*
X51828231Y-41313867D01*
X51894552Y-41269552D01*
X51938867Y-41203231D01*
X51950500Y-41144748D01*
X51950500Y-41074500D01*
X51969407Y-41016309D01*
X52018907Y-40980345D01*
X52049500Y-40975500D01*
X52443835Y-40975500D01*
X52502026Y-40994407D01*
X52513839Y-41004496D01*
X54070504Y-42561161D01*
X54098281Y-42615678D01*
X54099500Y-42631165D01*
X54099500Y-45377340D01*
X54099410Y-45380307D01*
X54097986Y-45403851D01*
X54095641Y-45442604D01*
X54106891Y-45503999D01*
X54107341Y-45506954D01*
X54114860Y-45568873D01*
X54114861Y-45568875D01*
X54119255Y-45580461D01*
X54124067Y-45597723D01*
X54126303Y-45609926D01*
X54126305Y-45609932D01*
X54151290Y-45665448D01*
X54151916Y-45666837D01*
X54153060Y-45669600D01*
X54175183Y-45727932D01*
X54175183Y-45727934D01*
X54182229Y-45738141D01*
X54191029Y-45753743D01*
X54196120Y-45765054D01*
X54196121Y-45765055D01*
X54196122Y-45765057D01*
X54215861Y-45790252D01*
X54234598Y-45814168D01*
X54236369Y-45816576D01*
X54271814Y-45867925D01*
X54271817Y-45867929D01*
X54274724Y-45870504D01*
X54318508Y-45909294D01*
X54320686Y-45911344D01*
X55588654Y-47179312D01*
X55590704Y-47181489D01*
X55632065Y-47228177D01*
X55632067Y-47228179D01*
X55632071Y-47228183D01*
X55683445Y-47263644D01*
X55685832Y-47265402D01*
X55734940Y-47303876D01*
X55734942Y-47303876D01*
X55734944Y-47303878D01*
X55745449Y-47308606D01*
X55746247Y-47308965D01*
X55761856Y-47317768D01*
X55767967Y-47321986D01*
X55772070Y-47324818D01*
X55830421Y-47346947D01*
X55833145Y-47348075D01*
X55890069Y-47373695D01*
X55902279Y-47375932D01*
X55919541Y-47380745D01*
X55923415Y-47382214D01*
X55967948Y-47415986D01*
X55988438Y-47443749D01*
X56027850Y-47497150D01*
X56027853Y-47497152D01*
X56027855Y-47497154D01*
X56137116Y-47577792D01*
X56137117Y-47577792D01*
X56137118Y-47577793D01*
X56265301Y-47622646D01*
X56295725Y-47625499D01*
X56295727Y-47625500D01*
X56295734Y-47625500D01*
X57231335Y-47625500D01*
X57289526Y-47644407D01*
X57301339Y-47654496D01*
X58270504Y-48623661D01*
X58298281Y-48678178D01*
X58299500Y-48693665D01*
X58299500Y-50442381D01*
X58311639Y-50542340D01*
X58312000Y-50548312D01*
X58312000Y-50690266D01*
X58314774Y-50719844D01*
X58314776Y-50719852D01*
X58358384Y-50844476D01*
X58433526Y-50946290D01*
X58436789Y-50950711D01*
X58436792Y-50950713D01*
X58436793Y-50950714D01*
X58543023Y-51029115D01*
X58543024Y-51029115D01*
X58543025Y-51029116D01*
X58667651Y-51072725D01*
X58694941Y-51075284D01*
X58697233Y-51075499D01*
X58697238Y-51075500D01*
X58697244Y-51075500D01*
X58801495Y-51075500D01*
X58825186Y-51078376D01*
X58914944Y-51100500D01*
X58914947Y-51100500D01*
X59085053Y-51100500D01*
X59085056Y-51100500D01*
X59174813Y-51078376D01*
X59198505Y-51075500D01*
X59302762Y-51075500D01*
X59302765Y-51075499D01*
X59332349Y-51072725D01*
X59456975Y-51029116D01*
X59563211Y-50950711D01*
X59641616Y-50844475D01*
X59685225Y-50719849D01*
X59687999Y-50690266D01*
X60137000Y-50690266D01*
X60139774Y-50719844D01*
X60139776Y-50719852D01*
X60183384Y-50844476D01*
X60258526Y-50946290D01*
X60261789Y-50950711D01*
X60261792Y-50950713D01*
X60261793Y-50950714D01*
X60368023Y-51029115D01*
X60368024Y-51029115D01*
X60368025Y-51029116D01*
X60492651Y-51072725D01*
X60519941Y-51075284D01*
X60522233Y-51075499D01*
X60522238Y-51075500D01*
X60522244Y-51075500D01*
X61127762Y-51075500D01*
X61127765Y-51075499D01*
X61157349Y-51072725D01*
X61281975Y-51029116D01*
X61388211Y-50950711D01*
X61466616Y-50844475D01*
X61481548Y-50801802D01*
X61518613Y-50753122D01*
X61574992Y-50735500D01*
X62191740Y-50735500D01*
X63014201Y-50735500D01*
X64386678Y-50735500D01*
X64444869Y-50754407D01*
X64456682Y-50764496D01*
X65505518Y-51813332D01*
X65518796Y-51829810D01*
X65522856Y-51836127D01*
X65522857Y-51836129D01*
X65562394Y-51870387D01*
X65564982Y-51872796D01*
X65576407Y-51884221D01*
X65589345Y-51893906D01*
X65592097Y-51896124D01*
X65631624Y-51930375D01*
X65631625Y-51930375D01*
X65631627Y-51930377D01*
X65638454Y-51933495D01*
X65656651Y-51944291D01*
X65662669Y-51948796D01*
X65711697Y-51967081D01*
X65714941Y-51968425D01*
X65762543Y-51990165D01*
X65769978Y-51991233D01*
X65790484Y-51996468D01*
X65797517Y-51999091D01*
X65849729Y-52002825D01*
X65853196Y-52003198D01*
X65869201Y-52005500D01*
X65885348Y-52005500D01*
X65888881Y-52005626D01*
X65893871Y-52005982D01*
X65941073Y-52009359D01*
X65947470Y-52007967D01*
X65948410Y-52007763D01*
X65969456Y-52005500D01*
X68858257Y-52005500D01*
X68858260Y-52005500D01*
X68926393Y-51995573D01*
X69031483Y-51944198D01*
X69114198Y-51861483D01*
X69165573Y-51756393D01*
X69175500Y-51688260D01*
X69175500Y-51321740D01*
X69165573Y-51253607D01*
X69114198Y-51148517D01*
X69070182Y-51104501D01*
X69042407Y-51049987D01*
X69051978Y-50989555D01*
X69095243Y-50946290D01*
X69140188Y-50935500D01*
X69600500Y-50935500D01*
X69658691Y-50954407D01*
X69694655Y-51003907D01*
X69699500Y-51034500D01*
X69699500Y-52254274D01*
X69702353Y-52284694D01*
X69702355Y-52284703D01*
X69747207Y-52412883D01*
X69827845Y-52522144D01*
X69827847Y-52522146D01*
X69827850Y-52522150D01*
X69827853Y-52522152D01*
X69827855Y-52522154D01*
X69937116Y-52602792D01*
X69937117Y-52602792D01*
X69937118Y-52602793D01*
X70065301Y-52647646D01*
X70095725Y-52650499D01*
X70095727Y-52650500D01*
X70095734Y-52650500D01*
X70704273Y-52650500D01*
X70704273Y-52650499D01*
X70734699Y-52647646D01*
X70862882Y-52602793D01*
X70972150Y-52522150D01*
X71052793Y-52412882D01*
X71097646Y-52284699D01*
X71100499Y-52254273D01*
X71100500Y-52254273D01*
X71100500Y-51034500D01*
X71119407Y-50976309D01*
X71168907Y-50940345D01*
X71199500Y-50935500D01*
X72167368Y-50935500D01*
X72167372Y-50935500D01*
X72167378Y-50935499D01*
X72167381Y-50935499D01*
X72179466Y-50934031D01*
X72293872Y-50920140D01*
X72311398Y-50913492D01*
X72328698Y-50906933D01*
X72363802Y-50900500D01*
X72977341Y-50900500D01*
X72980306Y-50900589D01*
X73037904Y-50904073D01*
X73042605Y-50904358D01*
X73042605Y-50904357D01*
X73042606Y-50904358D01*
X73104019Y-50893103D01*
X73106924Y-50892661D01*
X73168872Y-50885140D01*
X73180462Y-50880744D01*
X73197725Y-50875931D01*
X73209932Y-50873695D01*
X73266854Y-50848075D01*
X73269588Y-50846943D01*
X73327930Y-50824818D01*
X73338142Y-50817768D01*
X73353750Y-50808965D01*
X73365057Y-50803878D01*
X73414174Y-50765395D01*
X73416582Y-50763625D01*
X73467929Y-50728183D01*
X73475312Y-50719849D01*
X73509307Y-50681474D01*
X73511337Y-50679319D01*
X73622620Y-50568036D01*
X73768788Y-50421867D01*
X73823303Y-50394092D01*
X73856975Y-50394558D01*
X73888757Y-50400500D01*
X73888761Y-50400500D01*
X74111243Y-50400500D01*
X74329940Y-50359618D01*
X74537401Y-50279247D01*
X74726562Y-50162124D01*
X74890981Y-50012236D01*
X75025058Y-49834689D01*
X75124229Y-49635528D01*
X75185115Y-49421536D01*
X75200500Y-49255503D01*
X75200500Y-42799500D01*
X75219407Y-42741309D01*
X75268907Y-42705345D01*
X75299500Y-42700500D01*
X77819747Y-42700500D01*
X77819748Y-42700500D01*
X77878231Y-42688867D01*
X77944552Y-42644552D01*
X77988867Y-42578231D01*
X78000500Y-42519748D01*
X78000500Y-37080252D01*
X77988867Y-37021769D01*
X77944552Y-36955448D01*
X77944548Y-36955445D01*
X77878233Y-36911134D01*
X77878231Y-36911133D01*
X77878228Y-36911132D01*
X77878227Y-36911132D01*
X77819758Y-36899501D01*
X77819748Y-36899500D01*
X74880252Y-36899500D01*
X74880251Y-36899500D01*
X74880241Y-36899501D01*
X74821772Y-36911132D01*
X74821766Y-36911134D01*
X74755451Y-36955445D01*
X74755445Y-36955451D01*
X74711134Y-37021766D01*
X74711132Y-37021772D01*
X74699501Y-37080241D01*
X74699500Y-37080253D01*
X74699500Y-39711728D01*
X74680593Y-39769919D01*
X74670504Y-39781732D01*
X73589812Y-40862423D01*
X73555573Y-40884733D01*
X73462601Y-40920752D01*
X73462600Y-40920752D01*
X73462599Y-40920753D01*
X73273438Y-41037876D01*
X73109019Y-41187764D01*
X73065550Y-41245326D01*
X72974943Y-41365309D01*
X72974938Y-41365318D01*
X72875772Y-41564469D01*
X72875771Y-41564472D01*
X72863974Y-41605934D01*
X72814885Y-41778464D01*
X72799500Y-41944494D01*
X72799500Y-49255508D01*
X72808300Y-49350479D01*
X72794842Y-49410166D01*
X72779726Y-49429616D01*
X72738840Y-49470503D01*
X72684324Y-49498281D01*
X72668836Y-49499500D01*
X72574500Y-49499500D01*
X72516309Y-49480593D01*
X72480345Y-49431093D01*
X72475500Y-49400500D01*
X72475500Y-48809738D01*
X72475499Y-48809733D01*
X72472725Y-48780155D01*
X72472725Y-48780151D01*
X72429116Y-48655525D01*
X72427907Y-48653887D01*
X72350714Y-48549293D01*
X72350713Y-48549292D01*
X72350711Y-48549289D01*
X72334735Y-48537498D01*
X72244476Y-48470884D01*
X72119852Y-48427276D01*
X72119851Y-48427275D01*
X72119849Y-48427275D01*
X72119847Y-48427274D01*
X72119844Y-48427274D01*
X72090266Y-48424500D01*
X72090256Y-48424500D01*
X71788306Y-48424500D01*
X71730115Y-48405593D01*
X71694151Y-48356093D01*
X71694151Y-48294907D01*
X71718302Y-48255497D01*
X71845502Y-48128296D01*
X71887612Y-48103310D01*
X72010053Y-48067359D01*
X72131128Y-47989549D01*
X72139701Y-47979655D01*
X72181823Y-47951038D01*
X72244475Y-47929116D01*
X72350711Y-47850711D01*
X72429116Y-47744475D01*
X72472725Y-47619849D01*
X72475500Y-47590256D01*
X72475500Y-46984744D01*
X72475500Y-46984738D01*
X72475499Y-46984733D01*
X72472725Y-46955155D01*
X72472725Y-46955151D01*
X72429116Y-46830525D01*
X72419680Y-46817740D01*
X72350714Y-46724293D01*
X72350713Y-46724292D01*
X72350711Y-46724289D01*
X72344717Y-46719865D01*
X72244476Y-46645884D01*
X72119852Y-46602276D01*
X72119851Y-46602275D01*
X72119849Y-46602275D01*
X72119847Y-46602274D01*
X72119844Y-46602274D01*
X72090266Y-46599500D01*
X72090256Y-46599500D01*
X71509744Y-46599500D01*
X71509733Y-46599500D01*
X71480155Y-46602274D01*
X71480147Y-46602276D01*
X71355523Y-46645884D01*
X71249293Y-46724285D01*
X71249285Y-46724293D01*
X71170884Y-46830523D01*
X71127276Y-46955147D01*
X71127274Y-46955155D01*
X71124500Y-46984733D01*
X71124500Y-47590266D01*
X71127274Y-47619846D01*
X71131067Y-47630686D01*
X71132439Y-47691856D01*
X71107626Y-47733386D01*
X70901834Y-47939178D01*
X70887537Y-47946462D01*
X70876678Y-47964334D01*
X70661166Y-48179846D01*
X70606649Y-48207623D01*
X70558465Y-48203287D01*
X70534775Y-48194998D01*
X70519849Y-48189775D01*
X70519847Y-48189774D01*
X70519844Y-48189774D01*
X70490266Y-48187000D01*
X70490256Y-48187000D01*
X69909744Y-48187000D01*
X69909733Y-48187000D01*
X69880155Y-48189774D01*
X69880147Y-48189776D01*
X69755523Y-48233384D01*
X69649293Y-48311785D01*
X69649289Y-48311789D01*
X69570884Y-48418025D01*
X69570883Y-48418027D01*
X69566479Y-48423995D01*
X69563705Y-48421948D01*
X69530254Y-48454389D01*
X69486668Y-48464500D01*
X68858260Y-48464500D01*
X67141740Y-48464500D01*
X67107673Y-48469463D01*
X67073604Y-48474427D01*
X66968518Y-48525801D01*
X66885801Y-48608518D01*
X66834427Y-48713604D01*
X66834427Y-48713607D01*
X66824500Y-48781740D01*
X66824500Y-49148260D01*
X66831118Y-49193682D01*
X66834427Y-49216395D01*
X66885801Y-49321481D01*
X66885802Y-49321483D01*
X66968517Y-49404198D01*
X67003981Y-49421535D01*
X67073604Y-49455572D01*
X67073605Y-49455572D01*
X67073607Y-49455573D01*
X67141740Y-49465500D01*
X67563977Y-49465500D01*
X67622168Y-49484407D01*
X67658132Y-49533907D01*
X67658132Y-49595093D01*
X67622168Y-49644593D01*
X67620245Y-49645954D01*
X67608753Y-49653887D01*
X67532072Y-49706816D01*
X67528927Y-49709603D01*
X67472833Y-49734038D01*
X67463278Y-49734500D01*
X67141740Y-49734500D01*
X67107673Y-49739463D01*
X67073604Y-49744427D01*
X66968518Y-49795801D01*
X66885801Y-49878518D01*
X66834427Y-49983604D01*
X66830618Y-50009748D01*
X66824500Y-50051740D01*
X66824500Y-50418260D01*
X66829125Y-50450000D01*
X66834427Y-50486395D01*
X66885801Y-50591481D01*
X66885802Y-50591483D01*
X66968517Y-50674198D01*
X67001375Y-50690261D01*
X67073604Y-50725572D01*
X67073605Y-50725572D01*
X67073607Y-50725573D01*
X67141740Y-50735500D01*
X67463278Y-50735500D01*
X67521469Y-50754407D01*
X67528927Y-50760397D01*
X67532067Y-50763178D01*
X67532071Y-50763183D01*
X67620216Y-50824026D01*
X67657365Y-50872641D01*
X67658843Y-50933809D01*
X67624086Y-50984163D01*
X67566369Y-51004471D01*
X67563977Y-51004500D01*
X66153322Y-51004500D01*
X66095131Y-50985593D01*
X66083318Y-50975504D01*
X65034480Y-49926666D01*
X65021199Y-49910183D01*
X65017144Y-49903873D01*
X65017143Y-49903872D01*
X64977603Y-49869610D01*
X64975026Y-49867211D01*
X64963595Y-49855781D01*
X64963593Y-49855779D01*
X64950636Y-49846080D01*
X64947917Y-49843888D01*
X64908373Y-49809623D01*
X64901538Y-49806501D01*
X64883348Y-49795708D01*
X64882293Y-49794918D01*
X64877331Y-49791204D01*
X64877328Y-49791203D01*
X64877327Y-49791202D01*
X64828314Y-49772921D01*
X64825049Y-49771569D01*
X64777458Y-49749835D01*
X64777454Y-49749834D01*
X64770014Y-49748764D01*
X64749520Y-49743533D01*
X64742482Y-49740908D01*
X64742483Y-49740908D01*
X64690301Y-49737176D01*
X64686788Y-49736798D01*
X64670800Y-49734500D01*
X64670799Y-49734500D01*
X64654652Y-49734500D01*
X64651119Y-49734374D01*
X64621240Y-49732237D01*
X64598927Y-49730641D01*
X64598926Y-49730641D01*
X64598925Y-49730641D01*
X64591590Y-49732237D01*
X64570544Y-49734500D01*
X61194818Y-49734500D01*
X61162124Y-49728946D01*
X61157346Y-49727274D01*
X61127766Y-49724500D01*
X61127756Y-49724500D01*
X60522244Y-49724500D01*
X60522233Y-49724500D01*
X60492655Y-49727274D01*
X60492647Y-49727276D01*
X60368023Y-49770884D01*
X60261793Y-49849285D01*
X60261785Y-49849293D01*
X60183384Y-49955523D01*
X60139776Y-50080147D01*
X60139774Y-50080155D01*
X60137000Y-50109733D01*
X60137000Y-50690266D01*
X59687999Y-50690266D01*
X59688000Y-50690256D01*
X59688000Y-50548312D01*
X59688361Y-50542340D01*
X59692325Y-50509700D01*
X59700500Y-50442372D01*
X59700500Y-49648322D01*
X59719407Y-49590131D01*
X59729496Y-49578318D01*
X59813318Y-49494496D01*
X59867835Y-49466719D01*
X59883322Y-49465500D01*
X63908257Y-49465500D01*
X63908260Y-49465500D01*
X63976393Y-49455573D01*
X64081483Y-49404198D01*
X64164198Y-49321483D01*
X64215573Y-49216393D01*
X64225500Y-49148260D01*
X64225500Y-48781740D01*
X64215573Y-48713607D01*
X64164198Y-48608517D01*
X64081483Y-48525802D01*
X64081481Y-48525801D01*
X63976395Y-48474427D01*
X63949139Y-48470456D01*
X63908260Y-48464500D01*
X63908257Y-48464500D01*
X59799500Y-48464500D01*
X59741309Y-48445593D01*
X59705345Y-48396093D01*
X59700500Y-48365500D01*
X59700500Y-48214946D01*
X59700500Y-48214944D01*
X59691000Y-48176406D01*
X59689922Y-48170520D01*
X59689306Y-48165448D01*
X59685140Y-48131128D01*
X59671063Y-48094010D01*
X59669289Y-48088319D01*
X59659790Y-48049775D01*
X59641346Y-48014633D01*
X59638891Y-48009178D01*
X59638442Y-48007996D01*
X59624818Y-47972070D01*
X59602261Y-47939391D01*
X59599175Y-47934286D01*
X59580734Y-47899148D01*
X59573666Y-47891170D01*
X59554421Y-47869446D01*
X59550732Y-47864737D01*
X59528185Y-47832074D01*
X59528183Y-47832071D01*
X59498476Y-47805753D01*
X59494245Y-47801522D01*
X59467926Y-47771814D01*
X59435256Y-47749263D01*
X59430548Y-47745574D01*
X59429307Y-47744475D01*
X59400852Y-47719266D01*
X59387126Y-47712062D01*
X59365714Y-47700823D01*
X59360596Y-47697729D01*
X59327932Y-47675183D01*
X59327930Y-47675182D01*
X59317279Y-47671142D01*
X59308184Y-47667693D01*
X59273288Y-47645131D01*
X58129496Y-46501339D01*
X58101719Y-46446822D01*
X58100500Y-46431335D01*
X58100500Y-46295727D01*
X58100499Y-46295725D01*
X58099080Y-46280593D01*
X58098950Y-46279203D01*
X58600001Y-46279203D01*
X58602850Y-46309600D01*
X58602850Y-46309602D01*
X58647654Y-46437647D01*
X58728207Y-46546790D01*
X58728209Y-46546792D01*
X58837352Y-46627345D01*
X58965398Y-46672149D01*
X58995789Y-46674999D01*
X59299998Y-46674999D01*
X59300000Y-46674998D01*
X59600000Y-46674998D01*
X59600001Y-46674999D01*
X59904203Y-46674999D01*
X59934600Y-46672149D01*
X59934602Y-46672149D01*
X60062647Y-46627345D01*
X60171790Y-46546792D01*
X60171792Y-46546790D01*
X60252345Y-46437647D01*
X60297149Y-46309601D01*
X60299999Y-46279211D01*
X60300000Y-46279210D01*
X60300000Y-45750001D01*
X60299999Y-45750000D01*
X59600001Y-45750000D01*
X59600000Y-45750001D01*
X59600000Y-46674998D01*
X59300000Y-46674998D01*
X59300000Y-45750001D01*
X59299999Y-45750000D01*
X58600002Y-45750000D01*
X58600001Y-45750001D01*
X58600001Y-46279203D01*
X58098950Y-46279203D01*
X58097646Y-46265301D01*
X58052793Y-46137118D01*
X58050899Y-46134552D01*
X57972154Y-46027855D01*
X57972152Y-46027853D01*
X57972150Y-46027850D01*
X57972146Y-46027847D01*
X57972144Y-46027845D01*
X57862883Y-45947207D01*
X57734703Y-45902355D01*
X57734694Y-45902353D01*
X57704274Y-45899500D01*
X57704266Y-45899500D01*
X56331165Y-45899500D01*
X56272974Y-45880593D01*
X56261161Y-45870504D01*
X55840656Y-45449999D01*
X58600000Y-45449999D01*
X58600001Y-45450000D01*
X59299999Y-45450000D01*
X59300000Y-45449999D01*
X59600000Y-45449999D01*
X59600001Y-45450000D01*
X60299998Y-45450000D01*
X60299999Y-45449999D01*
X60299999Y-44920796D01*
X60297149Y-44890399D01*
X60297149Y-44890397D01*
X60252345Y-44762352D01*
X60171792Y-44653209D01*
X60171790Y-44653207D01*
X60062647Y-44572654D01*
X59934601Y-44527850D01*
X59904211Y-44525000D01*
X59600001Y-44525000D01*
X59600000Y-44525001D01*
X59600000Y-45449999D01*
X59300000Y-45449999D01*
X59300000Y-44525001D01*
X59299999Y-44525000D01*
X58995796Y-44525000D01*
X58965399Y-44527850D01*
X58965397Y-44527850D01*
X58837352Y-44572654D01*
X58728209Y-44653207D01*
X58728207Y-44653209D01*
X58647654Y-44762352D01*
X58602850Y-44890398D01*
X58600000Y-44920788D01*
X58600000Y-45449999D01*
X55840656Y-45449999D01*
X55529496Y-45138839D01*
X55501719Y-45084322D01*
X55500500Y-45068835D01*
X55500500Y-44104203D01*
X55900001Y-44104203D01*
X55902850Y-44134600D01*
X55902850Y-44134602D01*
X55947654Y-44262647D01*
X56028207Y-44371790D01*
X56028209Y-44371792D01*
X56137352Y-44452345D01*
X56265398Y-44497149D01*
X56295789Y-44499999D01*
X56849998Y-44499999D01*
X56850000Y-44499998D01*
X57150000Y-44499998D01*
X57150001Y-44499999D01*
X57704203Y-44499999D01*
X57734600Y-44497149D01*
X57734602Y-44497149D01*
X57862647Y-44452345D01*
X57971790Y-44371792D01*
X57971792Y-44371790D01*
X58052345Y-44262647D01*
X58097149Y-44134601D01*
X58099999Y-44104211D01*
X58100000Y-44104210D01*
X58100000Y-43787501D01*
X58099999Y-43787500D01*
X57150001Y-43787500D01*
X57150000Y-43787501D01*
X57150000Y-44499998D01*
X56850000Y-44499998D01*
X56850000Y-43787501D01*
X56849999Y-43787500D01*
X55900002Y-43787500D01*
X55900001Y-43787501D01*
X55900001Y-44104203D01*
X55500500Y-44104203D01*
X55500500Y-43487499D01*
X55900000Y-43487499D01*
X55900001Y-43487500D01*
X56849999Y-43487500D01*
X56850000Y-43487499D01*
X57150000Y-43487499D01*
X57150001Y-43487500D01*
X58099998Y-43487500D01*
X58099999Y-43487499D01*
X58099999Y-43170796D01*
X58097149Y-43140399D01*
X58097149Y-43140397D01*
X58052345Y-43012352D01*
X57971792Y-42903209D01*
X57971790Y-42903207D01*
X57862647Y-42822654D01*
X57734601Y-42777850D01*
X57704211Y-42775000D01*
X57150001Y-42775000D01*
X57150000Y-42775001D01*
X57150000Y-43487499D01*
X56850000Y-43487499D01*
X56850000Y-42775001D01*
X56849999Y-42775000D01*
X56295796Y-42775000D01*
X56265399Y-42777850D01*
X56265397Y-42777850D01*
X56137352Y-42822654D01*
X56028209Y-42903207D01*
X56028207Y-42903209D01*
X55947654Y-43012352D01*
X55902850Y-43140398D01*
X55900000Y-43170788D01*
X55900000Y-43487499D01*
X55500500Y-43487499D01*
X55500500Y-42322647D01*
X55500589Y-42319682D01*
X55504357Y-42257394D01*
X55493103Y-42195986D01*
X55492664Y-42193100D01*
X55485140Y-42131128D01*
X55480740Y-42119528D01*
X55475930Y-42102275D01*
X55473694Y-42090068D01*
X55448078Y-42033153D01*
X55446950Y-42030429D01*
X55424818Y-41972070D01*
X55417767Y-41961856D01*
X55408964Y-41946248D01*
X55403877Y-41934943D01*
X55365386Y-41885812D01*
X55363638Y-41883437D01*
X55343090Y-41853667D01*
X55328185Y-41832073D01*
X55328182Y-41832069D01*
X55281489Y-41790703D01*
X55279311Y-41788653D01*
X54890661Y-41400003D01*
X61344417Y-41400003D01*
X61364698Y-41605929D01*
X61364699Y-41605934D01*
X61424768Y-41803954D01*
X61522316Y-41986452D01*
X61624627Y-42111118D01*
X61653590Y-42146410D01*
X61653595Y-42146414D01*
X61653596Y-42146415D01*
X61663302Y-42154380D01*
X61696291Y-42205910D01*
X61699500Y-42230910D01*
X61699500Y-45427340D01*
X61699410Y-45430307D01*
X61697986Y-45453851D01*
X61695641Y-45492604D01*
X61697878Y-45504805D01*
X61699500Y-45522653D01*
X61699500Y-46279274D01*
X61702353Y-46309694D01*
X61702355Y-46309703D01*
X61747207Y-46437883D01*
X61827845Y-46547144D01*
X61827847Y-46547146D01*
X61827850Y-46547150D01*
X61827853Y-46547152D01*
X61827855Y-46547154D01*
X61937116Y-46627792D01*
X61937117Y-46627792D01*
X61937118Y-46627793D01*
X61986608Y-46645110D01*
X62033198Y-46661413D01*
X62081878Y-46698478D01*
X62099500Y-46754857D01*
X62099500Y-47154413D01*
X62080593Y-47212604D01*
X62043981Y-47243353D01*
X62018519Y-47255800D01*
X61935801Y-47338518D01*
X61884427Y-47443604D01*
X61884427Y-47443607D01*
X61874500Y-47511740D01*
X61874500Y-47878260D01*
X61877544Y-47899149D01*
X61884427Y-47946395D01*
X61917787Y-48014633D01*
X61935802Y-48051483D01*
X62018517Y-48134198D01*
X62050841Y-48150000D01*
X62123604Y-48185572D01*
X62123605Y-48185572D01*
X62123607Y-48185573D01*
X62191740Y-48195500D01*
X63030348Y-48195500D01*
X63033881Y-48195626D01*
X63038871Y-48195982D01*
X63086073Y-48199359D01*
X63092470Y-48197967D01*
X63093410Y-48197763D01*
X63114456Y-48195500D01*
X63908257Y-48195500D01*
X63908260Y-48195500D01*
X63976393Y-48185573D01*
X64081483Y-48134198D01*
X64164198Y-48051483D01*
X64215573Y-47946393D01*
X64225500Y-47878260D01*
X64225500Y-47878216D01*
X66825001Y-47878216D01*
X66834912Y-47946250D01*
X66886214Y-48051188D01*
X66968812Y-48133786D01*
X67073751Y-48185087D01*
X67141784Y-48194999D01*
X67849998Y-48194999D01*
X67850000Y-48194998D01*
X68150000Y-48194998D01*
X68150001Y-48194999D01*
X68858213Y-48194999D01*
X68858216Y-48194998D01*
X68926250Y-48185087D01*
X69031188Y-48133785D01*
X69113786Y-48051187D01*
X69165087Y-47946248D01*
X69175000Y-47878215D01*
X69175000Y-47845001D01*
X69174999Y-47845000D01*
X68150001Y-47845000D01*
X68150000Y-47845001D01*
X68150000Y-48194998D01*
X67850000Y-48194998D01*
X67850000Y-47845001D01*
X67849999Y-47845000D01*
X66825002Y-47845000D01*
X66825001Y-47845001D01*
X66825001Y-47878216D01*
X64225500Y-47878216D01*
X64225500Y-47552701D01*
X69525000Y-47552701D01*
X69527771Y-47582258D01*
X69527772Y-47582259D01*
X69571330Y-47706740D01*
X69649641Y-47812848D01*
X69649651Y-47812858D01*
X69755759Y-47891169D01*
X69880240Y-47934727D01*
X69880241Y-47934728D01*
X69909799Y-47937500D01*
X70049999Y-47937500D01*
X70050000Y-47937499D01*
X70350000Y-47937499D01*
X70350001Y-47937500D01*
X70490201Y-47937500D01*
X70519758Y-47934728D01*
X70519759Y-47934727D01*
X70644238Y-47891170D01*
X70747885Y-47814675D01*
X70750783Y-47813709D01*
X70752175Y-47810385D01*
X70828670Y-47706738D01*
X70872227Y-47582259D01*
X70872228Y-47582258D01*
X70875000Y-47552701D01*
X70875000Y-47350001D01*
X70874999Y-47350000D01*
X70350001Y-47350000D01*
X70350000Y-47350001D01*
X70350000Y-47937499D01*
X70050000Y-47937499D01*
X70050000Y-47350001D01*
X70049999Y-47350000D01*
X69525001Y-47350000D01*
X69525000Y-47350001D01*
X69525000Y-47552701D01*
X64225500Y-47552701D01*
X64225500Y-47544999D01*
X66825000Y-47544999D01*
X66825001Y-47545000D01*
X67849999Y-47545000D01*
X67850000Y-47544999D01*
X68150000Y-47544999D01*
X68150001Y-47545000D01*
X69174998Y-47545000D01*
X69174999Y-47544999D01*
X69174999Y-47511786D01*
X69174998Y-47511783D01*
X69165087Y-47443749D01*
X69113785Y-47338811D01*
X69031187Y-47256213D01*
X68926248Y-47204912D01*
X68858216Y-47195000D01*
X68150001Y-47195000D01*
X68150000Y-47195001D01*
X68150000Y-47544999D01*
X67850000Y-47544999D01*
X67850000Y-47195001D01*
X67849999Y-47195000D01*
X67141786Y-47195000D01*
X67141783Y-47195001D01*
X67073749Y-47204912D01*
X66968811Y-47256214D01*
X66886213Y-47338812D01*
X66834912Y-47443751D01*
X66825000Y-47511784D01*
X66825000Y-47544999D01*
X64225500Y-47544999D01*
X64225500Y-47511740D01*
X64215573Y-47443607D01*
X64164198Y-47338517D01*
X64081483Y-47255802D01*
X64056018Y-47243353D01*
X63976395Y-47204427D01*
X63949139Y-47200456D01*
X63908260Y-47194500D01*
X63908257Y-47194500D01*
X63298322Y-47194500D01*
X63240131Y-47175593D01*
X63228318Y-47165504D01*
X63129496Y-47066682D01*
X63120996Y-47049999D01*
X69525000Y-47049999D01*
X69525001Y-47050000D01*
X70049999Y-47050000D01*
X70050000Y-47049999D01*
X70350000Y-47049999D01*
X70350001Y-47050000D01*
X70874999Y-47050000D01*
X70875000Y-47049999D01*
X70875000Y-46847298D01*
X70872228Y-46817741D01*
X70872227Y-46817740D01*
X70828669Y-46693259D01*
X70750358Y-46587151D01*
X70750348Y-46587141D01*
X70644240Y-46508830D01*
X70519759Y-46465272D01*
X70519758Y-46465271D01*
X70490201Y-46462500D01*
X70350001Y-46462500D01*
X70350000Y-46462501D01*
X70350000Y-47049999D01*
X70050000Y-47049999D01*
X70050000Y-46462501D01*
X70049999Y-46462500D01*
X69909799Y-46462500D01*
X69880241Y-46465271D01*
X69880240Y-46465272D01*
X69755759Y-46508830D01*
X69649651Y-46587141D01*
X69649641Y-46587151D01*
X69571330Y-46693259D01*
X69527772Y-46817740D01*
X69527771Y-46817741D01*
X69525000Y-46847298D01*
X69525000Y-47049999D01*
X63120996Y-47049999D01*
X63101719Y-47012165D01*
X63100500Y-46996678D01*
X63100500Y-46719865D01*
X63119407Y-46661674D01*
X63157448Y-46633381D01*
X63156326Y-46631258D01*
X63162879Y-46627793D01*
X63162882Y-46627793D01*
X63272150Y-46547150D01*
X63352793Y-46437882D01*
X63397646Y-46309699D01*
X63400499Y-46279273D01*
X63400500Y-46279273D01*
X63400500Y-44920727D01*
X63400499Y-44920725D01*
X63397646Y-44890301D01*
X63352793Y-44762118D01*
X63272413Y-44653207D01*
X63272154Y-44652855D01*
X63272152Y-44652853D01*
X63272150Y-44652850D01*
X63272146Y-44652847D01*
X63272144Y-44652845D01*
X63162885Y-44572208D01*
X63156324Y-44568741D01*
X63157507Y-44566502D01*
X63118118Y-44536508D01*
X63100500Y-44480134D01*
X63100500Y-42230910D01*
X63119407Y-42172719D01*
X63136698Y-42154380D01*
X63146410Y-42146410D01*
X63277685Y-41986450D01*
X63375232Y-41803954D01*
X63435300Y-41605934D01*
X63435301Y-41605929D01*
X63455583Y-41400003D01*
X63455583Y-41399996D01*
X63435301Y-41194070D01*
X63435300Y-41194065D01*
X63389750Y-41043907D01*
X63375232Y-40996046D01*
X63277685Y-40813550D01*
X63146410Y-40653590D01*
X63146404Y-40653585D01*
X62986452Y-40522316D01*
X62803954Y-40424768D01*
X62605934Y-40364699D01*
X62605929Y-40364698D01*
X62400003Y-40344417D01*
X62399997Y-40344417D01*
X62194070Y-40364698D01*
X62194065Y-40364699D01*
X61996045Y-40424768D01*
X61813547Y-40522316D01*
X61653595Y-40653585D01*
X61653585Y-40653595D01*
X61522316Y-40813547D01*
X61424768Y-40996045D01*
X61364699Y-41194065D01*
X61364698Y-41194070D01*
X61344417Y-41399996D01*
X61344417Y-41400003D01*
X54890661Y-41400003D01*
X53286344Y-39795686D01*
X53284294Y-39793508D01*
X53267173Y-39774183D01*
X53242929Y-39746817D01*
X53242925Y-39746814D01*
X53191576Y-39711369D01*
X53189168Y-39709598D01*
X53140054Y-39671120D01*
X53128743Y-39666029D01*
X53113141Y-39657229D01*
X53102933Y-39650183D01*
X53044600Y-39628060D01*
X53041848Y-39626920D01*
X53014048Y-39614409D01*
X52984933Y-39601305D01*
X52984926Y-39601303D01*
X52972723Y-39599067D01*
X52955461Y-39594255D01*
X52943875Y-39589861D01*
X52943873Y-39589860D01*
X52881954Y-39582341D01*
X52878999Y-39581891D01*
X52817602Y-39570641D01*
X52778598Y-39573001D01*
X52755306Y-39574410D01*
X52752341Y-39574500D01*
X52049500Y-39574500D01*
X51991309Y-39555593D01*
X51955345Y-39506093D01*
X51950500Y-39475500D01*
X51950500Y-39405253D01*
X51950498Y-39405241D01*
X51943488Y-39370002D01*
X51938867Y-39346769D01*
X51894552Y-39280448D01*
X51869094Y-39263437D01*
X51828233Y-39236134D01*
X51828231Y-39236133D01*
X51828228Y-39236132D01*
X51828227Y-39236132D01*
X51769758Y-39224501D01*
X51769748Y-39224500D01*
X50030252Y-39224500D01*
X50030251Y-39224500D01*
X50030241Y-39224501D01*
X49971772Y-39236132D01*
X49971766Y-39236134D01*
X49905451Y-39280445D01*
X49905445Y-39280451D01*
X49861134Y-39346766D01*
X49861132Y-39346772D01*
X49849501Y-39405241D01*
X49849500Y-39405253D01*
X49849500Y-39475500D01*
X49830593Y-39533691D01*
X49781093Y-39569655D01*
X49750500Y-39574500D01*
X49113271Y-39574500D01*
X49055080Y-39555593D01*
X49043267Y-39545504D01*
X48469005Y-38971242D01*
X61199500Y-38971242D01*
X61226545Y-39115923D01*
X61240382Y-39189940D01*
X61320753Y-39397401D01*
X61334671Y-39419880D01*
X61349500Y-39471996D01*
X61349500Y-39729746D01*
X61349501Y-39729758D01*
X61359840Y-39781732D01*
X61361133Y-39788231D01*
X61405448Y-39854552D01*
X61471769Y-39898867D01*
X61516231Y-39907711D01*
X61530241Y-39910498D01*
X61530246Y-39910498D01*
X61530252Y-39910500D01*
X61793121Y-39910500D01*
X61837248Y-39920878D01*
X61964472Y-39984229D01*
X62178464Y-40045115D01*
X62344497Y-40060500D01*
X64344497Y-40060500D01*
X64700500Y-40060500D01*
X64758691Y-40079407D01*
X64794655Y-40128907D01*
X64799500Y-40159500D01*
X64799500Y-42519746D01*
X64799501Y-42519758D01*
X64811132Y-42578227D01*
X64811134Y-42578233D01*
X64846503Y-42631165D01*
X64855448Y-42644552D01*
X64921769Y-42688867D01*
X64966231Y-42697711D01*
X64980241Y-42700498D01*
X64980246Y-42700498D01*
X64980252Y-42700500D01*
X64980253Y-42700500D01*
X67919747Y-42700500D01*
X67919748Y-42700500D01*
X67978231Y-42688867D01*
X68044552Y-42644552D01*
X68088867Y-42578231D01*
X68100500Y-42519748D01*
X68100500Y-37080252D01*
X68088867Y-37021769D01*
X68044552Y-36955448D01*
X68044548Y-36955445D01*
X67978233Y-36911134D01*
X67978231Y-36911133D01*
X67978228Y-36911132D01*
X67978227Y-36911132D01*
X67919758Y-36899501D01*
X67919748Y-36899500D01*
X67919747Y-36899500D01*
X65200931Y-36899500D01*
X65142740Y-36880593D01*
X65106776Y-36831093D01*
X65102112Y-36794521D01*
X65104358Y-36757394D01*
X65093104Y-36695985D01*
X65092660Y-36693070D01*
X65085140Y-36631128D01*
X65080741Y-36619529D01*
X65075931Y-36602274D01*
X65073695Y-36590069D01*
X65048074Y-36533143D01*
X65046946Y-36530419D01*
X65024818Y-36472070D01*
X65017770Y-36461860D01*
X65008967Y-36446251D01*
X65003879Y-36434945D01*
X65003873Y-36434936D01*
X64986088Y-36412236D01*
X64965380Y-36385804D01*
X64963637Y-36383435D01*
X64928183Y-36332071D01*
X64928179Y-36332067D01*
X64928177Y-36332065D01*
X64881489Y-36290704D01*
X64879312Y-36288654D01*
X64073844Y-35483186D01*
X64071794Y-35481008D01*
X64054673Y-35461683D01*
X64030429Y-35434317D01*
X64030425Y-35434314D01*
X63979076Y-35398869D01*
X63976668Y-35397098D01*
X63927557Y-35358622D01*
X63927555Y-35358621D01*
X63927554Y-35358620D01*
X63916243Y-35353529D01*
X63900641Y-35344729D01*
X63890433Y-35337683D01*
X63832100Y-35315560D01*
X63829348Y-35314420D01*
X63786555Y-35295161D01*
X63772433Y-35288805D01*
X63772426Y-35288803D01*
X63760223Y-35286567D01*
X63742961Y-35281755D01*
X63731375Y-35277361D01*
X63731373Y-35277360D01*
X63669453Y-35269841D01*
X63666498Y-35269391D01*
X63631390Y-35262958D01*
X63577560Y-35233871D01*
X63574364Y-35230065D01*
X63572152Y-35227853D01*
X63572150Y-35227850D01*
X63572146Y-35227847D01*
X63572144Y-35227845D01*
X63462883Y-35147207D01*
X63334703Y-35102355D01*
X63334694Y-35102353D01*
X63304274Y-35099500D01*
X63304266Y-35099500D01*
X61895734Y-35099500D01*
X61895725Y-35099500D01*
X61865305Y-35102353D01*
X61865296Y-35102355D01*
X61737116Y-35147207D01*
X61627855Y-35227845D01*
X61627845Y-35227855D01*
X61547207Y-35337116D01*
X61502355Y-35465296D01*
X61502353Y-35465305D01*
X61499500Y-35495725D01*
X61499500Y-36429274D01*
X61502353Y-36459694D01*
X61502355Y-36459703D01*
X61547207Y-36587883D01*
X61627845Y-36697144D01*
X61627847Y-36697146D01*
X61627850Y-36697150D01*
X61627853Y-36697152D01*
X61627855Y-36697154D01*
X61737116Y-36777792D01*
X61737117Y-36777792D01*
X61737118Y-36777793D01*
X61865301Y-36822646D01*
X61895725Y-36825499D01*
X61895727Y-36825500D01*
X61895734Y-36825500D01*
X63304273Y-36825500D01*
X63304273Y-36825499D01*
X63334699Y-36822646D01*
X63348053Y-36817972D01*
X63409223Y-36816599D01*
X63450756Y-36841413D01*
X63670504Y-37061161D01*
X63698281Y-37115678D01*
X63699500Y-37131165D01*
X63699500Y-37560500D01*
X63680593Y-37618691D01*
X63631093Y-37654655D01*
X63600500Y-37659500D01*
X62344494Y-37659500D01*
X62178464Y-37674885D01*
X61964472Y-37735771D01*
X61964471Y-37735771D01*
X61964469Y-37735772D01*
X61837249Y-37799121D01*
X61793121Y-37809500D01*
X61530252Y-37809500D01*
X61530251Y-37809500D01*
X61530241Y-37809501D01*
X61471772Y-37821132D01*
X61471766Y-37821134D01*
X61405451Y-37865445D01*
X61405445Y-37865451D01*
X61361134Y-37931766D01*
X61361132Y-37931772D01*
X61349501Y-37990241D01*
X61349500Y-37990253D01*
X61349500Y-38248002D01*
X61334673Y-38300117D01*
X61320753Y-38322598D01*
X61240381Y-38530062D01*
X61199500Y-38748757D01*
X61199500Y-38971242D01*
X48469005Y-38971242D01*
X47382764Y-37885001D01*
X49859692Y-37885001D01*
X49865191Y-37940833D01*
X49865190Y-37940833D01*
X49925232Y-38138762D01*
X49925234Y-38138767D01*
X50022724Y-38321160D01*
X50022731Y-38321170D01*
X50153940Y-38481050D01*
X50153949Y-38481059D01*
X50313829Y-38612268D01*
X50313839Y-38612275D01*
X50496232Y-38709765D01*
X50496237Y-38709767D01*
X50694166Y-38769808D01*
X50749998Y-38775307D01*
X50750000Y-38775306D01*
X50750000Y-38216170D01*
X50757685Y-38219680D01*
X50864237Y-38235000D01*
X50935763Y-38235000D01*
X51042315Y-38219680D01*
X51050000Y-38216170D01*
X51050000Y-38775306D01*
X51050001Y-38775307D01*
X51105833Y-38769808D01*
X51303762Y-38709767D01*
X51303767Y-38709765D01*
X51486160Y-38612275D01*
X51486170Y-38612268D01*
X51646050Y-38481059D01*
X51646059Y-38481050D01*
X51777268Y-38321170D01*
X51777275Y-38321160D01*
X51874765Y-38138767D01*
X51874767Y-38138762D01*
X51934808Y-37940833D01*
X51940307Y-37885001D01*
X51940306Y-37885000D01*
X51377065Y-37885000D01*
X51400000Y-37806889D01*
X51400000Y-37663111D01*
X51377065Y-37585000D01*
X51940306Y-37585000D01*
X51940307Y-37584998D01*
X51934808Y-37529166D01*
X51934809Y-37529166D01*
X51874767Y-37331237D01*
X51874765Y-37331232D01*
X51777275Y-37148839D01*
X51777268Y-37148829D01*
X51646059Y-36988949D01*
X51646050Y-36988940D01*
X51486170Y-36857731D01*
X51486160Y-36857724D01*
X51303767Y-36760234D01*
X51303762Y-36760232D01*
X51105843Y-36700194D01*
X51105832Y-36700191D01*
X51050000Y-36694692D01*
X51050000Y-37253829D01*
X51042315Y-37250320D01*
X50935763Y-37235000D01*
X50864237Y-37235000D01*
X50757685Y-37250320D01*
X50750000Y-37253829D01*
X50750000Y-36694692D01*
X50694167Y-36700191D01*
X50694156Y-36700194D01*
X50496237Y-36760232D01*
X50496232Y-36760234D01*
X50313839Y-36857724D01*
X50313829Y-36857731D01*
X50153949Y-36988940D01*
X50153940Y-36988949D01*
X50022731Y-37148829D01*
X50022724Y-37148839D01*
X49925234Y-37331232D01*
X49925232Y-37331237D01*
X49865191Y-37529166D01*
X49859692Y-37584998D01*
X49859694Y-37585000D01*
X50422935Y-37585000D01*
X50400000Y-37663111D01*
X50400000Y-37806889D01*
X50422935Y-37885000D01*
X49859694Y-37885000D01*
X49859692Y-37885001D01*
X47382764Y-37885001D01*
X44629496Y-35131733D01*
X44601719Y-35077216D01*
X44600500Y-35061729D01*
X44600500Y-33304203D01*
X61500001Y-33304203D01*
X61502850Y-33334600D01*
X61502850Y-33334602D01*
X61547654Y-33462647D01*
X61628207Y-33571790D01*
X61628209Y-33571792D01*
X61737352Y-33652345D01*
X61865398Y-33697149D01*
X61895789Y-33699999D01*
X62449998Y-33699999D01*
X62450000Y-33699998D01*
X62750000Y-33699998D01*
X62750001Y-33699999D01*
X63304203Y-33699999D01*
X63334600Y-33697149D01*
X63334602Y-33697149D01*
X63462647Y-33652345D01*
X63571790Y-33571792D01*
X63571792Y-33571790D01*
X63652345Y-33462647D01*
X63697149Y-33334601D01*
X63699999Y-33304211D01*
X63700000Y-33304210D01*
X63700000Y-32987501D01*
X63699999Y-32987500D01*
X62750001Y-32987500D01*
X62750000Y-32987501D01*
X62750000Y-33699998D01*
X62450000Y-33699998D01*
X62450000Y-32987501D01*
X62449999Y-32987500D01*
X61500002Y-32987500D01*
X61500001Y-32987501D01*
X61500001Y-33304203D01*
X44600500Y-33304203D01*
X44600500Y-32687499D01*
X61500000Y-32687499D01*
X61500001Y-32687500D01*
X62449999Y-32687500D01*
X62450000Y-32687499D01*
X62750000Y-32687499D01*
X62750001Y-32687500D01*
X63699998Y-32687500D01*
X63699999Y-32687499D01*
X63699999Y-32370796D01*
X63697149Y-32340399D01*
X63697149Y-32340397D01*
X63652345Y-32212352D01*
X63571792Y-32103209D01*
X63571790Y-32103207D01*
X63462647Y-32022654D01*
X63334601Y-31977850D01*
X63304211Y-31975000D01*
X62750001Y-31975000D01*
X62750000Y-31975001D01*
X62750000Y-32687499D01*
X62450000Y-32687499D01*
X62450000Y-31975001D01*
X62449999Y-31975000D01*
X61895796Y-31975000D01*
X61865399Y-31977850D01*
X61865397Y-31977850D01*
X61737352Y-32022654D01*
X61628209Y-32103207D01*
X61628207Y-32103209D01*
X61547654Y-32212352D01*
X61502850Y-32340398D01*
X61500000Y-32370788D01*
X61500000Y-32687499D01*
X44600500Y-32687499D01*
X44600500Y-30228859D01*
X44600553Y-30226573D01*
X44604356Y-30144320D01*
X44604356Y-30144319D01*
X44592978Y-30062759D01*
X44592715Y-30060487D01*
X44590753Y-30039312D01*
X44585115Y-29978464D01*
X44578413Y-29954910D01*
X44576999Y-29948208D01*
X44573618Y-29923967D01*
X44547448Y-29845886D01*
X44546771Y-29843701D01*
X44524229Y-29764472D01*
X44513318Y-29742560D01*
X44510691Y-29736217D01*
X44502915Y-29713016D01*
X44502915Y-29713015D01*
X44462802Y-29641000D01*
X44461795Y-29639090D01*
X44425058Y-29565311D01*
X44410309Y-29545780D01*
X44406562Y-29540030D01*
X44394654Y-29518650D01*
X44394650Y-29518645D01*
X44342028Y-29455275D01*
X44340608Y-29453482D01*
X44290982Y-29387765D01*
X44230120Y-29332281D01*
X44228466Y-29330702D01*
X43369296Y-28471532D01*
X43367716Y-28469878D01*
X43312234Y-28409017D01*
X43246516Y-28359390D01*
X43244723Y-28357970D01*
X43181355Y-28305349D01*
X43181352Y-28305347D01*
X43159966Y-28293435D01*
X43154220Y-28289691D01*
X43134689Y-28274942D01*
X43134681Y-28274938D01*
X43060979Y-28238238D01*
X43058956Y-28237172D01*
X42986988Y-28197086D01*
X42986982Y-28197084D01*
X42963772Y-28189303D01*
X42957434Y-28186678D01*
X42935527Y-28175770D01*
X42856291Y-28153224D01*
X42854107Y-28152548D01*
X42776041Y-28126384D01*
X42776031Y-28126381D01*
X42751795Y-28123000D01*
X42745082Y-28121584D01*
X42721537Y-28114885D01*
X42721534Y-28114884D01*
X42639505Y-28107282D01*
X42637235Y-28107019D01*
X42555675Y-28095643D01*
X42482939Y-28099007D01*
X42473418Y-28099447D01*
X42471140Y-28099500D01*
X34304494Y-28099500D01*
X34138475Y-28114884D01*
X34138464Y-28114885D01*
X33924472Y-28175771D01*
X33924471Y-28175771D01*
X33924469Y-28175772D01*
X33725318Y-28274938D01*
X33725315Y-28274940D01*
X33725311Y-28274942D01*
X33719270Y-28279503D01*
X33661441Y-28299483D01*
X33659610Y-28299500D01*
X33590252Y-28299500D01*
X33590251Y-28299500D01*
X33590241Y-28299501D01*
X33531772Y-28311132D01*
X33531766Y-28311134D01*
X33465451Y-28355445D01*
X33465445Y-28355451D01*
X33421134Y-28421766D01*
X33421132Y-28421772D01*
X33409501Y-28480241D01*
X33409500Y-28480253D01*
X33409500Y-28526496D01*
X33394672Y-28578612D01*
X33280754Y-28762596D01*
X33280753Y-28762598D01*
X33200381Y-28970062D01*
X33159500Y-29188757D01*
X33159500Y-29411242D01*
X29000500Y-29411242D01*
X29000500Y-26230002D01*
X29945233Y-26230002D01*
X29964273Y-26484076D01*
X29964275Y-26484086D01*
X30020970Y-26732487D01*
X30020970Y-26732489D01*
X30114055Y-26969664D01*
X30114064Y-26969683D01*
X30241451Y-27190322D01*
X30241461Y-27190337D01*
X30346195Y-27321670D01*
X30734794Y-26933070D01*
X30871931Y-27083501D01*
X30949814Y-27142316D01*
X30557111Y-27535020D01*
X30587088Y-27562835D01*
X30797624Y-27706375D01*
X31027176Y-27816922D01*
X31270649Y-27892023D01*
X31270659Y-27892025D01*
X31522599Y-27929999D01*
X31522608Y-27930000D01*
X31777392Y-27930000D01*
X31777400Y-27929999D01*
X32029340Y-27892025D01*
X32029350Y-27892023D01*
X32272823Y-27816921D01*
X32502376Y-27706375D01*
X32712908Y-27562838D01*
X32742887Y-27535020D01*
X32350184Y-27142317D01*
X32428069Y-27083501D01*
X32565204Y-26933071D01*
X32953803Y-27321670D01*
X33058543Y-27190330D01*
X33058548Y-27190322D01*
X33185935Y-26969683D01*
X33185944Y-26969664D01*
X33279029Y-26732489D01*
X33279029Y-26732487D01*
X33335724Y-26484086D01*
X33335726Y-26484076D01*
X33354767Y-26230002D01*
X33354767Y-26229997D01*
X33335726Y-25975923D01*
X33335724Y-25975913D01*
X33279029Y-25727512D01*
X33279029Y-25727510D01*
X33185944Y-25490335D01*
X33185935Y-25490316D01*
X33058548Y-25269677D01*
X33058538Y-25269662D01*
X32953803Y-25138328D01*
X32565203Y-25526927D01*
X32428069Y-25376499D01*
X32350183Y-25317681D01*
X32742887Y-24924978D01*
X32712907Y-24897161D01*
X32502376Y-24753624D01*
X32272823Y-24643078D01*
X32029350Y-24567976D01*
X32029340Y-24567974D01*
X31777400Y-24530000D01*
X31522599Y-24530000D01*
X31270659Y-24567974D01*
X31270649Y-24567976D01*
X31027176Y-24643077D01*
X30797624Y-24753624D01*
X30587092Y-24897161D01*
X30587084Y-24897167D01*
X30557111Y-24924978D01*
X30949815Y-25317682D01*
X30871931Y-25376499D01*
X30734795Y-25526928D01*
X30346196Y-25138329D01*
X30241455Y-25269670D01*
X30241451Y-25269677D01*
X30114064Y-25490316D01*
X30114055Y-25490335D01*
X30020970Y-25727510D01*
X30020970Y-25727512D01*
X29964275Y-25975913D01*
X29964273Y-25975923D01*
X29945233Y-26229997D01*
X29945233Y-26230002D01*
X29000500Y-26230002D01*
X29000500Y-20334929D01*
X30599500Y-20334929D01*
X30639720Y-20601772D01*
X30719262Y-20859641D01*
X30836349Y-21102774D01*
X30988365Y-21325741D01*
X30988368Y-21325744D01*
X30988370Y-21325747D01*
X31171912Y-21523559D01*
X31171918Y-21523565D01*
X31382889Y-21691808D01*
X31382898Y-21691815D01*
X31616602Y-21826743D01*
X31867805Y-21925334D01*
X32130897Y-21985383D01*
X32211587Y-21991429D01*
X32332618Y-22000500D01*
X32332624Y-22000500D01*
X32467382Y-22000500D01*
X32577408Y-21992254D01*
X32669103Y-21985383D01*
X32932195Y-21925334D01*
X33183398Y-21826743D01*
X33417102Y-21691815D01*
X33508589Y-21618855D01*
X33628081Y-21523565D01*
X33628087Y-21523559D01*
X33811629Y-21325747D01*
X33811635Y-21325741D01*
X33963651Y-21102775D01*
X34080738Y-20859641D01*
X34160280Y-20601772D01*
X34200500Y-20334929D01*
X73799500Y-20334929D01*
X73839720Y-20601772D01*
X73919262Y-20859641D01*
X74036349Y-21102774D01*
X74188365Y-21325741D01*
X74188368Y-21325744D01*
X74188370Y-21325747D01*
X74371912Y-21523559D01*
X74371918Y-21523565D01*
X74582889Y-21691808D01*
X74582898Y-21691815D01*
X74816602Y-21826743D01*
X75067805Y-21925334D01*
X75330897Y-21985383D01*
X75411587Y-21991429D01*
X75532618Y-22000500D01*
X75532624Y-22000500D01*
X75667382Y-22000500D01*
X75777408Y-21992254D01*
X75869103Y-21985383D01*
X76132195Y-21925334D01*
X76383398Y-21826743D01*
X76617102Y-21691815D01*
X76708589Y-21618855D01*
X76828081Y-21523565D01*
X76828087Y-21523559D01*
X77011629Y-21325747D01*
X77011635Y-21325741D01*
X77163651Y-21102775D01*
X77280738Y-20859641D01*
X77360280Y-20601772D01*
X77400500Y-20334929D01*
X77400500Y-20065071D01*
X77360280Y-19798228D01*
X77280738Y-19540359D01*
X77163651Y-19297226D01*
X77011635Y-19074259D01*
X77011629Y-19074252D01*
X76828087Y-18876440D01*
X76828081Y-18876434D01*
X76617110Y-18708191D01*
X76617108Y-18708189D01*
X76617102Y-18708185D01*
X76383398Y-18573257D01*
X76383395Y-18573256D01*
X76383391Y-18573254D01*
X76132197Y-18474666D01*
X75869107Y-18414618D01*
X75869098Y-18414616D01*
X75667382Y-18399500D01*
X75667376Y-18399500D01*
X75532624Y-18399500D01*
X75532618Y-18399500D01*
X75330901Y-18414616D01*
X75330892Y-18414618D01*
X75067802Y-18474666D01*
X74816608Y-18573254D01*
X74816599Y-18573258D01*
X74696344Y-18642687D01*
X74582898Y-18708185D01*
X74582894Y-18708187D01*
X74582894Y-18708188D01*
X74582889Y-18708191D01*
X74371918Y-18876434D01*
X74371912Y-18876440D01*
X74188370Y-19074252D01*
X74188365Y-19074258D01*
X74188365Y-19074259D01*
X74036349Y-19297225D01*
X74036349Y-19297226D01*
X74036345Y-19297232D01*
X73919262Y-19540356D01*
X73839721Y-19798223D01*
X73839719Y-19798233D01*
X73799500Y-20065067D01*
X73799500Y-20065071D01*
X73799500Y-20334929D01*
X34200500Y-20334929D01*
X34200500Y-20065071D01*
X34160280Y-19798228D01*
X34080738Y-19540359D01*
X33963651Y-19297226D01*
X33811635Y-19074259D01*
X33811629Y-19074252D01*
X33628087Y-18876440D01*
X33628081Y-18876434D01*
X33417110Y-18708191D01*
X33417108Y-18708189D01*
X33417102Y-18708185D01*
X33183398Y-18573257D01*
X33183395Y-18573256D01*
X33183391Y-18573254D01*
X32932197Y-18474666D01*
X32669107Y-18414618D01*
X32669098Y-18414616D01*
X32467382Y-18399500D01*
X32467376Y-18399500D01*
X32332624Y-18399500D01*
X32332618Y-18399500D01*
X32130901Y-18414616D01*
X32130892Y-18414618D01*
X31867802Y-18474666D01*
X31616608Y-18573254D01*
X31616599Y-18573258D01*
X31496344Y-18642687D01*
X31382898Y-18708185D01*
X31382894Y-18708187D01*
X31382894Y-18708188D01*
X31382889Y-18708191D01*
X31171918Y-18876434D01*
X31171912Y-18876440D01*
X30988370Y-19074252D01*
X30988365Y-19074258D01*
X30988365Y-19074259D01*
X30836349Y-19297225D01*
X30836349Y-19297226D01*
X30836345Y-19297232D01*
X30719262Y-19540356D01*
X30639721Y-19798223D01*
X30639719Y-19798233D01*
X30599500Y-20065067D01*
X30599500Y-20065071D01*
X30599500Y-20334929D01*
X29000500Y-20334929D01*
X29000500Y-16899500D01*
X29019407Y-16841309D01*
X29068907Y-16805345D01*
X29099500Y-16800500D01*
X78900500Y-16800500D01*
X78958691Y-16819407D01*
G37*
%TD.AperFunction*%
%TD*%
M02*
