%TF.GenerationSoftware,KiCad,Pcbnew,7.0.9*%
%TF.CreationDate,2024-02-05T14:31:58+03:00*%
%TF.ProjectId,PowerBank,506f7765-7242-4616-9e6b-2e6b69636164,rev?*%
%TF.SameCoordinates,Original*%
%TF.FileFunction,Soldermask,Bot*%
%TF.FilePolarity,Negative*%
%FSLAX46Y46*%
G04 Gerber Fmt 4.6, Leading zero omitted, Abs format (unit mm)*
G04 Created by KiCad (PCBNEW 7.0.9) date 2024-02-05 14:31:58*
%MOMM*%
%LPD*%
G01*
G04 APERTURE LIST*
%ADD10C,3.200000*%
%ADD11R,1.700000X1.700000*%
%ADD12O,1.700000X1.700000*%
%ADD13R,1.600000X0.180000*%
%ADD14R,2.000000X0.300000*%
%ADD15R,1.500000X1.600000*%
%ADD16C,1.600000*%
%ADD17C,3.000000*%
G04 APERTURE END LIST*
D10*
%TO.C,REF\u002A\u002A*%
X32400000Y-63400000D03*
%TD*%
%TO.C,REF\u002A\u002A*%
X32400000Y-20200000D03*
%TD*%
%TO.C,REF\u002A\u002A*%
X75600000Y-63400000D03*
%TD*%
%TO.C,REF\u002A\u002A*%
X75600000Y-20200000D03*
%TD*%
D11*
%TO.C,J9*%
X59000000Y-48300000D03*
D12*
X56460000Y-48300000D03*
%TD*%
D11*
%TO.C,J7*%
X55800000Y-31460000D03*
D12*
X55800000Y-34000000D03*
%TD*%
D13*
%TO.C,X1*%
X30200000Y-50400000D03*
X30200000Y-49900000D03*
X30200000Y-49400000D03*
X30200000Y-48900000D03*
X30200000Y-48400000D03*
X30200000Y-47900000D03*
X30200000Y-47400000D03*
X30200000Y-46900000D03*
X30200000Y-46400000D03*
X30200000Y-45900000D03*
X30200000Y-45400000D03*
X30200000Y-44900000D03*
D14*
X30400000Y-51900000D03*
X30400000Y-43400000D03*
%TD*%
D11*
%TO.C,J6*%
X50900000Y-40275000D03*
D12*
X50900000Y-37735000D03*
%TD*%
D11*
%TO.C,J8*%
X57140000Y-40600000D03*
D12*
X54600000Y-40600000D03*
%TD*%
D11*
%TO.C,J3*%
X62700000Y-49195000D03*
D12*
X62700000Y-51735000D03*
%TD*%
D11*
%TO.C,J4*%
X38600000Y-64000000D03*
D12*
X38600000Y-61460000D03*
%TD*%
D11*
%TO.C,J5*%
X42400000Y-63875000D03*
D12*
X42400000Y-61335000D03*
%TD*%
D15*
%TO.C,J1*%
X34360000Y-29300000D03*
D16*
X34360000Y-31800000D03*
X34360000Y-33800000D03*
X34360000Y-36300000D03*
D17*
X31650000Y-26230000D03*
X31650000Y-39370000D03*
%TD*%
D11*
%TO.C,J2*%
X50800000Y-64000000D03*
D12*
X53340000Y-64000000D03*
%TD*%
M02*
