M48
; DRILL file {KiCad 7.0.9} date Mon Feb  5 14:31:55 2024
; FORMAT={-:-/ absolute / metric / decimal}
; #@! TF.CreationDate,2024-02-05T14:31:55+03:00
; #@! TF.GenerationSoftware,Kicad,Pcbnew,7.0.9
; #@! TF.FileFunction,Plated,1,2,PTH
FMAT,2
METRIC
; #@! TA.AperFunction,Plated,PTH,ComponentDrill
T1C0.200
; #@! TA.AperFunction,Plated,PTH,ViaDrill
T2C0.400
; #@! TA.AperFunction,Plated,PTH,ComponentDrill
T3C0.950
; #@! TA.AperFunction,Plated,PTH,ComponentDrill
T4C1.000
; #@! TA.AperFunction,Plated,PTH,ComponentDrill
T5C2.300
%
G90
G05
T1
X43.4Y-53.6
X43.4Y-54.9
X43.4Y-56.2
X45.31Y-53.6
X45.31Y-54.9
X45.31Y-56.2
T2
X29.8Y-37.4
X29.8Y-41.2
X30.2Y-53.0
X30.4Y-42.4
X30.8Y-59.8
X32.4Y-43.4
X32.4Y-51.8
X33.2Y-35.0
X33.2Y-37.6
X33.4Y-41.2
X34.6Y-52.6
X35.0Y-49.6
X35.0Y-60.4
X35.4Y-47.4
X35.6Y-42.4
X35.8Y-23.8
X35.8Y-35.0
X35.8Y-37.6
X35.8Y-63.6
X36.2Y-32.8
X37.0Y-52.8
X37.2Y-44.6
X37.4Y-59.6
X38.2Y-49.4
X39.8Y-44.6
X39.8Y-52.6
X39.8Y-54.6
X39.8Y-59.4
X40.0Y-19.0
X40.4Y-27.0
X40.4Y-39.2
X40.4Y-49.4
X40.6Y-62.4
X41.662Y-59.405
X42.0Y-47.6
X42.2Y-44.2
X42.2Y-45.6
X43.4Y-58.0
X43.8Y-42.4
X43.8Y-49.0
X43.8Y-52.2
X44.2Y-59.4
X44.6Y-58.0
X44.6Y-62.2
X45.0Y-23.8
X45.362Y-44.2
X45.362Y-47.0
X45.4Y-48.8
X45.4Y-52.4
X46.09Y-58.174
X46.4Y-28.8
X48.6Y-38.2
X49.0Y-19.0
X49.5Y-36.4
X50.4Y-25.6
X50.4Y-30.2
X50.6Y-32.5
X50.9Y-35.3
X51.0Y-44.2
X51.0Y-45.8
X51.0Y-47.2
X52.081Y-54.703
X52.2Y-36.6
X52.4Y-66.0
X52.6Y-49.4
X52.6Y-59.8
X52.8Y-42.4
X52.8Y-62.2
X53.1Y-35.8
X53.2Y-23.8
X53.2Y-38.9
X53.6Y-45.6
X54.1Y-48.6
X54.2Y-25.8
X54.4Y-54.679
X54.6Y-62.6
X55.2Y-24.7
X55.5Y-38.5
X55.6Y-35.8
X55.6Y-54.8
X55.8Y-65.0
X56.1Y-63.6
X56.2Y-60.8
X56.5Y-62.2
X56.8Y-19.0
X56.8Y-24.6
X57.1Y-53.9
X57.1Y-64.1
X57.2Y-26.4
X57.6Y-46.2
X58.3Y-42.5
X58.3Y-54.4
X58.3Y-55.5
X58.425Y-65.135
X58.6Y-50.8
X58.6Y-52.6
X58.7Y-44.2
X59.5Y-53.3
X59.668Y-56.575
X59.7Y-23.8
X60.1Y-25.2
X60.6Y-66.2
X61.5Y-46.8
X61.7Y-45.2
X61.9Y-43.1
X64.0Y-19.0
X64.2Y-30.7
X64.4Y-56.5
X64.7Y-54.735
X66.0Y-65.8
X66.1Y-60.0
X66.5Y-57.335
X66.5Y-58.735
X67.1Y-46.535
X67.3Y-22.1
X67.6Y-30.4
X67.7Y-56.935
X67.9Y-54.135
X69.0Y-45.1
X69.1Y-56.935
X69.1Y-63.935
X69.1Y-65.535
X69.9Y-49.535
X70.1Y-56.135
X71.2Y-18.8
X71.3Y-42.135
X71.5Y-56.335
X71.7Y-53.135
X71.9Y-65.735
X72.3Y-63.935
X72.4Y-62.0
X74.2Y-23.8
X74.8Y-28.2
X74.9Y-41.2
X75.1Y-45.335
X76.2Y-57.3
X76.5Y-60.3
X76.9Y-41.7
X77.225Y-58.135
X77.6Y-31.2
X77.7Y-54.335
X78.1Y-61.535
T3
X34.36Y-29.3
X34.36Y-31.8
X34.36Y-33.8
X34.36Y-36.3
T4
X38.6Y-61.46
X38.6Y-64.0
X42.4Y-61.335
X42.4Y-63.875
X50.8Y-64.0
X50.9Y-37.735
X50.9Y-40.275
X53.34Y-64.0
X54.6Y-40.6
X55.8Y-31.46
X55.8Y-34.0
X56.46Y-48.3
X57.14Y-40.6
X59.0Y-48.3
X62.7Y-49.195
X62.7Y-51.735
T5
X31.65Y-26.23
X31.65Y-39.37
T0
M30
