M48
; DRILL file {KiCad 7.0.9} date Mon Jan 22 02:17:37 2024
; FORMAT={-:-/ absolute / metric / decimal}
; #@! TF.CreationDate,2024-01-22T02:17:37+03:00
; #@! TF.GenerationSoftware,Kicad,Pcbnew,7.0.9
; #@! TF.FileFunction,Plated,1,2,PTH
FMAT,2
METRIC
; #@! TA.AperFunction,Plated,PTH,ComponentDrill
T1C0.200
; #@! TA.AperFunction,Plated,PTH,ViaDrill
T2C0.400
; #@! TA.AperFunction,Plated,PTH,ComponentDrill
T3C0.950
; #@! TA.AperFunction,Plated,PTH,ComponentDrill
T4C1.000
; #@! TA.AperFunction,Plated,PTH,ComponentDrill
T5C2.300
%
G90
G05
T1
X43.4Y-53.6
X43.4Y-54.9
X43.4Y-56.2
X45.31Y-53.6
X45.31Y-54.9
X45.31Y-56.2
T2
X30.2Y-53.0
X30.8Y-36.2
X30.8Y-59.8
X34.0Y-42.4
X34.6Y-52.6
X35.0Y-49.6
X35.0Y-60.4
X35.4Y-47.4
X35.6Y-38.6
X35.8Y-23.8
X35.8Y-63.6
X36.8Y-40.2
X37.0Y-52.8
X37.2Y-44.6
X37.4Y-59.6
X38.2Y-49.4
X39.4Y-38.6
X39.4Y-41.0
X39.8Y-44.6
X39.8Y-52.6
X39.8Y-54.6
X39.8Y-59.4
X40.0Y-19.0
X40.4Y-27.0
X40.4Y-49.4
X40.6Y-62.4
X41.662Y-59.405
X41.8Y-45.6
X42.0Y-47.6
X43.4Y-58.0
X43.8Y-49.0
X43.8Y-52.2
X44.2Y-59.4
X44.6Y-58.0
X44.6Y-62.2
X44.8Y-30.2
X45.0Y-23.8
X45.362Y-44.2
X45.362Y-47.0
X45.4Y-48.8
X45.4Y-52.4
X46.09Y-58.174
X48.5Y-35.5
X48.6Y-38.2
X49.0Y-19.0
X50.0Y-50.8
X50.4Y-30.2
X50.9Y-35.3
X51.0Y-44.2
X51.0Y-45.8
X52.081Y-54.703
X52.4Y-66.0
X52.6Y-60.6
X52.8Y-62.2
X53.2Y-23.8
X53.4Y-35.3
X53.4Y-38.2
X54.4Y-44.0
X54.4Y-46.0
X54.4Y-48.6
X54.4Y-54.679
X55.8Y-65.0
X56.0Y-62.6
X56.2Y-60.8
X56.4Y-41.2
X56.6Y-39.0
X56.725Y-48.0
X57.4Y-30.2
X57.4Y-49.6
X57.8Y-62.8
X58.125Y-54.8
X59.268Y-64.136
X59.8Y-44.0
X60.0Y-60.0
X60.2Y-23.8
X60.2Y-38.6
X60.325Y-53.4
X60.4Y-40.4
X61.6Y-46.6
X61.925Y-36.8
X62.0Y-63.8
X63.0Y-42.0
X64.0Y-19.0
X64.0Y-30.6
X64.0Y-59.0
X65.125Y-38.2
X65.2Y-40.2
X66.0Y-47.6
X66.0Y-48.8
X66.4Y-64.0
X66.8Y-46.6
X67.225Y-54.0
X67.4Y-23.8
X67.8Y-28.4
X68.6Y-59.0
X68.8Y-32.6
X68.8Y-40.4
X69.0Y-46.4
X69.6Y-37.4
X70.2Y-64.6
X70.8Y-57.2
X71.6Y-31.4
X71.6Y-42.6
X71.6Y-61.0
X72.325Y-36.8
X72.325Y-47.6
X72.525Y-40.2
X73.4Y-57.2
X74.725Y-47.679
X74.8Y-28.2
X74.925Y-54.4
X75.8Y-57.8
X76.725Y-37.0
X76.725Y-39.3
X76.925Y-47.8
X77.325Y-55.0
T3
X34.36Y-29.3
X34.36Y-31.8
X34.36Y-33.8
X34.36Y-36.3
T4
X38.6Y-61.46
X38.6Y-64.0
X42.4Y-61.335
X42.4Y-63.875
X50.8Y-64.0
X50.9Y-37.735
X50.9Y-40.275
X53.34Y-64.0
X74.525Y-38.46
X74.525Y-41.0
T5
X31.65Y-26.23
X31.65Y-39.37
T0
M30
