%TF.GenerationSoftware,KiCad,Pcbnew,7.0.9*%
%TF.CreationDate,2024-01-24T01:25:47+03:00*%
%TF.ProjectId,PowerBank,506f7765-7242-4616-9e6b-2e6b69636164,rev?*%
%TF.SameCoordinates,Original*%
%TF.FileFunction,Legend,Top*%
%TF.FilePolarity,Positive*%
%FSLAX46Y46*%
G04 Gerber Fmt 4.6, Leading zero omitted, Abs format (unit mm)*
G04 Created by KiCad (PCBNEW 7.0.9) date 2024-01-24 01:25:47*
%MOMM*%
%LPD*%
G01*
G04 APERTURE LIST*
%ADD10C,0.150000*%
%ADD11C,0.120000*%
G04 APERTURE END LIST*
D10*
X49833333Y-42709580D02*
X49785714Y-42757200D01*
X49785714Y-42757200D02*
X49642857Y-42804819D01*
X49642857Y-42804819D02*
X49547619Y-42804819D01*
X49547619Y-42804819D02*
X49404762Y-42757200D01*
X49404762Y-42757200D02*
X49309524Y-42661961D01*
X49309524Y-42661961D02*
X49261905Y-42566723D01*
X49261905Y-42566723D02*
X49214286Y-42376247D01*
X49214286Y-42376247D02*
X49214286Y-42233390D01*
X49214286Y-42233390D02*
X49261905Y-42042914D01*
X49261905Y-42042914D02*
X49309524Y-41947676D01*
X49309524Y-41947676D02*
X49404762Y-41852438D01*
X49404762Y-41852438D02*
X49547619Y-41804819D01*
X49547619Y-41804819D02*
X49642857Y-41804819D01*
X49642857Y-41804819D02*
X49785714Y-41852438D01*
X49785714Y-41852438D02*
X49833333Y-41900057D01*
X50690476Y-42138152D02*
X50690476Y-42804819D01*
X50452381Y-41757200D02*
X50214286Y-42471485D01*
X50214286Y-42471485D02*
X50833333Y-42471485D01*
X39869642Y-30024819D02*
X39536309Y-29548628D01*
X39298214Y-30024819D02*
X39298214Y-29024819D01*
X39298214Y-29024819D02*
X39679166Y-29024819D01*
X39679166Y-29024819D02*
X39774404Y-29072438D01*
X39774404Y-29072438D02*
X39822023Y-29120057D01*
X39822023Y-29120057D02*
X39869642Y-29215295D01*
X39869642Y-29215295D02*
X39869642Y-29358152D01*
X39869642Y-29358152D02*
X39822023Y-29453390D01*
X39822023Y-29453390D02*
X39774404Y-29501009D01*
X39774404Y-29501009D02*
X39679166Y-29548628D01*
X39679166Y-29548628D02*
X39298214Y-29548628D01*
X40822023Y-30024819D02*
X40250595Y-30024819D01*
X40536309Y-30024819D02*
X40536309Y-29024819D01*
X40536309Y-29024819D02*
X40441071Y-29167676D01*
X40441071Y-29167676D02*
X40345833Y-29262914D01*
X40345833Y-29262914D02*
X40250595Y-29310533D01*
X41441071Y-29024819D02*
X41536309Y-29024819D01*
X41536309Y-29024819D02*
X41631547Y-29072438D01*
X41631547Y-29072438D02*
X41679166Y-29120057D01*
X41679166Y-29120057D02*
X41726785Y-29215295D01*
X41726785Y-29215295D02*
X41774404Y-29405771D01*
X41774404Y-29405771D02*
X41774404Y-29643866D01*
X41774404Y-29643866D02*
X41726785Y-29834342D01*
X41726785Y-29834342D02*
X41679166Y-29929580D01*
X41679166Y-29929580D02*
X41631547Y-29977200D01*
X41631547Y-29977200D02*
X41536309Y-30024819D01*
X41536309Y-30024819D02*
X41441071Y-30024819D01*
X41441071Y-30024819D02*
X41345833Y-29977200D01*
X41345833Y-29977200D02*
X41298214Y-29929580D01*
X41298214Y-29929580D02*
X41250595Y-29834342D01*
X41250595Y-29834342D02*
X41202976Y-29643866D01*
X41202976Y-29643866D02*
X41202976Y-29405771D01*
X41202976Y-29405771D02*
X41250595Y-29215295D01*
X41250595Y-29215295D02*
X41298214Y-29120057D01*
X41298214Y-29120057D02*
X41345833Y-29072438D01*
X41345833Y-29072438D02*
X41441071Y-29024819D01*
X31066666Y-59654819D02*
X30733333Y-59178628D01*
X30495238Y-59654819D02*
X30495238Y-58654819D01*
X30495238Y-58654819D02*
X30876190Y-58654819D01*
X30876190Y-58654819D02*
X30971428Y-58702438D01*
X30971428Y-58702438D02*
X31019047Y-58750057D01*
X31019047Y-58750057D02*
X31066666Y-58845295D01*
X31066666Y-58845295D02*
X31066666Y-58988152D01*
X31066666Y-58988152D02*
X31019047Y-59083390D01*
X31019047Y-59083390D02*
X30971428Y-59131009D01*
X30971428Y-59131009D02*
X30876190Y-59178628D01*
X30876190Y-59178628D02*
X30495238Y-59178628D01*
X31495238Y-59131009D02*
X31828571Y-59131009D01*
X31971428Y-59654819D02*
X31495238Y-59654819D01*
X31495238Y-59654819D02*
X31495238Y-58654819D01*
X31495238Y-58654819D02*
X31971428Y-58654819D01*
X32733333Y-59131009D02*
X32400000Y-59131009D01*
X32400000Y-59654819D02*
X32400000Y-58654819D01*
X32400000Y-58654819D02*
X32876190Y-58654819D01*
X33400000Y-58654819D02*
X33400000Y-58892914D01*
X33161905Y-58797676D02*
X33400000Y-58892914D01*
X33400000Y-58892914D02*
X33638095Y-58797676D01*
X33257143Y-59083390D02*
X33400000Y-58892914D01*
X33400000Y-58892914D02*
X33542857Y-59083390D01*
X34161905Y-58654819D02*
X34161905Y-58892914D01*
X33923810Y-58797676D02*
X34161905Y-58892914D01*
X34161905Y-58892914D02*
X34400000Y-58797676D01*
X34019048Y-59083390D02*
X34161905Y-58892914D01*
X34161905Y-58892914D02*
X34304762Y-59083390D01*
X31790476Y-44654819D02*
X32457142Y-45654819D01*
X32457142Y-44654819D02*
X31790476Y-45654819D01*
X33361904Y-45654819D02*
X32790476Y-45654819D01*
X33076190Y-45654819D02*
X33076190Y-44654819D01*
X33076190Y-44654819D02*
X32980952Y-44797676D01*
X32980952Y-44797676D02*
X32885714Y-44892914D01*
X32885714Y-44892914D02*
X32790476Y-44940533D01*
X74266666Y-59654819D02*
X73933333Y-59178628D01*
X73695238Y-59654819D02*
X73695238Y-58654819D01*
X73695238Y-58654819D02*
X74076190Y-58654819D01*
X74076190Y-58654819D02*
X74171428Y-58702438D01*
X74171428Y-58702438D02*
X74219047Y-58750057D01*
X74219047Y-58750057D02*
X74266666Y-58845295D01*
X74266666Y-58845295D02*
X74266666Y-58988152D01*
X74266666Y-58988152D02*
X74219047Y-59083390D01*
X74219047Y-59083390D02*
X74171428Y-59131009D01*
X74171428Y-59131009D02*
X74076190Y-59178628D01*
X74076190Y-59178628D02*
X73695238Y-59178628D01*
X74695238Y-59131009D02*
X75028571Y-59131009D01*
X75171428Y-59654819D02*
X74695238Y-59654819D01*
X74695238Y-59654819D02*
X74695238Y-58654819D01*
X74695238Y-58654819D02*
X75171428Y-58654819D01*
X75933333Y-59131009D02*
X75600000Y-59131009D01*
X75600000Y-59654819D02*
X75600000Y-58654819D01*
X75600000Y-58654819D02*
X76076190Y-58654819D01*
X76600000Y-58654819D02*
X76600000Y-58892914D01*
X76361905Y-58797676D02*
X76600000Y-58892914D01*
X76600000Y-58892914D02*
X76838095Y-58797676D01*
X76457143Y-59083390D02*
X76600000Y-58892914D01*
X76600000Y-58892914D02*
X76742857Y-59083390D01*
X77361905Y-58654819D02*
X77361905Y-58892914D01*
X77123810Y-58797676D02*
X77361905Y-58892914D01*
X77361905Y-58892914D02*
X77600000Y-58797676D01*
X77219048Y-59083390D02*
X77361905Y-58892914D01*
X77361905Y-58892914D02*
X77504762Y-59083390D01*
X55833333Y-60159580D02*
X55785714Y-60207200D01*
X55785714Y-60207200D02*
X55642857Y-60254819D01*
X55642857Y-60254819D02*
X55547619Y-60254819D01*
X55547619Y-60254819D02*
X55404762Y-60207200D01*
X55404762Y-60207200D02*
X55309524Y-60111961D01*
X55309524Y-60111961D02*
X55261905Y-60016723D01*
X55261905Y-60016723D02*
X55214286Y-59826247D01*
X55214286Y-59826247D02*
X55214286Y-59683390D01*
X55214286Y-59683390D02*
X55261905Y-59492914D01*
X55261905Y-59492914D02*
X55309524Y-59397676D01*
X55309524Y-59397676D02*
X55404762Y-59302438D01*
X55404762Y-59302438D02*
X55547619Y-59254819D01*
X55547619Y-59254819D02*
X55642857Y-59254819D01*
X55642857Y-59254819D02*
X55785714Y-59302438D01*
X55785714Y-59302438D02*
X55833333Y-59350057D01*
X56690476Y-59254819D02*
X56500000Y-59254819D01*
X56500000Y-59254819D02*
X56404762Y-59302438D01*
X56404762Y-59302438D02*
X56357143Y-59350057D01*
X56357143Y-59350057D02*
X56261905Y-59492914D01*
X56261905Y-59492914D02*
X56214286Y-59683390D01*
X56214286Y-59683390D02*
X56214286Y-60064342D01*
X56214286Y-60064342D02*
X56261905Y-60159580D01*
X56261905Y-60159580D02*
X56309524Y-60207200D01*
X56309524Y-60207200D02*
X56404762Y-60254819D01*
X56404762Y-60254819D02*
X56595238Y-60254819D01*
X56595238Y-60254819D02*
X56690476Y-60207200D01*
X56690476Y-60207200D02*
X56738095Y-60159580D01*
X56738095Y-60159580D02*
X56785714Y-60064342D01*
X56785714Y-60064342D02*
X56785714Y-59826247D01*
X56785714Y-59826247D02*
X56738095Y-59731009D01*
X56738095Y-59731009D02*
X56690476Y-59683390D01*
X56690476Y-59683390D02*
X56595238Y-59635771D01*
X56595238Y-59635771D02*
X56404762Y-59635771D01*
X56404762Y-59635771D02*
X56309524Y-59683390D01*
X56309524Y-59683390D02*
X56261905Y-59731009D01*
X56261905Y-59731009D02*
X56214286Y-59826247D01*
X34990476Y-57754819D02*
X35323809Y-58754819D01*
X35323809Y-58754819D02*
X35657142Y-57754819D01*
X35990476Y-58754819D02*
X35990476Y-57754819D01*
X35990476Y-57754819D02*
X36228571Y-57754819D01*
X36228571Y-57754819D02*
X36371428Y-57802438D01*
X36371428Y-57802438D02*
X36466666Y-57897676D01*
X36466666Y-57897676D02*
X36514285Y-57992914D01*
X36514285Y-57992914D02*
X36561904Y-58183390D01*
X36561904Y-58183390D02*
X36561904Y-58326247D01*
X36561904Y-58326247D02*
X36514285Y-58516723D01*
X36514285Y-58516723D02*
X36466666Y-58611961D01*
X36466666Y-58611961D02*
X36371428Y-58707200D01*
X36371428Y-58707200D02*
X36228571Y-58754819D01*
X36228571Y-58754819D02*
X35990476Y-58754819D01*
X37514285Y-58754819D02*
X36942857Y-58754819D01*
X37228571Y-58754819D02*
X37228571Y-57754819D01*
X37228571Y-57754819D02*
X37133333Y-57897676D01*
X37133333Y-57897676D02*
X37038095Y-57992914D01*
X37038095Y-57992914D02*
X36942857Y-58040533D01*
X60033333Y-44054819D02*
X59700000Y-43578628D01*
X59461905Y-44054819D02*
X59461905Y-43054819D01*
X59461905Y-43054819D02*
X59842857Y-43054819D01*
X59842857Y-43054819D02*
X59938095Y-43102438D01*
X59938095Y-43102438D02*
X59985714Y-43150057D01*
X59985714Y-43150057D02*
X60033333Y-43245295D01*
X60033333Y-43245295D02*
X60033333Y-43388152D01*
X60033333Y-43388152D02*
X59985714Y-43483390D01*
X59985714Y-43483390D02*
X59938095Y-43531009D01*
X59938095Y-43531009D02*
X59842857Y-43578628D01*
X59842857Y-43578628D02*
X59461905Y-43578628D01*
X60938095Y-43054819D02*
X60461905Y-43054819D01*
X60461905Y-43054819D02*
X60414286Y-43531009D01*
X60414286Y-43531009D02*
X60461905Y-43483390D01*
X60461905Y-43483390D02*
X60557143Y-43435771D01*
X60557143Y-43435771D02*
X60795238Y-43435771D01*
X60795238Y-43435771D02*
X60890476Y-43483390D01*
X60890476Y-43483390D02*
X60938095Y-43531009D01*
X60938095Y-43531009D02*
X60985714Y-43626247D01*
X60985714Y-43626247D02*
X60985714Y-43864342D01*
X60985714Y-43864342D02*
X60938095Y-43959580D01*
X60938095Y-43959580D02*
X60890476Y-44007200D01*
X60890476Y-44007200D02*
X60795238Y-44054819D01*
X60795238Y-44054819D02*
X60557143Y-44054819D01*
X60557143Y-44054819D02*
X60461905Y-44007200D01*
X60461905Y-44007200D02*
X60414286Y-43959580D01*
X39157142Y-46359580D02*
X39109523Y-46407200D01*
X39109523Y-46407200D02*
X38966666Y-46454819D01*
X38966666Y-46454819D02*
X38871428Y-46454819D01*
X38871428Y-46454819D02*
X38728571Y-46407200D01*
X38728571Y-46407200D02*
X38633333Y-46311961D01*
X38633333Y-46311961D02*
X38585714Y-46216723D01*
X38585714Y-46216723D02*
X38538095Y-46026247D01*
X38538095Y-46026247D02*
X38538095Y-45883390D01*
X38538095Y-45883390D02*
X38585714Y-45692914D01*
X38585714Y-45692914D02*
X38633333Y-45597676D01*
X38633333Y-45597676D02*
X38728571Y-45502438D01*
X38728571Y-45502438D02*
X38871428Y-45454819D01*
X38871428Y-45454819D02*
X38966666Y-45454819D01*
X38966666Y-45454819D02*
X39109523Y-45502438D01*
X39109523Y-45502438D02*
X39157142Y-45550057D01*
X40109523Y-46454819D02*
X39538095Y-46454819D01*
X39823809Y-46454819D02*
X39823809Y-45454819D01*
X39823809Y-45454819D02*
X39728571Y-45597676D01*
X39728571Y-45597676D02*
X39633333Y-45692914D01*
X39633333Y-45692914D02*
X39538095Y-45740533D01*
X40490476Y-45550057D02*
X40538095Y-45502438D01*
X40538095Y-45502438D02*
X40633333Y-45454819D01*
X40633333Y-45454819D02*
X40871428Y-45454819D01*
X40871428Y-45454819D02*
X40966666Y-45502438D01*
X40966666Y-45502438D02*
X41014285Y-45550057D01*
X41014285Y-45550057D02*
X41061904Y-45645295D01*
X41061904Y-45645295D02*
X41061904Y-45740533D01*
X41061904Y-45740533D02*
X41014285Y-45883390D01*
X41014285Y-45883390D02*
X40442857Y-46454819D01*
X40442857Y-46454819D02*
X41061904Y-46454819D01*
X42433333Y-49159580D02*
X42385714Y-49207200D01*
X42385714Y-49207200D02*
X42242857Y-49254819D01*
X42242857Y-49254819D02*
X42147619Y-49254819D01*
X42147619Y-49254819D02*
X42004762Y-49207200D01*
X42004762Y-49207200D02*
X41909524Y-49111961D01*
X41909524Y-49111961D02*
X41861905Y-49016723D01*
X41861905Y-49016723D02*
X41814286Y-48826247D01*
X41814286Y-48826247D02*
X41814286Y-48683390D01*
X41814286Y-48683390D02*
X41861905Y-48492914D01*
X41861905Y-48492914D02*
X41909524Y-48397676D01*
X41909524Y-48397676D02*
X42004762Y-48302438D01*
X42004762Y-48302438D02*
X42147619Y-48254819D01*
X42147619Y-48254819D02*
X42242857Y-48254819D01*
X42242857Y-48254819D02*
X42385714Y-48302438D01*
X42385714Y-48302438D02*
X42433333Y-48350057D01*
X43004762Y-48683390D02*
X42909524Y-48635771D01*
X42909524Y-48635771D02*
X42861905Y-48588152D01*
X42861905Y-48588152D02*
X42814286Y-48492914D01*
X42814286Y-48492914D02*
X42814286Y-48445295D01*
X42814286Y-48445295D02*
X42861905Y-48350057D01*
X42861905Y-48350057D02*
X42909524Y-48302438D01*
X42909524Y-48302438D02*
X43004762Y-48254819D01*
X43004762Y-48254819D02*
X43195238Y-48254819D01*
X43195238Y-48254819D02*
X43290476Y-48302438D01*
X43290476Y-48302438D02*
X43338095Y-48350057D01*
X43338095Y-48350057D02*
X43385714Y-48445295D01*
X43385714Y-48445295D02*
X43385714Y-48492914D01*
X43385714Y-48492914D02*
X43338095Y-48588152D01*
X43338095Y-48588152D02*
X43290476Y-48635771D01*
X43290476Y-48635771D02*
X43195238Y-48683390D01*
X43195238Y-48683390D02*
X43004762Y-48683390D01*
X43004762Y-48683390D02*
X42909524Y-48731009D01*
X42909524Y-48731009D02*
X42861905Y-48778628D01*
X42861905Y-48778628D02*
X42814286Y-48873866D01*
X42814286Y-48873866D02*
X42814286Y-49064342D01*
X42814286Y-49064342D02*
X42861905Y-49159580D01*
X42861905Y-49159580D02*
X42909524Y-49207200D01*
X42909524Y-49207200D02*
X43004762Y-49254819D01*
X43004762Y-49254819D02*
X43195238Y-49254819D01*
X43195238Y-49254819D02*
X43290476Y-49207200D01*
X43290476Y-49207200D02*
X43338095Y-49159580D01*
X43338095Y-49159580D02*
X43385714Y-49064342D01*
X43385714Y-49064342D02*
X43385714Y-48873866D01*
X43385714Y-48873866D02*
X43338095Y-48778628D01*
X43338095Y-48778628D02*
X43290476Y-48731009D01*
X43290476Y-48731009D02*
X43195238Y-48683390D01*
X50666666Y-33554819D02*
X50666666Y-34269104D01*
X50666666Y-34269104D02*
X50619047Y-34411961D01*
X50619047Y-34411961D02*
X50523809Y-34507200D01*
X50523809Y-34507200D02*
X50380952Y-34554819D01*
X50380952Y-34554819D02*
X50285714Y-34554819D01*
X51571428Y-33554819D02*
X51380952Y-33554819D01*
X51380952Y-33554819D02*
X51285714Y-33602438D01*
X51285714Y-33602438D02*
X51238095Y-33650057D01*
X51238095Y-33650057D02*
X51142857Y-33792914D01*
X51142857Y-33792914D02*
X51095238Y-33983390D01*
X51095238Y-33983390D02*
X51095238Y-34364342D01*
X51095238Y-34364342D02*
X51142857Y-34459580D01*
X51142857Y-34459580D02*
X51190476Y-34507200D01*
X51190476Y-34507200D02*
X51285714Y-34554819D01*
X51285714Y-34554819D02*
X51476190Y-34554819D01*
X51476190Y-34554819D02*
X51571428Y-34507200D01*
X51571428Y-34507200D02*
X51619047Y-34459580D01*
X51619047Y-34459580D02*
X51666666Y-34364342D01*
X51666666Y-34364342D02*
X51666666Y-34126247D01*
X51666666Y-34126247D02*
X51619047Y-34031009D01*
X51619047Y-34031009D02*
X51571428Y-33983390D01*
X51571428Y-33983390D02*
X51476190Y-33935771D01*
X51476190Y-33935771D02*
X51285714Y-33935771D01*
X51285714Y-33935771D02*
X51190476Y-33983390D01*
X51190476Y-33983390D02*
X51142857Y-34031009D01*
X51142857Y-34031009D02*
X51095238Y-34126247D01*
X41833333Y-46959580D02*
X41785714Y-47007200D01*
X41785714Y-47007200D02*
X41642857Y-47054819D01*
X41642857Y-47054819D02*
X41547619Y-47054819D01*
X41547619Y-47054819D02*
X41404762Y-47007200D01*
X41404762Y-47007200D02*
X41309524Y-46911961D01*
X41309524Y-46911961D02*
X41261905Y-46816723D01*
X41261905Y-46816723D02*
X41214286Y-46626247D01*
X41214286Y-46626247D02*
X41214286Y-46483390D01*
X41214286Y-46483390D02*
X41261905Y-46292914D01*
X41261905Y-46292914D02*
X41309524Y-46197676D01*
X41309524Y-46197676D02*
X41404762Y-46102438D01*
X41404762Y-46102438D02*
X41547619Y-46054819D01*
X41547619Y-46054819D02*
X41642857Y-46054819D01*
X41642857Y-46054819D02*
X41785714Y-46102438D01*
X41785714Y-46102438D02*
X41833333Y-46150057D01*
X42214286Y-46150057D02*
X42261905Y-46102438D01*
X42261905Y-46102438D02*
X42357143Y-46054819D01*
X42357143Y-46054819D02*
X42595238Y-46054819D01*
X42595238Y-46054819D02*
X42690476Y-46102438D01*
X42690476Y-46102438D02*
X42738095Y-46150057D01*
X42738095Y-46150057D02*
X42785714Y-46245295D01*
X42785714Y-46245295D02*
X42785714Y-46340533D01*
X42785714Y-46340533D02*
X42738095Y-46483390D01*
X42738095Y-46483390D02*
X42166667Y-47054819D01*
X42166667Y-47054819D02*
X42785714Y-47054819D01*
X46345833Y-62854819D02*
X46012500Y-62378628D01*
X45774405Y-62854819D02*
X45774405Y-61854819D01*
X45774405Y-61854819D02*
X46155357Y-61854819D01*
X46155357Y-61854819D02*
X46250595Y-61902438D01*
X46250595Y-61902438D02*
X46298214Y-61950057D01*
X46298214Y-61950057D02*
X46345833Y-62045295D01*
X46345833Y-62045295D02*
X46345833Y-62188152D01*
X46345833Y-62188152D02*
X46298214Y-62283390D01*
X46298214Y-62283390D02*
X46250595Y-62331009D01*
X46250595Y-62331009D02*
X46155357Y-62378628D01*
X46155357Y-62378628D02*
X45774405Y-62378628D01*
X46726786Y-61950057D02*
X46774405Y-61902438D01*
X46774405Y-61902438D02*
X46869643Y-61854819D01*
X46869643Y-61854819D02*
X47107738Y-61854819D01*
X47107738Y-61854819D02*
X47202976Y-61902438D01*
X47202976Y-61902438D02*
X47250595Y-61950057D01*
X47250595Y-61950057D02*
X47298214Y-62045295D01*
X47298214Y-62045295D02*
X47298214Y-62140533D01*
X47298214Y-62140533D02*
X47250595Y-62283390D01*
X47250595Y-62283390D02*
X46679167Y-62854819D01*
X46679167Y-62854819D02*
X47298214Y-62854819D01*
X64638095Y-52654819D02*
X64638095Y-53464342D01*
X64638095Y-53464342D02*
X64685714Y-53559580D01*
X64685714Y-53559580D02*
X64733333Y-53607200D01*
X64733333Y-53607200D02*
X64828571Y-53654819D01*
X64828571Y-53654819D02*
X65019047Y-53654819D01*
X65019047Y-53654819D02*
X65114285Y-53607200D01*
X65114285Y-53607200D02*
X65161904Y-53559580D01*
X65161904Y-53559580D02*
X65209523Y-53464342D01*
X65209523Y-53464342D02*
X65209523Y-52654819D01*
X65638095Y-52750057D02*
X65685714Y-52702438D01*
X65685714Y-52702438D02*
X65780952Y-52654819D01*
X65780952Y-52654819D02*
X66019047Y-52654819D01*
X66019047Y-52654819D02*
X66114285Y-52702438D01*
X66114285Y-52702438D02*
X66161904Y-52750057D01*
X66161904Y-52750057D02*
X66209523Y-52845295D01*
X66209523Y-52845295D02*
X66209523Y-52940533D01*
X66209523Y-52940533D02*
X66161904Y-53083390D01*
X66161904Y-53083390D02*
X65590476Y-53654819D01*
X65590476Y-53654819D02*
X66209523Y-53654819D01*
X56157142Y-42359580D02*
X56109523Y-42407200D01*
X56109523Y-42407200D02*
X55966666Y-42454819D01*
X55966666Y-42454819D02*
X55871428Y-42454819D01*
X55871428Y-42454819D02*
X55728571Y-42407200D01*
X55728571Y-42407200D02*
X55633333Y-42311961D01*
X55633333Y-42311961D02*
X55585714Y-42216723D01*
X55585714Y-42216723D02*
X55538095Y-42026247D01*
X55538095Y-42026247D02*
X55538095Y-41883390D01*
X55538095Y-41883390D02*
X55585714Y-41692914D01*
X55585714Y-41692914D02*
X55633333Y-41597676D01*
X55633333Y-41597676D02*
X55728571Y-41502438D01*
X55728571Y-41502438D02*
X55871428Y-41454819D01*
X55871428Y-41454819D02*
X55966666Y-41454819D01*
X55966666Y-41454819D02*
X56109523Y-41502438D01*
X56109523Y-41502438D02*
X56157142Y-41550057D01*
X57109523Y-42454819D02*
X56538095Y-42454819D01*
X56823809Y-42454819D02*
X56823809Y-41454819D01*
X56823809Y-41454819D02*
X56728571Y-41597676D01*
X56728571Y-41597676D02*
X56633333Y-41692914D01*
X56633333Y-41692914D02*
X56538095Y-41740533D01*
X57728571Y-41454819D02*
X57823809Y-41454819D01*
X57823809Y-41454819D02*
X57919047Y-41502438D01*
X57919047Y-41502438D02*
X57966666Y-41550057D01*
X57966666Y-41550057D02*
X58014285Y-41645295D01*
X58014285Y-41645295D02*
X58061904Y-41835771D01*
X58061904Y-41835771D02*
X58061904Y-42073866D01*
X58061904Y-42073866D02*
X58014285Y-42264342D01*
X58014285Y-42264342D02*
X57966666Y-42359580D01*
X57966666Y-42359580D02*
X57919047Y-42407200D01*
X57919047Y-42407200D02*
X57823809Y-42454819D01*
X57823809Y-42454819D02*
X57728571Y-42454819D01*
X57728571Y-42454819D02*
X57633333Y-42407200D01*
X57633333Y-42407200D02*
X57585714Y-42359580D01*
X57585714Y-42359580D02*
X57538095Y-42264342D01*
X57538095Y-42264342D02*
X57490476Y-42073866D01*
X57490476Y-42073866D02*
X57490476Y-41835771D01*
X57490476Y-41835771D02*
X57538095Y-41645295D01*
X57538095Y-41645295D02*
X57585714Y-41550057D01*
X57585714Y-41550057D02*
X57633333Y-41502438D01*
X57633333Y-41502438D02*
X57728571Y-41454819D01*
X74266666Y-16454819D02*
X73933333Y-15978628D01*
X73695238Y-16454819D02*
X73695238Y-15454819D01*
X73695238Y-15454819D02*
X74076190Y-15454819D01*
X74076190Y-15454819D02*
X74171428Y-15502438D01*
X74171428Y-15502438D02*
X74219047Y-15550057D01*
X74219047Y-15550057D02*
X74266666Y-15645295D01*
X74266666Y-15645295D02*
X74266666Y-15788152D01*
X74266666Y-15788152D02*
X74219047Y-15883390D01*
X74219047Y-15883390D02*
X74171428Y-15931009D01*
X74171428Y-15931009D02*
X74076190Y-15978628D01*
X74076190Y-15978628D02*
X73695238Y-15978628D01*
X74695238Y-15931009D02*
X75028571Y-15931009D01*
X75171428Y-16454819D02*
X74695238Y-16454819D01*
X74695238Y-16454819D02*
X74695238Y-15454819D01*
X74695238Y-15454819D02*
X75171428Y-15454819D01*
X75933333Y-15931009D02*
X75600000Y-15931009D01*
X75600000Y-16454819D02*
X75600000Y-15454819D01*
X75600000Y-15454819D02*
X76076190Y-15454819D01*
X76600000Y-15454819D02*
X76600000Y-15692914D01*
X76361905Y-15597676D02*
X76600000Y-15692914D01*
X76600000Y-15692914D02*
X76838095Y-15597676D01*
X76457143Y-15883390D02*
X76600000Y-15692914D01*
X76600000Y-15692914D02*
X76742857Y-15883390D01*
X77361905Y-15454819D02*
X77361905Y-15692914D01*
X77123810Y-15597676D02*
X77361905Y-15692914D01*
X77361905Y-15692914D02*
X77600000Y-15597676D01*
X77219048Y-15883390D02*
X77361905Y-15692914D01*
X77361905Y-15692914D02*
X77504762Y-15883390D01*
X49733333Y-54654819D02*
X49400000Y-54178628D01*
X49161905Y-54654819D02*
X49161905Y-53654819D01*
X49161905Y-53654819D02*
X49542857Y-53654819D01*
X49542857Y-53654819D02*
X49638095Y-53702438D01*
X49638095Y-53702438D02*
X49685714Y-53750057D01*
X49685714Y-53750057D02*
X49733333Y-53845295D01*
X49733333Y-53845295D02*
X49733333Y-53988152D01*
X49733333Y-53988152D02*
X49685714Y-54083390D01*
X49685714Y-54083390D02*
X49638095Y-54131009D01*
X49638095Y-54131009D02*
X49542857Y-54178628D01*
X49542857Y-54178628D02*
X49161905Y-54178628D01*
X50066667Y-53654819D02*
X50685714Y-53654819D01*
X50685714Y-53654819D02*
X50352381Y-54035771D01*
X50352381Y-54035771D02*
X50495238Y-54035771D01*
X50495238Y-54035771D02*
X50590476Y-54083390D01*
X50590476Y-54083390D02*
X50638095Y-54131009D01*
X50638095Y-54131009D02*
X50685714Y-54226247D01*
X50685714Y-54226247D02*
X50685714Y-54464342D01*
X50685714Y-54464342D02*
X50638095Y-54559580D01*
X50638095Y-54559580D02*
X50590476Y-54607200D01*
X50590476Y-54607200D02*
X50495238Y-54654819D01*
X50495238Y-54654819D02*
X50209524Y-54654819D01*
X50209524Y-54654819D02*
X50114286Y-54607200D01*
X50114286Y-54607200D02*
X50066667Y-54559580D01*
X61109580Y-35042857D02*
X61157200Y-35090476D01*
X61157200Y-35090476D02*
X61204819Y-35233333D01*
X61204819Y-35233333D02*
X61204819Y-35328571D01*
X61204819Y-35328571D02*
X61157200Y-35471428D01*
X61157200Y-35471428D02*
X61061961Y-35566666D01*
X61061961Y-35566666D02*
X60966723Y-35614285D01*
X60966723Y-35614285D02*
X60776247Y-35661904D01*
X60776247Y-35661904D02*
X60633390Y-35661904D01*
X60633390Y-35661904D02*
X60442914Y-35614285D01*
X60442914Y-35614285D02*
X60347676Y-35566666D01*
X60347676Y-35566666D02*
X60252438Y-35471428D01*
X60252438Y-35471428D02*
X60204819Y-35328571D01*
X60204819Y-35328571D02*
X60204819Y-35233333D01*
X60204819Y-35233333D02*
X60252438Y-35090476D01*
X60252438Y-35090476D02*
X60300057Y-35042857D01*
X61204819Y-34090476D02*
X61204819Y-34661904D01*
X61204819Y-34376190D02*
X60204819Y-34376190D01*
X60204819Y-34376190D02*
X60347676Y-34471428D01*
X60347676Y-34471428D02*
X60442914Y-34566666D01*
X60442914Y-34566666D02*
X60490533Y-34661904D01*
X61204819Y-33138095D02*
X61204819Y-33709523D01*
X61204819Y-33423809D02*
X60204819Y-33423809D01*
X60204819Y-33423809D02*
X60347676Y-33519047D01*
X60347676Y-33519047D02*
X60442914Y-33614285D01*
X60442914Y-33614285D02*
X60490533Y-33709523D01*
X50833333Y-49559580D02*
X50785714Y-49607200D01*
X50785714Y-49607200D02*
X50642857Y-49654819D01*
X50642857Y-49654819D02*
X50547619Y-49654819D01*
X50547619Y-49654819D02*
X50404762Y-49607200D01*
X50404762Y-49607200D02*
X50309524Y-49511961D01*
X50309524Y-49511961D02*
X50261905Y-49416723D01*
X50261905Y-49416723D02*
X50214286Y-49226247D01*
X50214286Y-49226247D02*
X50214286Y-49083390D01*
X50214286Y-49083390D02*
X50261905Y-48892914D01*
X50261905Y-48892914D02*
X50309524Y-48797676D01*
X50309524Y-48797676D02*
X50404762Y-48702438D01*
X50404762Y-48702438D02*
X50547619Y-48654819D01*
X50547619Y-48654819D02*
X50642857Y-48654819D01*
X50642857Y-48654819D02*
X50785714Y-48702438D01*
X50785714Y-48702438D02*
X50833333Y-48750057D01*
X51166667Y-48654819D02*
X51785714Y-48654819D01*
X51785714Y-48654819D02*
X51452381Y-49035771D01*
X51452381Y-49035771D02*
X51595238Y-49035771D01*
X51595238Y-49035771D02*
X51690476Y-49083390D01*
X51690476Y-49083390D02*
X51738095Y-49131009D01*
X51738095Y-49131009D02*
X51785714Y-49226247D01*
X51785714Y-49226247D02*
X51785714Y-49464342D01*
X51785714Y-49464342D02*
X51738095Y-49559580D01*
X51738095Y-49559580D02*
X51690476Y-49607200D01*
X51690476Y-49607200D02*
X51595238Y-49654819D01*
X51595238Y-49654819D02*
X51309524Y-49654819D01*
X51309524Y-49654819D02*
X51214286Y-49607200D01*
X51214286Y-49607200D02*
X51166667Y-49559580D01*
X72233333Y-51054819D02*
X71900000Y-50578628D01*
X71661905Y-51054819D02*
X71661905Y-50054819D01*
X71661905Y-50054819D02*
X72042857Y-50054819D01*
X72042857Y-50054819D02*
X72138095Y-50102438D01*
X72138095Y-50102438D02*
X72185714Y-50150057D01*
X72185714Y-50150057D02*
X72233333Y-50245295D01*
X72233333Y-50245295D02*
X72233333Y-50388152D01*
X72233333Y-50388152D02*
X72185714Y-50483390D01*
X72185714Y-50483390D02*
X72138095Y-50531009D01*
X72138095Y-50531009D02*
X72042857Y-50578628D01*
X72042857Y-50578628D02*
X71661905Y-50578628D01*
X73090476Y-50054819D02*
X72900000Y-50054819D01*
X72900000Y-50054819D02*
X72804762Y-50102438D01*
X72804762Y-50102438D02*
X72757143Y-50150057D01*
X72757143Y-50150057D02*
X72661905Y-50292914D01*
X72661905Y-50292914D02*
X72614286Y-50483390D01*
X72614286Y-50483390D02*
X72614286Y-50864342D01*
X72614286Y-50864342D02*
X72661905Y-50959580D01*
X72661905Y-50959580D02*
X72709524Y-51007200D01*
X72709524Y-51007200D02*
X72804762Y-51054819D01*
X72804762Y-51054819D02*
X72995238Y-51054819D01*
X72995238Y-51054819D02*
X73090476Y-51007200D01*
X73090476Y-51007200D02*
X73138095Y-50959580D01*
X73138095Y-50959580D02*
X73185714Y-50864342D01*
X73185714Y-50864342D02*
X73185714Y-50626247D01*
X73185714Y-50626247D02*
X73138095Y-50531009D01*
X73138095Y-50531009D02*
X73090476Y-50483390D01*
X73090476Y-50483390D02*
X72995238Y-50435771D01*
X72995238Y-50435771D02*
X72804762Y-50435771D01*
X72804762Y-50435771D02*
X72709524Y-50483390D01*
X72709524Y-50483390D02*
X72661905Y-50531009D01*
X72661905Y-50531009D02*
X72614286Y-50626247D01*
X59266666Y-37054819D02*
X59266666Y-37769104D01*
X59266666Y-37769104D02*
X59219047Y-37911961D01*
X59219047Y-37911961D02*
X59123809Y-38007200D01*
X59123809Y-38007200D02*
X58980952Y-38054819D01*
X58980952Y-38054819D02*
X58885714Y-38054819D01*
X59647619Y-37054819D02*
X60266666Y-37054819D01*
X60266666Y-37054819D02*
X59933333Y-37435771D01*
X59933333Y-37435771D02*
X60076190Y-37435771D01*
X60076190Y-37435771D02*
X60171428Y-37483390D01*
X60171428Y-37483390D02*
X60219047Y-37531009D01*
X60219047Y-37531009D02*
X60266666Y-37626247D01*
X60266666Y-37626247D02*
X60266666Y-37864342D01*
X60266666Y-37864342D02*
X60219047Y-37959580D01*
X60219047Y-37959580D02*
X60171428Y-38007200D01*
X60171428Y-38007200D02*
X60076190Y-38054819D01*
X60076190Y-38054819D02*
X59790476Y-38054819D01*
X59790476Y-38054819D02*
X59695238Y-38007200D01*
X59695238Y-38007200D02*
X59647619Y-37959580D01*
X45433333Y-42759580D02*
X45385714Y-42807200D01*
X45385714Y-42807200D02*
X45242857Y-42854819D01*
X45242857Y-42854819D02*
X45147619Y-42854819D01*
X45147619Y-42854819D02*
X45004762Y-42807200D01*
X45004762Y-42807200D02*
X44909524Y-42711961D01*
X44909524Y-42711961D02*
X44861905Y-42616723D01*
X44861905Y-42616723D02*
X44814286Y-42426247D01*
X44814286Y-42426247D02*
X44814286Y-42283390D01*
X44814286Y-42283390D02*
X44861905Y-42092914D01*
X44861905Y-42092914D02*
X44909524Y-41997676D01*
X44909524Y-41997676D02*
X45004762Y-41902438D01*
X45004762Y-41902438D02*
X45147619Y-41854819D01*
X45147619Y-41854819D02*
X45242857Y-41854819D01*
X45242857Y-41854819D02*
X45385714Y-41902438D01*
X45385714Y-41902438D02*
X45433333Y-41950057D01*
X46338095Y-41854819D02*
X45861905Y-41854819D01*
X45861905Y-41854819D02*
X45814286Y-42331009D01*
X45814286Y-42331009D02*
X45861905Y-42283390D01*
X45861905Y-42283390D02*
X45957143Y-42235771D01*
X45957143Y-42235771D02*
X46195238Y-42235771D01*
X46195238Y-42235771D02*
X46290476Y-42283390D01*
X46290476Y-42283390D02*
X46338095Y-42331009D01*
X46338095Y-42331009D02*
X46385714Y-42426247D01*
X46385714Y-42426247D02*
X46385714Y-42664342D01*
X46385714Y-42664342D02*
X46338095Y-42759580D01*
X46338095Y-42759580D02*
X46290476Y-42807200D01*
X46290476Y-42807200D02*
X46195238Y-42854819D01*
X46195238Y-42854819D02*
X45957143Y-42854819D01*
X45957143Y-42854819D02*
X45861905Y-42807200D01*
X45861905Y-42807200D02*
X45814286Y-42759580D01*
X35966666Y-60654819D02*
X35966666Y-61369104D01*
X35966666Y-61369104D02*
X35919047Y-61511961D01*
X35919047Y-61511961D02*
X35823809Y-61607200D01*
X35823809Y-61607200D02*
X35680952Y-61654819D01*
X35680952Y-61654819D02*
X35585714Y-61654819D01*
X36871428Y-60988152D02*
X36871428Y-61654819D01*
X36633333Y-60607200D02*
X36395238Y-61321485D01*
X36395238Y-61321485D02*
X37014285Y-61321485D01*
X47233333Y-59159580D02*
X47185714Y-59207200D01*
X47185714Y-59207200D02*
X47042857Y-59254819D01*
X47042857Y-59254819D02*
X46947619Y-59254819D01*
X46947619Y-59254819D02*
X46804762Y-59207200D01*
X46804762Y-59207200D02*
X46709524Y-59111961D01*
X46709524Y-59111961D02*
X46661905Y-59016723D01*
X46661905Y-59016723D02*
X46614286Y-58826247D01*
X46614286Y-58826247D02*
X46614286Y-58683390D01*
X46614286Y-58683390D02*
X46661905Y-58492914D01*
X46661905Y-58492914D02*
X46709524Y-58397676D01*
X46709524Y-58397676D02*
X46804762Y-58302438D01*
X46804762Y-58302438D02*
X46947619Y-58254819D01*
X46947619Y-58254819D02*
X47042857Y-58254819D01*
X47042857Y-58254819D02*
X47185714Y-58302438D01*
X47185714Y-58302438D02*
X47233333Y-58350057D01*
X47566667Y-58254819D02*
X48233333Y-58254819D01*
X48233333Y-58254819D02*
X47804762Y-59254819D01*
X73433333Y-32654819D02*
X72957143Y-32654819D01*
X72957143Y-32654819D02*
X72957143Y-31654819D01*
X74290476Y-32654819D02*
X73719048Y-32654819D01*
X74004762Y-32654819D02*
X74004762Y-31654819D01*
X74004762Y-31654819D02*
X73909524Y-31797676D01*
X73909524Y-31797676D02*
X73814286Y-31892914D01*
X73814286Y-31892914D02*
X73719048Y-31940533D01*
X29390476Y-57754819D02*
X29723809Y-58754819D01*
X29723809Y-58754819D02*
X30057142Y-57754819D01*
X30390476Y-58754819D02*
X30390476Y-57754819D01*
X30390476Y-57754819D02*
X30628571Y-57754819D01*
X30628571Y-57754819D02*
X30771428Y-57802438D01*
X30771428Y-57802438D02*
X30866666Y-57897676D01*
X30866666Y-57897676D02*
X30914285Y-57992914D01*
X30914285Y-57992914D02*
X30961904Y-58183390D01*
X30961904Y-58183390D02*
X30961904Y-58326247D01*
X30961904Y-58326247D02*
X30914285Y-58516723D01*
X30914285Y-58516723D02*
X30866666Y-58611961D01*
X30866666Y-58611961D02*
X30771428Y-58707200D01*
X30771428Y-58707200D02*
X30628571Y-58754819D01*
X30628571Y-58754819D02*
X30390476Y-58754819D01*
X31819047Y-58088152D02*
X31819047Y-58754819D01*
X31580952Y-57707200D02*
X31342857Y-58421485D01*
X31342857Y-58421485D02*
X31961904Y-58421485D01*
X37790476Y-57654819D02*
X38123809Y-58654819D01*
X38123809Y-58654819D02*
X38457142Y-57654819D01*
X38790476Y-58654819D02*
X38790476Y-57654819D01*
X38790476Y-57654819D02*
X39028571Y-57654819D01*
X39028571Y-57654819D02*
X39171428Y-57702438D01*
X39171428Y-57702438D02*
X39266666Y-57797676D01*
X39266666Y-57797676D02*
X39314285Y-57892914D01*
X39314285Y-57892914D02*
X39361904Y-58083390D01*
X39361904Y-58083390D02*
X39361904Y-58226247D01*
X39361904Y-58226247D02*
X39314285Y-58416723D01*
X39314285Y-58416723D02*
X39266666Y-58511961D01*
X39266666Y-58511961D02*
X39171428Y-58607200D01*
X39171428Y-58607200D02*
X39028571Y-58654819D01*
X39028571Y-58654819D02*
X38790476Y-58654819D01*
X39742857Y-57750057D02*
X39790476Y-57702438D01*
X39790476Y-57702438D02*
X39885714Y-57654819D01*
X39885714Y-57654819D02*
X40123809Y-57654819D01*
X40123809Y-57654819D02*
X40219047Y-57702438D01*
X40219047Y-57702438D02*
X40266666Y-57750057D01*
X40266666Y-57750057D02*
X40314285Y-57845295D01*
X40314285Y-57845295D02*
X40314285Y-57940533D01*
X40314285Y-57940533D02*
X40266666Y-58083390D01*
X40266666Y-58083390D02*
X39695238Y-58654819D01*
X39695238Y-58654819D02*
X40314285Y-58654819D01*
X44033333Y-66654819D02*
X43700000Y-66178628D01*
X43461905Y-66654819D02*
X43461905Y-65654819D01*
X43461905Y-65654819D02*
X43842857Y-65654819D01*
X43842857Y-65654819D02*
X43938095Y-65702438D01*
X43938095Y-65702438D02*
X43985714Y-65750057D01*
X43985714Y-65750057D02*
X44033333Y-65845295D01*
X44033333Y-65845295D02*
X44033333Y-65988152D01*
X44033333Y-65988152D02*
X43985714Y-66083390D01*
X43985714Y-66083390D02*
X43938095Y-66131009D01*
X43938095Y-66131009D02*
X43842857Y-66178628D01*
X43842857Y-66178628D02*
X43461905Y-66178628D01*
X44985714Y-66654819D02*
X44414286Y-66654819D01*
X44700000Y-66654819D02*
X44700000Y-65654819D01*
X44700000Y-65654819D02*
X44604762Y-65797676D01*
X44604762Y-65797676D02*
X44509524Y-65892914D01*
X44509524Y-65892914D02*
X44414286Y-65940533D01*
X54433333Y-49854819D02*
X53957143Y-49854819D01*
X53957143Y-49854819D02*
X53957143Y-48854819D01*
X54719048Y-48950057D02*
X54766667Y-48902438D01*
X54766667Y-48902438D02*
X54861905Y-48854819D01*
X54861905Y-48854819D02*
X55100000Y-48854819D01*
X55100000Y-48854819D02*
X55195238Y-48902438D01*
X55195238Y-48902438D02*
X55242857Y-48950057D01*
X55242857Y-48950057D02*
X55290476Y-49045295D01*
X55290476Y-49045295D02*
X55290476Y-49140533D01*
X55290476Y-49140533D02*
X55242857Y-49283390D01*
X55242857Y-49283390D02*
X54671429Y-49854819D01*
X54671429Y-49854819D02*
X55290476Y-49854819D01*
X32190476Y-57854819D02*
X32523809Y-58854819D01*
X32523809Y-58854819D02*
X32857142Y-57854819D01*
X33190476Y-58854819D02*
X33190476Y-57854819D01*
X33190476Y-57854819D02*
X33428571Y-57854819D01*
X33428571Y-57854819D02*
X33571428Y-57902438D01*
X33571428Y-57902438D02*
X33666666Y-57997676D01*
X33666666Y-57997676D02*
X33714285Y-58092914D01*
X33714285Y-58092914D02*
X33761904Y-58283390D01*
X33761904Y-58283390D02*
X33761904Y-58426247D01*
X33761904Y-58426247D02*
X33714285Y-58616723D01*
X33714285Y-58616723D02*
X33666666Y-58711961D01*
X33666666Y-58711961D02*
X33571428Y-58807200D01*
X33571428Y-58807200D02*
X33428571Y-58854819D01*
X33428571Y-58854819D02*
X33190476Y-58854819D01*
X34095238Y-57854819D02*
X34714285Y-57854819D01*
X34714285Y-57854819D02*
X34380952Y-58235771D01*
X34380952Y-58235771D02*
X34523809Y-58235771D01*
X34523809Y-58235771D02*
X34619047Y-58283390D01*
X34619047Y-58283390D02*
X34666666Y-58331009D01*
X34666666Y-58331009D02*
X34714285Y-58426247D01*
X34714285Y-58426247D02*
X34714285Y-58664342D01*
X34714285Y-58664342D02*
X34666666Y-58759580D01*
X34666666Y-58759580D02*
X34619047Y-58807200D01*
X34619047Y-58807200D02*
X34523809Y-58854819D01*
X34523809Y-58854819D02*
X34238095Y-58854819D01*
X34238095Y-58854819D02*
X34142857Y-58807200D01*
X34142857Y-58807200D02*
X34095238Y-58759580D01*
X43033333Y-34654819D02*
X42700000Y-34178628D01*
X42461905Y-34654819D02*
X42461905Y-33654819D01*
X42461905Y-33654819D02*
X42842857Y-33654819D01*
X42842857Y-33654819D02*
X42938095Y-33702438D01*
X42938095Y-33702438D02*
X42985714Y-33750057D01*
X42985714Y-33750057D02*
X43033333Y-33845295D01*
X43033333Y-33845295D02*
X43033333Y-33988152D01*
X43033333Y-33988152D02*
X42985714Y-34083390D01*
X42985714Y-34083390D02*
X42938095Y-34131009D01*
X42938095Y-34131009D02*
X42842857Y-34178628D01*
X42842857Y-34178628D02*
X42461905Y-34178628D01*
X43604762Y-34083390D02*
X43509524Y-34035771D01*
X43509524Y-34035771D02*
X43461905Y-33988152D01*
X43461905Y-33988152D02*
X43414286Y-33892914D01*
X43414286Y-33892914D02*
X43414286Y-33845295D01*
X43414286Y-33845295D02*
X43461905Y-33750057D01*
X43461905Y-33750057D02*
X43509524Y-33702438D01*
X43509524Y-33702438D02*
X43604762Y-33654819D01*
X43604762Y-33654819D02*
X43795238Y-33654819D01*
X43795238Y-33654819D02*
X43890476Y-33702438D01*
X43890476Y-33702438D02*
X43938095Y-33750057D01*
X43938095Y-33750057D02*
X43985714Y-33845295D01*
X43985714Y-33845295D02*
X43985714Y-33892914D01*
X43985714Y-33892914D02*
X43938095Y-33988152D01*
X43938095Y-33988152D02*
X43890476Y-34035771D01*
X43890476Y-34035771D02*
X43795238Y-34083390D01*
X43795238Y-34083390D02*
X43604762Y-34083390D01*
X43604762Y-34083390D02*
X43509524Y-34131009D01*
X43509524Y-34131009D02*
X43461905Y-34178628D01*
X43461905Y-34178628D02*
X43414286Y-34273866D01*
X43414286Y-34273866D02*
X43414286Y-34464342D01*
X43414286Y-34464342D02*
X43461905Y-34559580D01*
X43461905Y-34559580D02*
X43509524Y-34607200D01*
X43509524Y-34607200D02*
X43604762Y-34654819D01*
X43604762Y-34654819D02*
X43795238Y-34654819D01*
X43795238Y-34654819D02*
X43890476Y-34607200D01*
X43890476Y-34607200D02*
X43938095Y-34559580D01*
X43938095Y-34559580D02*
X43985714Y-34464342D01*
X43985714Y-34464342D02*
X43985714Y-34273866D01*
X43985714Y-34273866D02*
X43938095Y-34178628D01*
X43938095Y-34178628D02*
X43890476Y-34131009D01*
X43890476Y-34131009D02*
X43795238Y-34083390D01*
X70033333Y-50759580D02*
X69985714Y-50807200D01*
X69985714Y-50807200D02*
X69842857Y-50854819D01*
X69842857Y-50854819D02*
X69747619Y-50854819D01*
X69747619Y-50854819D02*
X69604762Y-50807200D01*
X69604762Y-50807200D02*
X69509524Y-50711961D01*
X69509524Y-50711961D02*
X69461905Y-50616723D01*
X69461905Y-50616723D02*
X69414286Y-50426247D01*
X69414286Y-50426247D02*
X69414286Y-50283390D01*
X69414286Y-50283390D02*
X69461905Y-50092914D01*
X69461905Y-50092914D02*
X69509524Y-49997676D01*
X69509524Y-49997676D02*
X69604762Y-49902438D01*
X69604762Y-49902438D02*
X69747619Y-49854819D01*
X69747619Y-49854819D02*
X69842857Y-49854819D01*
X69842857Y-49854819D02*
X69985714Y-49902438D01*
X69985714Y-49902438D02*
X70033333Y-49950057D01*
X70509524Y-50854819D02*
X70700000Y-50854819D01*
X70700000Y-50854819D02*
X70795238Y-50807200D01*
X70795238Y-50807200D02*
X70842857Y-50759580D01*
X70842857Y-50759580D02*
X70938095Y-50616723D01*
X70938095Y-50616723D02*
X70985714Y-50426247D01*
X70985714Y-50426247D02*
X70985714Y-50045295D01*
X70985714Y-50045295D02*
X70938095Y-49950057D01*
X70938095Y-49950057D02*
X70890476Y-49902438D01*
X70890476Y-49902438D02*
X70795238Y-49854819D01*
X70795238Y-49854819D02*
X70604762Y-49854819D01*
X70604762Y-49854819D02*
X70509524Y-49902438D01*
X70509524Y-49902438D02*
X70461905Y-49950057D01*
X70461905Y-49950057D02*
X70414286Y-50045295D01*
X70414286Y-50045295D02*
X70414286Y-50283390D01*
X70414286Y-50283390D02*
X70461905Y-50378628D01*
X70461905Y-50378628D02*
X70509524Y-50426247D01*
X70509524Y-50426247D02*
X70604762Y-50473866D01*
X70604762Y-50473866D02*
X70795238Y-50473866D01*
X70795238Y-50473866D02*
X70890476Y-50426247D01*
X70890476Y-50426247D02*
X70938095Y-50378628D01*
X70938095Y-50378628D02*
X70985714Y-50283390D01*
X46638095Y-51054819D02*
X46638095Y-51864342D01*
X46638095Y-51864342D02*
X46685714Y-51959580D01*
X46685714Y-51959580D02*
X46733333Y-52007200D01*
X46733333Y-52007200D02*
X46828571Y-52054819D01*
X46828571Y-52054819D02*
X47019047Y-52054819D01*
X47019047Y-52054819D02*
X47114285Y-52007200D01*
X47114285Y-52007200D02*
X47161904Y-51959580D01*
X47161904Y-51959580D02*
X47209523Y-51864342D01*
X47209523Y-51864342D02*
X47209523Y-51054819D01*
X48209523Y-52054819D02*
X47638095Y-52054819D01*
X47923809Y-52054819D02*
X47923809Y-51054819D01*
X47923809Y-51054819D02*
X47828571Y-51197676D01*
X47828571Y-51197676D02*
X47733333Y-51292914D01*
X47733333Y-51292914D02*
X47638095Y-51340533D01*
X43069642Y-33054819D02*
X42736309Y-32578628D01*
X42498214Y-33054819D02*
X42498214Y-32054819D01*
X42498214Y-32054819D02*
X42879166Y-32054819D01*
X42879166Y-32054819D02*
X42974404Y-32102438D01*
X42974404Y-32102438D02*
X43022023Y-32150057D01*
X43022023Y-32150057D02*
X43069642Y-32245295D01*
X43069642Y-32245295D02*
X43069642Y-32388152D01*
X43069642Y-32388152D02*
X43022023Y-32483390D01*
X43022023Y-32483390D02*
X42974404Y-32531009D01*
X42974404Y-32531009D02*
X42879166Y-32578628D01*
X42879166Y-32578628D02*
X42498214Y-32578628D01*
X44022023Y-33054819D02*
X43450595Y-33054819D01*
X43736309Y-33054819D02*
X43736309Y-32054819D01*
X43736309Y-32054819D02*
X43641071Y-32197676D01*
X43641071Y-32197676D02*
X43545833Y-32292914D01*
X43545833Y-32292914D02*
X43450595Y-32340533D01*
X44974404Y-33054819D02*
X44402976Y-33054819D01*
X44688690Y-33054819D02*
X44688690Y-32054819D01*
X44688690Y-32054819D02*
X44593452Y-32197676D01*
X44593452Y-32197676D02*
X44498214Y-32292914D01*
X44498214Y-32292914D02*
X44402976Y-32340533D01*
X60367319Y-52366666D02*
X59891128Y-52699999D01*
X60367319Y-52938094D02*
X59367319Y-52938094D01*
X59367319Y-52938094D02*
X59367319Y-52557142D01*
X59367319Y-52557142D02*
X59414938Y-52461904D01*
X59414938Y-52461904D02*
X59462557Y-52414285D01*
X59462557Y-52414285D02*
X59557795Y-52366666D01*
X59557795Y-52366666D02*
X59700652Y-52366666D01*
X59700652Y-52366666D02*
X59795890Y-52414285D01*
X59795890Y-52414285D02*
X59843509Y-52461904D01*
X59843509Y-52461904D02*
X59891128Y-52557142D01*
X59891128Y-52557142D02*
X59891128Y-52938094D01*
X59700652Y-51509523D02*
X60367319Y-51509523D01*
X59319700Y-51747618D02*
X60033985Y-51985713D01*
X60033985Y-51985713D02*
X60033985Y-51366666D01*
X42666666Y-58654819D02*
X42666666Y-59369104D01*
X42666666Y-59369104D02*
X42619047Y-59511961D01*
X42619047Y-59511961D02*
X42523809Y-59607200D01*
X42523809Y-59607200D02*
X42380952Y-59654819D01*
X42380952Y-59654819D02*
X42285714Y-59654819D01*
X43619047Y-58654819D02*
X43142857Y-58654819D01*
X43142857Y-58654819D02*
X43095238Y-59131009D01*
X43095238Y-59131009D02*
X43142857Y-59083390D01*
X43142857Y-59083390D02*
X43238095Y-59035771D01*
X43238095Y-59035771D02*
X43476190Y-59035771D01*
X43476190Y-59035771D02*
X43571428Y-59083390D01*
X43571428Y-59083390D02*
X43619047Y-59131009D01*
X43619047Y-59131009D02*
X43666666Y-59226247D01*
X43666666Y-59226247D02*
X43666666Y-59464342D01*
X43666666Y-59464342D02*
X43619047Y-59559580D01*
X43619047Y-59559580D02*
X43571428Y-59607200D01*
X43571428Y-59607200D02*
X43476190Y-59654819D01*
X43476190Y-59654819D02*
X43238095Y-59654819D01*
X43238095Y-59654819D02*
X43142857Y-59607200D01*
X43142857Y-59607200D02*
X43095238Y-59559580D01*
X37833333Y-30854819D02*
X37500000Y-30378628D01*
X37261905Y-30854819D02*
X37261905Y-29854819D01*
X37261905Y-29854819D02*
X37642857Y-29854819D01*
X37642857Y-29854819D02*
X37738095Y-29902438D01*
X37738095Y-29902438D02*
X37785714Y-29950057D01*
X37785714Y-29950057D02*
X37833333Y-30045295D01*
X37833333Y-30045295D02*
X37833333Y-30188152D01*
X37833333Y-30188152D02*
X37785714Y-30283390D01*
X37785714Y-30283390D02*
X37738095Y-30331009D01*
X37738095Y-30331009D02*
X37642857Y-30378628D01*
X37642857Y-30378628D02*
X37261905Y-30378628D01*
X38309524Y-30854819D02*
X38500000Y-30854819D01*
X38500000Y-30854819D02*
X38595238Y-30807200D01*
X38595238Y-30807200D02*
X38642857Y-30759580D01*
X38642857Y-30759580D02*
X38738095Y-30616723D01*
X38738095Y-30616723D02*
X38785714Y-30426247D01*
X38785714Y-30426247D02*
X38785714Y-30045295D01*
X38785714Y-30045295D02*
X38738095Y-29950057D01*
X38738095Y-29950057D02*
X38690476Y-29902438D01*
X38690476Y-29902438D02*
X38595238Y-29854819D01*
X38595238Y-29854819D02*
X38404762Y-29854819D01*
X38404762Y-29854819D02*
X38309524Y-29902438D01*
X38309524Y-29902438D02*
X38261905Y-29950057D01*
X38261905Y-29950057D02*
X38214286Y-30045295D01*
X38214286Y-30045295D02*
X38214286Y-30283390D01*
X38214286Y-30283390D02*
X38261905Y-30378628D01*
X38261905Y-30378628D02*
X38309524Y-30426247D01*
X38309524Y-30426247D02*
X38404762Y-30473866D01*
X38404762Y-30473866D02*
X38595238Y-30473866D01*
X38595238Y-30473866D02*
X38690476Y-30426247D01*
X38690476Y-30426247D02*
X38738095Y-30378628D01*
X38738095Y-30378628D02*
X38785714Y-30283390D01*
X43233333Y-36454819D02*
X42900000Y-35978628D01*
X42661905Y-36454819D02*
X42661905Y-35454819D01*
X42661905Y-35454819D02*
X43042857Y-35454819D01*
X43042857Y-35454819D02*
X43138095Y-35502438D01*
X43138095Y-35502438D02*
X43185714Y-35550057D01*
X43185714Y-35550057D02*
X43233333Y-35645295D01*
X43233333Y-35645295D02*
X43233333Y-35788152D01*
X43233333Y-35788152D02*
X43185714Y-35883390D01*
X43185714Y-35883390D02*
X43138095Y-35931009D01*
X43138095Y-35931009D02*
X43042857Y-35978628D01*
X43042857Y-35978628D02*
X42661905Y-35978628D01*
X43566667Y-35454819D02*
X44233333Y-35454819D01*
X44233333Y-35454819D02*
X43804762Y-36454819D01*
X37233333Y-46159580D02*
X37185714Y-46207200D01*
X37185714Y-46207200D02*
X37042857Y-46254819D01*
X37042857Y-46254819D02*
X36947619Y-46254819D01*
X36947619Y-46254819D02*
X36804762Y-46207200D01*
X36804762Y-46207200D02*
X36709524Y-46111961D01*
X36709524Y-46111961D02*
X36661905Y-46016723D01*
X36661905Y-46016723D02*
X36614286Y-45826247D01*
X36614286Y-45826247D02*
X36614286Y-45683390D01*
X36614286Y-45683390D02*
X36661905Y-45492914D01*
X36661905Y-45492914D02*
X36709524Y-45397676D01*
X36709524Y-45397676D02*
X36804762Y-45302438D01*
X36804762Y-45302438D02*
X36947619Y-45254819D01*
X36947619Y-45254819D02*
X37042857Y-45254819D01*
X37042857Y-45254819D02*
X37185714Y-45302438D01*
X37185714Y-45302438D02*
X37233333Y-45350057D01*
X38185714Y-46254819D02*
X37614286Y-46254819D01*
X37900000Y-46254819D02*
X37900000Y-45254819D01*
X37900000Y-45254819D02*
X37804762Y-45397676D01*
X37804762Y-45397676D02*
X37709524Y-45492914D01*
X37709524Y-45492914D02*
X37614286Y-45540533D01*
X34066666Y-24054819D02*
X34066666Y-24769104D01*
X34066666Y-24769104D02*
X34019047Y-24911961D01*
X34019047Y-24911961D02*
X33923809Y-25007200D01*
X33923809Y-25007200D02*
X33780952Y-25054819D01*
X33780952Y-25054819D02*
X33685714Y-25054819D01*
X35066666Y-25054819D02*
X34495238Y-25054819D01*
X34780952Y-25054819D02*
X34780952Y-24054819D01*
X34780952Y-24054819D02*
X34685714Y-24197676D01*
X34685714Y-24197676D02*
X34590476Y-24292914D01*
X34590476Y-24292914D02*
X34495238Y-24340533D01*
X71461905Y-52854819D02*
X71461905Y-51854819D01*
X71461905Y-51854819D02*
X71700000Y-51854819D01*
X71700000Y-51854819D02*
X71842857Y-51902438D01*
X71842857Y-51902438D02*
X71938095Y-51997676D01*
X71938095Y-51997676D02*
X71985714Y-52092914D01*
X71985714Y-52092914D02*
X72033333Y-52283390D01*
X72033333Y-52283390D02*
X72033333Y-52426247D01*
X72033333Y-52426247D02*
X71985714Y-52616723D01*
X71985714Y-52616723D02*
X71938095Y-52711961D01*
X71938095Y-52711961D02*
X71842857Y-52807200D01*
X71842857Y-52807200D02*
X71700000Y-52854819D01*
X71700000Y-52854819D02*
X71461905Y-52854819D01*
X72985714Y-52854819D02*
X72414286Y-52854819D01*
X72700000Y-52854819D02*
X72700000Y-51854819D01*
X72700000Y-51854819D02*
X72604762Y-51997676D01*
X72604762Y-51997676D02*
X72509524Y-52092914D01*
X72509524Y-52092914D02*
X72414286Y-52140533D01*
X55466666Y-65654819D02*
X55466666Y-66369104D01*
X55466666Y-66369104D02*
X55419047Y-66511961D01*
X55419047Y-66511961D02*
X55323809Y-66607200D01*
X55323809Y-66607200D02*
X55180952Y-66654819D01*
X55180952Y-66654819D02*
X55085714Y-66654819D01*
X55895238Y-65750057D02*
X55942857Y-65702438D01*
X55942857Y-65702438D02*
X56038095Y-65654819D01*
X56038095Y-65654819D02*
X56276190Y-65654819D01*
X56276190Y-65654819D02*
X56371428Y-65702438D01*
X56371428Y-65702438D02*
X56419047Y-65750057D01*
X56419047Y-65750057D02*
X56466666Y-65845295D01*
X56466666Y-65845295D02*
X56466666Y-65940533D01*
X56466666Y-65940533D02*
X56419047Y-66083390D01*
X56419047Y-66083390D02*
X55847619Y-66654819D01*
X55847619Y-66654819D02*
X56466666Y-66654819D01*
X31066666Y-16454819D02*
X30733333Y-15978628D01*
X30495238Y-16454819D02*
X30495238Y-15454819D01*
X30495238Y-15454819D02*
X30876190Y-15454819D01*
X30876190Y-15454819D02*
X30971428Y-15502438D01*
X30971428Y-15502438D02*
X31019047Y-15550057D01*
X31019047Y-15550057D02*
X31066666Y-15645295D01*
X31066666Y-15645295D02*
X31066666Y-15788152D01*
X31066666Y-15788152D02*
X31019047Y-15883390D01*
X31019047Y-15883390D02*
X30971428Y-15931009D01*
X30971428Y-15931009D02*
X30876190Y-15978628D01*
X30876190Y-15978628D02*
X30495238Y-15978628D01*
X31495238Y-15931009D02*
X31828571Y-15931009D01*
X31971428Y-16454819D02*
X31495238Y-16454819D01*
X31495238Y-16454819D02*
X31495238Y-15454819D01*
X31495238Y-15454819D02*
X31971428Y-15454819D01*
X32733333Y-15931009D02*
X32400000Y-15931009D01*
X32400000Y-16454819D02*
X32400000Y-15454819D01*
X32400000Y-15454819D02*
X32876190Y-15454819D01*
X33400000Y-15454819D02*
X33400000Y-15692914D01*
X33161905Y-15597676D02*
X33400000Y-15692914D01*
X33400000Y-15692914D02*
X33638095Y-15597676D01*
X33257143Y-15883390D02*
X33400000Y-15692914D01*
X33400000Y-15692914D02*
X33542857Y-15883390D01*
X34161905Y-15454819D02*
X34161905Y-15692914D01*
X33923810Y-15597676D02*
X34161905Y-15692914D01*
X34161905Y-15692914D02*
X34400000Y-15597676D01*
X34019048Y-15883390D02*
X34161905Y-15692914D01*
X34161905Y-15692914D02*
X34304762Y-15883390D01*
D11*
%TO.C,C4*%
X50451248Y-43290000D02*
X51873752Y-43290000D01*
X50451248Y-45110000D02*
X51873752Y-45110000D01*
%TO.C,R10*%
X40257776Y-30477500D02*
X40767224Y-30477500D01*
X40257776Y-31522500D02*
X40767224Y-31522500D01*
%TO.C,C6*%
X51888748Y-59690000D02*
X53311252Y-59690000D01*
X51888748Y-61510000D02*
X53311252Y-61510000D01*
%TO.C,VD1*%
X35240000Y-57485000D02*
X37160000Y-57485000D01*
X37160000Y-57485000D02*
X37160000Y-54625000D01*
X35240000Y-54625000D02*
X35240000Y-57485000D01*
%TO.C,R5*%
X61727064Y-46510000D02*
X60272936Y-46510000D01*
X61727064Y-44690000D02*
X60272936Y-44690000D01*
%TO.C,C12*%
X38890000Y-49948752D02*
X38890000Y-48526248D01*
X40710000Y-49948752D02*
X40710000Y-48526248D01*
%TO.C,C8*%
X43051248Y-49690000D02*
X44473752Y-49690000D01*
X43051248Y-51510000D02*
X44473752Y-51510000D01*
%TO.C,J6*%
X52230000Y-41605000D02*
X50900000Y-41605000D01*
X52230000Y-40275000D02*
X52230000Y-41605000D01*
X52230000Y-39005000D02*
X52230000Y-36405000D01*
X52230000Y-39005000D02*
X49570000Y-39005000D01*
X52230000Y-36405000D02*
X49570000Y-36405000D01*
X49570000Y-39005000D02*
X49570000Y-36405000D01*
%TO.C,C2*%
X46073752Y-47910000D02*
X44651248Y-47910000D01*
X46073752Y-46090000D02*
X44651248Y-46090000D01*
%TO.C,R2*%
X46767224Y-64122500D02*
X46257776Y-64122500D01*
X46767224Y-63077500D02*
X46257776Y-63077500D01*
%TO.C,U2*%
X65525000Y-52160000D02*
X68975000Y-52160000D01*
X65525000Y-52160000D02*
X63575000Y-52160000D01*
X65525000Y-47040000D02*
X67475000Y-47040000D01*
X65525000Y-47040000D02*
X63575000Y-47040000D01*
%TO.C,C10*%
X56090000Y-45911252D02*
X56090000Y-44488748D01*
X57910000Y-45911252D02*
X57910000Y-44488748D01*
%TO.C,R3*%
X50522500Y-56257776D02*
X50522500Y-56767224D01*
X49477500Y-56257776D02*
X49477500Y-56767224D01*
%TO.C,C11*%
X61690000Y-35111252D02*
X61690000Y-33688748D01*
X63510000Y-35111252D02*
X63510000Y-33688748D01*
%TO.C,C3*%
X50288748Y-46290000D02*
X51711252Y-46290000D01*
X50288748Y-48110000D02*
X51711252Y-48110000D01*
%TO.C,R6*%
X71277500Y-48454724D02*
X71277500Y-47945276D01*
X72322500Y-48454724D02*
X72322500Y-47945276D01*
%TO.C,J3*%
X61070000Y-37530000D02*
X62400000Y-37530000D01*
X61070000Y-38860000D02*
X61070000Y-37530000D01*
X61070000Y-40130000D02*
X61070000Y-42730000D01*
X61070000Y-40130000D02*
X63730000Y-40130000D01*
X61070000Y-42730000D02*
X63730000Y-42730000D01*
X63730000Y-40130000D02*
X63730000Y-42730000D01*
%TO.C,C5*%
X46073752Y-45110000D02*
X44651248Y-45110000D01*
X46073752Y-43290000D02*
X44651248Y-43290000D01*
%TO.C,J4*%
X39930000Y-65330000D02*
X38600000Y-65330000D01*
X39930000Y-64000000D02*
X39930000Y-65330000D01*
X39930000Y-62730000D02*
X39930000Y-60130000D01*
X39930000Y-62730000D02*
X37270000Y-62730000D01*
X39930000Y-60130000D02*
X37270000Y-60130000D01*
X37270000Y-62730000D02*
X37270000Y-60130000D01*
%TO.C,C7*%
X48073752Y-61510000D02*
X46651248Y-61510000D01*
X48073752Y-59690000D02*
X46651248Y-59690000D01*
%TO.C,L1*%
X77700000Y-46100000D02*
X65100000Y-46100000D01*
X77700000Y-43100000D02*
X77700000Y-46100000D01*
X77700000Y-33500000D02*
X77700000Y-36500000D01*
X65100000Y-46100000D02*
X65100000Y-43100000D01*
X65100000Y-36500000D02*
X65100000Y-33500000D01*
X65100000Y-33500000D02*
X77700000Y-33500000D01*
%TO.C,VD4*%
X32560000Y-53765000D02*
X30640000Y-53765000D01*
X30640000Y-53765000D02*
X30640000Y-56625000D01*
X32560000Y-56625000D02*
X32560000Y-53765000D01*
%TO.C,VD2*%
X39360000Y-53740000D02*
X37440000Y-53740000D01*
X37440000Y-53740000D02*
X37440000Y-56600000D01*
X39360000Y-56600000D02*
X39360000Y-53740000D01*
%TO.C,R1*%
X46767224Y-65722500D02*
X46257776Y-65722500D01*
X46767224Y-64677500D02*
X46257776Y-64677500D01*
%TO.C,L2*%
X57675000Y-51404000D02*
X57675000Y-57954000D01*
X56414500Y-51404000D02*
X57675000Y-51404000D01*
X52385500Y-51404000D02*
X51125000Y-51404000D01*
X51125000Y-51404000D02*
X51125000Y-57954000D01*
X57675000Y-57954000D02*
X56414500Y-57954000D01*
X51125000Y-57954000D02*
X52385500Y-57954000D01*
%TO.C,VD3*%
X32840000Y-57485000D02*
X34760000Y-57485000D01*
X34760000Y-57485000D02*
X34760000Y-54625000D01*
X32840000Y-54625000D02*
X32840000Y-57485000D01*
%TO.C,R8*%
X40854724Y-34722500D02*
X40345276Y-34722500D01*
X40854724Y-33677500D02*
X40345276Y-33677500D01*
%TO.C,C9*%
X69690000Y-48208767D02*
X69690000Y-47916233D01*
X70710000Y-48208767D02*
X70710000Y-47916233D01*
%TO.C,U1*%
X44355000Y-52340000D02*
X40905000Y-52340000D01*
X44355000Y-52340000D02*
X46305000Y-52340000D01*
X44355000Y-57460000D02*
X42405000Y-57460000D01*
X44355000Y-57460000D02*
X46305000Y-57460000D01*
%TO.C,R11*%
X40767224Y-33122500D02*
X40257776Y-33122500D01*
X40767224Y-32077500D02*
X40257776Y-32077500D01*
%TO.C,R4*%
X60167224Y-50922500D02*
X59657776Y-50922500D01*
X60167224Y-49877500D02*
X59657776Y-49877500D01*
%TO.C,J5*%
X43730000Y-65205000D02*
X42400000Y-65205000D01*
X43730000Y-63875000D02*
X43730000Y-65205000D01*
X43730000Y-62605000D02*
X43730000Y-60005000D01*
X43730000Y-62605000D02*
X41070000Y-62605000D01*
X43730000Y-60005000D02*
X41070000Y-60005000D01*
X41070000Y-62605000D02*
X41070000Y-60005000D01*
%TO.C,R9*%
X38522500Y-32545276D02*
X38522500Y-33054724D01*
X37477500Y-32545276D02*
X37477500Y-33054724D01*
%TO.C,R7*%
X40432776Y-35277500D02*
X40942224Y-35277500D01*
X40432776Y-36322500D02*
X40942224Y-36322500D01*
%TO.C,C1*%
X36490000Y-49948752D02*
X36490000Y-48526248D01*
X38310000Y-49948752D02*
X38310000Y-48526248D01*
%TO.C,J1*%
X21780000Y-25490000D02*
X21260000Y-25490000D01*
X21260000Y-25490000D02*
X21260000Y-40110000D01*
X36740000Y-26140000D02*
X33410000Y-26140000D01*
X36740000Y-26140000D02*
X36740000Y-39460000D01*
X21780000Y-26140000D02*
X21780000Y-25490000D01*
X21780000Y-26140000D02*
X29890000Y-26140000D01*
X36960000Y-28400000D02*
X36960000Y-30200000D01*
X36740000Y-39460000D02*
X33410000Y-39460000D01*
X29890000Y-39460000D02*
X21780000Y-39460000D01*
X21780000Y-40110000D02*
X21780000Y-39460000D01*
X21260000Y-40110000D02*
X21780000Y-40110000D01*
%TO.C,D1*%
X71250000Y-51190000D02*
X69550000Y-51190000D01*
X71250000Y-51190000D02*
X71250000Y-54450000D01*
X69550000Y-51190000D02*
X69550000Y-54450000D01*
%TO.C,J2*%
X49470000Y-65330000D02*
X49470000Y-64000000D01*
X50800000Y-65330000D02*
X49470000Y-65330000D01*
X52070000Y-65330000D02*
X54670000Y-65330000D01*
X52070000Y-65330000D02*
X52070000Y-62670000D01*
X54670000Y-65330000D02*
X54670000Y-62670000D01*
X52070000Y-62670000D02*
X54670000Y-62670000D01*
%TD*%
M02*
