%TF.GenerationSoftware,KiCad,Pcbnew,7.0.9*%
%TF.CreationDate,2024-02-05T14:31:58+03:00*%
%TF.ProjectId,PowerBank,506f7765-7242-4616-9e6b-2e6b69636164,rev?*%
%TF.SameCoordinates,Original*%
%TF.FileFunction,Soldermask,Top*%
%TF.FilePolarity,Negative*%
%FSLAX46Y46*%
G04 Gerber Fmt 4.6, Leading zero omitted, Abs format (unit mm)*
G04 Created by KiCad (PCBNEW 7.0.9) date 2024-02-05 14:31:58*
%MOMM*%
%LPD*%
G01*
G04 APERTURE LIST*
G04 Aperture macros list*
%AMRoundRect*
0 Rectangle with rounded corners*
0 $1 Rounding radius*
0 $2 $3 $4 $5 $6 $7 $8 $9 X,Y pos of 4 corners*
0 Add a 4 corners polygon primitive as box body*
4,1,4,$2,$3,$4,$5,$6,$7,$8,$9,$2,$3,0*
0 Add four circle primitives for the rounded corners*
1,1,$1+$1,$2,$3*
1,1,$1+$1,$4,$5*
1,1,$1+$1,$6,$7*
1,1,$1+$1,$8,$9*
0 Add four rect primitives between the rounded corners*
20,1,$1+$1,$2,$3,$4,$5,0*
20,1,$1+$1,$4,$5,$6,$7,0*
20,1,$1+$1,$6,$7,$8,$9,0*
20,1,$1+$1,$8,$9,$2,$3,0*%
G04 Aperture macros list end*
%ADD10C,3.200000*%
%ADD11RoundRect,0.250000X0.400000X0.625000X-0.400000X0.625000X-0.400000X-0.625000X0.400000X-0.625000X0*%
%ADD12R,1.700000X1.700000*%
%ADD13O,1.700000X1.700000*%
%ADD14RoundRect,0.250000X-0.412500X-0.650000X0.412500X-0.650000X0.412500X0.650000X-0.412500X0.650000X0*%
%ADD15RoundRect,0.237500X-0.250000X-0.237500X0.250000X-0.237500X0.250000X0.237500X-0.250000X0.237500X0*%
%ADD16R,1.600000X0.180000*%
%ADD17R,2.000000X0.300000*%
%ADD18RoundRect,0.150000X-0.150000X0.825000X-0.150000X-0.825000X0.150000X-0.825000X0.150000X0.825000X0*%
%ADD19RoundRect,0.250000X0.450000X-0.325000X0.450000X0.325000X-0.450000X0.325000X-0.450000X-0.325000X0*%
%ADD20RoundRect,0.250000X0.250000X-0.250000X0.250000X0.250000X-0.250000X0.250000X-0.250000X-0.250000X0*%
%ADD21RoundRect,0.250000X-0.650000X0.412500X-0.650000X-0.412500X0.650000X-0.412500X0.650000X0.412500X0*%
%ADD22RoundRect,0.250000X0.650000X-0.412500X0.650000X0.412500X-0.650000X0.412500X-0.650000X-0.412500X0*%
%ADD23RoundRect,0.250000X0.412500X0.650000X-0.412500X0.650000X-0.412500X-0.650000X0.412500X-0.650000X0*%
%ADD24RoundRect,0.237500X0.250000X0.237500X-0.250000X0.237500X-0.250000X-0.237500X0.250000X-0.237500X0*%
%ADD25RoundRect,0.150000X0.825000X0.150000X-0.825000X0.150000X-0.825000X-0.150000X0.825000X-0.150000X0*%
%ADD26RoundRect,0.237500X-0.237500X0.250000X-0.237500X-0.250000X0.237500X-0.250000X0.237500X0.250000X0*%
%ADD27RoundRect,0.237500X0.237500X-0.250000X0.237500X0.250000X-0.237500X0.250000X-0.237500X-0.250000X0*%
%ADD28R,2.900000X5.400000*%
%ADD29RoundRect,0.250000X-0.450000X0.325000X-0.450000X-0.325000X0.450000X-0.325000X0.450000X0.325000X0*%
%ADD30RoundRect,0.237500X0.300000X0.237500X-0.300000X0.237500X-0.300000X-0.237500X0.300000X-0.237500X0*%
%ADD31R,5.400000X2.900000*%
%ADD32R,3.429000X2.413000*%
%ADD33RoundRect,0.237500X0.237500X-0.300000X0.237500X0.300000X-0.237500X0.300000X-0.237500X-0.300000X0*%
%ADD34R,2.410000X3.100000*%
%ADD35RoundRect,0.150000X-0.650000X-0.150000X0.650000X-0.150000X0.650000X0.150000X-0.650000X0.150000X0*%
%ADD36RoundRect,0.250000X-0.250000X-0.250000X0.250000X-0.250000X0.250000X0.250000X-0.250000X0.250000X0*%
%ADD37R,1.500000X1.600000*%
%ADD38C,1.600000*%
%ADD39C,3.000000*%
%ADD40RoundRect,0.250000X-0.250000X0.250000X-0.250000X-0.250000X0.250000X-0.250000X0.250000X0.250000X0*%
G04 APERTURE END LIST*
D10*
%TO.C,REF\u002A\u002A*%
X32400000Y-63400000D03*
%TD*%
%TO.C,REF\u002A\u002A*%
X32400000Y-20200000D03*
%TD*%
%TO.C,REF\u002A\u002A*%
X75600000Y-63400000D03*
%TD*%
%TO.C,REF\u002A\u002A*%
X75600000Y-20200000D03*
%TD*%
D11*
%TO.C,R12*%
X65500000Y-41300000D03*
X62400000Y-41300000D03*
%TD*%
D12*
%TO.C,J9*%
X59000000Y-48300000D03*
D13*
X56460000Y-48300000D03*
%TD*%
D14*
%TO.C,C4*%
X49600000Y-44200000D03*
X52725000Y-44200000D03*
%TD*%
D15*
%TO.C,R10*%
X39600000Y-31000000D03*
X41425000Y-31000000D03*
%TD*%
D12*
%TO.C,J7*%
X55800000Y-31460000D03*
D13*
X55800000Y-34000000D03*
%TD*%
D16*
%TO.C,X1*%
X30200000Y-44900000D03*
X30200000Y-45400000D03*
X30200000Y-45900000D03*
X30200000Y-46400000D03*
X30200000Y-46900000D03*
X30200000Y-47400000D03*
X30200000Y-47900000D03*
X30200000Y-48400000D03*
X30200000Y-48900000D03*
X30200000Y-49400000D03*
X30200000Y-49900000D03*
X30200000Y-50400000D03*
D17*
X30400000Y-51900000D03*
X30400000Y-43400000D03*
%TD*%
D18*
%TO.C,U3*%
X62805000Y-32325000D03*
X61535000Y-32325000D03*
X60265000Y-32325000D03*
X58995000Y-32325000D03*
X58995000Y-37275000D03*
X60265000Y-37275000D03*
X61535000Y-37275000D03*
X62805000Y-37275000D03*
%TD*%
D11*
%TO.C,R13*%
X57300000Y-37200000D03*
X54200000Y-37200000D03*
%TD*%
D14*
%TO.C,C6*%
X51037500Y-60600000D03*
X54162500Y-60600000D03*
%TD*%
D19*
%TO.C,VD1*%
X36200000Y-56650000D03*
X36200000Y-54600000D03*
%TD*%
D20*
%TO.C,D2*%
X55800000Y-28450000D03*
X55800000Y-25950000D03*
%TD*%
D11*
%TO.C,R5*%
X62850000Y-54900000D03*
X59750000Y-54900000D03*
%TD*%
D21*
%TO.C,C13*%
X60200000Y-39737500D03*
X60200000Y-42862500D03*
%TD*%
D22*
%TO.C,C12*%
X39800000Y-50800000D03*
X39800000Y-47675000D03*
%TD*%
D14*
%TO.C,C8*%
X42200000Y-50600000D03*
X45325000Y-50600000D03*
%TD*%
D12*
%TO.C,J6*%
X50900000Y-40275000D03*
D13*
X50900000Y-37735000D03*
%TD*%
D23*
%TO.C,C2*%
X46925000Y-47000000D03*
X43800000Y-47000000D03*
%TD*%
D24*
%TO.C,R2*%
X47425000Y-63600000D03*
X45600000Y-63600000D03*
%TD*%
D25*
%TO.C,U2*%
X68300000Y-61840000D03*
X68300000Y-60570000D03*
X68300000Y-59300000D03*
X68300000Y-58030000D03*
X63350000Y-58030000D03*
X63350000Y-59300000D03*
X63350000Y-60570000D03*
X63350000Y-61840000D03*
%TD*%
D12*
%TO.C,J8*%
X57140000Y-40600000D03*
D13*
X54600000Y-40600000D03*
%TD*%
D23*
%TO.C,C10*%
X61000000Y-60400000D03*
X57875000Y-60400000D03*
%TD*%
D26*
%TO.C,R3*%
X50000000Y-55600000D03*
X50000000Y-57425000D03*
%TD*%
D23*
%TO.C,C11*%
X63262500Y-45200000D03*
X60137500Y-45200000D03*
%TD*%
D14*
%TO.C,C3*%
X49437500Y-47200000D03*
X52562500Y-47200000D03*
%TD*%
D27*
%TO.C,R6*%
X72100000Y-59447500D03*
X72100000Y-57622500D03*
%TD*%
D12*
%TO.C,J3*%
X62700000Y-49195000D03*
D13*
X62700000Y-51735000D03*
%TD*%
D23*
%TO.C,C5*%
X46925000Y-44200000D03*
X43800000Y-44200000D03*
%TD*%
D12*
%TO.C,J4*%
X38600000Y-64000000D03*
D13*
X38600000Y-61460000D03*
%TD*%
D23*
%TO.C,C7*%
X48925000Y-60600000D03*
X45800000Y-60600000D03*
%TD*%
D28*
%TO.C,L1*%
X76650000Y-50135000D03*
X66750000Y-50135000D03*
%TD*%
D29*
%TO.C,VD4*%
X31600000Y-54600000D03*
X31600000Y-56650000D03*
%TD*%
%TO.C,VD2*%
X38400000Y-54575000D03*
X38400000Y-56625000D03*
%TD*%
D30*
%TO.C,C14*%
X60225000Y-30100000D03*
X58500000Y-30100000D03*
%TD*%
D31*
%TO.C,L3*%
X70900000Y-37300000D03*
X70900000Y-27400000D03*
%TD*%
D24*
%TO.C,R1*%
X47425000Y-65200000D03*
X45600000Y-65200000D03*
%TD*%
D32*
%TO.C,L2*%
X54400000Y-51758000D03*
X54400000Y-57600000D03*
%TD*%
D19*
%TO.C,VD3*%
X33800000Y-56650000D03*
X33800000Y-54600000D03*
%TD*%
D24*
%TO.C,R8*%
X41512500Y-34200000D03*
X39687500Y-34200000D03*
%TD*%
D33*
%TO.C,C9*%
X70500000Y-59260000D03*
X70500000Y-57535000D03*
%TD*%
D34*
%TO.C,U1*%
X44355000Y-54900000D03*
D35*
X47005000Y-52995000D03*
X47005000Y-54265000D03*
X47005000Y-55535000D03*
X47005000Y-56805000D03*
X41705000Y-56805000D03*
X41705000Y-55535000D03*
X41705000Y-54265000D03*
X41705000Y-52995000D03*
%TD*%
D24*
%TO.C,R11*%
X41425000Y-32600000D03*
X39600000Y-32600000D03*
%TD*%
D36*
%TO.C,D3*%
X60650000Y-28400000D03*
X63150000Y-28400000D03*
%TD*%
D22*
%TO.C,C15*%
X58500000Y-28262500D03*
X58500000Y-25137500D03*
%TD*%
D24*
%TO.C,R4*%
X62900000Y-63600000D03*
X61075000Y-63600000D03*
%TD*%
D12*
%TO.C,J5*%
X42400000Y-63875000D03*
D13*
X42400000Y-61335000D03*
%TD*%
D26*
%TO.C,R9*%
X38000000Y-31887500D03*
X38000000Y-33712500D03*
%TD*%
D15*
%TO.C,R7*%
X39775000Y-35800000D03*
X41600000Y-35800000D03*
%TD*%
D22*
%TO.C,C1*%
X37400000Y-50800000D03*
X37400000Y-47675000D03*
%TD*%
D37*
%TO.C,J1*%
X34360000Y-29300000D03*
D38*
X34360000Y-31800000D03*
X34360000Y-33800000D03*
X34360000Y-36300000D03*
D39*
X31650000Y-26230000D03*
X31650000Y-39370000D03*
%TD*%
D40*
%TO.C,D1*%
X70700000Y-62285000D03*
X70700000Y-64785000D03*
%TD*%
D12*
%TO.C,J2*%
X50800000Y-64000000D03*
D13*
X53340000Y-64000000D03*
%TD*%
M02*
