M48
; DRILL file {KiCad 7.0.9} date Wed Jan 24 01:25:44 2024
; FORMAT={-:-/ absolute / metric / decimal}
; #@! TF.CreationDate,2024-01-24T01:25:44+03:00
; #@! TF.GenerationSoftware,Kicad,Pcbnew,7.0.9
; #@! TF.FileFunction,Plated,1,2,PTH
FMAT,2
METRIC
; #@! TA.AperFunction,Plated,PTH,ComponentDrill
T1C0.200
; #@! TA.AperFunction,Plated,PTH,ViaDrill
T2C0.400
; #@! TA.AperFunction,Plated,PTH,ComponentDrill
T3C0.950
; #@! TA.AperFunction,Plated,PTH,ComponentDrill
T4C1.000
; #@! TA.AperFunction,Plated,PTH,ComponentDrill
T5C2.300
%
G90
G05
T1
X43.4Y-53.6
X43.4Y-54.9
X43.4Y-56.2
X45.31Y-53.6
X45.31Y-54.9
X45.31Y-56.2
T2
X29.8Y-37.4
X29.8Y-41.2
X30.2Y-53.0
X30.4Y-42.4
X30.8Y-59.8
X32.4Y-43.4
X32.4Y-51.8
X33.2Y-35.0
X33.2Y-37.6
X33.4Y-41.2
X34.6Y-52.6
X35.0Y-49.6
X35.0Y-60.4
X35.4Y-47.4
X35.6Y-42.4
X35.8Y-23.8
X35.8Y-35.0
X35.8Y-37.6
X35.8Y-63.6
X36.2Y-32.8
X37.0Y-52.8
X37.2Y-44.6
X37.4Y-59.6
X38.2Y-49.4
X39.8Y-44.6
X39.8Y-52.6
X39.8Y-54.6
X39.8Y-59.4
X40.0Y-19.0
X40.4Y-27.0
X40.4Y-39.2
X40.4Y-49.4
X40.6Y-62.4
X41.662Y-59.405
X42.0Y-47.6
X42.2Y-44.2
X42.2Y-45.6
X43.4Y-58.0
X43.8Y-42.4
X43.8Y-49.0
X43.8Y-52.2
X44.2Y-59.4
X44.6Y-58.0
X44.6Y-62.2
X45.0Y-23.8
X45.362Y-44.2
X45.362Y-47.0
X45.4Y-48.8
X45.4Y-52.4
X46.09Y-58.174
X46.4Y-28.8
X48.5Y-35.5
X48.6Y-38.2
X49.0Y-19.0
X50.4Y-30.2
X50.9Y-35.3
X51.0Y-44.2
X51.0Y-45.8
X51.0Y-47.2
X52.081Y-54.703
X52.2Y-49.2
X52.4Y-66.0
X52.6Y-59.8
X52.8Y-42.4
X52.8Y-62.2
X53.2Y-23.8
X53.4Y-35.3
X53.4Y-38.2
X53.6Y-45.6
X54.0Y-47.6
X54.4Y-54.679
X54.6Y-62.6
X55.8Y-65.0
X56.2Y-60.8
X56.6Y-42.0
X56.8Y-19.0
X56.8Y-37.0
X57.4Y-30.2
X57.4Y-49.6
X57.6Y-45.2
X57.8Y-62.8
X58.125Y-54.8
X58.8Y-43.6
X59.4Y-41.6
X60.2Y-23.8
X60.2Y-60.2
X60.2Y-64.4
X60.325Y-53.4
X60.4Y-40.4
X60.6Y-32.8
X60.8Y-47.8
X61.0Y-45.6
X62.6Y-30.8
X62.6Y-34.4
X63.8Y-57.0
X64.0Y-19.0
X64.0Y-65.0
X64.4Y-44.4
X64.8Y-32.8
X66.2Y-47.0
X66.2Y-48.4
X66.8Y-36.2
X67.4Y-23.8
X67.4Y-46.6
X67.4Y-59.6
X67.6Y-30.4
X67.6Y-43.8
X68.8Y-46.6
X68.8Y-53.6
X68.8Y-55.2
X69.6Y-39.2
X69.8Y-45.8
X70.2Y-64.6
X71.0Y-31.8
X71.2Y-18.8
X71.2Y-46.0
X71.4Y-42.8
X71.6Y-55.4
X71.6Y-61.0
X72.0Y-53.6
X74.2Y-23.8
X74.8Y-28.2
X74.8Y-35.0
X75.8Y-54.4
X75.8Y-57.8
X76.925Y-47.8
X77.4Y-44.0
X77.6Y-31.2
X77.8Y-51.2
T3
X34.36Y-29.3
X34.36Y-31.8
X34.36Y-33.8
X34.36Y-36.3
T4
X38.6Y-61.46
X38.6Y-64.0
X42.4Y-61.335
X42.4Y-63.875
X50.8Y-64.0
X50.9Y-37.735
X50.9Y-40.275
X53.34Y-64.0
X62.4Y-38.86
X62.4Y-41.4
T5
X31.65Y-26.23
X31.65Y-39.37
T0
M30
