%TF.GenerationSoftware,KiCad,Pcbnew,7.0.9*%
%TF.CreationDate,2024-01-22T02:17:41+03:00*%
%TF.ProjectId,PowerBank,506f7765-7242-4616-9e6b-2e6b69636164,rev?*%
%TF.SameCoordinates,Original*%
%TF.FileFunction,Copper,L1,Top*%
%TF.FilePolarity,Positive*%
%FSLAX46Y46*%
G04 Gerber Fmt 4.6, Leading zero omitted, Abs format (unit mm)*
G04 Created by KiCad (PCBNEW 7.0.9) date 2024-01-22 02:17:41*
%MOMM*%
%LPD*%
G01*
G04 APERTURE LIST*
G04 Aperture macros list*
%AMRoundRect*
0 Rectangle with rounded corners*
0 $1 Rounding radius*
0 $2 $3 $4 $5 $6 $7 $8 $9 X,Y pos of 4 corners*
0 Add a 4 corners polygon primitive as box body*
4,1,4,$2,$3,$4,$5,$6,$7,$8,$9,$2,$3,0*
0 Add four circle primitives for the rounded corners*
1,1,$1+$1,$2,$3*
1,1,$1+$1,$4,$5*
1,1,$1+$1,$6,$7*
1,1,$1+$1,$8,$9*
0 Add four rect primitives between the rounded corners*
20,1,$1+$1,$2,$3,$4,$5,0*
20,1,$1+$1,$4,$5,$6,$7,0*
20,1,$1+$1,$6,$7,$8,$9,0*
20,1,$1+$1,$8,$9,$2,$3,0*%
G04 Aperture macros list end*
%TA.AperFunction,SMDPad,CuDef*%
%ADD10RoundRect,0.250000X-0.412500X-0.650000X0.412500X-0.650000X0.412500X0.650000X-0.412500X0.650000X0*%
%TD*%
%TA.AperFunction,SMDPad,CuDef*%
%ADD11R,1.600000X0.180000*%
%TD*%
%TA.AperFunction,SMDPad,CuDef*%
%ADD12R,2.000000X0.300000*%
%TD*%
%TA.AperFunction,SMDPad,CuDef*%
%ADD13RoundRect,0.250000X0.450000X-0.325000X0.450000X0.325000X-0.450000X0.325000X-0.450000X-0.325000X0*%
%TD*%
%TA.AperFunction,SMDPad,CuDef*%
%ADD14RoundRect,0.237500X0.237500X-0.250000X0.237500X0.250000X-0.237500X0.250000X-0.237500X-0.250000X0*%
%TD*%
%TA.AperFunction,SMDPad,CuDef*%
%ADD15RoundRect,0.250000X0.650000X-0.412500X0.650000X0.412500X-0.650000X0.412500X-0.650000X-0.412500X0*%
%TD*%
%TA.AperFunction,ComponentPad*%
%ADD16R,1.700000X1.700000*%
%TD*%
%TA.AperFunction,ComponentPad*%
%ADD17O,1.700000X1.700000*%
%TD*%
%TA.AperFunction,SMDPad,CuDef*%
%ADD18RoundRect,0.250000X0.412500X0.650000X-0.412500X0.650000X-0.412500X-0.650000X0.412500X-0.650000X0*%
%TD*%
%TA.AperFunction,SMDPad,CuDef*%
%ADD19RoundRect,0.237500X0.250000X0.237500X-0.250000X0.237500X-0.250000X-0.237500X0.250000X-0.237500X0*%
%TD*%
%TA.AperFunction,SMDPad,CuDef*%
%ADD20RoundRect,0.150000X0.825000X0.150000X-0.825000X0.150000X-0.825000X-0.150000X0.825000X-0.150000X0*%
%TD*%
%TA.AperFunction,SMDPad,CuDef*%
%ADD21RoundRect,0.250000X0.550000X-1.500000X0.550000X1.500000X-0.550000X1.500000X-0.550000X-1.500000X0*%
%TD*%
%TA.AperFunction,SMDPad,CuDef*%
%ADD22RoundRect,0.237500X-0.237500X0.250000X-0.237500X-0.250000X0.237500X-0.250000X0.237500X0.250000X0*%
%TD*%
%TA.AperFunction,SMDPad,CuDef*%
%ADD23R,3.429000X2.413000*%
%TD*%
%TA.AperFunction,SMDPad,CuDef*%
%ADD24RoundRect,0.250000X-0.450000X0.325000X-0.450000X-0.325000X0.450000X-0.325000X0.450000X0.325000X0*%
%TD*%
%TA.AperFunction,SMDPad,CuDef*%
%ADD25RoundRect,0.237500X0.237500X-0.300000X0.237500X0.300000X-0.237500X0.300000X-0.237500X-0.300000X0*%
%TD*%
%TA.AperFunction,SMDPad,CuDef*%
%ADD26RoundRect,0.150000X-0.650000X-0.150000X0.650000X-0.150000X0.650000X0.150000X-0.650000X0.150000X0*%
%TD*%
%TA.AperFunction,ComponentPad*%
%ADD27C,0.500000*%
%TD*%
%TA.AperFunction,SMDPad,CuDef*%
%ADD28R,2.410000X3.100000*%
%TD*%
%TA.AperFunction,ComponentPad*%
%ADD29R,1.500000X1.600000*%
%TD*%
%TA.AperFunction,ComponentPad*%
%ADD30C,1.600000*%
%TD*%
%TA.AperFunction,ComponentPad*%
%ADD31C,3.000000*%
%TD*%
%TA.AperFunction,SMDPad,CuDef*%
%ADD32RoundRect,0.250000X-0.250000X0.250000X-0.250000X-0.250000X0.250000X-0.250000X0.250000X0.250000X0*%
%TD*%
%TA.AperFunction,ViaPad*%
%ADD33C,0.800000*%
%TD*%
%TA.AperFunction,Conductor*%
%ADD34C,0.600000*%
%TD*%
%TA.AperFunction,Conductor*%
%ADD35C,1.000000*%
%TD*%
%TA.AperFunction,Conductor*%
%ADD36C,0.400000*%
%TD*%
%TA.AperFunction,Conductor*%
%ADD37C,2.000000*%
%TD*%
%TA.AperFunction,Conductor*%
%ADD38C,0.250000*%
%TD*%
%TA.AperFunction,Conductor*%
%ADD39C,0.500000*%
%TD*%
G04 APERTURE END LIST*
D10*
%TO.P,C4,1*%
%TO.N,+5VP*%
X49600000Y-44200000D03*
%TO.P,C4,2*%
%TO.N,GND*%
X52725000Y-44200000D03*
%TD*%
D11*
%TO.P,X1,B1,GND*%
%TO.N,GND*%
X30200000Y-44900000D03*
%TO.P,X1,B2,TX2+*%
%TO.N,unconnected-(X1-TX2+-PadB2)*%
X30200000Y-45400000D03*
%TO.P,X1,B3,TX2-*%
%TO.N,unconnected-(X1-TX2--PadB3)*%
X30200000Y-45900000D03*
%TO.P,X1,B4,VBUS*%
%TO.N,VBUS*%
X30200000Y-46400000D03*
%TO.P,X1,B5,CC2*%
%TO.N,unconnected-(X1-CC2-PadB5)*%
X30200000Y-46900000D03*
%TO.P,X1,B6,D+*%
%TO.N,unconnected-(X1-D+-PadB6)*%
X30200000Y-47400000D03*
%TO.P,X1,B7,D-*%
%TO.N,unconnected-(X1-D--PadB7)*%
X30200000Y-47900000D03*
%TO.P,X1,B8,SBU2*%
%TO.N,unconnected-(X1-SBU2-PadB8)*%
X30200000Y-48400000D03*
%TO.P,X1,B9,VBUS*%
%TO.N,VBUS*%
X30200000Y-48900000D03*
%TO.P,X1,B10,RX1-*%
%TO.N,unconnected-(X1-RX1--PadB10)*%
X30200000Y-49400000D03*
%TO.P,X1,B11,RX1+*%
%TO.N,unconnected-(X1-RX1+-PadB11)*%
X30200000Y-49900000D03*
%TO.P,X1,B12,GND*%
%TO.N,GND*%
X30200000Y-50400000D03*
D12*
%TO.P,X1,S1,SHIELD*%
X30400000Y-51900000D03*
%TO.P,X1,S2,SHIELD*%
X30400000Y-43400000D03*
%TD*%
D10*
%TO.P,C6,1*%
%TO.N,Net-(J2-Pin_1)*%
X51037500Y-60600000D03*
%TO.P,C6,2*%
%TO.N,GND*%
X54162500Y-60600000D03*
%TD*%
D13*
%TO.P,VD1,1,K*%
%TO.N,Net-(U1-LED3)*%
X36200000Y-56650000D03*
%TO.P,VD1,2,A*%
%TO.N,Net-(U1-LED1)*%
X36200000Y-54600000D03*
%TD*%
D14*
%TO.P,R5,2*%
%TO.N,GND*%
X63000000Y-44175000D03*
%TO.P,R5,1*%
%TO.N,Net-(J3-Pin_1)*%
X63000000Y-46000000D03*
%TD*%
D15*
%TO.P,C12,2*%
%TO.N,GND*%
X39800000Y-47675000D03*
%TO.P,C12,1*%
%TO.N,VBUS*%
X39800000Y-50800000D03*
%TD*%
D10*
%TO.P,C8,1*%
%TO.N,VBUS*%
X42200000Y-50600000D03*
%TO.P,C8,2*%
%TO.N,GND*%
X45325000Y-50600000D03*
%TD*%
D16*
%TO.P,J6,1,Pin_1*%
%TO.N,+5VP*%
X50900000Y-40275000D03*
D17*
%TO.P,J6,2,Pin_2*%
%TO.N,GND*%
X50900000Y-37735000D03*
%TD*%
D18*
%TO.P,C2,1*%
%TO.N,+5VP*%
X46925000Y-47000000D03*
%TO.P,C2,2*%
%TO.N,GND*%
X43800000Y-47000000D03*
%TD*%
D19*
%TO.P,R2,1*%
%TO.N,Net-(U1-KEY)*%
X47425000Y-63600000D03*
%TO.P,R2,2*%
%TO.N,Net-(J5-Pin_1)*%
X45600000Y-63600000D03*
%TD*%
D20*
%TO.P,U2,1,SwC*%
%TO.N,Net-(U2-DC)*%
X68000000Y-51505000D03*
%TO.P,U2,2,SwE*%
%TO.N,Net-(D1-K)*%
X68000000Y-50235000D03*
%TO.P,U2,3,TC*%
%TO.N,Net-(U2-TC)*%
X68000000Y-48965000D03*
%TO.P,U2,4,GND*%
%TO.N,GND*%
X68000000Y-47695000D03*
%TO.P,U2,5,Vfb*%
%TO.N,Net-(J3-Pin_1)*%
X63050000Y-47695000D03*
%TO.P,U2,6,Vin*%
%TO.N,+5VP*%
X63050000Y-48965000D03*
%TO.P,U2,7,Ipk*%
%TO.N,Net-(U2-DC)*%
X63050000Y-50235000D03*
%TO.P,U2,8,DC*%
X63050000Y-51505000D03*
%TD*%
D21*
%TO.P,C10,1*%
%TO.N,+5VP*%
X58600000Y-46700000D03*
%TO.P,C10,2*%
%TO.N,GND*%
X58600000Y-41300000D03*
%TD*%
D22*
%TO.P,R3,1*%
%TO.N,Net-(U1-BAT)*%
X50000000Y-55600000D03*
%TO.P,R3,2*%
%TO.N,Net-(J2-Pin_1)*%
X50000000Y-57425000D03*
%TD*%
D21*
%TO.P,C11,1*%
%TO.N,Net-(J3-Pin_1)*%
X67600000Y-44100000D03*
%TO.P,C11,2*%
%TO.N,GND*%
X67600000Y-38700000D03*
%TD*%
D10*
%TO.P,C3,2*%
%TO.N,GND*%
X52562500Y-47200000D03*
%TO.P,C3,1*%
%TO.N,+5VP*%
X49437500Y-47200000D03*
%TD*%
D16*
%TO.P,J3,1,Pin_1*%
%TO.N,Net-(J3-Pin_1)*%
X74525000Y-41000000D03*
D17*
%TO.P,J3,2,Pin_2*%
%TO.N,GND*%
X74525000Y-38460000D03*
%TD*%
D18*
%TO.P,C5,1*%
%TO.N,+5VP*%
X46925000Y-44200000D03*
%TO.P,C5,2*%
%TO.N,GND*%
X43800000Y-44200000D03*
%TD*%
D16*
%TO.P,J4,1,Pin_1*%
%TO.N,Net-(J4-Pin_1)*%
X38600000Y-64000000D03*
D17*
%TO.P,J4,2,Pin_2*%
%TO.N,GND*%
X38600000Y-61460000D03*
%TD*%
D18*
%TO.P,C7,1*%
%TO.N,Net-(U1-BAT)*%
X48925000Y-60600000D03*
%TO.P,C7,2*%
%TO.N,GND*%
X45800000Y-60600000D03*
%TD*%
D23*
%TO.P,L1,2,2*%
%TO.N,Net-(J3-Pin_1)*%
X74725000Y-44758000D03*
%TO.P,L1,1,1*%
%TO.N,Net-(D1-K)*%
X74725000Y-50600000D03*
%TD*%
D24*
%TO.P,VD4,1,K*%
%TO.N,Net-(U1-LED2)*%
X31600000Y-54600000D03*
%TO.P,VD4,2,A*%
%TO.N,Net-(U1-LED3)*%
X31600000Y-56650000D03*
%TD*%
%TO.P,VD2,1,K*%
%TO.N,Net-(U1-LED1)*%
X38400000Y-54575000D03*
%TO.P,VD2,2,A*%
%TO.N,Net-(U1-LED3)*%
X38400000Y-56625000D03*
%TD*%
D19*
%TO.P,R1,1*%
%TO.N,Net-(U1-KEY)*%
X47425000Y-65200000D03*
%TO.P,R1,2*%
%TO.N,Net-(J4-Pin_1)*%
X45600000Y-65200000D03*
%TD*%
D23*
%TO.P,L2,1,1*%
%TO.N,Net-(U1-SW)*%
X54400000Y-51758000D03*
%TO.P,L2,2,2*%
%TO.N,Net-(J2-Pin_1)*%
X54400000Y-57600000D03*
%TD*%
D13*
%TO.P,VD3,1,K*%
%TO.N,Net-(U1-LED3)*%
X33800000Y-56650000D03*
%TO.P,VD3,2,A*%
%TO.N,Net-(U1-LED2)*%
X33800000Y-54600000D03*
%TD*%
D25*
%TO.P,C9,1*%
%TO.N,Net-(U2-TC)*%
X70200000Y-48862500D03*
%TO.P,C9,2*%
%TO.N,GND*%
X70200000Y-47137500D03*
%TD*%
D26*
%TO.P,U1,1,Vin*%
%TO.N,VBUS*%
X41705000Y-52995000D03*
%TO.P,U1,2,LED1*%
%TO.N,Net-(U1-LED1)*%
X41705000Y-54265000D03*
%TO.P,U1,3,LED2*%
%TO.N,Net-(U1-LED2)*%
X41705000Y-55535000D03*
%TO.P,U1,4,LED3*%
%TO.N,Net-(U1-LED3)*%
X41705000Y-56805000D03*
%TO.P,U1,5,KEY*%
%TO.N,Net-(U1-KEY)*%
X47005000Y-56805000D03*
%TO.P,U1,6,BAT*%
%TO.N,Net-(U1-BAT)*%
X47005000Y-55535000D03*
%TO.P,U1,7,SW*%
%TO.N,Net-(U1-SW)*%
X47005000Y-54265000D03*
%TO.P,U1,8,Vout*%
%TO.N,+5VP*%
X47005000Y-52995000D03*
D27*
%TO.P,U1,9,GND*%
%TO.N,GND*%
X43400000Y-53600000D03*
X43400000Y-54900000D03*
X43400000Y-56200000D03*
D28*
X44355000Y-54900000D03*
D27*
X45310000Y-53600000D03*
X45310000Y-54900000D03*
X45310000Y-56200000D03*
%TD*%
D14*
%TO.P,R4,1*%
%TO.N,Net-(U2-DC)*%
X60800000Y-51912500D03*
%TO.P,R4,2*%
%TO.N,+5VP*%
X60800000Y-50087500D03*
%TD*%
D16*
%TO.P,J5,1,Pin_1*%
%TO.N,Net-(J5-Pin_1)*%
X42400000Y-63875000D03*
D17*
%TO.P,J5,2,Pin_2*%
%TO.N,GND*%
X42400000Y-61335000D03*
%TD*%
D15*
%TO.P,C1,2*%
%TO.N,GND*%
X37400000Y-47675000D03*
%TO.P,C1,1*%
%TO.N,VBUS*%
X37400000Y-50800000D03*
%TD*%
D29*
%TO.P,J1,1,VBUS*%
%TO.N,+5VP*%
X34360000Y-29300000D03*
D30*
%TO.P,J1,2,D-*%
%TO.N,unconnected-(J1-D--Pad2)*%
X34360000Y-31800000D03*
%TO.P,J1,3,D+*%
%TO.N,unconnected-(J1-D+-Pad3)*%
X34360000Y-33800000D03*
%TO.P,J1,4,GND*%
%TO.N,GND*%
X34360000Y-36300000D03*
D31*
%TO.P,J1,5,Shield*%
X31650000Y-26230000D03*
X31650000Y-39370000D03*
%TD*%
D32*
%TO.P,D1,1,K*%
%TO.N,Net-(D1-K)*%
X70200000Y-51750000D03*
%TO.P,D1,2,A*%
%TO.N,GND*%
X70200000Y-54250000D03*
%TD*%
D16*
%TO.P,J2,1,Pin_1*%
%TO.N,Net-(J2-Pin_1)*%
X50800000Y-64000000D03*
D17*
%TO.P,J2,2,Pin_2*%
%TO.N,GND*%
X53340000Y-64000000D03*
%TD*%
D33*
%TO.N,GND*%
X61600000Y-46600000D03*
X63000000Y-42000000D03*
X65200000Y-40200000D03*
X68800000Y-40400000D03*
X69600000Y-37400000D03*
X56400000Y-41200000D03*
X48500000Y-35500000D03*
X53400000Y-35300000D03*
X53400000Y-38200000D03*
X68600000Y-59000000D03*
X67225000Y-54000000D03*
X54400000Y-54679000D03*
X52080675Y-54703168D03*
%TO.N,VBUS*%
X35000000Y-49600000D03*
%TO.N,GND*%
X44600000Y-62200000D03*
X35600000Y-38600000D03*
X35800000Y-63600000D03*
X34000000Y-42400000D03*
X45362500Y-44200000D03*
X66000000Y-48800000D03*
X44200000Y-59400000D03*
X45400000Y-48800000D03*
X56725000Y-48000000D03*
X37400000Y-59600000D03*
X39400000Y-38600000D03*
X58125000Y-54800000D03*
X74925000Y-54400000D03*
X60000000Y-60000000D03*
X39800000Y-54600000D03*
X76725000Y-37000000D03*
X54400000Y-46000000D03*
X44800000Y-30200000D03*
X74800000Y-28200000D03*
X71600000Y-31400000D03*
X67400000Y-23800000D03*
X39400000Y-41000000D03*
X68800000Y-32600000D03*
X34600000Y-52600000D03*
X73400000Y-57200000D03*
X66000000Y-47600000D03*
X76725000Y-39300000D03*
X40400000Y-49400000D03*
X72325000Y-47600000D03*
X66800000Y-46600000D03*
X50000000Y-50800000D03*
X71600000Y-61000000D03*
X67800000Y-28400000D03*
X57400000Y-49600000D03*
X39800000Y-52600000D03*
X38200000Y-49400000D03*
X42000000Y-47600000D03*
X40600000Y-62400000D03*
X71600000Y-42600000D03*
X51000000Y-44200000D03*
X37000000Y-52800000D03*
X50400000Y-30200000D03*
X66400000Y-64000000D03*
X56000000Y-62600000D03*
X62000000Y-63800000D03*
X50900000Y-35300000D03*
X76925000Y-47800000D03*
X52400000Y-66000000D03*
X56200000Y-60800000D03*
X53200000Y-23800000D03*
X60400000Y-40400000D03*
X77325000Y-55000000D03*
X45400000Y-52400000D03*
X46090077Y-58173953D03*
X65125000Y-38200000D03*
X44600000Y-58000000D03*
X43800000Y-49000000D03*
X60200000Y-38600000D03*
X39800000Y-44600000D03*
X56600000Y-39000000D03*
X37200000Y-44600000D03*
X52600000Y-60600000D03*
X69000000Y-46400000D03*
X35800000Y-23800000D03*
X30200000Y-53000000D03*
X59268080Y-64136301D03*
X70800000Y-57200000D03*
X55800000Y-65000000D03*
X54400000Y-44000000D03*
X35000000Y-60400000D03*
X41662015Y-59405426D03*
X72325000Y-36800000D03*
X54400000Y-48600000D03*
X64000000Y-30600000D03*
X30800000Y-36200000D03*
X74725000Y-47679000D03*
X75800000Y-57800000D03*
X60325000Y-53400000D03*
X40000000Y-19000000D03*
X45000000Y-23800000D03*
X45362500Y-47000000D03*
X52800000Y-62200000D03*
X49000000Y-19000000D03*
X59800000Y-44000000D03*
X30800000Y-59800000D03*
X39800000Y-59400000D03*
X70200000Y-64600000D03*
X64000000Y-59000000D03*
X61925000Y-36800000D03*
X36800000Y-40200000D03*
X57800000Y-62800000D03*
X41800000Y-45600000D03*
X64000000Y-19000000D03*
X51000000Y-45800000D03*
X40400000Y-27000000D03*
X57400000Y-30200000D03*
X43400000Y-58000000D03*
X60200000Y-23800000D03*
X48600000Y-38200000D03*
X35400000Y-47400000D03*
X72525000Y-40200000D03*
X43800000Y-52200000D03*
%TD*%
D34*
%TO.N,GND*%
X45400000Y-53510000D02*
X45310000Y-53600000D01*
X45400000Y-52400000D02*
X45400000Y-53510000D01*
X43400000Y-52600000D02*
X43400000Y-53600000D01*
X43800000Y-52200000D02*
X43400000Y-52600000D01*
X43400000Y-54900000D02*
X43400000Y-53600000D01*
X43400000Y-56200000D02*
X43400000Y-54900000D01*
X45310000Y-56200000D02*
X43400000Y-56200000D01*
X45310000Y-54900000D02*
X45310000Y-56200000D01*
X45310000Y-53600000D02*
X45310000Y-54900000D01*
X45310000Y-57393876D02*
X45310000Y-56200000D01*
X46090077Y-58173953D02*
X45310000Y-57393876D01*
X43400000Y-58000000D02*
X43400000Y-56200000D01*
X45310000Y-53945000D02*
X44355000Y-54900000D01*
X45310000Y-53600000D02*
X45310000Y-53945000D01*
X43400000Y-53945000D02*
X44355000Y-54900000D01*
X43400000Y-53600000D02*
X43400000Y-53945000D01*
%TO.N,Net-(U1-BAT)*%
X48925000Y-60600000D02*
X48800000Y-60475000D01*
X48800000Y-60475000D02*
X48800000Y-55600000D01*
D35*
%TO.N,+5VP*%
X48325000Y-40275000D02*
X48200000Y-40400000D01*
X50900000Y-40275000D02*
X48325000Y-40275000D01*
D34*
%TO.N,Net-(U2-DC)*%
X61207500Y-51505000D02*
X60800000Y-51912500D01*
X63050000Y-51505000D02*
X61207500Y-51505000D01*
%TO.N,+5VP*%
X60800000Y-49030000D02*
X60865000Y-48965000D01*
X60800000Y-50087500D02*
X60800000Y-49030000D01*
X60865000Y-48965000D02*
X58600000Y-46700000D01*
X63050000Y-48965000D02*
X60865000Y-48965000D01*
%TO.N,Net-(J3-Pin_1)*%
X63000000Y-47645000D02*
X63050000Y-47695000D01*
X63000000Y-46000000D02*
X63000000Y-47645000D01*
X64825000Y-46000000D02*
X63000000Y-46000000D01*
X66425000Y-44400000D02*
X64825000Y-46000000D01*
X67000000Y-44400000D02*
X66425000Y-44400000D01*
%TO.N,+5VP*%
X58600000Y-47600000D02*
X58600000Y-46700000D01*
%TO.N,Net-(D1-K)*%
X70200000Y-51750000D02*
X70200000Y-50235000D01*
D35*
X70200000Y-50235000D02*
X72125000Y-50235000D01*
X68000000Y-50235000D02*
X70200000Y-50235000D01*
D34*
%TO.N,Net-(U2-DC)*%
X68000000Y-51505000D02*
X63050000Y-51505000D01*
%TO.N,Net-(J3-Pin_1)*%
X66200000Y-44400000D02*
X67000000Y-44400000D01*
D35*
%TO.N,+5VP*%
X57700000Y-46700000D02*
X58600000Y-46700000D01*
X57400000Y-46400000D02*
X57700000Y-46700000D01*
X57200000Y-46400000D02*
X57400000Y-46400000D01*
X56600000Y-43800000D02*
X56600000Y-45800000D01*
X53075000Y-40275000D02*
X56600000Y-43800000D01*
X56600000Y-45800000D02*
X57200000Y-46400000D01*
X50900000Y-40275000D02*
X53075000Y-40275000D01*
D36*
X58750000Y-46800000D02*
X58600000Y-46800000D01*
D34*
X58850000Y-46900000D02*
X58600000Y-46900000D01*
D35*
%TO.N,Net-(J3-Pin_1)*%
X67525000Y-44400000D02*
X67925000Y-44800000D01*
X67000000Y-44400000D02*
X67525000Y-44400000D01*
D34*
X67000000Y-44675000D02*
X67000000Y-44400000D01*
X67125000Y-44800000D02*
X67000000Y-44675000D01*
D37*
X73967000Y-44800000D02*
X74367000Y-44400000D01*
X67925000Y-44800000D02*
X73967000Y-44800000D01*
D34*
X74367000Y-44400000D02*
X74725000Y-44758000D01*
D37*
X74525000Y-44558000D02*
X74725000Y-44758000D01*
X74525000Y-41000000D02*
X74525000Y-44558000D01*
D35*
%TO.N,VBUS*%
X35000000Y-49600000D02*
X36200000Y-49600000D01*
D38*
X31300000Y-48900000D02*
X30200000Y-48900000D01*
D35*
X31800000Y-48800000D02*
X32600000Y-49600000D01*
X39800000Y-50800000D02*
X42000000Y-50800000D01*
X41705000Y-52995000D02*
X41705000Y-50800000D01*
X31800000Y-48400000D02*
X31800000Y-48800000D01*
X36200000Y-49600000D02*
X37400000Y-50800000D01*
D38*
X30200000Y-46400000D02*
X31250000Y-46400000D01*
D35*
X37400000Y-50800000D02*
X39800000Y-50800000D01*
D38*
X31250000Y-46400000D02*
X31800000Y-46950000D01*
D35*
X32600000Y-49600000D02*
X36200000Y-49600000D01*
X42000000Y-50800000D02*
X42200000Y-50600000D01*
X41705000Y-50800000D02*
X39800000Y-50800000D01*
X31800000Y-48400000D02*
X31800000Y-46950000D01*
D38*
X31800000Y-48400000D02*
X31300000Y-48900000D01*
D36*
%TO.N,GND*%
X30400000Y-43400000D02*
X30400000Y-44700000D01*
X30400000Y-44700000D02*
X30200000Y-44900000D01*
X30400000Y-51900000D02*
X30400000Y-50600000D01*
X30400000Y-50600000D02*
X30200000Y-50400000D01*
D35*
%TO.N,+5VP*%
X48200000Y-40400000D02*
X48200000Y-42400000D01*
X48200000Y-44000000D02*
X48400000Y-44200000D01*
X47005000Y-47080000D02*
X46925000Y-47000000D01*
X49237500Y-47000000D02*
X49437500Y-47200000D01*
X48400000Y-44200000D02*
X49600000Y-44200000D01*
X47005000Y-52995000D02*
X47005000Y-47080000D01*
D37*
X37100000Y-29300000D02*
X34360000Y-29300000D01*
X48200000Y-40400000D02*
X37100000Y-29300000D01*
D35*
X48200000Y-42400000D02*
X48200000Y-44000000D01*
X46925000Y-47000000D02*
X49237500Y-47000000D01*
X46925000Y-44200000D02*
X48400000Y-44200000D01*
X46925000Y-47000000D02*
X46925000Y-44200000D01*
%TO.N,Net-(J2-Pin_1)*%
X51037500Y-58762500D02*
X52200000Y-57600000D01*
X51037500Y-60600000D02*
X51037500Y-63762500D01*
X51037500Y-63762500D02*
X50800000Y-64000000D01*
X51037500Y-60600000D02*
X51037500Y-58762500D01*
X52200000Y-57600000D02*
X50175000Y-57600000D01*
X50175000Y-57600000D02*
X50000000Y-57425000D01*
X54400000Y-57600000D02*
X52200000Y-57600000D01*
D34*
%TO.N,Net-(U1-BAT)*%
X50000000Y-55600000D02*
X47869999Y-55600000D01*
X47869999Y-55600000D02*
X47804999Y-55535000D01*
X47804999Y-55535000D02*
X47005000Y-55535000D01*
%TO.N,Net-(U2-TC)*%
X70160000Y-48965000D02*
X70325000Y-48800000D01*
X68000000Y-48965000D02*
X70160000Y-48965000D01*
D35*
%TO.N,Net-(D1-K)*%
X72125000Y-50235000D02*
X74360000Y-50235000D01*
X74360000Y-50235000D02*
X74725000Y-50600000D01*
D34*
%TO.N,Net-(J4-Pin_1)*%
X45600000Y-65200000D02*
X45575000Y-65225000D01*
X45575000Y-65225000D02*
X39825000Y-65225000D01*
X39825000Y-65225000D02*
X38600000Y-64000000D01*
%TO.N,Net-(J5-Pin_1)*%
X42675000Y-63600000D02*
X42400000Y-63875000D01*
X45600000Y-63600000D02*
X42675000Y-63600000D01*
%TO.N,Net-(U1-SW)*%
X48135000Y-54265000D02*
X47005000Y-54265000D01*
X50642000Y-51758000D02*
X48135000Y-54265000D01*
X54400000Y-51758000D02*
X50642000Y-51758000D01*
D39*
%TO.N,Net-(U1-KEY)*%
X47425000Y-57225000D02*
X47425000Y-63600000D01*
X47005000Y-56805000D02*
X47425000Y-57225000D01*
X47425000Y-63600000D02*
X47425000Y-65200000D01*
D34*
%TO.N,Net-(U2-DC)*%
X63050000Y-50235000D02*
X63050000Y-51505000D01*
D39*
%TO.N,Net-(U1-LED3)*%
X36225000Y-56625000D02*
X36200000Y-56650000D01*
X38580000Y-56805000D02*
X38400000Y-56625000D01*
X41705000Y-56805000D02*
X38580000Y-56805000D01*
X36200000Y-56650000D02*
X33800000Y-56650000D01*
X33800000Y-56650000D02*
X31600000Y-56650000D01*
X38400000Y-56625000D02*
X36225000Y-56625000D01*
%TO.N,Net-(U1-LED1)*%
X40202082Y-53600000D02*
X39375000Y-53600000D01*
X39375000Y-53600000D02*
X38400000Y-54575000D01*
X41705000Y-54265000D02*
X40867082Y-54265000D01*
X40867082Y-54265000D02*
X40202082Y-53600000D01*
X38400000Y-54575000D02*
X36225000Y-54575000D01*
X36225000Y-54575000D02*
X36200000Y-54600000D01*
%TO.N,Net-(U1-LED2)*%
X33800000Y-54600000D02*
X31600000Y-54600000D01*
X41705000Y-55535000D02*
X41640000Y-55600000D01*
X34825000Y-55625000D02*
X33800000Y-54600000D01*
X37200000Y-55600000D02*
X37175000Y-55625000D01*
X37175000Y-55625000D02*
X34825000Y-55625000D01*
X41640000Y-55600000D02*
X37200000Y-55600000D01*
%TD*%
%TA.AperFunction,Conductor*%
%TO.N,GND*%
G36*
X78958691Y-16819407D02*
G01*
X78994655Y-16868907D01*
X78999500Y-16899500D01*
X78999500Y-66700500D01*
X78980593Y-66758691D01*
X78931093Y-66794655D01*
X78900500Y-66799500D01*
X29099500Y-66799500D01*
X29041309Y-66780593D01*
X29005345Y-66731093D01*
X29000500Y-66700500D01*
X29000500Y-63534932D01*
X30599500Y-63534932D01*
X30639719Y-63801766D01*
X30639721Y-63801776D01*
X30719262Y-64059641D01*
X30800876Y-64229115D01*
X30836349Y-64302774D01*
X30988365Y-64525741D01*
X30988368Y-64525744D01*
X30988370Y-64525747D01*
X31171912Y-64723559D01*
X31171918Y-64723565D01*
X31364665Y-64877275D01*
X31382898Y-64891815D01*
X31616602Y-65026743D01*
X31867805Y-65125334D01*
X32130897Y-65185383D01*
X32211587Y-65191429D01*
X32332618Y-65200500D01*
X32332624Y-65200500D01*
X32467382Y-65200500D01*
X32577408Y-65192254D01*
X32669103Y-65185383D01*
X32932195Y-65125334D01*
X33183398Y-65026743D01*
X33417102Y-64891815D01*
X33444776Y-64869746D01*
X37549500Y-64869746D01*
X37549501Y-64869758D01*
X37561132Y-64928227D01*
X37561134Y-64928233D01*
X37592228Y-64974767D01*
X37605448Y-64994552D01*
X37671769Y-65038867D01*
X37716231Y-65047711D01*
X37730241Y-65050498D01*
X37730246Y-65050498D01*
X37730252Y-65050500D01*
X38901678Y-65050500D01*
X38959869Y-65069407D01*
X38971682Y-65079496D01*
X39425518Y-65533332D01*
X39438796Y-65549810D01*
X39442856Y-65556127D01*
X39442857Y-65556129D01*
X39482394Y-65590387D01*
X39484982Y-65592796D01*
X39496407Y-65604221D01*
X39509345Y-65613906D01*
X39512097Y-65616124D01*
X39551624Y-65650375D01*
X39551625Y-65650375D01*
X39551627Y-65650377D01*
X39558454Y-65653495D01*
X39576651Y-65664291D01*
X39582669Y-65668796D01*
X39631697Y-65687081D01*
X39634941Y-65688425D01*
X39682543Y-65710165D01*
X39689978Y-65711233D01*
X39710484Y-65716468D01*
X39717517Y-65719091D01*
X39769729Y-65722825D01*
X39773196Y-65723198D01*
X39789201Y-65725500D01*
X39805348Y-65725500D01*
X39808881Y-65725626D01*
X39813871Y-65725982D01*
X39861073Y-65729359D01*
X39867470Y-65727967D01*
X39868410Y-65727763D01*
X39889456Y-65725500D01*
X44970570Y-65725500D01*
X45028761Y-65744407D01*
X45032028Y-65747197D01*
X45036788Y-65750710D01*
X45036789Y-65750711D01*
X45143025Y-65829116D01*
X45267651Y-65872725D01*
X45294941Y-65875284D01*
X45297233Y-65875499D01*
X45297238Y-65875500D01*
X45297244Y-65875500D01*
X45902762Y-65875500D01*
X45902765Y-65875499D01*
X45932349Y-65872725D01*
X46056975Y-65829116D01*
X46163211Y-65750711D01*
X46241616Y-65644475D01*
X46285225Y-65519849D01*
X46288000Y-65490256D01*
X46288000Y-64909744D01*
X46288000Y-64909738D01*
X46287999Y-64909733D01*
X46285225Y-64880155D01*
X46285225Y-64880151D01*
X46241616Y-64755525D01*
X46234623Y-64746050D01*
X46163214Y-64649293D01*
X46163213Y-64649292D01*
X46163211Y-64649289D01*
X46163206Y-64649285D01*
X46056976Y-64570884D01*
X45932352Y-64527276D01*
X45932351Y-64527275D01*
X45932349Y-64527275D01*
X45932347Y-64527274D01*
X45932344Y-64527274D01*
X45902766Y-64524500D01*
X45902756Y-64524500D01*
X45297244Y-64524500D01*
X45297233Y-64524500D01*
X45267655Y-64527274D01*
X45267647Y-64527276D01*
X45143023Y-64570884D01*
X45036789Y-64649288D01*
X45031767Y-64656093D01*
X45011400Y-64683691D01*
X45010959Y-64684288D01*
X44961191Y-64719881D01*
X44931303Y-64724500D01*
X43549500Y-64724500D01*
X43491309Y-64705593D01*
X43455345Y-64656093D01*
X43450500Y-64625500D01*
X43450500Y-64199500D01*
X43469407Y-64141309D01*
X43518907Y-64105345D01*
X43549500Y-64100500D01*
X44949754Y-64100500D01*
X45007945Y-64119407D01*
X45029409Y-64140712D01*
X45036784Y-64150705D01*
X45036785Y-64150706D01*
X45036789Y-64150711D01*
X45036792Y-64150713D01*
X45036793Y-64150714D01*
X45143023Y-64229115D01*
X45143024Y-64229115D01*
X45143025Y-64229116D01*
X45267651Y-64272725D01*
X45294941Y-64275284D01*
X45297233Y-64275499D01*
X45297238Y-64275500D01*
X45297244Y-64275500D01*
X45902762Y-64275500D01*
X45902765Y-64275499D01*
X45932349Y-64272725D01*
X46056975Y-64229116D01*
X46163211Y-64150711D01*
X46241616Y-64044475D01*
X46285225Y-63919849D01*
X46288000Y-63890256D01*
X46288000Y-63309744D01*
X46288000Y-63309738D01*
X46287999Y-63309733D01*
X46285225Y-63280155D01*
X46285225Y-63280151D01*
X46241616Y-63155525D01*
X46163211Y-63049289D01*
X46163206Y-63049285D01*
X46056976Y-62970884D01*
X45932352Y-62927276D01*
X45932351Y-62927275D01*
X45932349Y-62927275D01*
X45932347Y-62927274D01*
X45932344Y-62927274D01*
X45902766Y-62924500D01*
X45902756Y-62924500D01*
X45297244Y-62924500D01*
X45297233Y-62924500D01*
X45267655Y-62927274D01*
X45267647Y-62927276D01*
X45143023Y-62970884D01*
X45036793Y-63049285D01*
X45036784Y-63049294D01*
X45029409Y-63059288D01*
X44979641Y-63094881D01*
X44949754Y-63099500D01*
X43549500Y-63099500D01*
X43491309Y-63080593D01*
X43455345Y-63031093D01*
X43452002Y-63009986D01*
X43450976Y-63010088D01*
X43450500Y-63005261D01*
X43450500Y-63005252D01*
X43438867Y-62946769D01*
X43394552Y-62880448D01*
X43394548Y-62880445D01*
X43328233Y-62836134D01*
X43328231Y-62836133D01*
X43328228Y-62836132D01*
X43328227Y-62836132D01*
X43269758Y-62824501D01*
X43269748Y-62824500D01*
X41530252Y-62824500D01*
X41530251Y-62824500D01*
X41530241Y-62824501D01*
X41471772Y-62836132D01*
X41471766Y-62836134D01*
X41405451Y-62880445D01*
X41405445Y-62880451D01*
X41361134Y-62946766D01*
X41361132Y-62946772D01*
X41349501Y-63005241D01*
X41349500Y-63005253D01*
X41349500Y-64625500D01*
X41330593Y-64683691D01*
X41281093Y-64719655D01*
X41250500Y-64724500D01*
X40073322Y-64724500D01*
X40015131Y-64705593D01*
X40003318Y-64695504D01*
X39679496Y-64371682D01*
X39651719Y-64317165D01*
X39650500Y-64301678D01*
X39650500Y-63130253D01*
X39650498Y-63130241D01*
X39640622Y-63080593D01*
X39638867Y-63071769D01*
X39594552Y-63005448D01*
X39594548Y-63005445D01*
X39528233Y-62961134D01*
X39528231Y-62961133D01*
X39528228Y-62961132D01*
X39528227Y-62961132D01*
X39469758Y-62949501D01*
X39469748Y-62949500D01*
X37730252Y-62949500D01*
X37730251Y-62949500D01*
X37730241Y-62949501D01*
X37671772Y-62961132D01*
X37671766Y-62961134D01*
X37605451Y-63005445D01*
X37605445Y-63005451D01*
X37561134Y-63071766D01*
X37561132Y-63071772D01*
X37549501Y-63130241D01*
X37549500Y-63130253D01*
X37549500Y-64869746D01*
X33444776Y-64869746D01*
X33588004Y-64755525D01*
X33628081Y-64723565D01*
X33628087Y-64723559D01*
X33792823Y-64546015D01*
X33811635Y-64525741D01*
X33963651Y-64302775D01*
X34080738Y-64059641D01*
X34160280Y-63801772D01*
X34200500Y-63534929D01*
X34200500Y-63265071D01*
X34160280Y-62998228D01*
X34080738Y-62740359D01*
X33963651Y-62497226D01*
X33811635Y-62274259D01*
X33811629Y-62274252D01*
X33628087Y-62076440D01*
X33628081Y-62076434D01*
X33417110Y-61908191D01*
X33417108Y-61908189D01*
X33417102Y-61908185D01*
X33183398Y-61773257D01*
X33183395Y-61773256D01*
X33183391Y-61773254D01*
X32932197Y-61674666D01*
X32669107Y-61614618D01*
X32669098Y-61614616D01*
X32607513Y-61610001D01*
X37559692Y-61610001D01*
X37565191Y-61665833D01*
X37565190Y-61665833D01*
X37625232Y-61863762D01*
X37625234Y-61863767D01*
X37722724Y-62046160D01*
X37722731Y-62046170D01*
X37853940Y-62206050D01*
X37853949Y-62206059D01*
X38013829Y-62337268D01*
X38013839Y-62337275D01*
X38196232Y-62434765D01*
X38196237Y-62434767D01*
X38394166Y-62494808D01*
X38449998Y-62500307D01*
X38450000Y-62500306D01*
X38450000Y-61941170D01*
X38457685Y-61944680D01*
X38564237Y-61960000D01*
X38635763Y-61960000D01*
X38742315Y-61944680D01*
X38750000Y-61941170D01*
X38750000Y-62500306D01*
X38750001Y-62500307D01*
X38805833Y-62494808D01*
X39003762Y-62434767D01*
X39003767Y-62434765D01*
X39186160Y-62337275D01*
X39186170Y-62337268D01*
X39346050Y-62206059D01*
X39346059Y-62206050D01*
X39477268Y-62046170D01*
X39477275Y-62046160D01*
X39574765Y-61863767D01*
X39574767Y-61863762D01*
X39634808Y-61665833D01*
X39640307Y-61610001D01*
X39640306Y-61610000D01*
X39077065Y-61610000D01*
X39100000Y-61531889D01*
X39100000Y-61485001D01*
X41359692Y-61485001D01*
X41365191Y-61540833D01*
X41365190Y-61540833D01*
X41425232Y-61738762D01*
X41425234Y-61738767D01*
X41522724Y-61921160D01*
X41522731Y-61921170D01*
X41653940Y-62081050D01*
X41653949Y-62081059D01*
X41813829Y-62212268D01*
X41813839Y-62212275D01*
X41996232Y-62309765D01*
X41996237Y-62309767D01*
X42194166Y-62369808D01*
X42249998Y-62375307D01*
X42250000Y-62375306D01*
X42250000Y-61816170D01*
X42257685Y-61819680D01*
X42364237Y-61835000D01*
X42435763Y-61835000D01*
X42542315Y-61819680D01*
X42550000Y-61816170D01*
X42550000Y-62375306D01*
X42550001Y-62375307D01*
X42605833Y-62369808D01*
X42803762Y-62309767D01*
X42803767Y-62309765D01*
X42986160Y-62212275D01*
X42986170Y-62212268D01*
X43146050Y-62081059D01*
X43146059Y-62081050D01*
X43277268Y-61921170D01*
X43277275Y-61921160D01*
X43374765Y-61738767D01*
X43374767Y-61738762D01*
X43434808Y-61540833D01*
X43440307Y-61485001D01*
X43440306Y-61485000D01*
X42877065Y-61485000D01*
X42900000Y-61406889D01*
X42900000Y-61304203D01*
X44937501Y-61304203D01*
X44940350Y-61334600D01*
X44940350Y-61334602D01*
X44985154Y-61462647D01*
X45065707Y-61571790D01*
X45065709Y-61571792D01*
X45174852Y-61652345D01*
X45302898Y-61697149D01*
X45333289Y-61699999D01*
X45649998Y-61699999D01*
X45650000Y-61699998D01*
X45950000Y-61699998D01*
X45950001Y-61699999D01*
X46266703Y-61699999D01*
X46297100Y-61697149D01*
X46297102Y-61697149D01*
X46425147Y-61652345D01*
X46534290Y-61571792D01*
X46534292Y-61571790D01*
X46614845Y-61462647D01*
X46659649Y-61334601D01*
X46662499Y-61304211D01*
X46662500Y-61304210D01*
X46662500Y-60750001D01*
X46662499Y-60750000D01*
X45950001Y-60750000D01*
X45950000Y-60750001D01*
X45950000Y-61699998D01*
X45650000Y-61699998D01*
X45650000Y-60750001D01*
X45649999Y-60750000D01*
X44937502Y-60750000D01*
X44937501Y-60750001D01*
X44937501Y-61304203D01*
X42900000Y-61304203D01*
X42900000Y-61263111D01*
X42877065Y-61185000D01*
X43440306Y-61185000D01*
X43440307Y-61184998D01*
X43434808Y-61129166D01*
X43434809Y-61129166D01*
X43374767Y-60931237D01*
X43374765Y-60931232D01*
X43277275Y-60748839D01*
X43277268Y-60748829D01*
X43146059Y-60588949D01*
X43146050Y-60588940D01*
X42986170Y-60457731D01*
X42986160Y-60457724D01*
X42971707Y-60449999D01*
X44937500Y-60449999D01*
X44937501Y-60450000D01*
X45649999Y-60450000D01*
X45650000Y-60449999D01*
X45950000Y-60449999D01*
X45950001Y-60450000D01*
X46662498Y-60450000D01*
X46662499Y-60449999D01*
X46662499Y-59895796D01*
X46659649Y-59865399D01*
X46659649Y-59865397D01*
X46614845Y-59737352D01*
X46534292Y-59628209D01*
X46534290Y-59628207D01*
X46425147Y-59547654D01*
X46297101Y-59502850D01*
X46266711Y-59500000D01*
X45950001Y-59500000D01*
X45950000Y-59500001D01*
X45950000Y-60449999D01*
X45650000Y-60449999D01*
X45650000Y-59500001D01*
X45649999Y-59500000D01*
X45333296Y-59500000D01*
X45302899Y-59502850D01*
X45302897Y-59502850D01*
X45174852Y-59547654D01*
X45065709Y-59628207D01*
X45065707Y-59628209D01*
X44985154Y-59737352D01*
X44940350Y-59865398D01*
X44937500Y-59895788D01*
X44937500Y-60449999D01*
X42971707Y-60449999D01*
X42803767Y-60360234D01*
X42803762Y-60360232D01*
X42605843Y-60300194D01*
X42605832Y-60300191D01*
X42550000Y-60294692D01*
X42550000Y-60853829D01*
X42542315Y-60850320D01*
X42435763Y-60835000D01*
X42364237Y-60835000D01*
X42257685Y-60850320D01*
X42250000Y-60853829D01*
X42250000Y-60294692D01*
X42194167Y-60300191D01*
X42194156Y-60300194D01*
X41996237Y-60360232D01*
X41996232Y-60360234D01*
X41813839Y-60457724D01*
X41813829Y-60457731D01*
X41653949Y-60588940D01*
X41653940Y-60588949D01*
X41522731Y-60748829D01*
X41522724Y-60748839D01*
X41425234Y-60931232D01*
X41425232Y-60931237D01*
X41365191Y-61129166D01*
X41359692Y-61184998D01*
X41359694Y-61185000D01*
X41922935Y-61185000D01*
X41900000Y-61263111D01*
X41900000Y-61406889D01*
X41922935Y-61485000D01*
X41359694Y-61485000D01*
X41359692Y-61485001D01*
X39100000Y-61485001D01*
X39100000Y-61388111D01*
X39077065Y-61310000D01*
X39640306Y-61310000D01*
X39640307Y-61309998D01*
X39634808Y-61254166D01*
X39634809Y-61254166D01*
X39574767Y-61056237D01*
X39574765Y-61056232D01*
X39477275Y-60873839D01*
X39477268Y-60873829D01*
X39346059Y-60713949D01*
X39346050Y-60713940D01*
X39186170Y-60582731D01*
X39186160Y-60582724D01*
X39003767Y-60485234D01*
X39003762Y-60485232D01*
X38805843Y-60425194D01*
X38805832Y-60425191D01*
X38750000Y-60419692D01*
X38750000Y-60978829D01*
X38742315Y-60975320D01*
X38635763Y-60960000D01*
X38564237Y-60960000D01*
X38457685Y-60975320D01*
X38450000Y-60978829D01*
X38450000Y-60419692D01*
X38394167Y-60425191D01*
X38394156Y-60425194D01*
X38196237Y-60485232D01*
X38196232Y-60485234D01*
X38013839Y-60582724D01*
X38013829Y-60582731D01*
X37853949Y-60713940D01*
X37853940Y-60713949D01*
X37722731Y-60873829D01*
X37722724Y-60873839D01*
X37625234Y-61056232D01*
X37625232Y-61056237D01*
X37565191Y-61254166D01*
X37559692Y-61309998D01*
X37559694Y-61310000D01*
X38122935Y-61310000D01*
X38100000Y-61388111D01*
X38100000Y-61531889D01*
X38122935Y-61610000D01*
X37559694Y-61610000D01*
X37559692Y-61610001D01*
X32607513Y-61610001D01*
X32467382Y-61599500D01*
X32467376Y-61599500D01*
X32332624Y-61599500D01*
X32332618Y-61599500D01*
X32130901Y-61614616D01*
X32130892Y-61614618D01*
X31867802Y-61674666D01*
X31616608Y-61773254D01*
X31616599Y-61773258D01*
X31536194Y-61819680D01*
X31382898Y-61908185D01*
X31382894Y-61908187D01*
X31382894Y-61908188D01*
X31382889Y-61908191D01*
X31171918Y-62076434D01*
X31171912Y-62076440D01*
X30988370Y-62274252D01*
X30988365Y-62274258D01*
X30988365Y-62274259D01*
X30836349Y-62497225D01*
X30836349Y-62497226D01*
X30836345Y-62497232D01*
X30719262Y-62740356D01*
X30639721Y-62998223D01*
X30639719Y-62998233D01*
X30599500Y-63265067D01*
X30599500Y-63534932D01*
X29000500Y-63534932D01*
X29000500Y-52069700D01*
X29200000Y-52069700D01*
X29211603Y-52128036D01*
X29255806Y-52194189D01*
X29255810Y-52194193D01*
X29321963Y-52238396D01*
X29380299Y-52249999D01*
X29380303Y-52250000D01*
X30249999Y-52250000D01*
X30250000Y-52249999D01*
X30550000Y-52249999D01*
X30550001Y-52250000D01*
X31419697Y-52250000D01*
X31419700Y-52249999D01*
X31478036Y-52238396D01*
X31544189Y-52194193D01*
X31544193Y-52194189D01*
X31588396Y-52128036D01*
X31599999Y-52069700D01*
X31600000Y-52069697D01*
X31600000Y-52050001D01*
X31599999Y-52050000D01*
X30550001Y-52050000D01*
X30550000Y-52050001D01*
X30550000Y-52249999D01*
X30250000Y-52249999D01*
X30250000Y-52050001D01*
X30249999Y-52050000D01*
X29200001Y-52050000D01*
X29200000Y-52050001D01*
X29200000Y-52069700D01*
X29000500Y-52069700D01*
X29000500Y-51749999D01*
X29200000Y-51749999D01*
X29200001Y-51750000D01*
X30249999Y-51750000D01*
X30250000Y-51749999D01*
X30550000Y-51749999D01*
X30550001Y-51750000D01*
X31599999Y-51750000D01*
X31600000Y-51749999D01*
X31600000Y-51730302D01*
X31599999Y-51730299D01*
X31588396Y-51671963D01*
X31544193Y-51605810D01*
X31544189Y-51605806D01*
X31478036Y-51561603D01*
X31419700Y-51550000D01*
X30550001Y-51550000D01*
X30550000Y-51550001D01*
X30550000Y-51749999D01*
X30250000Y-51749999D01*
X30250000Y-51550001D01*
X30249999Y-51550000D01*
X29380299Y-51550000D01*
X29321963Y-51561603D01*
X29255810Y-51605806D01*
X29255806Y-51605810D01*
X29211603Y-51671963D01*
X29200000Y-51730299D01*
X29200000Y-51749999D01*
X29000500Y-51749999D01*
X29000500Y-50009746D01*
X29199500Y-50009746D01*
X29199501Y-50009758D01*
X29207853Y-50051743D01*
X29211133Y-50068231D01*
X29211134Y-50068232D01*
X29229319Y-50095448D01*
X29245927Y-50154336D01*
X29229320Y-50205449D01*
X29211603Y-50231964D01*
X29200000Y-50290299D01*
X29200000Y-50509700D01*
X29211603Y-50568036D01*
X29255806Y-50634189D01*
X29255810Y-50634193D01*
X29321963Y-50678396D01*
X29380299Y-50689999D01*
X29380303Y-50690000D01*
X31019697Y-50690000D01*
X31019700Y-50689999D01*
X31078036Y-50678396D01*
X31144189Y-50634193D01*
X31144193Y-50634189D01*
X31188396Y-50568036D01*
X31199999Y-50509700D01*
X31200000Y-50509697D01*
X31200000Y-50290302D01*
X31199999Y-50290299D01*
X31188396Y-50231964D01*
X31170680Y-50205450D01*
X31154072Y-50146562D01*
X31170682Y-50095446D01*
X31180008Y-50081489D01*
X31188867Y-50068231D01*
X31200500Y-50009748D01*
X31200500Y-49790252D01*
X31199404Y-49784744D01*
X31197711Y-49776231D01*
X31188867Y-49731769D01*
X31170981Y-49705001D01*
X31154372Y-49646115D01*
X31170982Y-49594997D01*
X31188867Y-49568231D01*
X31200500Y-49509748D01*
X31200500Y-49430165D01*
X31219407Y-49371974D01*
X31268907Y-49336010D01*
X31330093Y-49336010D01*
X31369504Y-49360161D01*
X32088654Y-50079312D01*
X32090704Y-50081489D01*
X32132065Y-50128177D01*
X32132067Y-50128179D01*
X32132071Y-50128183D01*
X32183445Y-50163644D01*
X32185832Y-50165402D01*
X32234940Y-50203876D01*
X32234942Y-50203876D01*
X32234944Y-50203878D01*
X32245449Y-50208606D01*
X32246247Y-50208965D01*
X32261856Y-50217768D01*
X32267967Y-50221986D01*
X32272070Y-50224818D01*
X32330421Y-50246947D01*
X32333145Y-50248075D01*
X32390069Y-50273695D01*
X32402279Y-50275932D01*
X32419529Y-50280741D01*
X32431128Y-50285140D01*
X32493070Y-50292660D01*
X32495985Y-50293104D01*
X32557394Y-50304358D01*
X32619693Y-50300589D01*
X32622659Y-50300500D01*
X34957628Y-50300500D01*
X35868835Y-50300500D01*
X35927026Y-50319407D01*
X35938839Y-50329496D01*
X36270504Y-50661161D01*
X36298281Y-50715678D01*
X36299500Y-50731165D01*
X36299500Y-51266774D01*
X36302353Y-51297194D01*
X36302355Y-51297203D01*
X36347207Y-51425383D01*
X36427845Y-51534644D01*
X36427847Y-51534646D01*
X36427850Y-51534650D01*
X36427853Y-51534652D01*
X36427855Y-51534654D01*
X36537116Y-51615292D01*
X36537117Y-51615292D01*
X36537118Y-51615293D01*
X36665301Y-51660146D01*
X36695725Y-51662999D01*
X36695727Y-51663000D01*
X36695734Y-51663000D01*
X38104273Y-51663000D01*
X38104273Y-51662999D01*
X38134699Y-51660146D01*
X38262882Y-51615293D01*
X38372150Y-51534650D01*
X38372155Y-51534642D01*
X38377303Y-51529496D01*
X38431820Y-51501719D01*
X38447307Y-51500500D01*
X38752693Y-51500500D01*
X38810884Y-51519407D01*
X38822697Y-51529496D01*
X38827847Y-51534646D01*
X38827850Y-51534650D01*
X38827853Y-51534652D01*
X38827855Y-51534654D01*
X38937116Y-51615292D01*
X38937117Y-51615292D01*
X38937118Y-51615293D01*
X39065301Y-51660146D01*
X39095725Y-51662999D01*
X39095727Y-51663000D01*
X39095734Y-51663000D01*
X40504273Y-51663000D01*
X40504273Y-51662999D01*
X40534699Y-51660146D01*
X40662882Y-51615293D01*
X40772150Y-51534650D01*
X40772155Y-51534642D01*
X40777303Y-51529496D01*
X40831820Y-51501719D01*
X40847307Y-51500500D01*
X40905500Y-51500500D01*
X40963691Y-51519407D01*
X40999655Y-51568907D01*
X41004500Y-51599500D01*
X41004500Y-52417748D01*
X40985593Y-52475939D01*
X40948980Y-52506689D01*
X40848518Y-52555801D01*
X40765801Y-52638518D01*
X40714427Y-52743604D01*
X40714427Y-52743607D01*
X40704500Y-52811740D01*
X40704500Y-53178260D01*
X40708514Y-53205810D01*
X40710437Y-53219006D01*
X40700117Y-53279314D01*
X40656319Y-53322039D01*
X40595773Y-53330861D01*
X40542469Y-53303284D01*
X40540487Y-53301302D01*
X40536786Y-53297160D01*
X40511961Y-53266030D01*
X40462810Y-53232519D01*
X40414964Y-53197207D01*
X40414961Y-53197205D01*
X40408404Y-53193740D01*
X40408608Y-53193352D01*
X40406626Y-53192352D01*
X40406437Y-53192746D01*
X40399755Y-53189528D01*
X40342904Y-53171992D01*
X40286782Y-53152354D01*
X40279496Y-53150976D01*
X40279577Y-53150544D01*
X40277384Y-53150171D01*
X40277319Y-53150605D01*
X40269985Y-53149500D01*
X40269984Y-53149500D01*
X40210509Y-53149500D01*
X40190696Y-53148758D01*
X40151072Y-53147276D01*
X40151071Y-53147276D01*
X40151070Y-53147276D01*
X40143697Y-53148107D01*
X40143647Y-53147668D01*
X40129738Y-53149500D01*
X39403087Y-53149500D01*
X39397541Y-53149189D01*
X39357965Y-53144730D01*
X39357961Y-53144730D01*
X39299519Y-53155788D01*
X39240714Y-53164650D01*
X39233628Y-53166837D01*
X39233498Y-53166418D01*
X39231381Y-53167115D01*
X39231526Y-53167529D01*
X39224529Y-53169976D01*
X39224528Y-53169977D01*
X39224526Y-53169977D01*
X39224526Y-53169978D01*
X39171936Y-53197773D01*
X39118357Y-53223575D01*
X39112229Y-53227754D01*
X39111982Y-53227392D01*
X39110169Y-53228678D01*
X39110430Y-53229031D01*
X39104459Y-53233437D01*
X39062413Y-53275483D01*
X39018804Y-53315945D01*
X39014181Y-53321743D01*
X39013838Y-53321469D01*
X39005293Y-53332602D01*
X38567394Y-53770503D01*
X38512877Y-53798281D01*
X38497390Y-53799500D01*
X37895725Y-53799500D01*
X37865305Y-53802353D01*
X37865296Y-53802355D01*
X37737116Y-53847207D01*
X37627855Y-53927845D01*
X37627845Y-53927855D01*
X37547208Y-54037114D01*
X37547207Y-54037118D01*
X37539830Y-54058198D01*
X37502767Y-54106878D01*
X37446387Y-54124500D01*
X37144865Y-54124500D01*
X37086674Y-54105593D01*
X37058381Y-54067551D01*
X37056258Y-54068674D01*
X37052792Y-54062116D01*
X36972154Y-53952855D01*
X36972152Y-53952853D01*
X36972150Y-53952850D01*
X36972146Y-53952847D01*
X36972144Y-53952845D01*
X36862883Y-53872207D01*
X36734703Y-53827355D01*
X36734694Y-53827353D01*
X36704274Y-53824500D01*
X36704266Y-53824500D01*
X35695734Y-53824500D01*
X35695725Y-53824500D01*
X35665305Y-53827353D01*
X35665296Y-53827355D01*
X35537116Y-53872207D01*
X35427855Y-53952845D01*
X35427845Y-53952855D01*
X35347207Y-54062116D01*
X35302355Y-54190296D01*
X35302353Y-54190305D01*
X35299500Y-54220725D01*
X35299500Y-54979274D01*
X35302353Y-55009694D01*
X35302355Y-55009703D01*
X35313937Y-55042802D01*
X35315310Y-55103972D01*
X35280466Y-55154267D01*
X35222715Y-55174475D01*
X35220493Y-55174500D01*
X35052612Y-55174500D01*
X34994421Y-55155593D01*
X34982608Y-55145504D01*
X34729496Y-54892392D01*
X34701719Y-54837875D01*
X34700500Y-54822388D01*
X34700500Y-54220727D01*
X34700499Y-54220725D01*
X34697646Y-54190305D01*
X34697646Y-54190301D01*
X34652793Y-54062118D01*
X34652790Y-54062114D01*
X34572154Y-53952855D01*
X34572152Y-53952853D01*
X34572150Y-53952850D01*
X34572146Y-53952847D01*
X34572144Y-53952845D01*
X34462883Y-53872207D01*
X34334703Y-53827355D01*
X34334694Y-53827353D01*
X34304274Y-53824500D01*
X34304266Y-53824500D01*
X33295734Y-53824500D01*
X33295725Y-53824500D01*
X33265305Y-53827353D01*
X33265296Y-53827355D01*
X33137116Y-53872207D01*
X33027855Y-53952845D01*
X33027845Y-53952855D01*
X32947208Y-54062114D01*
X32947207Y-54062118D01*
X32939830Y-54083198D01*
X32902767Y-54131878D01*
X32846387Y-54149500D01*
X32553613Y-54149500D01*
X32495422Y-54130593D01*
X32460169Y-54083199D01*
X32452793Y-54062118D01*
X32452791Y-54062116D01*
X32452791Y-54062114D01*
X32372154Y-53952855D01*
X32372152Y-53952853D01*
X32372150Y-53952850D01*
X32372146Y-53952847D01*
X32372144Y-53952845D01*
X32262883Y-53872207D01*
X32134703Y-53827355D01*
X32134694Y-53827353D01*
X32104274Y-53824500D01*
X32104266Y-53824500D01*
X31095734Y-53824500D01*
X31095725Y-53824500D01*
X31065305Y-53827353D01*
X31065296Y-53827355D01*
X30937116Y-53872207D01*
X30827855Y-53952845D01*
X30827845Y-53952855D01*
X30747207Y-54062116D01*
X30702355Y-54190296D01*
X30702353Y-54190305D01*
X30699500Y-54220725D01*
X30699500Y-54979274D01*
X30702353Y-55009694D01*
X30702355Y-55009703D01*
X30747207Y-55137883D01*
X30827845Y-55247144D01*
X30827847Y-55247146D01*
X30827850Y-55247150D01*
X30827853Y-55247152D01*
X30827855Y-55247154D01*
X30937116Y-55327792D01*
X30937117Y-55327792D01*
X30937118Y-55327793D01*
X31065301Y-55372646D01*
X31095725Y-55375499D01*
X31095727Y-55375500D01*
X31095734Y-55375500D01*
X32104273Y-55375500D01*
X32104273Y-55375499D01*
X32134699Y-55372646D01*
X32262882Y-55327793D01*
X32372150Y-55247150D01*
X32439722Y-55155593D01*
X32452791Y-55137885D01*
X32452792Y-55137883D01*
X32452793Y-55137882D01*
X32460169Y-55116801D01*
X32497233Y-55068122D01*
X32553613Y-55050500D01*
X32846387Y-55050500D01*
X32904578Y-55069407D01*
X32939830Y-55116800D01*
X32946772Y-55136640D01*
X32947208Y-55137885D01*
X33027845Y-55247144D01*
X33027847Y-55247146D01*
X33027850Y-55247150D01*
X33027853Y-55247152D01*
X33027855Y-55247154D01*
X33137116Y-55327792D01*
X33137117Y-55327792D01*
X33137118Y-55327793D01*
X33265301Y-55372646D01*
X33295725Y-55375499D01*
X33295727Y-55375500D01*
X33295734Y-55375500D01*
X33897388Y-55375500D01*
X33955579Y-55394407D01*
X33967391Y-55404496D01*
X34268392Y-55705496D01*
X34296170Y-55760013D01*
X34286599Y-55820445D01*
X34243334Y-55863710D01*
X34198389Y-55874500D01*
X33295725Y-55874500D01*
X33265305Y-55877353D01*
X33265296Y-55877355D01*
X33137116Y-55922207D01*
X33027855Y-56002845D01*
X33027845Y-56002855D01*
X32947208Y-56112114D01*
X32947207Y-56112118D01*
X32939830Y-56133198D01*
X32902767Y-56181878D01*
X32846387Y-56199500D01*
X32553613Y-56199500D01*
X32495422Y-56180593D01*
X32460169Y-56133199D01*
X32452793Y-56112118D01*
X32452791Y-56112116D01*
X32452791Y-56112114D01*
X32372154Y-56002855D01*
X32372152Y-56002853D01*
X32372150Y-56002850D01*
X32372146Y-56002847D01*
X32372144Y-56002845D01*
X32262883Y-55922207D01*
X32134703Y-55877355D01*
X32134694Y-55877353D01*
X32104274Y-55874500D01*
X32104266Y-55874500D01*
X31095734Y-55874500D01*
X31095725Y-55874500D01*
X31065305Y-55877353D01*
X31065296Y-55877355D01*
X30937116Y-55922207D01*
X30827855Y-56002845D01*
X30827845Y-56002855D01*
X30747207Y-56112116D01*
X30702355Y-56240296D01*
X30702353Y-56240305D01*
X30699500Y-56270725D01*
X30699500Y-57029274D01*
X30702353Y-57059694D01*
X30702355Y-57059703D01*
X30747207Y-57187883D01*
X30827845Y-57297144D01*
X30827847Y-57297146D01*
X30827850Y-57297150D01*
X30827853Y-57297152D01*
X30827855Y-57297154D01*
X30937116Y-57377792D01*
X30937117Y-57377792D01*
X30937118Y-57377793D01*
X31065301Y-57422646D01*
X31095725Y-57425499D01*
X31095727Y-57425500D01*
X31095734Y-57425500D01*
X32104273Y-57425500D01*
X32104273Y-57425499D01*
X32134699Y-57422646D01*
X32262882Y-57377793D01*
X32372150Y-57297150D01*
X32434258Y-57212996D01*
X32452791Y-57187885D01*
X32452792Y-57187883D01*
X32452793Y-57187882D01*
X32460169Y-57166801D01*
X32497233Y-57118122D01*
X32553613Y-57100500D01*
X32846387Y-57100500D01*
X32904578Y-57119407D01*
X32939830Y-57166800D01*
X32946772Y-57186640D01*
X32947208Y-57187885D01*
X33027845Y-57297144D01*
X33027847Y-57297146D01*
X33027850Y-57297150D01*
X33027853Y-57297152D01*
X33027855Y-57297154D01*
X33137116Y-57377792D01*
X33137117Y-57377792D01*
X33137118Y-57377793D01*
X33265301Y-57422646D01*
X33295725Y-57425499D01*
X33295727Y-57425500D01*
X33295734Y-57425500D01*
X34304273Y-57425500D01*
X34304273Y-57425499D01*
X34334699Y-57422646D01*
X34462882Y-57377793D01*
X34572150Y-57297150D01*
X34634258Y-57212996D01*
X34652791Y-57187885D01*
X34652792Y-57187883D01*
X34652793Y-57187882D01*
X34660169Y-57166801D01*
X34697233Y-57118122D01*
X34753613Y-57100500D01*
X35246387Y-57100500D01*
X35304578Y-57119407D01*
X35339830Y-57166800D01*
X35346772Y-57186640D01*
X35347208Y-57187885D01*
X35427845Y-57297144D01*
X35427847Y-57297146D01*
X35427850Y-57297150D01*
X35427853Y-57297152D01*
X35427855Y-57297154D01*
X35537116Y-57377792D01*
X35537117Y-57377792D01*
X35537118Y-57377793D01*
X35665301Y-57422646D01*
X35695725Y-57425499D01*
X35695727Y-57425500D01*
X35695734Y-57425500D01*
X36704273Y-57425500D01*
X36704273Y-57425499D01*
X36734699Y-57422646D01*
X36862882Y-57377793D01*
X36972150Y-57297150D01*
X37034258Y-57212996D01*
X37052791Y-57187885D01*
X37052792Y-57187883D01*
X37052793Y-57187882D01*
X37068917Y-57141801D01*
X37105982Y-57093122D01*
X37162361Y-57075500D01*
X37446387Y-57075500D01*
X37504578Y-57094407D01*
X37539830Y-57141800D01*
X37546717Y-57161481D01*
X37547208Y-57162885D01*
X37627845Y-57272144D01*
X37627847Y-57272146D01*
X37627850Y-57272150D01*
X37627853Y-57272152D01*
X37627855Y-57272154D01*
X37737116Y-57352792D01*
X37737117Y-57352792D01*
X37737118Y-57352793D01*
X37865301Y-57397646D01*
X37895725Y-57400499D01*
X37895727Y-57400500D01*
X37895734Y-57400500D01*
X38904273Y-57400500D01*
X38904273Y-57400499D01*
X38934699Y-57397646D01*
X39062882Y-57352793D01*
X39168500Y-57274844D01*
X39226548Y-57255503D01*
X39227288Y-57255500D01*
X40848732Y-57255500D01*
X40892212Y-57265559D01*
X40953607Y-57295573D01*
X41021740Y-57305500D01*
X41021743Y-57305500D01*
X42388257Y-57305500D01*
X42388260Y-57305500D01*
X42456393Y-57295573D01*
X42561483Y-57244198D01*
X42644198Y-57161483D01*
X42695573Y-57056393D01*
X42705500Y-56988260D01*
X46004500Y-56988260D01*
X46010475Y-57029266D01*
X46014427Y-57056395D01*
X46035989Y-57100500D01*
X46065802Y-57161483D01*
X46148517Y-57244198D01*
X46171636Y-57255500D01*
X46253604Y-57295572D01*
X46253605Y-57295572D01*
X46253607Y-57295573D01*
X46321740Y-57305500D01*
X46827389Y-57305500D01*
X46885580Y-57324407D01*
X46897392Y-57334496D01*
X46945503Y-57382606D01*
X46973281Y-57437122D01*
X46974500Y-57452610D01*
X46974500Y-62916127D01*
X46955593Y-62974318D01*
X46934288Y-62995782D01*
X46861794Y-63049284D01*
X46861785Y-63049293D01*
X46783384Y-63155523D01*
X46739776Y-63280147D01*
X46739774Y-63280155D01*
X46737000Y-63309733D01*
X46737000Y-63890266D01*
X46739774Y-63919844D01*
X46739776Y-63919852D01*
X46783384Y-64044476D01*
X46861785Y-64150706D01*
X46861789Y-64150711D01*
X46934289Y-64204218D01*
X46969881Y-64253984D01*
X46974500Y-64283872D01*
X46974500Y-64516127D01*
X46955593Y-64574318D01*
X46934288Y-64595782D01*
X46861794Y-64649284D01*
X46861785Y-64649293D01*
X46783384Y-64755523D01*
X46739776Y-64880147D01*
X46739774Y-64880155D01*
X46737000Y-64909733D01*
X46737000Y-65490266D01*
X46739774Y-65519844D01*
X46739776Y-65519852D01*
X46783384Y-65644476D01*
X46861785Y-65750706D01*
X46861789Y-65750711D01*
X46861792Y-65750713D01*
X46861793Y-65750714D01*
X46968023Y-65829115D01*
X46968024Y-65829115D01*
X46968025Y-65829116D01*
X47092651Y-65872725D01*
X47119941Y-65875284D01*
X47122233Y-65875499D01*
X47122238Y-65875500D01*
X47122244Y-65875500D01*
X47727762Y-65875500D01*
X47727765Y-65875499D01*
X47757349Y-65872725D01*
X47881975Y-65829116D01*
X47988211Y-65750711D01*
X48066616Y-65644475D01*
X48110225Y-65519849D01*
X48113000Y-65490256D01*
X48113000Y-64909744D01*
X48113000Y-64909738D01*
X48112999Y-64909733D01*
X48110225Y-64880155D01*
X48110225Y-64880151D01*
X48066616Y-64755525D01*
X48059623Y-64746050D01*
X47988214Y-64649293D01*
X47988213Y-64649292D01*
X47988211Y-64649289D01*
X47988206Y-64649285D01*
X47988205Y-64649284D01*
X47915712Y-64595782D01*
X47880119Y-64546015D01*
X47875500Y-64516127D01*
X47875500Y-64283872D01*
X47894407Y-64225681D01*
X47915707Y-64204220D01*
X47988211Y-64150711D01*
X48066616Y-64044475D01*
X48110225Y-63919849D01*
X48113000Y-63890256D01*
X48113000Y-63309744D01*
X48113000Y-63309738D01*
X48112999Y-63309733D01*
X48110225Y-63280155D01*
X48110225Y-63280151D01*
X48066616Y-63155525D01*
X47988211Y-63049289D01*
X47988206Y-63049285D01*
X47988205Y-63049284D01*
X47915712Y-62995782D01*
X47880119Y-62946015D01*
X47875500Y-62916127D01*
X47875500Y-61376228D01*
X47894407Y-61318037D01*
X47943907Y-61282073D01*
X48005093Y-61282073D01*
X48054593Y-61318037D01*
X48067944Y-61343530D01*
X48109707Y-61462883D01*
X48190345Y-61572144D01*
X48190347Y-61572146D01*
X48190350Y-61572150D01*
X48190353Y-61572152D01*
X48190355Y-61572154D01*
X48299616Y-61652792D01*
X48299617Y-61652792D01*
X48299618Y-61652793D01*
X48427801Y-61697646D01*
X48458225Y-61700499D01*
X48458227Y-61700500D01*
X48458234Y-61700500D01*
X49391773Y-61700500D01*
X49391773Y-61700499D01*
X49422199Y-61697646D01*
X49550382Y-61652793D01*
X49659650Y-61572150D01*
X49740293Y-61462882D01*
X49785146Y-61334699D01*
X49787999Y-61304273D01*
X49788000Y-61304273D01*
X49788000Y-59895727D01*
X49787999Y-59895725D01*
X49785146Y-59865305D01*
X49785146Y-59865301D01*
X49740293Y-59737118D01*
X49659913Y-59628207D01*
X49659654Y-59627855D01*
X49659652Y-59627853D01*
X49659650Y-59627850D01*
X49659646Y-59627847D01*
X49659644Y-59627845D01*
X49550383Y-59547207D01*
X49422203Y-59502355D01*
X49422194Y-59502353D01*
X49390254Y-59499357D01*
X49334083Y-59475098D01*
X49302900Y-59422455D01*
X49300500Y-59400790D01*
X49300500Y-58074507D01*
X49319407Y-58016316D01*
X49368907Y-57980352D01*
X49430093Y-57980352D01*
X49458285Y-57994850D01*
X49508190Y-58031681D01*
X49555523Y-58066615D01*
X49555524Y-58066615D01*
X49555525Y-58066616D01*
X49625705Y-58091173D01*
X49672763Y-58107640D01*
X49702090Y-58124854D01*
X49702141Y-58124781D01*
X49703140Y-58125470D01*
X49705715Y-58126982D01*
X49707073Y-58128185D01*
X49728667Y-58143090D01*
X49758437Y-58163638D01*
X49760812Y-58165386D01*
X49809943Y-58203877D01*
X49821248Y-58208964D01*
X49836856Y-58217767D01*
X49847070Y-58224818D01*
X49905429Y-58246950D01*
X49908153Y-58248078D01*
X49965068Y-58273694D01*
X49977275Y-58275930D01*
X49994528Y-58280740D01*
X50006128Y-58285140D01*
X50068100Y-58292664D01*
X50070986Y-58293103D01*
X50132394Y-58304357D01*
X50194683Y-58300589D01*
X50197648Y-58300500D01*
X50320102Y-58300500D01*
X50378293Y-58319407D01*
X50414257Y-58368907D01*
X50414257Y-58430093D01*
X50412668Y-58434607D01*
X50390563Y-58492891D01*
X50389419Y-58495652D01*
X50363805Y-58552566D01*
X50363802Y-58552574D01*
X50361565Y-58564782D01*
X50356758Y-58582027D01*
X50352360Y-58593625D01*
X50344841Y-58655545D01*
X50344391Y-58658499D01*
X50333141Y-58719895D01*
X50335358Y-58756526D01*
X50336910Y-58782192D01*
X50337000Y-58785158D01*
X50337000Y-59552693D01*
X50318093Y-59610884D01*
X50308004Y-59622697D01*
X50302845Y-59627855D01*
X50222207Y-59737116D01*
X50177355Y-59865296D01*
X50177353Y-59865305D01*
X50174500Y-59895725D01*
X50174500Y-61304274D01*
X50177353Y-61334694D01*
X50177355Y-61334703D01*
X50222207Y-61462883D01*
X50302847Y-61572148D01*
X50308000Y-61577300D01*
X50335780Y-61631815D01*
X50337000Y-61647307D01*
X50337000Y-62850500D01*
X50318093Y-62908691D01*
X50268593Y-62944655D01*
X50238000Y-62949500D01*
X49930252Y-62949500D01*
X49930251Y-62949500D01*
X49930241Y-62949501D01*
X49871772Y-62961132D01*
X49871766Y-62961134D01*
X49805451Y-63005445D01*
X49805445Y-63005451D01*
X49761134Y-63071766D01*
X49761132Y-63071772D01*
X49749501Y-63130241D01*
X49749500Y-63130253D01*
X49749500Y-64869746D01*
X49749501Y-64869758D01*
X49761132Y-64928227D01*
X49761134Y-64928233D01*
X49792228Y-64974767D01*
X49805448Y-64994552D01*
X49871769Y-65038867D01*
X49916231Y-65047711D01*
X49930241Y-65050498D01*
X49930246Y-65050498D01*
X49930252Y-65050500D01*
X49930253Y-65050500D01*
X51669747Y-65050500D01*
X51669748Y-65050500D01*
X51728231Y-65038867D01*
X51794552Y-64994552D01*
X51838867Y-64928231D01*
X51850500Y-64869748D01*
X51850500Y-64150001D01*
X52299692Y-64150001D01*
X52305191Y-64205833D01*
X52305190Y-64205833D01*
X52365232Y-64403762D01*
X52365234Y-64403767D01*
X52462724Y-64586160D01*
X52462731Y-64586170D01*
X52593940Y-64746050D01*
X52593949Y-64746059D01*
X52753829Y-64877268D01*
X52753839Y-64877275D01*
X52936232Y-64974765D01*
X52936237Y-64974767D01*
X53134166Y-65034808D01*
X53189998Y-65040307D01*
X53190000Y-65040306D01*
X53190000Y-64481170D01*
X53197685Y-64484680D01*
X53304237Y-64500000D01*
X53375763Y-64500000D01*
X53482315Y-64484680D01*
X53490000Y-64481170D01*
X53490000Y-65040306D01*
X53490001Y-65040307D01*
X53545833Y-65034808D01*
X53743762Y-64974767D01*
X53743767Y-64974765D01*
X53926160Y-64877275D01*
X53926170Y-64877268D01*
X54086050Y-64746059D01*
X54086059Y-64746050D01*
X54217268Y-64586170D01*
X54217275Y-64586160D01*
X54314765Y-64403767D01*
X54314767Y-64403762D01*
X54374808Y-64205833D01*
X54380307Y-64150001D01*
X54380306Y-64150000D01*
X53817065Y-64150000D01*
X53840000Y-64071889D01*
X53840000Y-63928111D01*
X53817065Y-63850000D01*
X54380306Y-63850000D01*
X54380307Y-63849998D01*
X54374808Y-63794166D01*
X54374809Y-63794166D01*
X54314767Y-63596237D01*
X54314765Y-63596232D01*
X54282000Y-63534932D01*
X73799500Y-63534932D01*
X73839719Y-63801766D01*
X73839721Y-63801776D01*
X73919262Y-64059641D01*
X74000876Y-64229115D01*
X74036349Y-64302774D01*
X74188365Y-64525741D01*
X74188368Y-64525744D01*
X74188370Y-64525747D01*
X74371912Y-64723559D01*
X74371918Y-64723565D01*
X74564665Y-64877275D01*
X74582898Y-64891815D01*
X74816602Y-65026743D01*
X75067805Y-65125334D01*
X75330897Y-65185383D01*
X75411587Y-65191429D01*
X75532618Y-65200500D01*
X75532624Y-65200500D01*
X75667382Y-65200500D01*
X75777408Y-65192254D01*
X75869103Y-65185383D01*
X76132195Y-65125334D01*
X76383398Y-65026743D01*
X76617102Y-64891815D01*
X76788004Y-64755525D01*
X76828081Y-64723565D01*
X76828087Y-64723559D01*
X76992823Y-64546015D01*
X77011635Y-64525741D01*
X77163651Y-64302775D01*
X77280738Y-64059641D01*
X77360280Y-63801772D01*
X77400500Y-63534929D01*
X77400500Y-63265071D01*
X77360280Y-62998228D01*
X77280738Y-62740359D01*
X77163651Y-62497226D01*
X77011635Y-62274259D01*
X77011629Y-62274252D01*
X76828087Y-62076440D01*
X76828081Y-62076434D01*
X76617110Y-61908191D01*
X76617108Y-61908189D01*
X76617102Y-61908185D01*
X76383398Y-61773257D01*
X76383395Y-61773256D01*
X76383391Y-61773254D01*
X76132197Y-61674666D01*
X75869107Y-61614618D01*
X75869098Y-61614616D01*
X75667382Y-61599500D01*
X75667376Y-61599500D01*
X75532624Y-61599500D01*
X75532618Y-61599500D01*
X75330901Y-61614616D01*
X75330892Y-61614618D01*
X75067802Y-61674666D01*
X74816608Y-61773254D01*
X74816599Y-61773258D01*
X74736194Y-61819680D01*
X74582898Y-61908185D01*
X74582894Y-61908187D01*
X74582894Y-61908188D01*
X74582889Y-61908191D01*
X74371918Y-62076434D01*
X74371912Y-62076440D01*
X74188370Y-62274252D01*
X74188365Y-62274258D01*
X74188365Y-62274259D01*
X74036349Y-62497225D01*
X74036349Y-62497226D01*
X74036345Y-62497232D01*
X73919262Y-62740356D01*
X73839721Y-62998223D01*
X73839719Y-62998233D01*
X73799500Y-63265067D01*
X73799500Y-63534932D01*
X54282000Y-63534932D01*
X54217275Y-63413839D01*
X54217268Y-63413829D01*
X54086059Y-63253949D01*
X54086050Y-63253940D01*
X53926170Y-63122731D01*
X53926160Y-63122724D01*
X53743767Y-63025234D01*
X53743762Y-63025232D01*
X53545843Y-62965194D01*
X53545832Y-62965191D01*
X53490000Y-62959692D01*
X53490000Y-63518829D01*
X53482315Y-63515320D01*
X53375763Y-63500000D01*
X53304237Y-63500000D01*
X53197685Y-63515320D01*
X53190000Y-63518829D01*
X53190000Y-62959692D01*
X53134167Y-62965191D01*
X53134156Y-62965194D01*
X52936237Y-63025232D01*
X52936232Y-63025234D01*
X52753839Y-63122724D01*
X52753829Y-63122731D01*
X52593949Y-63253940D01*
X52593940Y-63253949D01*
X52462731Y-63413829D01*
X52462724Y-63413839D01*
X52365234Y-63596232D01*
X52365232Y-63596237D01*
X52305191Y-63794166D01*
X52299692Y-63849998D01*
X52299694Y-63850000D01*
X52862935Y-63850000D01*
X52840000Y-63928111D01*
X52840000Y-64071889D01*
X52862935Y-64150000D01*
X52299694Y-64150000D01*
X52299692Y-64150001D01*
X51850500Y-64150001D01*
X51850500Y-63130252D01*
X51838867Y-63071769D01*
X51794552Y-63005448D01*
X51781996Y-62997058D01*
X51744118Y-62949007D01*
X51738000Y-62914744D01*
X51738000Y-61647307D01*
X51756907Y-61589116D01*
X51767000Y-61577300D01*
X51772152Y-61572148D01*
X51825912Y-61499304D01*
X51852793Y-61462882D01*
X51897646Y-61334699D01*
X51900499Y-61304273D01*
X51900500Y-61304273D01*
X51900500Y-61304203D01*
X53300001Y-61304203D01*
X53302850Y-61334600D01*
X53302850Y-61334602D01*
X53347654Y-61462647D01*
X53428207Y-61571790D01*
X53428209Y-61571792D01*
X53537352Y-61652345D01*
X53665398Y-61697149D01*
X53695789Y-61699999D01*
X54012498Y-61699999D01*
X54012500Y-61699998D01*
X54312500Y-61699998D01*
X54312501Y-61699999D01*
X54629203Y-61699999D01*
X54659600Y-61697149D01*
X54659602Y-61697149D01*
X54787647Y-61652345D01*
X54896790Y-61571792D01*
X54896792Y-61571790D01*
X54977345Y-61462647D01*
X55022149Y-61334601D01*
X55024999Y-61304211D01*
X55025000Y-61304210D01*
X55025000Y-60750001D01*
X55024999Y-60750000D01*
X54312501Y-60750000D01*
X54312500Y-60750001D01*
X54312500Y-61699998D01*
X54012500Y-61699998D01*
X54012500Y-60750001D01*
X54012499Y-60750000D01*
X53300002Y-60750000D01*
X53300001Y-60750001D01*
X53300001Y-61304203D01*
X51900500Y-61304203D01*
X51900500Y-60449999D01*
X53300000Y-60449999D01*
X53300001Y-60450000D01*
X54012499Y-60450000D01*
X54012500Y-60449999D01*
X54312500Y-60449999D01*
X54312501Y-60450000D01*
X55024998Y-60450000D01*
X55024999Y-60449999D01*
X55024999Y-59895796D01*
X55022149Y-59865399D01*
X55022149Y-59865397D01*
X54977345Y-59737352D01*
X54896792Y-59628209D01*
X54896790Y-59628207D01*
X54787647Y-59547654D01*
X54659601Y-59502850D01*
X54629211Y-59500000D01*
X54312501Y-59500000D01*
X54312500Y-59500001D01*
X54312500Y-60449999D01*
X54012500Y-60449999D01*
X54012500Y-59500001D01*
X54012499Y-59500000D01*
X53695796Y-59500000D01*
X53665399Y-59502850D01*
X53665397Y-59502850D01*
X53537352Y-59547654D01*
X53428209Y-59628207D01*
X53428207Y-59628209D01*
X53347654Y-59737352D01*
X53302850Y-59865398D01*
X53300000Y-59895788D01*
X53300000Y-60449999D01*
X51900500Y-60449999D01*
X51900500Y-59895727D01*
X51900499Y-59895725D01*
X51897646Y-59865305D01*
X51897646Y-59865301D01*
X51852793Y-59737118D01*
X51772413Y-59628207D01*
X51772154Y-59627855D01*
X51772152Y-59627853D01*
X51772150Y-59627850D01*
X51772146Y-59627847D01*
X51766996Y-59622697D01*
X51739219Y-59568180D01*
X51738000Y-59552693D01*
X51738000Y-59093665D01*
X51756907Y-59035474D01*
X51766996Y-59023661D01*
X52315996Y-58474661D01*
X52370513Y-58446884D01*
X52430945Y-58456455D01*
X52474210Y-58499720D01*
X52485000Y-58544665D01*
X52485000Y-58826246D01*
X52485001Y-58826258D01*
X52496632Y-58884727D01*
X52496633Y-58884731D01*
X52540948Y-58951052D01*
X52607269Y-58995367D01*
X52651731Y-59004211D01*
X52665741Y-59006998D01*
X52665746Y-59006998D01*
X52665752Y-59007000D01*
X52665753Y-59007000D01*
X56134247Y-59007000D01*
X56134248Y-59007000D01*
X56192731Y-58995367D01*
X56259052Y-58951052D01*
X56303367Y-58884731D01*
X56315000Y-58826248D01*
X56315000Y-56373752D01*
X56313418Y-56365801D01*
X56312211Y-56359731D01*
X56303367Y-56315269D01*
X56259052Y-56248948D01*
X56254229Y-56245725D01*
X56192733Y-56204634D01*
X56192731Y-56204633D01*
X56192728Y-56204632D01*
X56192727Y-56204632D01*
X56134258Y-56193001D01*
X56134248Y-56193000D01*
X52665752Y-56193000D01*
X52665751Y-56193000D01*
X52665741Y-56193001D01*
X52607272Y-56204632D01*
X52607266Y-56204634D01*
X52540951Y-56248945D01*
X52540945Y-56248951D01*
X52496634Y-56315266D01*
X52496632Y-56315272D01*
X52485001Y-56373741D01*
X52485000Y-56373753D01*
X52485000Y-56800500D01*
X52466093Y-56858691D01*
X52416593Y-56894655D01*
X52386000Y-56899500D01*
X52222648Y-56899500D01*
X52219683Y-56899410D01*
X52194240Y-56897871D01*
X52157395Y-56895642D01*
X52149001Y-56897180D01*
X52145195Y-56897878D01*
X52127352Y-56899500D01*
X50628521Y-56899500D01*
X50570330Y-56880593D01*
X50556316Y-56866682D01*
X50555961Y-56867038D01*
X50550711Y-56861789D01*
X50444476Y-56783384D01*
X50319852Y-56739776D01*
X50319851Y-56739775D01*
X50319849Y-56739775D01*
X50319847Y-56739774D01*
X50319844Y-56739774D01*
X50290266Y-56737000D01*
X50290256Y-56737000D01*
X50140865Y-56737000D01*
X50123020Y-56735378D01*
X50042605Y-56720641D01*
X49872807Y-56730913D01*
X49872802Y-56730914D01*
X49867655Y-56732518D01*
X49838205Y-56737000D01*
X49709733Y-56737000D01*
X49680155Y-56739774D01*
X49680147Y-56739776D01*
X49555523Y-56783384D01*
X49458288Y-56855147D01*
X49400240Y-56874489D01*
X49341910Y-56856018D01*
X49305577Y-56806788D01*
X49300500Y-56775492D01*
X49300500Y-56249507D01*
X49319407Y-56191316D01*
X49368907Y-56155352D01*
X49430093Y-56155352D01*
X49458285Y-56169850D01*
X49498459Y-56199500D01*
X49555523Y-56241615D01*
X49555524Y-56241615D01*
X49555525Y-56241616D01*
X49680151Y-56285225D01*
X49707441Y-56287784D01*
X49709733Y-56287999D01*
X49709738Y-56288000D01*
X49709744Y-56288000D01*
X50290262Y-56288000D01*
X50290265Y-56287999D01*
X50319849Y-56285225D01*
X50444475Y-56241616D01*
X50550711Y-56163211D01*
X50629116Y-56056975D01*
X50672725Y-55932349D01*
X50675500Y-55902756D01*
X50675500Y-55297244D01*
X50675500Y-55297238D01*
X50675499Y-55297233D01*
X50672725Y-55267655D01*
X50672725Y-55267651D01*
X50629116Y-55143025D01*
X50625321Y-55137883D01*
X50550714Y-55036793D01*
X50550713Y-55036792D01*
X50550711Y-55036789D01*
X50550706Y-55036785D01*
X50444476Y-54958384D01*
X50319852Y-54914776D01*
X50319851Y-54914775D01*
X50319849Y-54914775D01*
X50319847Y-54914774D01*
X50319844Y-54914774D01*
X50290266Y-54912000D01*
X50290256Y-54912000D01*
X49709744Y-54912000D01*
X49709733Y-54912000D01*
X49680155Y-54914774D01*
X49680147Y-54914776D01*
X49555523Y-54958384D01*
X49449293Y-55036785D01*
X49449289Y-55036789D01*
X49432683Y-55059289D01*
X49382917Y-55094881D01*
X49353029Y-55099500D01*
X48087432Y-55099500D01*
X48052833Y-55093257D01*
X48047331Y-55091204D01*
X48047330Y-55091204D01*
X48026814Y-55083552D01*
X47998313Y-55072921D01*
X47995049Y-55071569D01*
X47947460Y-55049836D01*
X47947453Y-55049834D01*
X47940013Y-55048764D01*
X47919519Y-55043533D01*
X47912481Y-55040908D01*
X47912482Y-55040908D01*
X47860300Y-55037176D01*
X47856787Y-55036798D01*
X47840799Y-55034500D01*
X47840798Y-55034500D01*
X47824651Y-55034500D01*
X47821118Y-55034374D01*
X47791239Y-55032237D01*
X47768926Y-55030641D01*
X47768925Y-55030641D01*
X47768924Y-55030641D01*
X47761589Y-55032237D01*
X47740543Y-55034500D01*
X47688260Y-55034500D01*
X46321740Y-55034500D01*
X46287673Y-55039463D01*
X46253604Y-55044427D01*
X46148518Y-55095801D01*
X46065801Y-55178518D01*
X46014427Y-55283604D01*
X46012441Y-55297238D01*
X46004500Y-55351740D01*
X46004500Y-55718260D01*
X46010583Y-55760013D01*
X46014427Y-55786395D01*
X46058894Y-55877353D01*
X46065802Y-55891483D01*
X46148517Y-55974198D01*
X46185914Y-55992480D01*
X46253604Y-56025572D01*
X46253605Y-56025572D01*
X46253607Y-56025573D01*
X46321740Y-56035500D01*
X46969201Y-56035500D01*
X47587563Y-56035500D01*
X47622158Y-56041741D01*
X47627668Y-56043796D01*
X47676696Y-56062081D01*
X47679950Y-56063430D01*
X47727542Y-56085165D01*
X47734977Y-56086233D01*
X47755483Y-56091468D01*
X47762516Y-56094091D01*
X47814728Y-56097825D01*
X47818195Y-56098198D01*
X47834200Y-56100500D01*
X47850347Y-56100500D01*
X47853880Y-56100626D01*
X47858870Y-56100982D01*
X47906072Y-56104359D01*
X47912469Y-56102967D01*
X47913409Y-56102763D01*
X47934455Y-56100500D01*
X48200500Y-56100500D01*
X48258691Y-56119407D01*
X48294655Y-56168907D01*
X48299500Y-56199500D01*
X48299500Y-59497316D01*
X48280593Y-59555507D01*
X48259288Y-59576971D01*
X48190355Y-59627845D01*
X48190345Y-59627855D01*
X48109707Y-59737116D01*
X48067944Y-59856469D01*
X48030879Y-59905149D01*
X47972279Y-59922746D01*
X47914527Y-59902538D01*
X47879683Y-59852243D01*
X47875500Y-59823771D01*
X47875500Y-57271187D01*
X47894407Y-57212996D01*
X47904497Y-57201183D01*
X47944198Y-57161483D01*
X47995573Y-57056393D01*
X48005500Y-56988260D01*
X48005500Y-56621740D01*
X47995573Y-56553607D01*
X47944198Y-56448517D01*
X47861483Y-56365802D01*
X47861481Y-56365801D01*
X47756395Y-56314427D01*
X47729139Y-56310456D01*
X47688260Y-56304500D01*
X46321740Y-56304500D01*
X46287673Y-56309463D01*
X46253604Y-56314427D01*
X46148518Y-56365801D01*
X46065801Y-56448518D01*
X46014427Y-56553604D01*
X46014427Y-56553607D01*
X46004500Y-56621740D01*
X46004500Y-56988260D01*
X42705500Y-56988260D01*
X42705500Y-56621740D01*
X42695573Y-56553607D01*
X42644198Y-56448517D01*
X42561483Y-56365802D01*
X42561481Y-56365801D01*
X42456395Y-56314427D01*
X42429139Y-56310456D01*
X42388260Y-56304500D01*
X41021740Y-56304500D01*
X40953607Y-56314427D01*
X40892212Y-56344441D01*
X40848732Y-56354500D01*
X39399500Y-56354500D01*
X39341309Y-56335593D01*
X39305345Y-56286093D01*
X39300500Y-56255500D01*
X39300500Y-56245727D01*
X39300499Y-56245725D01*
X39297646Y-56215305D01*
X39297646Y-56215301D01*
X39292292Y-56200000D01*
X42945373Y-56200000D01*
X42948992Y-56225168D01*
X42950000Y-56239259D01*
X42950000Y-56469700D01*
X42961603Y-56528036D01*
X43005806Y-56594189D01*
X43005810Y-56594193D01*
X43071963Y-56638396D01*
X43130299Y-56649999D01*
X43130303Y-56650000D01*
X44204999Y-56650000D01*
X44205000Y-56649999D01*
X44505000Y-56649999D01*
X44505001Y-56650000D01*
X45579697Y-56650000D01*
X45579700Y-56649999D01*
X45638036Y-56638396D01*
X45704189Y-56594193D01*
X45704193Y-56594189D01*
X45748396Y-56528036D01*
X45759999Y-56469700D01*
X45760000Y-56469697D01*
X45760000Y-56239259D01*
X45761008Y-56225168D01*
X45764627Y-56200000D01*
X45764627Y-56199998D01*
X45761008Y-56174830D01*
X45760000Y-56160740D01*
X45760000Y-55050001D01*
X45759999Y-55050000D01*
X44505001Y-55050000D01*
X44505000Y-55050001D01*
X44505000Y-56649999D01*
X44205000Y-56649999D01*
X44205000Y-55050001D01*
X44204999Y-55050000D01*
X42950001Y-55050000D01*
X42950000Y-55050001D01*
X42950000Y-56160740D01*
X42948992Y-56174830D01*
X42945373Y-56199998D01*
X42945373Y-56200000D01*
X39292292Y-56200000D01*
X39286063Y-56182198D01*
X39284690Y-56121028D01*
X39319534Y-56070733D01*
X39377285Y-56050525D01*
X39379507Y-56050500D01*
X41611913Y-56050500D01*
X41617459Y-56050811D01*
X41657035Y-56055270D01*
X41715479Y-56044211D01*
X41765940Y-56036605D01*
X41780694Y-56035500D01*
X42388257Y-56035500D01*
X42388260Y-56035500D01*
X42456393Y-56025573D01*
X42561483Y-55974198D01*
X42644198Y-55891483D01*
X42695573Y-55786393D01*
X42705500Y-55718260D01*
X42705500Y-55351740D01*
X42695573Y-55283607D01*
X42677750Y-55247150D01*
X42644198Y-55178518D01*
X42644198Y-55178517D01*
X42561483Y-55095802D01*
X42552078Y-55091204D01*
X42456395Y-55044427D01*
X42429139Y-55040456D01*
X42388260Y-55034500D01*
X41021740Y-55034500D01*
X40987673Y-55039463D01*
X40953604Y-55044427D01*
X40848518Y-55095801D01*
X40848515Y-55095803D01*
X40823813Y-55120505D01*
X40769296Y-55148281D01*
X40753811Y-55149500D01*
X39379507Y-55149500D01*
X39321316Y-55130593D01*
X39285352Y-55081093D01*
X39285352Y-55019907D01*
X39286063Y-55017802D01*
X39292292Y-55000000D01*
X39297646Y-54984699D01*
X39300499Y-54954273D01*
X39300500Y-54954273D01*
X39300500Y-54932492D01*
X43300000Y-54932492D01*
X43338197Y-54985065D01*
X43384162Y-55000000D01*
X43415838Y-55000000D01*
X43461803Y-54985065D01*
X43500000Y-54932492D01*
X45210000Y-54932492D01*
X45248197Y-54985065D01*
X45294162Y-55000000D01*
X45325838Y-55000000D01*
X45371803Y-54985065D01*
X45410000Y-54932492D01*
X45410000Y-54867508D01*
X45371803Y-54814935D01*
X45325838Y-54800000D01*
X45294162Y-54800000D01*
X45248197Y-54814935D01*
X45210000Y-54867508D01*
X45210000Y-54932492D01*
X43500000Y-54932492D01*
X43500000Y-54867508D01*
X43461803Y-54814935D01*
X43415838Y-54800000D01*
X43384162Y-54800000D01*
X43338197Y-54814935D01*
X43300000Y-54867508D01*
X43300000Y-54932492D01*
X39300500Y-54932492D01*
X39300500Y-54352611D01*
X39319407Y-54294420D01*
X39329496Y-54282607D01*
X39532607Y-54079496D01*
X39587124Y-54051719D01*
X39602611Y-54050500D01*
X39974470Y-54050500D01*
X40032661Y-54069407D01*
X40044473Y-54079496D01*
X40528674Y-54563696D01*
X40532376Y-54567838D01*
X40554936Y-54596128D01*
X40557203Y-54598970D01*
X40606353Y-54632480D01*
X40654200Y-54667793D01*
X40654202Y-54667793D01*
X40660759Y-54671259D01*
X40660551Y-54671651D01*
X40662532Y-54672651D01*
X40662725Y-54672253D01*
X40669406Y-54675470D01*
X40669409Y-54675472D01*
X40726259Y-54693007D01*
X40782383Y-54712646D01*
X40782387Y-54712646D01*
X40789675Y-54714026D01*
X40789592Y-54714460D01*
X40791775Y-54714830D01*
X40791841Y-54714394D01*
X40799180Y-54715500D01*
X40848732Y-54715500D01*
X40892212Y-54725559D01*
X40911449Y-54734963D01*
X40953607Y-54755573D01*
X41021740Y-54765500D01*
X41021743Y-54765500D01*
X42388257Y-54765500D01*
X42388260Y-54765500D01*
X42456393Y-54755573D01*
X42561483Y-54704198D01*
X42644198Y-54621483D01*
X42695573Y-54516393D01*
X42705500Y-54448260D01*
X42705500Y-54081740D01*
X42695573Y-54013607D01*
X42644198Y-53908517D01*
X42561483Y-53825802D01*
X42558820Y-53824500D01*
X42456395Y-53774427D01*
X42429139Y-53770456D01*
X42388260Y-53764500D01*
X42147847Y-53764500D01*
X42089656Y-53745593D01*
X42053692Y-53696093D01*
X42053692Y-53634907D01*
X42079054Y-53600000D01*
X42945373Y-53600000D01*
X42948992Y-53625168D01*
X42950000Y-53639259D01*
X42950000Y-54749999D01*
X42950001Y-54750000D01*
X44204999Y-54750000D01*
X44205000Y-54749999D01*
X44505000Y-54749999D01*
X44505001Y-54750000D01*
X45759999Y-54750000D01*
X45760000Y-54749999D01*
X45760000Y-53639259D01*
X45761008Y-53625168D01*
X45764627Y-53600000D01*
X45764627Y-53599998D01*
X45761008Y-53574830D01*
X45760000Y-53560740D01*
X45760000Y-53330302D01*
X45759999Y-53330299D01*
X45748396Y-53271963D01*
X45704193Y-53205810D01*
X45704189Y-53205806D01*
X45638036Y-53161603D01*
X45579700Y-53150000D01*
X44505001Y-53150000D01*
X44505000Y-53150001D01*
X44505000Y-54749999D01*
X44205000Y-54749999D01*
X44205000Y-53150001D01*
X44204999Y-53150000D01*
X43130299Y-53150000D01*
X43071963Y-53161603D01*
X43005810Y-53205806D01*
X43005806Y-53205810D01*
X42961603Y-53271963D01*
X42950000Y-53330299D01*
X42950000Y-53560740D01*
X42948992Y-53574830D01*
X42945373Y-53599998D01*
X42945373Y-53600000D01*
X42079054Y-53600000D01*
X42089656Y-53585407D01*
X42101839Y-53577840D01*
X42105852Y-53575734D01*
X42168315Y-53520397D01*
X42224409Y-53495962D01*
X42233964Y-53495500D01*
X42388257Y-53495500D01*
X42388260Y-53495500D01*
X42456393Y-53485573D01*
X42561483Y-53434198D01*
X42644198Y-53351483D01*
X42695573Y-53246393D01*
X42705500Y-53178260D01*
X42705500Y-52811740D01*
X42695573Y-52743607D01*
X42644198Y-52638517D01*
X42561483Y-52555802D01*
X42461019Y-52506688D01*
X42417046Y-52464146D01*
X42405500Y-52417748D01*
X42405500Y-51799500D01*
X42424407Y-51741309D01*
X42473907Y-51705345D01*
X42504500Y-51700500D01*
X42666773Y-51700500D01*
X42666773Y-51700499D01*
X42697199Y-51697646D01*
X42825382Y-51652793D01*
X42934650Y-51572150D01*
X43015293Y-51462882D01*
X43060146Y-51334699D01*
X43062999Y-51304273D01*
X43063000Y-51304273D01*
X43063000Y-51304203D01*
X44462501Y-51304203D01*
X44465350Y-51334600D01*
X44465350Y-51334602D01*
X44510154Y-51462647D01*
X44590707Y-51571790D01*
X44590709Y-51571792D01*
X44699852Y-51652345D01*
X44827898Y-51697149D01*
X44858289Y-51699999D01*
X45174998Y-51699999D01*
X45175000Y-51699998D01*
X45175000Y-50750001D01*
X45174999Y-50750000D01*
X44462502Y-50750000D01*
X44462501Y-50750001D01*
X44462501Y-51304203D01*
X43063000Y-51304203D01*
X43063000Y-50449999D01*
X44462500Y-50449999D01*
X44462501Y-50450000D01*
X45174999Y-50450000D01*
X45175000Y-50449999D01*
X45175000Y-49500001D01*
X45174999Y-49500000D01*
X44858296Y-49500000D01*
X44827899Y-49502850D01*
X44827897Y-49502850D01*
X44699852Y-49547654D01*
X44590709Y-49628207D01*
X44590707Y-49628209D01*
X44510154Y-49737352D01*
X44465350Y-49865398D01*
X44462500Y-49895788D01*
X44462500Y-50449999D01*
X43063000Y-50449999D01*
X43063000Y-49895727D01*
X43062999Y-49895725D01*
X43060146Y-49865305D01*
X43060146Y-49865301D01*
X43015293Y-49737118D01*
X43011347Y-49731772D01*
X42934654Y-49627855D01*
X42934652Y-49627853D01*
X42934650Y-49627850D01*
X42934646Y-49627847D01*
X42934644Y-49627845D01*
X42825383Y-49547207D01*
X42697203Y-49502355D01*
X42697194Y-49502353D01*
X42666774Y-49499500D01*
X42666766Y-49499500D01*
X41733234Y-49499500D01*
X41733225Y-49499500D01*
X41702805Y-49502353D01*
X41702796Y-49502355D01*
X41574616Y-49547207D01*
X41465355Y-49627845D01*
X41465345Y-49627855D01*
X41384707Y-49737116D01*
X41339855Y-49865296D01*
X41339853Y-49865305D01*
X41337000Y-49895725D01*
X41337000Y-50000500D01*
X41318093Y-50058691D01*
X41268593Y-50094655D01*
X41238000Y-50099500D01*
X40847307Y-50099500D01*
X40789116Y-50080593D01*
X40777303Y-50070504D01*
X40772152Y-50065353D01*
X40772150Y-50065350D01*
X40772146Y-50065347D01*
X40772144Y-50065345D01*
X40662883Y-49984707D01*
X40534703Y-49939855D01*
X40534694Y-49939853D01*
X40504274Y-49937000D01*
X40504266Y-49937000D01*
X39095734Y-49937000D01*
X39095725Y-49937000D01*
X39065305Y-49939853D01*
X39065296Y-49939855D01*
X38937116Y-49984707D01*
X38827855Y-50065345D01*
X38822697Y-50070504D01*
X38768180Y-50098281D01*
X38752693Y-50099500D01*
X38447307Y-50099500D01*
X38389116Y-50080593D01*
X38377303Y-50070504D01*
X38372152Y-50065353D01*
X38372150Y-50065350D01*
X38372146Y-50065347D01*
X38372144Y-50065345D01*
X38262883Y-49984707D01*
X38134703Y-49939855D01*
X38134694Y-49939853D01*
X38104274Y-49937000D01*
X38104266Y-49937000D01*
X37568665Y-49937000D01*
X37510474Y-49918093D01*
X37498661Y-49908004D01*
X36711344Y-49120686D01*
X36709294Y-49118508D01*
X36673688Y-49078318D01*
X36667929Y-49071817D01*
X36667925Y-49071814D01*
X36616576Y-49036369D01*
X36614168Y-49034598D01*
X36582449Y-49009748D01*
X36565057Y-48996122D01*
X36565055Y-48996121D01*
X36565054Y-48996120D01*
X36553743Y-48991029D01*
X36538141Y-48982229D01*
X36527933Y-48975183D01*
X36469600Y-48953060D01*
X36466848Y-48951920D01*
X36439048Y-48939409D01*
X36409933Y-48926305D01*
X36409926Y-48926303D01*
X36397723Y-48924067D01*
X36380461Y-48919255D01*
X36368875Y-48914861D01*
X36368873Y-48914860D01*
X36306954Y-48907341D01*
X36303999Y-48906891D01*
X36242602Y-48895641D01*
X36203598Y-48898001D01*
X36180306Y-48899410D01*
X36177341Y-48899500D01*
X32931165Y-48899500D01*
X32872974Y-48880593D01*
X32861161Y-48870504D01*
X32529496Y-48538839D01*
X32501719Y-48484322D01*
X32500500Y-48468835D01*
X32500500Y-48141703D01*
X36300001Y-48141703D01*
X36302850Y-48172100D01*
X36302850Y-48172102D01*
X36347654Y-48300147D01*
X36428207Y-48409290D01*
X36428209Y-48409292D01*
X36537352Y-48489845D01*
X36665398Y-48534649D01*
X36695789Y-48537499D01*
X37249998Y-48537499D01*
X37250000Y-48537498D01*
X37550000Y-48537498D01*
X37550001Y-48537499D01*
X38104203Y-48537499D01*
X38134600Y-48534649D01*
X38134602Y-48534649D01*
X38262647Y-48489845D01*
X38371790Y-48409292D01*
X38371792Y-48409290D01*
X38452345Y-48300147D01*
X38497149Y-48172101D01*
X38499999Y-48141711D01*
X38500000Y-48141710D01*
X38500000Y-48141703D01*
X38700001Y-48141703D01*
X38702850Y-48172100D01*
X38702850Y-48172102D01*
X38747654Y-48300147D01*
X38828207Y-48409290D01*
X38828209Y-48409292D01*
X38937352Y-48489845D01*
X39065398Y-48534649D01*
X39095789Y-48537499D01*
X39649998Y-48537499D01*
X39650000Y-48537498D01*
X39950000Y-48537498D01*
X39950001Y-48537499D01*
X40504203Y-48537499D01*
X40534600Y-48534649D01*
X40534602Y-48534649D01*
X40662647Y-48489845D01*
X40771790Y-48409292D01*
X40771792Y-48409290D01*
X40852345Y-48300147D01*
X40897149Y-48172101D01*
X40899999Y-48141711D01*
X40900000Y-48141710D01*
X40900000Y-47825001D01*
X40899999Y-47825000D01*
X39950001Y-47825000D01*
X39950000Y-47825001D01*
X39950000Y-48537498D01*
X39650000Y-48537498D01*
X39650000Y-47825001D01*
X39649999Y-47825000D01*
X38700002Y-47825000D01*
X38700001Y-47825001D01*
X38700001Y-48141703D01*
X38500000Y-48141703D01*
X38500000Y-47825001D01*
X38499999Y-47825000D01*
X37550001Y-47825000D01*
X37550000Y-47825001D01*
X37550000Y-48537498D01*
X37250000Y-48537498D01*
X37250000Y-47825001D01*
X37249999Y-47825000D01*
X36300002Y-47825000D01*
X36300001Y-47825001D01*
X36300001Y-48141703D01*
X32500500Y-48141703D01*
X32500500Y-47704203D01*
X42937501Y-47704203D01*
X42940350Y-47734600D01*
X42940350Y-47734602D01*
X42985154Y-47862647D01*
X43065707Y-47971790D01*
X43065709Y-47971792D01*
X43174852Y-48052345D01*
X43302898Y-48097149D01*
X43333289Y-48099999D01*
X43649998Y-48099999D01*
X43650000Y-48099998D01*
X43950000Y-48099998D01*
X43950001Y-48099999D01*
X44266703Y-48099999D01*
X44297100Y-48097149D01*
X44297102Y-48097149D01*
X44425147Y-48052345D01*
X44534290Y-47971792D01*
X44534292Y-47971790D01*
X44614845Y-47862647D01*
X44659649Y-47734601D01*
X44662499Y-47704211D01*
X44662500Y-47704210D01*
X44662500Y-47150001D01*
X44662499Y-47150000D01*
X43950001Y-47150000D01*
X43950000Y-47150001D01*
X43950000Y-48099998D01*
X43650000Y-48099998D01*
X43650000Y-47150001D01*
X43649999Y-47150000D01*
X42937502Y-47150000D01*
X42937501Y-47150001D01*
X42937501Y-47704203D01*
X32500500Y-47704203D01*
X32500500Y-47524999D01*
X36300000Y-47524999D01*
X36300001Y-47525000D01*
X37249999Y-47525000D01*
X37250000Y-47524999D01*
X37550000Y-47524999D01*
X37550001Y-47525000D01*
X38499998Y-47525000D01*
X38499999Y-47524999D01*
X38700000Y-47524999D01*
X38700001Y-47525000D01*
X39649999Y-47525000D01*
X39650000Y-47524999D01*
X39950000Y-47524999D01*
X39950001Y-47525000D01*
X40899998Y-47525000D01*
X40899999Y-47524999D01*
X40899999Y-47208296D01*
X40897149Y-47177899D01*
X40897149Y-47177897D01*
X40852345Y-47049852D01*
X40771792Y-46940709D01*
X40771790Y-46940707D01*
X40662647Y-46860154D01*
X40633625Y-46849999D01*
X42937500Y-46849999D01*
X42937501Y-46850000D01*
X43649999Y-46850000D01*
X43650000Y-46849999D01*
X43950000Y-46849999D01*
X43950001Y-46850000D01*
X44662498Y-46850000D01*
X44662499Y-46849999D01*
X44662499Y-46295796D01*
X44659649Y-46265399D01*
X44659649Y-46265397D01*
X44614845Y-46137352D01*
X44534292Y-46028209D01*
X44534290Y-46028207D01*
X44425147Y-45947654D01*
X44297101Y-45902850D01*
X44266711Y-45900000D01*
X43950001Y-45900000D01*
X43950000Y-45900001D01*
X43950000Y-46849999D01*
X43650000Y-46849999D01*
X43650000Y-45900001D01*
X43649999Y-45900000D01*
X43333296Y-45900000D01*
X43302899Y-45902850D01*
X43302897Y-45902850D01*
X43174852Y-45947654D01*
X43065709Y-46028207D01*
X43065707Y-46028209D01*
X42985154Y-46137352D01*
X42940350Y-46265398D01*
X42937500Y-46295788D01*
X42937500Y-46849999D01*
X40633625Y-46849999D01*
X40534601Y-46815350D01*
X40504211Y-46812500D01*
X39950001Y-46812500D01*
X39950000Y-46812501D01*
X39950000Y-47524999D01*
X39650000Y-47524999D01*
X39650000Y-46812501D01*
X39649999Y-46812500D01*
X39095796Y-46812500D01*
X39065399Y-46815350D01*
X39065397Y-46815350D01*
X38937352Y-46860154D01*
X38828209Y-46940707D01*
X38828207Y-46940709D01*
X38747654Y-47049852D01*
X38702850Y-47177898D01*
X38700000Y-47208288D01*
X38700000Y-47524999D01*
X38499999Y-47524999D01*
X38499999Y-47208296D01*
X38497149Y-47177899D01*
X38497149Y-47177897D01*
X38452345Y-47049852D01*
X38371792Y-46940709D01*
X38371790Y-46940707D01*
X38262647Y-46860154D01*
X38134601Y-46815350D01*
X38104211Y-46812500D01*
X37550001Y-46812500D01*
X37550000Y-46812501D01*
X37550000Y-47524999D01*
X37250000Y-47524999D01*
X37250000Y-46812501D01*
X37249999Y-46812500D01*
X36695796Y-46812500D01*
X36665399Y-46815350D01*
X36665397Y-46815350D01*
X36537352Y-46860154D01*
X36428209Y-46940707D01*
X36428207Y-46940709D01*
X36347654Y-47049852D01*
X36302850Y-47177898D01*
X36300000Y-47208288D01*
X36300000Y-47524999D01*
X32500500Y-47524999D01*
X32500500Y-46907631D01*
X32500499Y-46907618D01*
X32497062Y-46879312D01*
X32485140Y-46781128D01*
X32424818Y-46622070D01*
X32328183Y-46482071D01*
X32305615Y-46462078D01*
X32200853Y-46369267D01*
X32200852Y-46369266D01*
X32050225Y-46290210D01*
X32050224Y-46290209D01*
X32050223Y-46290209D01*
X31885058Y-46249500D01*
X31885056Y-46249500D01*
X31714944Y-46249500D01*
X31644710Y-46266810D01*
X31583685Y-46262376D01*
X31551016Y-46240690D01*
X31491741Y-46181414D01*
X31488822Y-46178229D01*
X31462456Y-46146806D01*
X31439818Y-46133736D01*
X31426918Y-46126288D01*
X31423288Y-46123975D01*
X31389684Y-46100446D01*
X31389679Y-46100443D01*
X31388224Y-46100054D01*
X31364348Y-46090164D01*
X31363045Y-46089411D01*
X31322652Y-46082289D01*
X31318439Y-46081355D01*
X31278807Y-46070736D01*
X31273877Y-46069415D01*
X31222563Y-46036091D01*
X31200636Y-45978969D01*
X31200500Y-45973788D01*
X31200500Y-45790253D01*
X31200498Y-45790241D01*
X31197711Y-45776231D01*
X31188867Y-45731769D01*
X31170981Y-45705001D01*
X31154372Y-45646115D01*
X31170982Y-45594997D01*
X31188867Y-45568231D01*
X31200500Y-45509748D01*
X31200500Y-45290252D01*
X31188867Y-45231769D01*
X31170680Y-45204550D01*
X31154072Y-45145664D01*
X31170681Y-45094547D01*
X31188396Y-45068034D01*
X31199999Y-45009700D01*
X31200000Y-45009697D01*
X31200000Y-44904203D01*
X42937501Y-44904203D01*
X42940350Y-44934600D01*
X42940350Y-44934602D01*
X42985154Y-45062647D01*
X43065707Y-45171790D01*
X43065709Y-45171792D01*
X43174852Y-45252345D01*
X43302898Y-45297149D01*
X43333289Y-45299999D01*
X43649998Y-45299999D01*
X43650000Y-45299998D01*
X43950000Y-45299998D01*
X43950001Y-45299999D01*
X44266703Y-45299999D01*
X44297100Y-45297149D01*
X44297102Y-45297149D01*
X44425147Y-45252345D01*
X44534290Y-45171792D01*
X44534292Y-45171790D01*
X44614845Y-45062647D01*
X44659649Y-44934601D01*
X44662499Y-44904211D01*
X44662500Y-44904210D01*
X44662500Y-44350001D01*
X44662499Y-44350000D01*
X43950001Y-44350000D01*
X43950000Y-44350001D01*
X43950000Y-45299998D01*
X43650000Y-45299998D01*
X43650000Y-44350001D01*
X43649999Y-44350000D01*
X42937502Y-44350000D01*
X42937501Y-44350001D01*
X42937501Y-44904203D01*
X31200000Y-44904203D01*
X31200000Y-44790302D01*
X31199999Y-44790299D01*
X31188396Y-44731963D01*
X31144193Y-44665810D01*
X31144189Y-44665806D01*
X31078036Y-44621603D01*
X31019700Y-44610000D01*
X29380299Y-44610000D01*
X29321963Y-44621603D01*
X29255810Y-44665806D01*
X29255806Y-44665810D01*
X29211603Y-44731963D01*
X29200000Y-44790299D01*
X29200000Y-45009700D01*
X29211603Y-45068035D01*
X29229319Y-45094549D01*
X29245927Y-45153437D01*
X29229319Y-45204550D01*
X29211135Y-45231764D01*
X29211132Y-45231772D01*
X29199501Y-45290241D01*
X29199500Y-45290253D01*
X29199500Y-45509746D01*
X29199501Y-45509758D01*
X29206119Y-45543025D01*
X29211133Y-45568231D01*
X29211134Y-45568232D01*
X29229019Y-45594999D01*
X29245627Y-45653887D01*
X29229019Y-45705001D01*
X29211134Y-45731767D01*
X29211132Y-45731772D01*
X29199501Y-45790241D01*
X29199500Y-45790253D01*
X29199500Y-46009746D01*
X29199501Y-46009758D01*
X29211127Y-46068200D01*
X29211133Y-46068231D01*
X29224934Y-46088885D01*
X29229019Y-46094999D01*
X29245627Y-46153887D01*
X29229019Y-46205001D01*
X29211134Y-46231767D01*
X29211132Y-46231772D01*
X29199501Y-46290241D01*
X29199500Y-46290253D01*
X29199500Y-46509746D01*
X29199501Y-46509758D01*
X29202462Y-46524641D01*
X29211133Y-46568231D01*
X29211134Y-46568232D01*
X29229019Y-46594999D01*
X29245627Y-46653887D01*
X29229019Y-46705001D01*
X29211134Y-46731767D01*
X29211132Y-46731772D01*
X29199501Y-46790241D01*
X29199500Y-46790253D01*
X29199500Y-47009746D01*
X29199501Y-47009758D01*
X29211132Y-47068227D01*
X29211133Y-47068231D01*
X29216277Y-47075929D01*
X29229019Y-47094999D01*
X29245627Y-47153887D01*
X29229019Y-47205001D01*
X29211134Y-47231767D01*
X29211132Y-47231772D01*
X29199501Y-47290241D01*
X29199500Y-47290253D01*
X29199500Y-47509746D01*
X29199501Y-47509758D01*
X29206512Y-47545000D01*
X29211133Y-47568231D01*
X29211134Y-47568232D01*
X29229019Y-47594999D01*
X29245627Y-47653887D01*
X29229019Y-47705001D01*
X29211134Y-47731767D01*
X29211132Y-47731772D01*
X29199501Y-47790241D01*
X29199500Y-47790253D01*
X29199500Y-48009746D01*
X29199501Y-48009758D01*
X29207973Y-48052345D01*
X29211133Y-48068231D01*
X29211134Y-48068232D01*
X29229019Y-48094999D01*
X29245627Y-48153887D01*
X29229019Y-48205001D01*
X29211134Y-48231767D01*
X29211132Y-48231772D01*
X29199501Y-48290241D01*
X29199500Y-48290253D01*
X29199500Y-48509746D01*
X29199501Y-48509758D01*
X29211132Y-48568227D01*
X29211133Y-48568231D01*
X29211134Y-48568232D01*
X29229019Y-48594999D01*
X29245627Y-48653887D01*
X29229019Y-48705001D01*
X29211134Y-48731767D01*
X29211132Y-48731772D01*
X29199501Y-48790241D01*
X29199500Y-48790253D01*
X29199500Y-49009746D01*
X29199501Y-49009758D01*
X29204795Y-49036369D01*
X29211133Y-49068231D01*
X29217873Y-49078318D01*
X29229019Y-49094999D01*
X29245627Y-49153887D01*
X29229019Y-49205001D01*
X29211134Y-49231767D01*
X29211132Y-49231772D01*
X29199501Y-49290241D01*
X29199500Y-49290253D01*
X29199500Y-49509746D01*
X29199501Y-49509758D01*
X29211132Y-49568227D01*
X29211133Y-49568231D01*
X29211134Y-49568232D01*
X29229019Y-49594999D01*
X29245627Y-49653887D01*
X29229019Y-49705001D01*
X29211134Y-49731767D01*
X29211132Y-49731772D01*
X29199501Y-49790241D01*
X29199500Y-49790253D01*
X29199500Y-50009746D01*
X29000500Y-50009746D01*
X29000500Y-44049999D01*
X42937500Y-44049999D01*
X42937501Y-44050000D01*
X43649999Y-44050000D01*
X43650000Y-44049999D01*
X43950000Y-44049999D01*
X43950001Y-44050000D01*
X44662498Y-44050000D01*
X44662499Y-44049999D01*
X44662499Y-43495796D01*
X44659649Y-43465399D01*
X44659649Y-43465397D01*
X44614845Y-43337352D01*
X44534292Y-43228209D01*
X44534290Y-43228207D01*
X44425147Y-43147654D01*
X44297101Y-43102850D01*
X44266711Y-43100000D01*
X43950001Y-43100000D01*
X43950000Y-43100001D01*
X43950000Y-44049999D01*
X43650000Y-44049999D01*
X43650000Y-43100001D01*
X43649999Y-43100000D01*
X43333296Y-43100000D01*
X43302899Y-43102850D01*
X43302897Y-43102850D01*
X43174852Y-43147654D01*
X43065709Y-43228207D01*
X43065707Y-43228209D01*
X42985154Y-43337352D01*
X42940350Y-43465398D01*
X42937500Y-43495788D01*
X42937500Y-44049999D01*
X29000500Y-44049999D01*
X29000500Y-43569700D01*
X29200000Y-43569700D01*
X29211603Y-43628036D01*
X29255806Y-43694189D01*
X29255810Y-43694193D01*
X29321963Y-43738396D01*
X29380299Y-43749999D01*
X29380303Y-43750000D01*
X30249999Y-43750000D01*
X30250000Y-43749999D01*
X30550000Y-43749999D01*
X30550001Y-43750000D01*
X31419697Y-43750000D01*
X31419700Y-43749999D01*
X31478036Y-43738396D01*
X31544189Y-43694193D01*
X31544193Y-43694189D01*
X31588396Y-43628036D01*
X31599999Y-43569700D01*
X31600000Y-43569697D01*
X31600000Y-43550001D01*
X31599999Y-43550000D01*
X30550001Y-43550000D01*
X30550000Y-43550001D01*
X30550000Y-43749999D01*
X30250000Y-43749999D01*
X30250000Y-43550001D01*
X30249999Y-43550000D01*
X29200001Y-43550000D01*
X29200000Y-43550001D01*
X29200000Y-43569700D01*
X29000500Y-43569700D01*
X29000500Y-43249999D01*
X29200000Y-43249999D01*
X29200001Y-43250000D01*
X30249999Y-43250000D01*
X30250000Y-43249999D01*
X30550000Y-43249999D01*
X30550001Y-43250000D01*
X31599999Y-43250000D01*
X31600000Y-43249999D01*
X31600000Y-43230302D01*
X31599999Y-43230299D01*
X31588396Y-43171963D01*
X31544193Y-43105810D01*
X31544189Y-43105806D01*
X31478036Y-43061603D01*
X31419700Y-43050000D01*
X30550001Y-43050000D01*
X30550000Y-43050001D01*
X30550000Y-43249999D01*
X30250000Y-43249999D01*
X30250000Y-43050001D01*
X30249999Y-43050000D01*
X29380299Y-43050000D01*
X29321963Y-43061603D01*
X29255810Y-43105806D01*
X29255806Y-43105810D01*
X29211603Y-43171963D01*
X29200000Y-43230299D01*
X29200000Y-43249999D01*
X29000500Y-43249999D01*
X29000500Y-39370002D01*
X29945233Y-39370002D01*
X29964273Y-39624076D01*
X29964275Y-39624086D01*
X30020970Y-39872487D01*
X30020970Y-39872489D01*
X30114055Y-40109664D01*
X30114064Y-40109683D01*
X30241451Y-40330322D01*
X30241461Y-40330337D01*
X30346195Y-40461670D01*
X30734794Y-40073070D01*
X30871931Y-40223501D01*
X30949814Y-40282316D01*
X30557111Y-40675020D01*
X30587088Y-40702835D01*
X30797624Y-40846375D01*
X31027176Y-40956922D01*
X31270649Y-41032023D01*
X31270659Y-41032025D01*
X31522599Y-41069999D01*
X31522608Y-41070000D01*
X31777392Y-41070000D01*
X31777400Y-41069999D01*
X32029340Y-41032025D01*
X32029350Y-41032023D01*
X32272823Y-40956921D01*
X32502376Y-40846375D01*
X32712908Y-40702838D01*
X32742887Y-40675020D01*
X32350184Y-40282317D01*
X32428069Y-40223501D01*
X32565204Y-40073071D01*
X32953803Y-40461670D01*
X33058543Y-40330330D01*
X33058548Y-40330322D01*
X33185935Y-40109683D01*
X33185944Y-40109664D01*
X33279029Y-39872489D01*
X33279029Y-39872487D01*
X33335724Y-39624086D01*
X33335726Y-39624076D01*
X33354767Y-39370002D01*
X33354767Y-39369997D01*
X33335726Y-39115923D01*
X33335724Y-39115913D01*
X33279029Y-38867512D01*
X33279029Y-38867510D01*
X33185944Y-38630335D01*
X33185935Y-38630316D01*
X33058548Y-38409677D01*
X33058538Y-38409662D01*
X32953803Y-38278328D01*
X32565203Y-38666927D01*
X32428069Y-38516499D01*
X32350183Y-38457681D01*
X32742887Y-38064978D01*
X32712907Y-38037161D01*
X32502376Y-37893624D01*
X32272823Y-37783078D01*
X32029350Y-37707976D01*
X32029340Y-37707974D01*
X31777400Y-37670000D01*
X31522599Y-37670000D01*
X31270659Y-37707974D01*
X31270649Y-37707976D01*
X31027176Y-37783077D01*
X30797624Y-37893624D01*
X30587092Y-38037161D01*
X30587084Y-38037167D01*
X30557111Y-38064978D01*
X30949815Y-38457682D01*
X30871931Y-38516499D01*
X30734795Y-38666928D01*
X30346196Y-38278329D01*
X30241455Y-38409670D01*
X30241451Y-38409677D01*
X30114064Y-38630316D01*
X30114055Y-38630335D01*
X30020970Y-38867510D01*
X30020970Y-38867512D01*
X29964275Y-39115913D01*
X29964273Y-39115923D01*
X29945233Y-39369997D01*
X29945233Y-39370002D01*
X29000500Y-39370002D01*
X29000500Y-36300003D01*
X33355161Y-36300003D01*
X33374467Y-36496029D01*
X33374468Y-36496034D01*
X33431650Y-36684535D01*
X33431652Y-36684540D01*
X33524504Y-36858253D01*
X33524511Y-36858264D01*
X33553851Y-36894014D01*
X33933274Y-36514590D01*
X33997327Y-36614258D01*
X34100555Y-36703705D01*
X34147147Y-36724982D01*
X33765983Y-37106146D01*
X33765984Y-37106147D01*
X33801735Y-37135488D01*
X33801746Y-37135495D01*
X33975459Y-37228347D01*
X33975464Y-37228349D01*
X34163965Y-37285531D01*
X34163970Y-37285532D01*
X34359997Y-37304839D01*
X34360003Y-37304839D01*
X34556029Y-37285532D01*
X34556034Y-37285531D01*
X34744535Y-37228349D01*
X34744540Y-37228347D01*
X34918257Y-37135493D01*
X34918260Y-37135491D01*
X34954014Y-37106147D01*
X34572850Y-36724983D01*
X34619445Y-36703705D01*
X34722673Y-36614258D01*
X34786724Y-36514591D01*
X35166147Y-36894014D01*
X35195491Y-36858260D01*
X35195493Y-36858257D01*
X35288347Y-36684540D01*
X35288349Y-36684535D01*
X35345531Y-36496034D01*
X35345532Y-36496029D01*
X35364839Y-36300003D01*
X35364839Y-36299996D01*
X35345532Y-36103970D01*
X35345531Y-36103965D01*
X35288349Y-35915464D01*
X35288347Y-35915459D01*
X35195495Y-35741746D01*
X35195488Y-35741735D01*
X35166147Y-35705984D01*
X35166146Y-35705983D01*
X34786723Y-36085406D01*
X34722673Y-35985742D01*
X34619445Y-35896295D01*
X34572849Y-35875015D01*
X34954014Y-35493851D01*
X34918264Y-35464511D01*
X34918253Y-35464504D01*
X34744540Y-35371652D01*
X34744535Y-35371650D01*
X34556034Y-35314468D01*
X34556029Y-35314467D01*
X34360003Y-35295161D01*
X34359997Y-35295161D01*
X34163970Y-35314467D01*
X34163965Y-35314468D01*
X33975464Y-35371650D01*
X33975459Y-35371652D01*
X33801748Y-35464502D01*
X33801736Y-35464510D01*
X33765984Y-35493851D01*
X34147149Y-35875016D01*
X34100555Y-35896295D01*
X33997327Y-35985742D01*
X33933275Y-36085408D01*
X33553851Y-35705984D01*
X33524510Y-35741736D01*
X33524502Y-35741748D01*
X33431652Y-35915459D01*
X33431650Y-35915464D01*
X33374468Y-36103965D01*
X33374467Y-36103970D01*
X33355161Y-36299996D01*
X33355161Y-36300003D01*
X29000500Y-36300003D01*
X29000500Y-33800003D01*
X33354659Y-33800003D01*
X33373974Y-33996126D01*
X33373975Y-33996129D01*
X33431187Y-34184730D01*
X33431188Y-34184732D01*
X33502218Y-34317618D01*
X33524090Y-34358538D01*
X33524092Y-34358540D01*
X33524093Y-34358542D01*
X33649112Y-34510878D01*
X33649121Y-34510887D01*
X33801457Y-34635906D01*
X33801462Y-34635910D01*
X33975273Y-34728814D01*
X34163868Y-34786024D01*
X34163870Y-34786024D01*
X34163873Y-34786025D01*
X34359997Y-34805341D01*
X34360000Y-34805341D01*
X34360003Y-34805341D01*
X34556126Y-34786025D01*
X34556127Y-34786024D01*
X34556132Y-34786024D01*
X34744727Y-34728814D01*
X34918538Y-34635910D01*
X35070883Y-34510883D01*
X35195910Y-34358538D01*
X35288814Y-34184727D01*
X35346024Y-33996132D01*
X35365341Y-33800000D01*
X35365341Y-33799996D01*
X35346025Y-33603873D01*
X35346024Y-33603870D01*
X35346024Y-33603868D01*
X35288814Y-33415273D01*
X35195910Y-33241462D01*
X35195906Y-33241457D01*
X35070887Y-33089121D01*
X35070878Y-33089112D01*
X34918542Y-32964093D01*
X34918540Y-32964092D01*
X34918538Y-32964090D01*
X34774893Y-32887310D01*
X34732486Y-32843204D01*
X34724103Y-32782596D01*
X34752945Y-32728635D01*
X34774893Y-32712690D01*
X34783576Y-32708048D01*
X34918538Y-32635910D01*
X35070883Y-32510883D01*
X35195910Y-32358538D01*
X35288814Y-32184727D01*
X35346024Y-31996132D01*
X35365341Y-31800000D01*
X35365341Y-31799996D01*
X35346025Y-31603873D01*
X35346024Y-31603870D01*
X35346024Y-31603868D01*
X35288814Y-31415273D01*
X35195910Y-31241462D01*
X35195906Y-31241457D01*
X35070887Y-31089121D01*
X35070878Y-31089112D01*
X34918542Y-30964093D01*
X34918540Y-30964092D01*
X34918538Y-30964090D01*
X34877618Y-30942218D01*
X34744732Y-30871188D01*
X34744730Y-30871187D01*
X34556129Y-30813975D01*
X34556126Y-30813974D01*
X34360003Y-30794659D01*
X34359997Y-30794659D01*
X34163873Y-30813974D01*
X34163870Y-30813975D01*
X33975269Y-30871187D01*
X33975267Y-30871188D01*
X33801467Y-30964087D01*
X33801457Y-30964093D01*
X33649121Y-31089112D01*
X33649112Y-31089121D01*
X33524093Y-31241457D01*
X33524087Y-31241467D01*
X33431188Y-31415267D01*
X33431187Y-31415269D01*
X33373975Y-31603870D01*
X33373974Y-31603873D01*
X33354659Y-31799996D01*
X33354659Y-31800003D01*
X33373974Y-31996126D01*
X33373975Y-31996129D01*
X33431187Y-32184730D01*
X33431188Y-32184732D01*
X33502218Y-32317618D01*
X33524090Y-32358538D01*
X33524092Y-32358540D01*
X33524093Y-32358542D01*
X33649112Y-32510878D01*
X33649121Y-32510887D01*
X33801457Y-32635906D01*
X33801462Y-32635910D01*
X33926882Y-32702948D01*
X33945107Y-32712690D01*
X33987513Y-32756796D01*
X33995896Y-32817404D01*
X33967053Y-32871365D01*
X33945107Y-32887310D01*
X33801463Y-32964089D01*
X33801457Y-32964093D01*
X33649121Y-33089112D01*
X33649112Y-33089121D01*
X33524093Y-33241457D01*
X33524087Y-33241467D01*
X33431188Y-33415267D01*
X33431187Y-33415269D01*
X33373975Y-33603870D01*
X33373974Y-33603873D01*
X33354659Y-33799996D01*
X33354659Y-33800003D01*
X29000500Y-33800003D01*
X29000500Y-29411243D01*
X33159500Y-29411243D01*
X33200382Y-29629940D01*
X33280753Y-29837401D01*
X33394672Y-30021388D01*
X33409500Y-30073503D01*
X33409500Y-30119746D01*
X33409501Y-30119758D01*
X33421132Y-30178227D01*
X33421133Y-30178231D01*
X33465448Y-30244552D01*
X33531769Y-30288867D01*
X33576231Y-30297711D01*
X33590241Y-30300498D01*
X33590246Y-30300498D01*
X33590252Y-30300500D01*
X33659610Y-30300500D01*
X33717801Y-30319407D01*
X33719233Y-30320468D01*
X33725311Y-30325058D01*
X33924472Y-30424229D01*
X34138464Y-30485115D01*
X34304497Y-30500500D01*
X36561729Y-30500500D01*
X36619920Y-30519407D01*
X36631732Y-30529495D01*
X47390365Y-41288129D01*
X47463746Y-41349063D01*
X47496435Y-41400784D01*
X47499500Y-41425227D01*
X47499500Y-43000884D01*
X47480593Y-43059075D01*
X47431093Y-43095039D01*
X47394106Y-43099139D01*
X47394085Y-43099608D01*
X47391773Y-43099500D01*
X47391766Y-43099500D01*
X46458234Y-43099500D01*
X46458225Y-43099500D01*
X46427805Y-43102353D01*
X46427796Y-43102355D01*
X46299616Y-43147207D01*
X46190355Y-43227845D01*
X46190345Y-43227855D01*
X46109707Y-43337116D01*
X46064855Y-43465296D01*
X46064853Y-43465305D01*
X46062000Y-43495725D01*
X46062000Y-44904274D01*
X46064853Y-44934694D01*
X46064855Y-44934703D01*
X46109707Y-45062883D01*
X46190347Y-45172148D01*
X46195500Y-45177300D01*
X46223280Y-45231815D01*
X46224500Y-45247307D01*
X46224500Y-45952693D01*
X46205593Y-46010884D01*
X46195504Y-46022697D01*
X46190345Y-46027855D01*
X46109707Y-46137116D01*
X46064855Y-46265296D01*
X46064853Y-46265305D01*
X46062000Y-46295725D01*
X46062000Y-47704274D01*
X46064853Y-47734694D01*
X46064855Y-47734703D01*
X46109707Y-47862883D01*
X46190345Y-47972144D01*
X46190347Y-47972146D01*
X46190350Y-47972150D01*
X46190353Y-47972152D01*
X46190355Y-47972154D01*
X46264288Y-48026719D01*
X46299881Y-48076486D01*
X46304500Y-48106374D01*
X46304500Y-49659594D01*
X46285593Y-49717785D01*
X46236093Y-49753749D01*
X46174907Y-49753749D01*
X46125845Y-49718383D01*
X46059292Y-49628209D01*
X46059290Y-49628207D01*
X45950147Y-49547654D01*
X45822101Y-49502850D01*
X45791711Y-49500000D01*
X45475001Y-49500000D01*
X45475000Y-49500001D01*
X45475000Y-51699998D01*
X45475001Y-51699999D01*
X45791703Y-51699999D01*
X45822100Y-51697149D01*
X45822102Y-51697149D01*
X45950147Y-51652345D01*
X46059290Y-51571792D01*
X46059292Y-51571790D01*
X46125845Y-51481616D01*
X46175613Y-51446024D01*
X46236797Y-51446482D01*
X46286026Y-51482815D01*
X46304500Y-51540405D01*
X46304500Y-52417748D01*
X46285593Y-52475939D01*
X46248980Y-52506689D01*
X46148518Y-52555801D01*
X46065801Y-52638518D01*
X46014427Y-52743604D01*
X46014427Y-52743607D01*
X46004500Y-52811740D01*
X46004500Y-53178260D01*
X46008514Y-53205810D01*
X46014427Y-53246395D01*
X46056572Y-53332602D01*
X46065802Y-53351483D01*
X46148517Y-53434198D01*
X46202285Y-53460483D01*
X46253604Y-53485572D01*
X46253605Y-53485572D01*
X46253607Y-53485573D01*
X46321740Y-53495500D01*
X46476036Y-53495500D01*
X46534227Y-53514407D01*
X46541685Y-53520397D01*
X46604148Y-53575734D01*
X46608161Y-53577840D01*
X46650900Y-53621625D01*
X46659740Y-53682168D01*
X46631305Y-53736345D01*
X46576457Y-53763461D01*
X46562153Y-53764500D01*
X46321740Y-53764500D01*
X46287673Y-53769463D01*
X46253604Y-53774427D01*
X46148518Y-53825801D01*
X46065801Y-53908518D01*
X46014427Y-54013604D01*
X46014427Y-54013607D01*
X46004500Y-54081740D01*
X46004500Y-54448260D01*
X46011118Y-54493682D01*
X46014427Y-54516395D01*
X46054796Y-54598970D01*
X46065802Y-54621483D01*
X46148517Y-54704198D01*
X46171636Y-54715500D01*
X46253604Y-54755572D01*
X46253605Y-54755572D01*
X46253607Y-54755573D01*
X46321740Y-54765500D01*
X46969201Y-54765500D01*
X48070544Y-54765500D01*
X48091590Y-54767763D01*
X48092830Y-54768032D01*
X48098927Y-54769359D01*
X48146412Y-54765962D01*
X48151119Y-54765626D01*
X48154652Y-54765500D01*
X48170799Y-54765500D01*
X48186799Y-54763199D01*
X48190272Y-54762824D01*
X48242483Y-54759091D01*
X48249515Y-54756467D01*
X48270022Y-54751233D01*
X48277457Y-54750165D01*
X48325049Y-54728429D01*
X48328295Y-54727084D01*
X48377331Y-54708796D01*
X48383342Y-54704296D01*
X48401549Y-54693492D01*
X48408373Y-54690377D01*
X48447917Y-54656110D01*
X48450642Y-54653914D01*
X48463593Y-54644221D01*
X48475042Y-54632770D01*
X48477579Y-54630408D01*
X48517143Y-54596128D01*
X48521202Y-54589811D01*
X48534477Y-54573335D01*
X48553609Y-54554203D01*
X69500001Y-54554203D01*
X69502850Y-54584600D01*
X69502850Y-54584602D01*
X69547654Y-54712647D01*
X69628207Y-54821790D01*
X69628209Y-54821792D01*
X69737352Y-54902345D01*
X69865398Y-54947149D01*
X69895789Y-54949999D01*
X70050000Y-54949999D01*
X70050000Y-54949998D01*
X70350000Y-54949998D01*
X70350001Y-54949999D01*
X70504203Y-54949999D01*
X70534600Y-54947149D01*
X70534602Y-54947149D01*
X70662647Y-54902345D01*
X70771790Y-54821792D01*
X70771792Y-54821790D01*
X70852345Y-54712647D01*
X70897149Y-54584601D01*
X70899999Y-54554211D01*
X70900000Y-54554210D01*
X70900000Y-54400001D01*
X70899999Y-54400000D01*
X70350001Y-54400000D01*
X70350000Y-54400001D01*
X70350000Y-54949998D01*
X70050000Y-54949998D01*
X70050000Y-54400001D01*
X70049999Y-54400000D01*
X69500002Y-54400000D01*
X69500001Y-54400001D01*
X69500001Y-54554203D01*
X48553609Y-54554203D01*
X49007813Y-54099999D01*
X69500000Y-54099999D01*
X69500001Y-54100000D01*
X70049999Y-54100000D01*
X70050000Y-54099999D01*
X70350000Y-54099999D01*
X70350001Y-54100000D01*
X70899998Y-54100000D01*
X70899999Y-54099999D01*
X70899999Y-53945796D01*
X70897149Y-53915399D01*
X70897149Y-53915397D01*
X70852345Y-53787352D01*
X70771792Y-53678209D01*
X70771790Y-53678207D01*
X70662647Y-53597654D01*
X70534601Y-53552850D01*
X70504211Y-53550000D01*
X70350001Y-53550000D01*
X70350000Y-53550001D01*
X70350000Y-54099999D01*
X70050000Y-54099999D01*
X70050000Y-53550001D01*
X70049999Y-53550000D01*
X69895796Y-53550000D01*
X69865399Y-53552850D01*
X69865397Y-53552850D01*
X69737352Y-53597654D01*
X69628209Y-53678207D01*
X69628207Y-53678209D01*
X69547654Y-53787352D01*
X69502850Y-53915398D01*
X69500000Y-53945788D01*
X69500000Y-54099999D01*
X49007813Y-54099999D01*
X50820318Y-52287496D01*
X50874835Y-52259719D01*
X50890322Y-52258500D01*
X52386000Y-52258500D01*
X52444191Y-52277407D01*
X52480155Y-52326907D01*
X52485000Y-52357500D01*
X52485000Y-52984246D01*
X52485001Y-52984258D01*
X52496632Y-53042727D01*
X52496633Y-53042731D01*
X52540948Y-53109052D01*
X52607269Y-53153367D01*
X52648674Y-53161603D01*
X52665741Y-53164998D01*
X52665746Y-53164998D01*
X52665752Y-53165000D01*
X52665753Y-53165000D01*
X56134247Y-53165000D01*
X56134248Y-53165000D01*
X56192731Y-53153367D01*
X56259052Y-53109052D01*
X56303367Y-53042731D01*
X56315000Y-52984248D01*
X56315000Y-52215266D01*
X60124500Y-52215266D01*
X60127274Y-52244844D01*
X60127276Y-52244852D01*
X60170884Y-52369476D01*
X60249285Y-52475706D01*
X60249289Y-52475711D01*
X60249292Y-52475713D01*
X60249293Y-52475714D01*
X60355523Y-52554115D01*
X60355524Y-52554115D01*
X60355525Y-52554116D01*
X60480151Y-52597725D01*
X60507441Y-52600284D01*
X60509733Y-52600499D01*
X60509738Y-52600500D01*
X60509744Y-52600500D01*
X61090262Y-52600500D01*
X61090265Y-52600499D01*
X61119849Y-52597725D01*
X61244475Y-52554116D01*
X61350711Y-52475711D01*
X61429116Y-52369475D01*
X61472725Y-52244849D01*
X61475500Y-52215256D01*
X61475500Y-52104500D01*
X61494407Y-52046309D01*
X61543907Y-52010345D01*
X61574500Y-52005500D01*
X68858257Y-52005500D01*
X68858260Y-52005500D01*
X68926393Y-51995573D01*
X69031483Y-51944198D01*
X69114198Y-51861483D01*
X69165573Y-51756393D01*
X69175500Y-51688260D01*
X69175500Y-51321740D01*
X69165573Y-51253607D01*
X69114198Y-51148517D01*
X69070182Y-51104501D01*
X69042407Y-51049987D01*
X69051978Y-50989555D01*
X69095243Y-50946290D01*
X69140188Y-50935500D01*
X69600500Y-50935500D01*
X69658691Y-50954407D01*
X69694655Y-51003907D01*
X69699500Y-51034500D01*
X69699500Y-51074992D01*
X69680593Y-51133183D01*
X69659288Y-51154648D01*
X69627849Y-51177850D01*
X69547207Y-51287116D01*
X69502355Y-51415296D01*
X69502353Y-51415305D01*
X69499500Y-51445725D01*
X69499500Y-52054274D01*
X69502353Y-52084694D01*
X69502355Y-52084703D01*
X69547207Y-52212883D01*
X69627845Y-52322144D01*
X69627847Y-52322146D01*
X69627850Y-52322150D01*
X69627853Y-52322152D01*
X69627855Y-52322154D01*
X69737116Y-52402792D01*
X69737117Y-52402792D01*
X69737118Y-52402793D01*
X69865301Y-52447646D01*
X69895725Y-52450499D01*
X69895727Y-52450500D01*
X69895734Y-52450500D01*
X70504273Y-52450500D01*
X70504273Y-52450499D01*
X70534699Y-52447646D01*
X70662882Y-52402793D01*
X70772150Y-52322150D01*
X70852793Y-52212882D01*
X70897646Y-52084699D01*
X70900499Y-52054273D01*
X70900500Y-52054273D01*
X70900500Y-51445727D01*
X70900499Y-51445725D01*
X70898731Y-51426872D01*
X70897646Y-51415301D01*
X70852793Y-51287118D01*
X70841461Y-51271764D01*
X70772150Y-51177850D01*
X70766755Y-51173868D01*
X70740711Y-51154647D01*
X70705119Y-51104880D01*
X70700500Y-51074992D01*
X70700500Y-51034500D01*
X70719407Y-50976309D01*
X70768907Y-50940345D01*
X70799500Y-50935500D01*
X72082628Y-50935500D01*
X72711000Y-50935500D01*
X72769191Y-50954407D01*
X72805155Y-51003907D01*
X72810000Y-51034500D01*
X72810000Y-51826246D01*
X72810001Y-51826258D01*
X72821632Y-51884727D01*
X72821633Y-51884731D01*
X72865948Y-51951052D01*
X72932269Y-51995367D01*
X72976731Y-52004211D01*
X72990741Y-52006998D01*
X72990746Y-52006998D01*
X72990752Y-52007000D01*
X72990753Y-52007000D01*
X76459247Y-52007000D01*
X76459248Y-52007000D01*
X76517731Y-51995367D01*
X76584052Y-51951052D01*
X76628367Y-51884731D01*
X76640000Y-51826248D01*
X76640000Y-49373752D01*
X76628367Y-49315269D01*
X76584052Y-49248948D01*
X76577918Y-49244849D01*
X76517733Y-49204634D01*
X76517731Y-49204633D01*
X76517728Y-49204632D01*
X76517727Y-49204632D01*
X76459258Y-49193001D01*
X76459248Y-49193000D01*
X72990752Y-49193000D01*
X72990751Y-49193000D01*
X72990741Y-49193001D01*
X72932272Y-49204632D01*
X72932266Y-49204634D01*
X72865951Y-49248945D01*
X72865945Y-49248951D01*
X72821634Y-49315266D01*
X72821632Y-49315272D01*
X72810001Y-49373741D01*
X72810000Y-49373753D01*
X72810000Y-49435500D01*
X72791093Y-49493691D01*
X72741593Y-49529655D01*
X72711000Y-49534500D01*
X70903431Y-49534500D01*
X70845240Y-49515593D01*
X70809276Y-49466093D01*
X70809276Y-49404907D01*
X70823774Y-49376714D01*
X70825968Y-49373741D01*
X70829116Y-49369475D01*
X70872725Y-49244849D01*
X70875500Y-49215256D01*
X70875500Y-48509744D01*
X70875500Y-48509738D01*
X70875499Y-48509733D01*
X70872725Y-48480155D01*
X70872725Y-48480151D01*
X70829116Y-48355525D01*
X70788505Y-48300499D01*
X70750714Y-48249293D01*
X70750713Y-48249292D01*
X70750711Y-48249289D01*
X70750706Y-48249285D01*
X70644476Y-48170884D01*
X70519852Y-48127276D01*
X70519851Y-48127275D01*
X70519849Y-48127275D01*
X70519847Y-48127274D01*
X70519844Y-48127274D01*
X70490266Y-48124500D01*
X70490256Y-48124500D01*
X69909744Y-48124500D01*
X69909733Y-48124500D01*
X69880155Y-48127274D01*
X69880147Y-48127276D01*
X69755523Y-48170884D01*
X69649293Y-48249285D01*
X69649285Y-48249293D01*
X69570884Y-48355523D01*
X69555952Y-48398198D01*
X69518887Y-48446878D01*
X69462508Y-48464500D01*
X68858260Y-48464500D01*
X67141740Y-48464500D01*
X67107673Y-48469463D01*
X67073604Y-48474427D01*
X66968518Y-48525801D01*
X66885801Y-48608518D01*
X66834427Y-48713604D01*
X66834427Y-48713607D01*
X66824500Y-48781740D01*
X66824500Y-49148260D01*
X66831019Y-49193000D01*
X66834427Y-49216395D01*
X66882763Y-49315266D01*
X66885802Y-49321483D01*
X66968517Y-49404198D01*
X67021634Y-49430165D01*
X67073604Y-49455572D01*
X67073605Y-49455572D01*
X67073607Y-49455573D01*
X67141740Y-49465500D01*
X67563977Y-49465500D01*
X67622168Y-49484407D01*
X67658132Y-49533907D01*
X67658132Y-49595093D01*
X67622168Y-49644593D01*
X67620245Y-49645954D01*
X67608753Y-49653887D01*
X67532072Y-49706816D01*
X67528927Y-49709603D01*
X67472833Y-49734038D01*
X67463278Y-49734500D01*
X67141740Y-49734500D01*
X67107673Y-49739463D01*
X67073604Y-49744427D01*
X66968518Y-49795801D01*
X66885801Y-49878518D01*
X66834427Y-49983604D01*
X66830618Y-50009748D01*
X66824500Y-50051740D01*
X66824500Y-50418260D01*
X66829125Y-50450000D01*
X66834427Y-50486395D01*
X66885801Y-50591481D01*
X66885802Y-50591483D01*
X66968517Y-50674198D01*
X67000839Y-50689999D01*
X67073604Y-50725572D01*
X67073605Y-50725572D01*
X67073607Y-50725573D01*
X67141740Y-50735500D01*
X67463278Y-50735500D01*
X67521469Y-50754407D01*
X67528927Y-50760397D01*
X67532067Y-50763178D01*
X67532071Y-50763183D01*
X67620216Y-50824026D01*
X67657365Y-50872641D01*
X67658843Y-50933809D01*
X67624086Y-50984163D01*
X67566369Y-51004471D01*
X67563977Y-51004500D01*
X63649500Y-51004500D01*
X63591309Y-50985593D01*
X63555345Y-50936093D01*
X63550500Y-50905500D01*
X63550500Y-50834500D01*
X63569407Y-50776309D01*
X63618907Y-50740345D01*
X63649500Y-50735500D01*
X63908257Y-50735500D01*
X63908260Y-50735500D01*
X63976393Y-50725573D01*
X64081483Y-50674198D01*
X64164198Y-50591483D01*
X64215573Y-50486393D01*
X64225500Y-50418260D01*
X64225500Y-50051740D01*
X64215573Y-49983607D01*
X64164198Y-49878517D01*
X64081483Y-49795802D01*
X64081481Y-49795801D01*
X63976395Y-49744427D01*
X63949139Y-49740456D01*
X63908260Y-49734500D01*
X62191740Y-49734500D01*
X62157673Y-49739463D01*
X62123604Y-49744427D01*
X62018518Y-49795801D01*
X61935801Y-49878518D01*
X61884427Y-49983604D01*
X61880618Y-50009748D01*
X61874500Y-50051740D01*
X61874500Y-50418260D01*
X61879125Y-50450000D01*
X61884427Y-50486395D01*
X61935801Y-50591481D01*
X61935802Y-50591483D01*
X62018517Y-50674198D01*
X62050839Y-50689999D01*
X62123604Y-50725572D01*
X62123605Y-50725572D01*
X62123607Y-50725573D01*
X62191740Y-50735500D01*
X62450500Y-50735500D01*
X62508691Y-50754407D01*
X62544655Y-50803907D01*
X62549500Y-50834500D01*
X62549500Y-50905500D01*
X62530593Y-50963691D01*
X62481093Y-50999655D01*
X62450500Y-51004500D01*
X61271956Y-51004500D01*
X61250910Y-51002237D01*
X61243574Y-51000641D01*
X61243573Y-51000641D01*
X61223374Y-51002085D01*
X61191381Y-51004374D01*
X61187848Y-51004500D01*
X61171700Y-51004500D01*
X61155712Y-51006798D01*
X61152200Y-51007176D01*
X61100017Y-51010908D01*
X61092971Y-51013536D01*
X61072485Y-51018764D01*
X61065047Y-51019834D01*
X61065044Y-51019834D01*
X61065043Y-51019835D01*
X61065042Y-51019835D01*
X61065040Y-51019836D01*
X61017459Y-51041565D01*
X61014195Y-51042917D01*
X60965171Y-51061202D01*
X60965169Y-51061203D01*
X60959146Y-51065712D01*
X60940963Y-51076500D01*
X60934126Y-51079622D01*
X60894597Y-51113874D01*
X60891848Y-51116089D01*
X60878907Y-51125778D01*
X60867486Y-51137199D01*
X60864901Y-51139606D01*
X60825359Y-51173868D01*
X60823615Y-51176581D01*
X60822041Y-51179029D01*
X60774674Y-51217757D01*
X60738762Y-51224500D01*
X60509733Y-51224500D01*
X60480155Y-51227274D01*
X60480147Y-51227276D01*
X60355523Y-51270884D01*
X60249293Y-51349285D01*
X60249285Y-51349293D01*
X60170884Y-51455523D01*
X60127276Y-51580147D01*
X60127274Y-51580155D01*
X60124500Y-51609733D01*
X60124500Y-52215266D01*
X56315000Y-52215266D01*
X56315000Y-50531752D01*
X56303367Y-50473269D01*
X56259052Y-50406948D01*
X56259048Y-50406945D01*
X56192733Y-50362634D01*
X56192731Y-50362633D01*
X56192728Y-50362632D01*
X56192727Y-50362632D01*
X56134258Y-50351001D01*
X56134248Y-50351000D01*
X52665752Y-50351000D01*
X52665751Y-50351000D01*
X52665741Y-50351001D01*
X52607272Y-50362632D01*
X52607266Y-50362634D01*
X52540951Y-50406945D01*
X52540945Y-50406951D01*
X52496634Y-50473266D01*
X52496632Y-50473272D01*
X52485001Y-50531741D01*
X52485000Y-50531753D01*
X52485000Y-51158500D01*
X52466093Y-51216691D01*
X52416593Y-51252655D01*
X52386000Y-51257500D01*
X50706453Y-51257500D01*
X50685410Y-51255238D01*
X50678073Y-51253642D01*
X50678072Y-51253642D01*
X50625890Y-51257374D01*
X50622358Y-51257500D01*
X50606198Y-51257500D01*
X50590201Y-51259799D01*
X50586690Y-51260177D01*
X50534515Y-51263908D01*
X50527476Y-51266534D01*
X50506986Y-51271764D01*
X50499543Y-51272834D01*
X50499542Y-51272835D01*
X50451943Y-51294571D01*
X50448681Y-51295923D01*
X50399670Y-51314204D01*
X50399664Y-51314208D01*
X50393649Y-51318710D01*
X50375463Y-51329500D01*
X50368628Y-51332622D01*
X50368625Y-51332623D01*
X50329083Y-51366885D01*
X50326334Y-51369101D01*
X50313406Y-51378779D01*
X50301986Y-51390199D01*
X50299401Y-51392606D01*
X50259859Y-51426868D01*
X50259856Y-51426872D01*
X50255793Y-51433194D01*
X50242519Y-51449665D01*
X47956682Y-53735504D01*
X47902165Y-53763281D01*
X47886678Y-53764500D01*
X47447847Y-53764500D01*
X47389656Y-53745593D01*
X47353692Y-53696093D01*
X47353692Y-53634907D01*
X47389656Y-53585407D01*
X47401839Y-53577840D01*
X47405852Y-53575734D01*
X47468315Y-53520397D01*
X47524409Y-53495962D01*
X47533964Y-53495500D01*
X47688257Y-53495500D01*
X47688260Y-53495500D01*
X47756393Y-53485573D01*
X47861483Y-53434198D01*
X47944198Y-53351483D01*
X47995573Y-53246393D01*
X48005500Y-53178260D01*
X48005500Y-52811740D01*
X47995573Y-52743607D01*
X47944198Y-52638517D01*
X47861483Y-52555802D01*
X47761019Y-52506688D01*
X47717046Y-52464146D01*
X47705500Y-52417748D01*
X47705500Y-47942601D01*
X47724407Y-47884410D01*
X47724739Y-47883956D01*
X47740293Y-47862882D01*
X47773913Y-47766802D01*
X47810978Y-47718122D01*
X47867357Y-47700500D01*
X48475500Y-47700500D01*
X48533691Y-47719407D01*
X48569655Y-47768907D01*
X48574500Y-47799500D01*
X48574500Y-47904274D01*
X48577353Y-47934694D01*
X48577355Y-47934703D01*
X48622207Y-48062883D01*
X48702845Y-48172144D01*
X48702847Y-48172146D01*
X48702850Y-48172150D01*
X48702853Y-48172152D01*
X48702855Y-48172154D01*
X48812116Y-48252792D01*
X48812117Y-48252792D01*
X48812118Y-48252793D01*
X48940301Y-48297646D01*
X48970725Y-48300499D01*
X48970727Y-48300500D01*
X48970734Y-48300500D01*
X49904273Y-48300500D01*
X49904273Y-48300499D01*
X49934699Y-48297646D01*
X50062882Y-48252793D01*
X50172150Y-48172150D01*
X50252793Y-48062882D01*
X50297646Y-47934699D01*
X50300499Y-47904273D01*
X50300500Y-47904273D01*
X50300500Y-47904203D01*
X51700001Y-47904203D01*
X51702850Y-47934600D01*
X51702850Y-47934602D01*
X51747654Y-48062647D01*
X51828207Y-48171790D01*
X51828209Y-48171792D01*
X51937352Y-48252345D01*
X52065398Y-48297149D01*
X52095789Y-48299999D01*
X52412498Y-48299999D01*
X52412500Y-48299998D01*
X52712500Y-48299998D01*
X52712501Y-48299999D01*
X53029203Y-48299999D01*
X53059600Y-48297149D01*
X53059602Y-48297149D01*
X53187647Y-48252345D01*
X53296790Y-48171792D01*
X53296792Y-48171790D01*
X53377345Y-48062647D01*
X53422149Y-47934601D01*
X53424999Y-47904211D01*
X53425000Y-47904210D01*
X53425000Y-47350001D01*
X53424999Y-47350000D01*
X52712501Y-47350000D01*
X52712500Y-47350001D01*
X52712500Y-48299998D01*
X52412500Y-48299998D01*
X52412500Y-47350001D01*
X52412499Y-47350000D01*
X51700002Y-47350000D01*
X51700001Y-47350001D01*
X51700001Y-47904203D01*
X50300500Y-47904203D01*
X50300500Y-47049999D01*
X51700000Y-47049999D01*
X51700001Y-47050000D01*
X52412499Y-47050000D01*
X52412500Y-47049999D01*
X52712500Y-47049999D01*
X52712501Y-47050000D01*
X53424998Y-47050000D01*
X53424999Y-47049999D01*
X53424999Y-46495796D01*
X53422149Y-46465399D01*
X53422149Y-46465397D01*
X53377345Y-46337352D01*
X53296792Y-46228209D01*
X53296790Y-46228207D01*
X53187647Y-46147654D01*
X53059601Y-46102850D01*
X53029211Y-46100000D01*
X52712501Y-46100000D01*
X52712500Y-46100001D01*
X52712500Y-47049999D01*
X52412500Y-47049999D01*
X52412500Y-46100001D01*
X52412499Y-46100000D01*
X52095796Y-46100000D01*
X52065399Y-46102850D01*
X52065397Y-46102850D01*
X51937352Y-46147654D01*
X51828209Y-46228207D01*
X51828207Y-46228209D01*
X51747654Y-46337352D01*
X51702850Y-46465398D01*
X51700000Y-46495788D01*
X51700000Y-47049999D01*
X50300500Y-47049999D01*
X50300500Y-46495727D01*
X50300499Y-46495725D01*
X50299219Y-46482072D01*
X50297646Y-46465301D01*
X50252793Y-46337118D01*
X50249273Y-46332349D01*
X50172154Y-46227855D01*
X50172152Y-46227853D01*
X50172150Y-46227850D01*
X50172146Y-46227847D01*
X50172144Y-46227845D01*
X50062883Y-46147207D01*
X49934703Y-46102355D01*
X49934694Y-46102353D01*
X49904274Y-46099500D01*
X49904266Y-46099500D01*
X48970734Y-46099500D01*
X48970725Y-46099500D01*
X48940305Y-46102353D01*
X48940296Y-46102355D01*
X48812116Y-46147207D01*
X48702850Y-46227849D01*
X48679648Y-46259288D01*
X48629880Y-46294881D01*
X48599992Y-46299500D01*
X47867357Y-46299500D01*
X47809166Y-46280593D01*
X47773913Y-46233198D01*
X47750049Y-46165000D01*
X47740293Y-46137118D01*
X47738399Y-46134552D01*
X47659654Y-46027855D01*
X47659652Y-46027853D01*
X47659650Y-46027850D01*
X47659646Y-46027847D01*
X47654496Y-46022697D01*
X47626719Y-45968180D01*
X47625500Y-45952693D01*
X47625500Y-45247307D01*
X47644407Y-45189116D01*
X47654500Y-45177300D01*
X47659652Y-45172148D01*
X47736490Y-45068035D01*
X47740293Y-45062882D01*
X47773913Y-44966802D01*
X47810978Y-44918122D01*
X47867357Y-44900500D01*
X48327346Y-44900500D01*
X48345192Y-44902122D01*
X48357394Y-44904358D01*
X48419693Y-44900589D01*
X48422659Y-44900500D01*
X48657643Y-44900500D01*
X48715834Y-44919407D01*
X48751087Y-44966802D01*
X48784707Y-45062883D01*
X48865345Y-45172144D01*
X48865347Y-45172146D01*
X48865350Y-45172150D01*
X48865353Y-45172152D01*
X48865355Y-45172154D01*
X48974616Y-45252792D01*
X48974617Y-45252792D01*
X48974618Y-45252793D01*
X49102801Y-45297646D01*
X49133225Y-45300499D01*
X49133227Y-45300500D01*
X49133234Y-45300500D01*
X50066773Y-45300500D01*
X50066773Y-45300499D01*
X50097199Y-45297646D01*
X50225382Y-45252793D01*
X50334650Y-45172150D01*
X50415293Y-45062882D01*
X50460146Y-44934699D01*
X50462999Y-44904273D01*
X50463000Y-44904273D01*
X50463000Y-44904203D01*
X51862501Y-44904203D01*
X51865350Y-44934600D01*
X51865350Y-44934602D01*
X51910154Y-45062647D01*
X51990707Y-45171790D01*
X51990709Y-45171792D01*
X52099852Y-45252345D01*
X52227898Y-45297149D01*
X52258289Y-45299999D01*
X52574998Y-45299999D01*
X52575000Y-45299998D01*
X52875000Y-45299998D01*
X52875001Y-45299999D01*
X53191703Y-45299999D01*
X53222100Y-45297149D01*
X53222102Y-45297149D01*
X53350147Y-45252345D01*
X53459290Y-45171792D01*
X53459292Y-45171790D01*
X53539845Y-45062647D01*
X53584649Y-44934601D01*
X53587499Y-44904211D01*
X53587500Y-44904210D01*
X53587500Y-44350001D01*
X53587499Y-44350000D01*
X52875001Y-44350000D01*
X52875000Y-44350001D01*
X52875000Y-45299998D01*
X52575000Y-45299998D01*
X52575000Y-44350001D01*
X52574999Y-44350000D01*
X51862502Y-44350000D01*
X51862501Y-44350001D01*
X51862501Y-44904203D01*
X50463000Y-44904203D01*
X50463000Y-44049999D01*
X51862500Y-44049999D01*
X51862501Y-44050000D01*
X52574999Y-44050000D01*
X52575000Y-44049999D01*
X52875000Y-44049999D01*
X52875001Y-44050000D01*
X53587498Y-44050000D01*
X53587499Y-44049999D01*
X53587499Y-43495796D01*
X53584649Y-43465399D01*
X53584649Y-43465397D01*
X53539845Y-43337352D01*
X53459292Y-43228209D01*
X53459290Y-43228207D01*
X53350147Y-43147654D01*
X53222101Y-43102850D01*
X53191711Y-43100000D01*
X52875001Y-43100000D01*
X52875000Y-43100001D01*
X52875000Y-44049999D01*
X52575000Y-44049999D01*
X52575000Y-43100001D01*
X52574999Y-43100000D01*
X52258296Y-43100000D01*
X52227899Y-43102850D01*
X52227897Y-43102850D01*
X52099852Y-43147654D01*
X51990709Y-43228207D01*
X51990707Y-43228209D01*
X51910154Y-43337352D01*
X51865350Y-43465398D01*
X51862500Y-43495788D01*
X51862500Y-44049999D01*
X50463000Y-44049999D01*
X50463000Y-43495727D01*
X50462999Y-43495725D01*
X50462488Y-43490272D01*
X50460146Y-43465301D01*
X50415293Y-43337118D01*
X50411584Y-43332093D01*
X50334654Y-43227855D01*
X50334652Y-43227853D01*
X50334650Y-43227850D01*
X50334646Y-43227847D01*
X50334644Y-43227845D01*
X50225383Y-43147207D01*
X50097203Y-43102355D01*
X50097194Y-43102353D01*
X50066774Y-43099500D01*
X50066766Y-43099500D01*
X49133234Y-43099500D01*
X49133225Y-43099500D01*
X49102805Y-43102353D01*
X49102801Y-43102354D01*
X49032197Y-43127059D01*
X48971027Y-43128431D01*
X48920733Y-43093587D01*
X48900525Y-43035835D01*
X48900500Y-43033614D01*
X48900500Y-41427486D01*
X48919407Y-41369295D01*
X48943554Y-41345810D01*
X48970215Y-41327547D01*
X48970214Y-41327547D01*
X48970221Y-41327543D01*
X49127543Y-41170221D01*
X49231438Y-41018551D01*
X49279922Y-40981230D01*
X49313113Y-40975500D01*
X49750500Y-40975500D01*
X49808691Y-40994407D01*
X49844655Y-41043907D01*
X49849500Y-41074500D01*
X49849500Y-41144746D01*
X49849501Y-41144758D01*
X49861132Y-41203227D01*
X49861133Y-41203231D01*
X49905448Y-41269552D01*
X49971769Y-41313867D01*
X50016231Y-41322711D01*
X50030241Y-41325498D01*
X50030246Y-41325498D01*
X50030252Y-41325500D01*
X50030253Y-41325500D01*
X51769747Y-41325500D01*
X51769748Y-41325500D01*
X51828231Y-41313867D01*
X51894552Y-41269552D01*
X51938867Y-41203231D01*
X51950500Y-41144748D01*
X51950500Y-41074500D01*
X51969407Y-41016309D01*
X52018907Y-40980345D01*
X52049500Y-40975500D01*
X52743835Y-40975500D01*
X52802026Y-40994407D01*
X52813839Y-41004496D01*
X55870504Y-44061161D01*
X55898281Y-44115678D01*
X55899500Y-44131165D01*
X55899500Y-45777340D01*
X55899410Y-45780307D01*
X55898810Y-45790241D01*
X55895641Y-45842604D01*
X55906891Y-45903999D01*
X55907341Y-45906954D01*
X55914860Y-45968873D01*
X55914861Y-45968875D01*
X55919255Y-45980461D01*
X55924067Y-45997723D01*
X55926303Y-46009926D01*
X55926305Y-46009932D01*
X55941066Y-46042731D01*
X55951916Y-46066837D01*
X55953059Y-46069598D01*
X55968022Y-46109052D01*
X55975183Y-46127932D01*
X55975183Y-46127934D01*
X55982229Y-46138141D01*
X55991029Y-46153743D01*
X55996120Y-46165054D01*
X55996121Y-46165055D01*
X55996122Y-46165057D01*
X56008937Y-46181414D01*
X56034598Y-46214168D01*
X56036369Y-46216576D01*
X56071814Y-46267925D01*
X56071817Y-46267929D01*
X56085637Y-46280172D01*
X56118508Y-46309294D01*
X56120686Y-46311344D01*
X56688654Y-46879312D01*
X56690704Y-46881489D01*
X56732065Y-46928177D01*
X56732069Y-46928181D01*
X56732071Y-46928183D01*
X56750215Y-46940707D01*
X56783422Y-46963629D01*
X56785820Y-46965392D01*
X56834943Y-47003878D01*
X56834945Y-47003879D01*
X56834948Y-47003881D01*
X56846251Y-47008968D01*
X56861857Y-47017769D01*
X56867527Y-47021682D01*
X56872070Y-47024818D01*
X56909566Y-47039038D01*
X56930409Y-47046943D01*
X56933163Y-47048083D01*
X56990068Y-47073694D01*
X57002275Y-47075930D01*
X57019528Y-47080740D01*
X57031128Y-47085140D01*
X57069323Y-47089777D01*
X57124810Y-47115560D01*
X57127394Y-47118051D01*
X57188654Y-47179312D01*
X57190704Y-47181489D01*
X57232065Y-47228177D01*
X57232067Y-47228179D01*
X57232071Y-47228183D01*
X57283435Y-47263637D01*
X57285804Y-47265380D01*
X57317537Y-47290241D01*
X57334936Y-47303873D01*
X57334946Y-47303880D01*
X57346252Y-47308968D01*
X57361862Y-47317772D01*
X57368450Y-47322319D01*
X57372070Y-47324818D01*
X57408970Y-47338812D01*
X57430406Y-47346942D01*
X57433168Y-47348086D01*
X57490068Y-47373695D01*
X57502279Y-47375932D01*
X57519529Y-47380741D01*
X57531128Y-47385140D01*
X57531131Y-47385140D01*
X57535605Y-47386837D01*
X57583310Y-47425150D01*
X57599500Y-47479404D01*
X57599500Y-48254274D01*
X57602353Y-48284694D01*
X57602355Y-48284703D01*
X57647207Y-48412883D01*
X57727845Y-48522144D01*
X57727847Y-48522146D01*
X57727850Y-48522150D01*
X57727853Y-48522152D01*
X57727855Y-48522154D01*
X57837116Y-48602792D01*
X57837117Y-48602792D01*
X57837118Y-48602793D01*
X57965301Y-48647646D01*
X57995725Y-48650499D01*
X57995727Y-48650500D01*
X57995734Y-48650500D01*
X59204273Y-48650500D01*
X59204273Y-48650499D01*
X59234699Y-48647646D01*
X59362882Y-48602793D01*
X59472150Y-48522150D01*
X59506678Y-48475365D01*
X59556443Y-48439774D01*
X59617626Y-48440230D01*
X59656336Y-48464150D01*
X60270504Y-49078318D01*
X60298281Y-49132835D01*
X60299500Y-49148322D01*
X60299500Y-49437253D01*
X60280593Y-49495444D01*
X60259293Y-49516905D01*
X60249292Y-49524286D01*
X60249285Y-49524293D01*
X60170884Y-49630523D01*
X60127276Y-49755147D01*
X60127274Y-49755155D01*
X60124500Y-49784733D01*
X60124500Y-50390266D01*
X60127274Y-50419844D01*
X60127276Y-50419852D01*
X60170884Y-50544476D01*
X60205577Y-50591483D01*
X60249289Y-50650711D01*
X60249292Y-50650713D01*
X60249293Y-50650714D01*
X60355523Y-50729115D01*
X60355524Y-50729115D01*
X60355525Y-50729116D01*
X60480151Y-50772725D01*
X60507441Y-50775284D01*
X60509733Y-50775499D01*
X60509738Y-50775500D01*
X60509744Y-50775500D01*
X61090262Y-50775500D01*
X61090265Y-50775499D01*
X61119849Y-50772725D01*
X61244475Y-50729116D01*
X61350711Y-50650711D01*
X61429116Y-50544475D01*
X61472725Y-50419849D01*
X61475500Y-50390256D01*
X61475500Y-49784744D01*
X61475500Y-49784738D01*
X61475499Y-49784733D01*
X61472725Y-49755155D01*
X61472725Y-49755151D01*
X61429116Y-49630525D01*
X61427405Y-49628207D01*
X61423774Y-49623286D01*
X61404434Y-49565238D01*
X61422907Y-49506908D01*
X61472137Y-49470576D01*
X61503431Y-49465500D01*
X63908257Y-49465500D01*
X63908260Y-49465500D01*
X63976393Y-49455573D01*
X64081483Y-49404198D01*
X64164198Y-49321483D01*
X64215573Y-49216393D01*
X64225500Y-49148260D01*
X64225500Y-48781740D01*
X64215573Y-48713607D01*
X64164198Y-48608517D01*
X64081483Y-48525802D01*
X64074013Y-48522150D01*
X63976395Y-48474427D01*
X63949139Y-48470456D01*
X63908260Y-48464500D01*
X63908257Y-48464500D01*
X61113322Y-48464500D01*
X61055131Y-48445593D01*
X61043318Y-48435504D01*
X60486074Y-47878260D01*
X61874500Y-47878260D01*
X61878280Y-47904203D01*
X61884427Y-47946395D01*
X61935657Y-48051187D01*
X61935802Y-48051483D01*
X62018517Y-48134198D01*
X62050841Y-48150000D01*
X62123604Y-48185572D01*
X62123605Y-48185572D01*
X62123607Y-48185573D01*
X62191740Y-48195500D01*
X63030348Y-48195500D01*
X63033881Y-48195626D01*
X63038871Y-48195982D01*
X63086073Y-48199359D01*
X63092470Y-48197967D01*
X63093410Y-48197763D01*
X63114456Y-48195500D01*
X63908257Y-48195500D01*
X63908260Y-48195500D01*
X63976393Y-48185573D01*
X64081483Y-48134198D01*
X64164198Y-48051483D01*
X64215573Y-47946393D01*
X64225500Y-47878260D01*
X64225500Y-47878216D01*
X66825001Y-47878216D01*
X66834912Y-47946250D01*
X66886214Y-48051188D01*
X66968812Y-48133786D01*
X67073751Y-48185087D01*
X67141784Y-48194999D01*
X67849998Y-48194999D01*
X67850000Y-48194998D01*
X68150000Y-48194998D01*
X68150001Y-48194999D01*
X68858213Y-48194999D01*
X68858216Y-48194998D01*
X68926250Y-48185087D01*
X69031188Y-48133785D01*
X69113786Y-48051187D01*
X69165087Y-47946248D01*
X69175000Y-47878215D01*
X69175000Y-47845001D01*
X69174999Y-47845000D01*
X68150001Y-47845000D01*
X68150000Y-47845001D01*
X68150000Y-48194998D01*
X67850000Y-48194998D01*
X67850000Y-47845001D01*
X67849999Y-47845000D01*
X66825002Y-47845000D01*
X66825001Y-47845001D01*
X66825001Y-47878216D01*
X64225500Y-47878216D01*
X64225500Y-47544999D01*
X66825000Y-47544999D01*
X66825001Y-47545000D01*
X67849999Y-47545000D01*
X67850000Y-47544999D01*
X68150000Y-47544999D01*
X68150001Y-47545000D01*
X69174998Y-47545000D01*
X69174999Y-47544999D01*
X69174999Y-47511786D01*
X69174998Y-47511783D01*
X69171854Y-47490201D01*
X69525000Y-47490201D01*
X69527771Y-47519758D01*
X69527772Y-47519759D01*
X69571330Y-47644240D01*
X69649641Y-47750348D01*
X69649651Y-47750358D01*
X69755759Y-47828669D01*
X69880240Y-47872227D01*
X69880241Y-47872228D01*
X69909799Y-47875000D01*
X70049999Y-47875000D01*
X70050000Y-47874999D01*
X70350000Y-47874999D01*
X70350001Y-47875000D01*
X70490201Y-47875000D01*
X70519758Y-47872228D01*
X70519759Y-47872227D01*
X70644240Y-47828669D01*
X70750348Y-47750358D01*
X70750358Y-47750348D01*
X70828669Y-47644240D01*
X70872227Y-47519759D01*
X70872228Y-47519758D01*
X70875000Y-47490201D01*
X70875000Y-47287501D01*
X70874999Y-47287500D01*
X70350001Y-47287500D01*
X70350000Y-47287501D01*
X70350000Y-47874999D01*
X70050000Y-47874999D01*
X70050000Y-47287501D01*
X70049999Y-47287500D01*
X69525001Y-47287500D01*
X69525000Y-47287501D01*
X69525000Y-47490201D01*
X69171854Y-47490201D01*
X69165087Y-47443749D01*
X69113785Y-47338811D01*
X69031187Y-47256213D01*
X68926248Y-47204912D01*
X68858216Y-47195000D01*
X68150001Y-47195000D01*
X68150000Y-47195001D01*
X68150000Y-47544999D01*
X67850000Y-47544999D01*
X67850000Y-47195001D01*
X67849999Y-47195000D01*
X67141786Y-47195000D01*
X67141783Y-47195001D01*
X67073749Y-47204912D01*
X66968811Y-47256214D01*
X66886213Y-47338812D01*
X66834912Y-47443751D01*
X66825000Y-47511784D01*
X66825000Y-47544999D01*
X64225500Y-47544999D01*
X64225500Y-47511740D01*
X64215573Y-47443607D01*
X64164198Y-47338517D01*
X64081483Y-47255802D01*
X64081481Y-47255801D01*
X63976395Y-47204427D01*
X63949139Y-47200456D01*
X63908260Y-47194500D01*
X63908257Y-47194500D01*
X63599500Y-47194500D01*
X63541309Y-47175593D01*
X63505345Y-47126093D01*
X63500500Y-47095500D01*
X63500500Y-46987499D01*
X69525000Y-46987499D01*
X69525001Y-46987500D01*
X70049999Y-46987500D01*
X70050000Y-46987499D01*
X70350000Y-46987499D01*
X70350001Y-46987500D01*
X70874999Y-46987500D01*
X70875000Y-46987499D01*
X70875000Y-46784798D01*
X70872228Y-46755241D01*
X70872227Y-46755240D01*
X70828669Y-46630759D01*
X70750358Y-46524651D01*
X70750348Y-46524641D01*
X70644240Y-46446330D01*
X70519759Y-46402772D01*
X70519758Y-46402771D01*
X70490201Y-46400000D01*
X70350001Y-46400000D01*
X70350000Y-46400001D01*
X70350000Y-46987499D01*
X70050000Y-46987499D01*
X70050000Y-46400001D01*
X70049999Y-46400000D01*
X69909799Y-46400000D01*
X69880241Y-46402771D01*
X69880240Y-46402772D01*
X69755759Y-46446330D01*
X69649651Y-46524641D01*
X69649641Y-46524651D01*
X69571330Y-46630759D01*
X69527772Y-46755240D01*
X69527771Y-46755241D01*
X69525000Y-46784798D01*
X69525000Y-46987499D01*
X63500500Y-46987499D01*
X63500500Y-46650245D01*
X63519407Y-46592054D01*
X63540715Y-46570588D01*
X63550711Y-46563211D01*
X63567316Y-46540710D01*
X63617083Y-46505119D01*
X63646971Y-46500500D01*
X64760544Y-46500500D01*
X64781590Y-46502763D01*
X64782830Y-46503032D01*
X64788927Y-46504359D01*
X64836412Y-46500962D01*
X64841119Y-46500626D01*
X64844652Y-46500500D01*
X64860799Y-46500500D01*
X64876799Y-46498199D01*
X64880272Y-46497824D01*
X64932483Y-46494091D01*
X64939515Y-46491467D01*
X64960022Y-46486233D01*
X64967457Y-46485165D01*
X65015049Y-46463429D01*
X65018295Y-46462084D01*
X65067331Y-46443796D01*
X65073342Y-46439296D01*
X65091549Y-46428492D01*
X65098373Y-46425377D01*
X65137917Y-46391110D01*
X65140642Y-46388914D01*
X65153593Y-46379221D01*
X65165042Y-46367770D01*
X65167579Y-46365408D01*
X65207143Y-46331128D01*
X65211202Y-46324811D01*
X65224477Y-46308335D01*
X66430496Y-45102317D01*
X66485013Y-45074540D01*
X66545445Y-45084111D01*
X66588710Y-45127376D01*
X66599500Y-45172321D01*
X66599500Y-45654274D01*
X66602353Y-45684694D01*
X66602355Y-45684703D01*
X66647207Y-45812883D01*
X66727845Y-45922144D01*
X66727847Y-45922146D01*
X66727850Y-45922150D01*
X66727853Y-45922152D01*
X66727855Y-45922154D01*
X66837116Y-46002792D01*
X66837117Y-46002792D01*
X66837118Y-46002793D01*
X66965301Y-46047646D01*
X66995725Y-46050499D01*
X66995727Y-46050500D01*
X66995734Y-46050500D01*
X68204273Y-46050500D01*
X68204273Y-46050499D01*
X68234699Y-46047646D01*
X68353557Y-46006056D01*
X68386255Y-46000500D01*
X72740499Y-46000500D01*
X72798690Y-46019407D01*
X72822812Y-46044496D01*
X72865948Y-46109052D01*
X72932269Y-46153367D01*
X72976731Y-46162211D01*
X72990741Y-46164998D01*
X72990746Y-46164998D01*
X72990752Y-46165000D01*
X72990753Y-46165000D01*
X76459247Y-46165000D01*
X76459248Y-46165000D01*
X76517731Y-46153367D01*
X76584052Y-46109052D01*
X76628367Y-46042731D01*
X76640000Y-45984248D01*
X76640000Y-43531752D01*
X76628367Y-43473269D01*
X76584052Y-43406948D01*
X76584048Y-43406945D01*
X76517733Y-43362634D01*
X76517731Y-43362633D01*
X76517728Y-43362632D01*
X76517727Y-43362632D01*
X76459258Y-43351001D01*
X76459248Y-43351000D01*
X76459247Y-43351000D01*
X75824500Y-43351000D01*
X75766309Y-43332093D01*
X75730345Y-43282593D01*
X75725500Y-43252000D01*
X75725500Y-40944501D01*
X75725500Y-40944497D01*
X75710115Y-40778464D01*
X75649229Y-40564472D01*
X75612363Y-40490436D01*
X75585879Y-40437248D01*
X75575500Y-40393120D01*
X75575500Y-40130253D01*
X75575498Y-40130241D01*
X75572711Y-40116231D01*
X75563867Y-40071769D01*
X75519552Y-40005448D01*
X75519548Y-40005445D01*
X75453233Y-39961134D01*
X75453231Y-39961133D01*
X75453228Y-39961132D01*
X75453227Y-39961132D01*
X75394758Y-39949501D01*
X75394748Y-39949500D01*
X75394747Y-39949500D01*
X75136996Y-39949500D01*
X75084880Y-39934671D01*
X75062401Y-39920753D01*
X74854940Y-39840382D01*
X74854939Y-39840381D01*
X74854937Y-39840381D01*
X74636243Y-39799500D01*
X74413757Y-39799500D01*
X74195062Y-39840381D01*
X73987598Y-39920753D01*
X73978002Y-39926695D01*
X73965119Y-39934671D01*
X73913004Y-39949500D01*
X73655252Y-39949500D01*
X73655251Y-39949500D01*
X73655241Y-39949501D01*
X73596772Y-39961132D01*
X73596766Y-39961134D01*
X73530451Y-40005445D01*
X73530445Y-40005451D01*
X73486134Y-40071766D01*
X73486132Y-40071772D01*
X73474501Y-40130241D01*
X73474500Y-40130253D01*
X73474500Y-40393120D01*
X73464121Y-40437248D01*
X73422916Y-40520000D01*
X73400771Y-40564472D01*
X73339885Y-40778464D01*
X73324500Y-40944494D01*
X73324500Y-43252000D01*
X73305593Y-43310191D01*
X73256093Y-43346155D01*
X73225500Y-43351000D01*
X72990752Y-43351000D01*
X72990751Y-43351000D01*
X72990741Y-43351001D01*
X72932272Y-43362632D01*
X72932266Y-43362634D01*
X72865951Y-43406945D01*
X72865945Y-43406951D01*
X72821634Y-43473266D01*
X72821634Y-43473267D01*
X72821633Y-43473269D01*
X72812374Y-43519816D01*
X72782478Y-43573198D01*
X72726912Y-43598814D01*
X72715277Y-43599500D01*
X68699500Y-43599500D01*
X68641309Y-43580593D01*
X68605345Y-43531093D01*
X68600500Y-43500500D01*
X68600500Y-42545727D01*
X68600499Y-42545725D01*
X68597646Y-42515305D01*
X68597646Y-42515301D01*
X68552793Y-42387118D01*
X68472150Y-42277850D01*
X68472146Y-42277847D01*
X68472144Y-42277845D01*
X68362883Y-42197207D01*
X68234703Y-42152355D01*
X68234694Y-42152353D01*
X68204274Y-42149500D01*
X68204266Y-42149500D01*
X66995734Y-42149500D01*
X66995725Y-42149500D01*
X66965305Y-42152353D01*
X66965296Y-42152355D01*
X66837116Y-42197207D01*
X66727855Y-42277845D01*
X66727845Y-42277855D01*
X66647207Y-42387116D01*
X66602355Y-42515296D01*
X66602353Y-42515305D01*
X66599500Y-42545725D01*
X66599500Y-43773314D01*
X66580593Y-43831505D01*
X66556740Y-43854788D01*
X66532071Y-43871817D01*
X66532069Y-43871818D01*
X66527145Y-43875218D01*
X66526245Y-43873914D01*
X66476944Y-43895380D01*
X66462110Y-43895566D01*
X66408881Y-43899374D01*
X66405348Y-43899500D01*
X66164196Y-43899500D01*
X66057543Y-43914834D01*
X65926628Y-43974622D01*
X65817855Y-44068873D01*
X65740049Y-44189942D01*
X65740046Y-44189949D01*
X65699500Y-44328035D01*
X65699500Y-44376678D01*
X65680593Y-44434869D01*
X65670504Y-44446682D01*
X64646682Y-45470504D01*
X64592165Y-45498281D01*
X64576678Y-45499500D01*
X63646971Y-45499500D01*
X63588780Y-45480593D01*
X63567317Y-45459290D01*
X63550711Y-45436789D01*
X63550706Y-45436785D01*
X63444476Y-45358384D01*
X63319852Y-45314776D01*
X63319851Y-45314775D01*
X63319849Y-45314775D01*
X63319847Y-45314774D01*
X63319844Y-45314774D01*
X63290266Y-45312000D01*
X63290256Y-45312000D01*
X62709744Y-45312000D01*
X62709733Y-45312000D01*
X62680155Y-45314774D01*
X62680147Y-45314776D01*
X62555523Y-45358384D01*
X62449293Y-45436785D01*
X62449285Y-45436793D01*
X62370884Y-45543023D01*
X62327276Y-45667647D01*
X62327274Y-45667655D01*
X62324500Y-45697233D01*
X62324500Y-46302766D01*
X62327274Y-46332344D01*
X62327276Y-46332352D01*
X62370884Y-46456976D01*
X62432684Y-46540712D01*
X62449289Y-46563211D01*
X62456092Y-46568232D01*
X62459285Y-46570588D01*
X62494880Y-46620354D01*
X62499500Y-46650245D01*
X62499500Y-47095500D01*
X62480593Y-47153691D01*
X62431093Y-47189655D01*
X62400500Y-47194500D01*
X62191740Y-47194500D01*
X62157673Y-47199463D01*
X62123604Y-47204427D01*
X62018518Y-47255801D01*
X61935801Y-47338518D01*
X61884427Y-47443604D01*
X61884427Y-47443607D01*
X61874500Y-47511740D01*
X61874500Y-47878260D01*
X60486074Y-47878260D01*
X59629496Y-47021682D01*
X59601719Y-46967165D01*
X59600500Y-46951678D01*
X59600500Y-45145727D01*
X59600499Y-45145725D01*
X59597646Y-45115305D01*
X59597646Y-45115301D01*
X59552793Y-44987118D01*
X59545386Y-44977082D01*
X59472154Y-44877855D01*
X59472152Y-44877853D01*
X59472150Y-44877850D01*
X59472146Y-44877847D01*
X59472144Y-44877845D01*
X59362883Y-44797207D01*
X59234703Y-44752355D01*
X59234694Y-44752353D01*
X59204274Y-44749500D01*
X59204266Y-44749500D01*
X57995734Y-44749500D01*
X57995725Y-44749500D01*
X57965305Y-44752353D01*
X57965296Y-44752355D01*
X57837116Y-44797207D01*
X57727855Y-44877845D01*
X57727845Y-44877855D01*
X57647207Y-44987116D01*
X57602355Y-45115296D01*
X57602353Y-45115305D01*
X57599500Y-45145725D01*
X57599500Y-45569835D01*
X57580593Y-45628026D01*
X57531093Y-45663990D01*
X57469907Y-45663990D01*
X57430496Y-45639839D01*
X57329496Y-45538839D01*
X57301719Y-45484322D01*
X57300500Y-45468835D01*
X57300500Y-44477701D01*
X62325000Y-44477701D01*
X62327771Y-44507258D01*
X62327772Y-44507259D01*
X62371330Y-44631740D01*
X62449641Y-44737848D01*
X62449651Y-44737858D01*
X62555759Y-44816169D01*
X62680240Y-44859727D01*
X62680241Y-44859728D01*
X62709799Y-44862500D01*
X62849999Y-44862500D01*
X62850000Y-44862499D01*
X63150000Y-44862499D01*
X63150001Y-44862500D01*
X63290201Y-44862500D01*
X63319758Y-44859728D01*
X63319759Y-44859727D01*
X63444240Y-44816169D01*
X63550348Y-44737858D01*
X63550358Y-44737848D01*
X63628669Y-44631740D01*
X63672227Y-44507259D01*
X63672228Y-44507258D01*
X63675000Y-44477701D01*
X63675000Y-44325001D01*
X63674999Y-44325000D01*
X63150001Y-44325000D01*
X63150000Y-44325001D01*
X63150000Y-44862499D01*
X62850000Y-44862499D01*
X62850000Y-44325001D01*
X62849999Y-44325000D01*
X62325001Y-44325000D01*
X62325000Y-44325001D01*
X62325000Y-44477701D01*
X57300500Y-44477701D01*
X57300500Y-44024999D01*
X62325000Y-44024999D01*
X62325001Y-44025000D01*
X62849999Y-44025000D01*
X62850000Y-44024999D01*
X63150000Y-44024999D01*
X63150001Y-44025000D01*
X63674999Y-44025000D01*
X63675000Y-44024999D01*
X63675000Y-43872298D01*
X63672228Y-43842741D01*
X63672227Y-43842740D01*
X63628669Y-43718259D01*
X63550358Y-43612151D01*
X63550348Y-43612141D01*
X63444240Y-43533830D01*
X63319759Y-43490272D01*
X63319758Y-43490271D01*
X63290201Y-43487500D01*
X63150001Y-43487500D01*
X63150000Y-43487501D01*
X63150000Y-44024999D01*
X62850000Y-44024999D01*
X62850000Y-43487501D01*
X62849999Y-43487500D01*
X62709799Y-43487500D01*
X62680241Y-43490271D01*
X62680240Y-43490272D01*
X62555759Y-43533830D01*
X62449651Y-43612141D01*
X62449641Y-43612151D01*
X62371330Y-43718259D01*
X62327772Y-43842740D01*
X62327771Y-43842741D01*
X62325000Y-43872298D01*
X62325000Y-44024999D01*
X57300500Y-44024999D01*
X57300500Y-43822658D01*
X57300589Y-43819692D01*
X57304358Y-43757394D01*
X57293104Y-43695985D01*
X57292660Y-43693070D01*
X57285140Y-43631128D01*
X57280741Y-43619529D01*
X57275931Y-43602274D01*
X57275297Y-43598814D01*
X57273695Y-43590069D01*
X57248075Y-43533145D01*
X57246947Y-43530421D01*
X57224818Y-43472070D01*
X57220212Y-43465397D01*
X57217768Y-43461856D01*
X57208965Y-43446247D01*
X57208606Y-43445449D01*
X57203878Y-43434944D01*
X57203876Y-43434942D01*
X57203876Y-43434940D01*
X57165402Y-43385832D01*
X57163644Y-43383445D01*
X57128183Y-43332071D01*
X57128179Y-43332067D01*
X57128177Y-43332065D01*
X57081489Y-43290704D01*
X57079312Y-43288654D01*
X56644861Y-42854203D01*
X57600001Y-42854203D01*
X57602850Y-42884600D01*
X57602850Y-42884602D01*
X57647654Y-43012647D01*
X57728207Y-43121790D01*
X57728209Y-43121792D01*
X57837352Y-43202345D01*
X57965398Y-43247149D01*
X57995789Y-43249999D01*
X58449998Y-43249999D01*
X58450000Y-43249998D01*
X58750000Y-43249998D01*
X58750001Y-43249999D01*
X59204203Y-43249999D01*
X59234600Y-43247149D01*
X59234602Y-43247149D01*
X59362647Y-43202345D01*
X59471790Y-43121792D01*
X59471792Y-43121790D01*
X59552345Y-43012647D01*
X59597149Y-42884601D01*
X59599999Y-42854211D01*
X59600000Y-42854210D01*
X59600000Y-41450001D01*
X59599999Y-41450000D01*
X58750001Y-41450000D01*
X58750000Y-41450001D01*
X58750000Y-43249998D01*
X58450000Y-43249998D01*
X58450000Y-41450001D01*
X58449999Y-41450000D01*
X57600002Y-41450000D01*
X57600001Y-41450001D01*
X57600001Y-42854203D01*
X56644861Y-42854203D01*
X54940657Y-41149999D01*
X57600000Y-41149999D01*
X57600001Y-41150000D01*
X58449999Y-41150000D01*
X58450000Y-41149999D01*
X58750000Y-41149999D01*
X58750001Y-41150000D01*
X59599998Y-41150000D01*
X59599999Y-41149999D01*
X59599999Y-40254203D01*
X66600001Y-40254203D01*
X66602850Y-40284600D01*
X66602850Y-40284602D01*
X66647654Y-40412647D01*
X66728207Y-40521790D01*
X66728209Y-40521792D01*
X66837352Y-40602345D01*
X66965398Y-40647149D01*
X66995789Y-40649999D01*
X67449998Y-40649999D01*
X67450000Y-40649998D01*
X67750000Y-40649998D01*
X67750001Y-40649999D01*
X68204203Y-40649999D01*
X68234600Y-40647149D01*
X68234602Y-40647149D01*
X68362647Y-40602345D01*
X68471790Y-40521792D01*
X68471792Y-40521790D01*
X68552345Y-40412647D01*
X68597149Y-40284601D01*
X68599999Y-40254211D01*
X68600000Y-40254210D01*
X68600000Y-38850001D01*
X68599999Y-38850000D01*
X67750001Y-38850000D01*
X67750000Y-38850001D01*
X67750000Y-40649998D01*
X67450000Y-40649998D01*
X67450000Y-38850001D01*
X67449999Y-38850000D01*
X66600002Y-38850000D01*
X66600001Y-38850001D01*
X66600001Y-40254203D01*
X59599999Y-40254203D01*
X59599999Y-39745796D01*
X59597149Y-39715399D01*
X59597149Y-39715397D01*
X59552345Y-39587352D01*
X59471792Y-39478209D01*
X59471790Y-39478207D01*
X59362647Y-39397654D01*
X59234601Y-39352850D01*
X59204211Y-39350000D01*
X58750001Y-39350000D01*
X58750000Y-39350001D01*
X58750000Y-41149999D01*
X58450000Y-41149999D01*
X58450000Y-39350001D01*
X58449999Y-39350000D01*
X57995796Y-39350000D01*
X57965399Y-39352850D01*
X57965397Y-39352850D01*
X57837352Y-39397654D01*
X57728209Y-39478207D01*
X57728207Y-39478209D01*
X57647654Y-39587352D01*
X57602850Y-39715398D01*
X57600000Y-39745788D01*
X57600000Y-41149999D01*
X54940657Y-41149999D01*
X53586344Y-39795686D01*
X53584294Y-39793508D01*
X53567173Y-39774183D01*
X53542929Y-39746817D01*
X53541450Y-39745796D01*
X53491576Y-39711369D01*
X53489168Y-39709598D01*
X53440054Y-39671120D01*
X53428743Y-39666029D01*
X53413141Y-39657229D01*
X53402933Y-39650183D01*
X53344600Y-39628060D01*
X53341848Y-39626920D01*
X53314048Y-39614409D01*
X53284933Y-39601305D01*
X53284926Y-39601303D01*
X53272723Y-39599067D01*
X53255461Y-39594255D01*
X53243875Y-39589861D01*
X53243873Y-39589860D01*
X53181954Y-39582341D01*
X53178999Y-39581891D01*
X53117602Y-39570641D01*
X53078598Y-39573001D01*
X53055306Y-39574410D01*
X53052341Y-39574500D01*
X52049500Y-39574500D01*
X51991309Y-39555593D01*
X51955345Y-39506093D01*
X51950500Y-39475500D01*
X51950500Y-39405253D01*
X51950498Y-39405241D01*
X51943488Y-39370002D01*
X51938867Y-39346769D01*
X51894552Y-39280448D01*
X51869094Y-39263437D01*
X51828233Y-39236134D01*
X51828231Y-39236133D01*
X51828228Y-39236132D01*
X51828227Y-39236132D01*
X51769758Y-39224501D01*
X51769748Y-39224500D01*
X50030252Y-39224500D01*
X50030251Y-39224500D01*
X50030241Y-39224501D01*
X49971772Y-39236132D01*
X49971766Y-39236134D01*
X49905451Y-39280445D01*
X49905445Y-39280451D01*
X49861134Y-39346766D01*
X49861132Y-39346772D01*
X49849501Y-39405241D01*
X49849500Y-39405253D01*
X49849500Y-39475500D01*
X49830593Y-39533691D01*
X49781093Y-39569655D01*
X49750500Y-39574500D01*
X49113272Y-39574500D01*
X49055081Y-39555593D01*
X49043268Y-39545504D01*
X47382765Y-37885001D01*
X49859692Y-37885001D01*
X49865191Y-37940833D01*
X49865190Y-37940833D01*
X49925232Y-38138762D01*
X49925234Y-38138767D01*
X50022724Y-38321160D01*
X50022731Y-38321170D01*
X50153940Y-38481050D01*
X50153949Y-38481059D01*
X50313829Y-38612268D01*
X50313839Y-38612275D01*
X50496232Y-38709765D01*
X50496237Y-38709767D01*
X50694166Y-38769808D01*
X50749998Y-38775307D01*
X50750000Y-38775306D01*
X50750000Y-38216170D01*
X50757685Y-38219680D01*
X50864237Y-38235000D01*
X50935763Y-38235000D01*
X51042315Y-38219680D01*
X51050000Y-38216170D01*
X51050000Y-38775306D01*
X51050001Y-38775307D01*
X51105833Y-38769808D01*
X51303762Y-38709767D01*
X51303767Y-38709765D01*
X51486160Y-38612275D01*
X51486170Y-38612268D01*
X51488932Y-38610001D01*
X73484692Y-38610001D01*
X73490191Y-38665833D01*
X73490190Y-38665833D01*
X73550232Y-38863762D01*
X73550234Y-38863767D01*
X73647724Y-39046160D01*
X73647731Y-39046170D01*
X73778940Y-39206050D01*
X73778949Y-39206059D01*
X73938829Y-39337268D01*
X73938839Y-39337275D01*
X74121232Y-39434765D01*
X74121237Y-39434767D01*
X74319166Y-39494808D01*
X74374998Y-39500307D01*
X74375000Y-39500306D01*
X74375000Y-38941170D01*
X74382685Y-38944680D01*
X74489237Y-38960000D01*
X74560763Y-38960000D01*
X74667315Y-38944680D01*
X74675000Y-38941170D01*
X74675000Y-39500306D01*
X74675001Y-39500307D01*
X74730833Y-39494808D01*
X74928762Y-39434767D01*
X74928767Y-39434765D01*
X75111160Y-39337275D01*
X75111170Y-39337268D01*
X75271050Y-39206059D01*
X75271059Y-39206050D01*
X75402268Y-39046170D01*
X75402275Y-39046160D01*
X75499765Y-38863767D01*
X75499767Y-38863762D01*
X75559808Y-38665833D01*
X75565307Y-38610001D01*
X75565306Y-38610000D01*
X75002065Y-38610000D01*
X75025000Y-38531889D01*
X75025000Y-38388111D01*
X75002065Y-38310000D01*
X75565306Y-38310000D01*
X75565307Y-38309998D01*
X75559808Y-38254166D01*
X75559809Y-38254166D01*
X75499767Y-38056237D01*
X75499765Y-38056232D01*
X75402275Y-37873839D01*
X75402268Y-37873829D01*
X75271059Y-37713949D01*
X75271050Y-37713940D01*
X75111170Y-37582731D01*
X75111160Y-37582724D01*
X74928767Y-37485234D01*
X74928762Y-37485232D01*
X74730843Y-37425194D01*
X74730832Y-37425191D01*
X74675000Y-37419692D01*
X74675000Y-37978829D01*
X74667315Y-37975320D01*
X74560763Y-37960000D01*
X74489237Y-37960000D01*
X74382685Y-37975320D01*
X74375000Y-37978829D01*
X74375000Y-37419692D01*
X74319167Y-37425191D01*
X74319156Y-37425194D01*
X74121237Y-37485232D01*
X74121232Y-37485234D01*
X73938839Y-37582724D01*
X73938829Y-37582731D01*
X73778949Y-37713940D01*
X73778940Y-37713949D01*
X73647731Y-37873829D01*
X73647724Y-37873839D01*
X73550234Y-38056232D01*
X73550232Y-38056237D01*
X73490191Y-38254166D01*
X73484692Y-38309998D01*
X73484694Y-38310000D01*
X74047935Y-38310000D01*
X74025000Y-38388111D01*
X74025000Y-38531889D01*
X74047935Y-38610000D01*
X73484694Y-38610000D01*
X73484692Y-38610001D01*
X51488932Y-38610001D01*
X51562046Y-38549999D01*
X66600000Y-38549999D01*
X66600001Y-38550000D01*
X67449999Y-38550000D01*
X67450000Y-38549999D01*
X67750000Y-38549999D01*
X67750001Y-38550000D01*
X68599998Y-38550000D01*
X68599999Y-38549999D01*
X68599999Y-37145796D01*
X68597149Y-37115399D01*
X68597149Y-37115397D01*
X68552345Y-36987352D01*
X68471792Y-36878209D01*
X68471790Y-36878207D01*
X68362647Y-36797654D01*
X68234601Y-36752850D01*
X68204211Y-36750000D01*
X67750001Y-36750000D01*
X67750000Y-36750001D01*
X67750000Y-38549999D01*
X67450000Y-38549999D01*
X67450000Y-36750001D01*
X67449999Y-36750000D01*
X66995796Y-36750000D01*
X66965399Y-36752850D01*
X66965397Y-36752850D01*
X66837352Y-36797654D01*
X66728209Y-36878207D01*
X66728207Y-36878209D01*
X66647654Y-36987352D01*
X66602850Y-37115398D01*
X66600000Y-37145788D01*
X66600000Y-38549999D01*
X51562046Y-38549999D01*
X51646050Y-38481059D01*
X51646059Y-38481050D01*
X51777268Y-38321170D01*
X51777275Y-38321160D01*
X51874765Y-38138767D01*
X51874767Y-38138762D01*
X51934808Y-37940833D01*
X51940307Y-37885001D01*
X51940306Y-37885000D01*
X51377065Y-37885000D01*
X51400000Y-37806889D01*
X51400000Y-37663111D01*
X51377065Y-37585000D01*
X51940306Y-37585000D01*
X51940307Y-37584998D01*
X51934808Y-37529166D01*
X51934809Y-37529166D01*
X51874767Y-37331237D01*
X51874765Y-37331232D01*
X51777275Y-37148839D01*
X51777268Y-37148829D01*
X51646059Y-36988949D01*
X51646050Y-36988940D01*
X51486170Y-36857731D01*
X51486160Y-36857724D01*
X51303767Y-36760234D01*
X51303762Y-36760232D01*
X51105843Y-36700194D01*
X51105832Y-36700191D01*
X51050000Y-36694692D01*
X51050000Y-37253829D01*
X51042315Y-37250320D01*
X50935763Y-37235000D01*
X50864237Y-37235000D01*
X50757685Y-37250320D01*
X50750000Y-37253829D01*
X50750000Y-36694692D01*
X50694167Y-36700191D01*
X50694156Y-36700194D01*
X50496237Y-36760232D01*
X50496232Y-36760234D01*
X50313839Y-36857724D01*
X50313829Y-36857731D01*
X50153949Y-36988940D01*
X50153940Y-36988949D01*
X50022731Y-37148829D01*
X50022724Y-37148839D01*
X49925234Y-37331232D01*
X49925232Y-37331237D01*
X49865191Y-37529166D01*
X49859692Y-37584998D01*
X49859694Y-37585000D01*
X50422935Y-37585000D01*
X50400000Y-37663111D01*
X50400000Y-37806889D01*
X50422935Y-37885000D01*
X49859694Y-37885000D01*
X49859692Y-37885001D01*
X47382765Y-37885001D01*
X37969296Y-28471532D01*
X37967716Y-28469878D01*
X37912234Y-28409017D01*
X37846516Y-28359390D01*
X37844723Y-28357970D01*
X37781355Y-28305349D01*
X37781352Y-28305347D01*
X37759966Y-28293435D01*
X37754220Y-28289691D01*
X37734689Y-28274942D01*
X37734681Y-28274938D01*
X37660979Y-28238238D01*
X37658956Y-28237172D01*
X37586988Y-28197086D01*
X37586982Y-28197084D01*
X37563772Y-28189303D01*
X37557434Y-28186678D01*
X37535527Y-28175770D01*
X37456291Y-28153224D01*
X37454107Y-28152548D01*
X37376041Y-28126384D01*
X37376031Y-28126381D01*
X37351795Y-28123000D01*
X37345082Y-28121584D01*
X37321537Y-28114885D01*
X37321534Y-28114884D01*
X37239505Y-28107282D01*
X37237235Y-28107019D01*
X37155675Y-28095643D01*
X37082939Y-28099007D01*
X37073418Y-28099447D01*
X37071140Y-28099500D01*
X34304494Y-28099500D01*
X34138475Y-28114884D01*
X34138464Y-28114885D01*
X33924472Y-28175771D01*
X33924471Y-28175771D01*
X33924469Y-28175772D01*
X33725318Y-28274938D01*
X33725315Y-28274940D01*
X33725311Y-28274942D01*
X33719270Y-28279503D01*
X33661441Y-28299483D01*
X33659610Y-28299500D01*
X33590252Y-28299500D01*
X33590251Y-28299500D01*
X33590241Y-28299501D01*
X33531772Y-28311132D01*
X33531766Y-28311134D01*
X33465451Y-28355445D01*
X33465445Y-28355451D01*
X33421134Y-28421766D01*
X33421132Y-28421772D01*
X33409501Y-28480241D01*
X33409500Y-28480253D01*
X33409500Y-28526496D01*
X33394672Y-28578612D01*
X33280754Y-28762596D01*
X33280753Y-28762598D01*
X33200381Y-28970062D01*
X33159500Y-29188757D01*
X33159500Y-29411243D01*
X29000500Y-29411243D01*
X29000500Y-26230002D01*
X29945233Y-26230002D01*
X29964273Y-26484076D01*
X29964275Y-26484086D01*
X30020970Y-26732487D01*
X30020970Y-26732489D01*
X30114055Y-26969664D01*
X30114064Y-26969683D01*
X30241451Y-27190322D01*
X30241461Y-27190337D01*
X30346195Y-27321670D01*
X30734794Y-26933070D01*
X30871931Y-27083501D01*
X30949814Y-27142316D01*
X30557111Y-27535020D01*
X30587088Y-27562835D01*
X30797624Y-27706375D01*
X31027176Y-27816922D01*
X31270649Y-27892023D01*
X31270659Y-27892025D01*
X31522599Y-27929999D01*
X31522608Y-27930000D01*
X31777392Y-27930000D01*
X31777400Y-27929999D01*
X32029340Y-27892025D01*
X32029350Y-27892023D01*
X32272823Y-27816921D01*
X32502376Y-27706375D01*
X32712908Y-27562838D01*
X32742887Y-27535020D01*
X32350184Y-27142317D01*
X32428069Y-27083501D01*
X32565204Y-26933071D01*
X32953803Y-27321670D01*
X33058543Y-27190330D01*
X33058548Y-27190322D01*
X33185935Y-26969683D01*
X33185944Y-26969664D01*
X33279029Y-26732489D01*
X33279029Y-26732487D01*
X33335724Y-26484086D01*
X33335726Y-26484076D01*
X33354767Y-26230002D01*
X33354767Y-26229997D01*
X33335726Y-25975923D01*
X33335724Y-25975913D01*
X33279029Y-25727512D01*
X33279029Y-25727510D01*
X33185944Y-25490335D01*
X33185935Y-25490316D01*
X33058548Y-25269677D01*
X33058538Y-25269662D01*
X32953803Y-25138328D01*
X32565203Y-25526927D01*
X32428069Y-25376499D01*
X32350183Y-25317681D01*
X32742887Y-24924978D01*
X32712907Y-24897161D01*
X32502376Y-24753624D01*
X32272823Y-24643078D01*
X32029350Y-24567976D01*
X32029340Y-24567974D01*
X31777400Y-24530000D01*
X31522599Y-24530000D01*
X31270659Y-24567974D01*
X31270649Y-24567976D01*
X31027176Y-24643077D01*
X30797624Y-24753624D01*
X30587092Y-24897161D01*
X30587084Y-24897167D01*
X30557111Y-24924978D01*
X30949815Y-25317682D01*
X30871931Y-25376499D01*
X30734795Y-25526928D01*
X30346196Y-25138329D01*
X30241455Y-25269670D01*
X30241451Y-25269677D01*
X30114064Y-25490316D01*
X30114055Y-25490335D01*
X30020970Y-25727510D01*
X30020970Y-25727512D01*
X29964275Y-25975913D01*
X29964273Y-25975923D01*
X29945233Y-26229997D01*
X29945233Y-26230002D01*
X29000500Y-26230002D01*
X29000500Y-20334929D01*
X30599500Y-20334929D01*
X30639720Y-20601772D01*
X30719262Y-20859641D01*
X30836349Y-21102774D01*
X30988365Y-21325741D01*
X30988368Y-21325744D01*
X30988370Y-21325747D01*
X31171912Y-21523559D01*
X31171918Y-21523565D01*
X31382889Y-21691808D01*
X31382898Y-21691815D01*
X31616602Y-21826743D01*
X31867805Y-21925334D01*
X32130897Y-21985383D01*
X32211587Y-21991429D01*
X32332618Y-22000500D01*
X32332624Y-22000500D01*
X32467382Y-22000500D01*
X32577408Y-21992254D01*
X32669103Y-21985383D01*
X32932195Y-21925334D01*
X33183398Y-21826743D01*
X33417102Y-21691815D01*
X33508589Y-21618855D01*
X33628081Y-21523565D01*
X33628087Y-21523559D01*
X33811629Y-21325747D01*
X33811635Y-21325741D01*
X33963651Y-21102775D01*
X34080738Y-20859641D01*
X34160280Y-20601772D01*
X34200500Y-20334929D01*
X73799500Y-20334929D01*
X73839720Y-20601772D01*
X73919262Y-20859641D01*
X74036349Y-21102774D01*
X74188365Y-21325741D01*
X74188368Y-21325744D01*
X74188370Y-21325747D01*
X74371912Y-21523559D01*
X74371918Y-21523565D01*
X74582889Y-21691808D01*
X74582898Y-21691815D01*
X74816602Y-21826743D01*
X75067805Y-21925334D01*
X75330897Y-21985383D01*
X75411587Y-21991429D01*
X75532618Y-22000500D01*
X75532624Y-22000500D01*
X75667382Y-22000500D01*
X75777408Y-21992254D01*
X75869103Y-21985383D01*
X76132195Y-21925334D01*
X76383398Y-21826743D01*
X76617102Y-21691815D01*
X76708589Y-21618855D01*
X76828081Y-21523565D01*
X76828087Y-21523559D01*
X77011629Y-21325747D01*
X77011635Y-21325741D01*
X77163651Y-21102775D01*
X77280738Y-20859641D01*
X77360280Y-20601772D01*
X77400500Y-20334929D01*
X77400500Y-20065071D01*
X77360280Y-19798228D01*
X77280738Y-19540359D01*
X77163651Y-19297226D01*
X77011635Y-19074259D01*
X77011629Y-19074252D01*
X76828087Y-18876440D01*
X76828081Y-18876434D01*
X76617110Y-18708191D01*
X76617108Y-18708189D01*
X76617102Y-18708185D01*
X76383398Y-18573257D01*
X76383395Y-18573256D01*
X76383391Y-18573254D01*
X76132197Y-18474666D01*
X75869107Y-18414618D01*
X75869098Y-18414616D01*
X75667382Y-18399500D01*
X75667376Y-18399500D01*
X75532624Y-18399500D01*
X75532618Y-18399500D01*
X75330901Y-18414616D01*
X75330892Y-18414618D01*
X75067802Y-18474666D01*
X74816608Y-18573254D01*
X74816599Y-18573258D01*
X74696344Y-18642687D01*
X74582898Y-18708185D01*
X74582894Y-18708187D01*
X74582894Y-18708188D01*
X74582889Y-18708191D01*
X74371918Y-18876434D01*
X74371912Y-18876440D01*
X74188370Y-19074252D01*
X74188365Y-19074258D01*
X74188365Y-19074259D01*
X74036349Y-19297225D01*
X74036349Y-19297226D01*
X74036345Y-19297232D01*
X73919262Y-19540356D01*
X73839721Y-19798223D01*
X73839719Y-19798233D01*
X73799500Y-20065067D01*
X73799500Y-20065071D01*
X73799500Y-20334929D01*
X34200500Y-20334929D01*
X34200500Y-20065071D01*
X34160280Y-19798228D01*
X34080738Y-19540359D01*
X33963651Y-19297226D01*
X33811635Y-19074259D01*
X33811629Y-19074252D01*
X33628087Y-18876440D01*
X33628081Y-18876434D01*
X33417110Y-18708191D01*
X33417108Y-18708189D01*
X33417102Y-18708185D01*
X33183398Y-18573257D01*
X33183395Y-18573256D01*
X33183391Y-18573254D01*
X32932197Y-18474666D01*
X32669107Y-18414618D01*
X32669098Y-18414616D01*
X32467382Y-18399500D01*
X32467376Y-18399500D01*
X32332624Y-18399500D01*
X32332618Y-18399500D01*
X32130901Y-18414616D01*
X32130892Y-18414618D01*
X31867802Y-18474666D01*
X31616608Y-18573254D01*
X31616599Y-18573258D01*
X31496344Y-18642687D01*
X31382898Y-18708185D01*
X31382894Y-18708187D01*
X31382894Y-18708188D01*
X31382889Y-18708191D01*
X31171918Y-18876434D01*
X31171912Y-18876440D01*
X30988370Y-19074252D01*
X30988365Y-19074258D01*
X30988365Y-19074259D01*
X30836349Y-19297225D01*
X30836349Y-19297226D01*
X30836345Y-19297232D01*
X30719262Y-19540356D01*
X30639721Y-19798223D01*
X30639719Y-19798233D01*
X30599500Y-20065067D01*
X30599500Y-20065071D01*
X30599500Y-20334929D01*
X29000500Y-20334929D01*
X29000500Y-16899500D01*
X29019407Y-16841309D01*
X29068907Y-16805345D01*
X29099500Y-16800500D01*
X78900500Y-16800500D01*
X78958691Y-16819407D01*
G37*
%TD.AperFunction*%
%TD*%
M02*
